/* XPM */
static const char * acceptable_xpm[] = {
"20 20 34 1",
" 	c None",
".	c #DCAE00",
"+	c #DCAF11",
"@	c #E2BD6C",
"#	c #DFB755",
"$	c #EBD3AA",
"%	c #FFFFFF",
"&	c #FFFEFE",
"*	c #DEB239",
"=	c #DDB020",
"-	c #EAD0A2",
";	c #E8CD9A",
">	c #FEFDFC",
",	c #E7CA91",
"'	c #FEFCFA",
")	c #E5C688",
"!	c #FDFBF8",
"~	c #E5C483",
"{	c #FCF9F5",
"]	c #E4C380",
"^	c #FBF7F1",
"/	c #E4C27B",
"(	c #FAF5ED",
"_	c #DCAF12",
":	c #E3C076",
"<	c #E1BA61",
"[	c #E4C37E",
"}	c #F9F2E8",
"|	c #F6ECDC",
"1	c #DCAF1E",
"2	c #EDD8B3",
"3	c #F7EEE0",
"4	c #F3E6D1",
"5	c #DCAF13",
"       ......       ",
"     ..........     ",
"   .....+@#......   ",
"  ......$%&*......  ",
"  ......$%%=......  ",
" .......-%&........ ",
" .......;%>........ ",
"........,%'.........",
"........)%!.........",
"........~%{.........",
"........]%^.........",
"......../%(.........",
"........_:<.........",
" .......[}|1....... ",
" .......2%%<....... ",
"  ......:345......  ",
"  ................  ",
"   ..............   ",
"     ..........     ",
"       ......       "};
