/* XPM */
static const char * crashed_xpm[] = {
"20 20 24 1",
" 	c None",
".	c #000000",
"+	c #9D9D9D",
"@	c #DFDFDF",
"#	c #CDCDCD",
"$	c #CFCFCF",
"%	c #DEDEDE",
"&	c #9A9A9A",
"*	c #E2E2E2",
"=	c #FEFEFE",
"-	c #FFFFFF",
";	c #E0E0E0",
">	c #E3E3E3",
",	c #D5D5D5",
"'	c #D2D2D2",
")	c #E1E1E1",
"!	c #E4E4E4",
"~	c #E5E5E5",
"{	c #DDDDDD",
"]	c #D7D7D7",
"^	c #DCDCDC",
"/	c #D1D1D1",
"(	c #9B9B9B",
"_	c #CECECE",
"       ......       ",
"     ..........     ",
"   ..............   ",
"  ................  ",
"  ..+@#......$%&..  ",
" ...*=-;....>--%... ",
" ...,---%..>---'... ",
".....>---@*--=@.....",
"......)-----=@......",
".......!----@.......",
".......!----;.......",
"......~-----=)......",
".....!--={*---;.....",
" ...]=--^..)---/... ",
" ...)--%....;--%... ",
"  ..(%#......_^&..  ",
"  ................  ",
"   ..............   ",
"     ..........     ",
"       ......       "};
