/* XPM */
static const char * outofdate2_xpm[] = {
"20 20 2 1",
" 	c None",
".	c #007CFF",
"                    ",
"                    ",
"                    ",
"                    ",
"                    ",
"                    ",
"                    ",
"                    ",
"                    ",
"   .....            ",
"  .......           ",
" .........          ",
"...... ....         ",
"...... ....         ",
"...... ....         ",
"....   ....         ",
"...........         ",
" .........          ",
"  .......           ",
"   .....            "};
