/* XPM */
static const char * pending_xpm[] = {
"32 32 48 1",
" 	c None",
".	c #CACDCF",
"+	c #D0D3D5",
"@	c #CED0D3",
"#	c #C8CBCE",
"$	c #D4D6D8",
"%	c #CCCFD1",
"&	c #C6C9CC",
"*	c #D3D5D8",
"=	c #CACDD0",
"-	c #E1E2E4",
";	c #DEE0E1",
">	c #FFFFFF",
",	c #CBCED0",
"'	c #D0D2D4",
")	c #CFD1D3",
"!	c #CCCED1",
"~	c #D2D4D6",
"{	c #D0D2D5",
"]	c #D1D3D6",
"^	c #D6D8DA",
"/	c #D3D5D7",
"(	c #D7D9DB",
"_	c #DADBDD",
":	c #D5D7D9",
"<	c #DBDDDF",
"[	c #DDDFE1",
"}	c #E0E1E3",
"|	c #D8DADC",
"1	c #E2E3E5",
"2	c #EEEFF0",
"3	c #E4E5E7",
"4	c #F4F5F5",
"5	c #E3E5E6",
"6	c #DADCDE",
"7	c #F6F7F7",
"8	c #DFE1E2",
"9	c #DCDEDF",
"0	c #F2F3F4",
"a	c #FBFBFB",
"b	c #DFE0E2",
"c	c #D2D4D7",
"d	c #E1E3E4",
"e	c #E5E6E7",
"f	c #F0F0F1",
"g	c #FCFCFD",
"h	c #EEEEEF",
"i	c #C7CACD",
"            .+@##@+.            ",
"         $%&&&&&&&&&&%*         ",
"        =&&&&&&&&&&&&&&=        ",
"      %&&&&&&&&-;&&&&&&&&%      ",
"     &&&&&&&&&%>>,&&&&&&&&&     ",
"    &&&&&&&&&&'>>)&&&&&&&&&&    ",
"   !&&&&&&&&&&~>>{&&&&&&&&&&%   ",
"   &&&&&&&&&&&$>>]&&&&&&&&&&&   ",
"  =&&&&&&&&&&&^>>/&&&&&&&&&&&=  ",
" *&&&&&&&&&&&&(>>$&&&&&&&&&&&&* ",
" %&&&&&&&&&&&&_>>:&&&&&&&&&&&&% ",
" &&&&&&&&&&&&&<>>^&&&&&&&&&&&&& ",
".&&&&&&&&&&&&&[>>(&&&&&&&&&&&&&.",
"+&&&&&&&&&&&&&}>>|&&&&&&&&&&&&&+",
"@&&&&&&&&&&&&&1>>2{&&&&&&&&&&&&@",
"#&&&&&&&&&&&&&3>>>>45=&&&&&&&&&#",
"#&&&&&&&&&&&&&6>>>>>>>78{&&&&&&#",
"@&&&&&&&&&&&&&&90a>>>>>>>b&&&&&@",
"+&&&&&&&&&&&&&&&&&cdefg>>h&&&&&+",
".&&&&&&&&&&&&&&&&&&&&&i/^,&&&&&.",
" &&&&&&&&&&&&&&&&&&&&&&&&&&&&&& ",
" %&&&&&&&&&&&&&&&&&&&&&&&&&&&&% ",
" *&&&&&&&&&&&&&&&&&&&&&&&&&&&&$ ",
"  =&&&&&&&&&&&&&&&&&&&&&&&&&&=  ",
"   &&&&&&&&&&&&&&&&&&&&&&&&&&   ",
"   %&&&&&&&&&&&&&&&&&&&&&&&&%   ",
"    &&&&&&&&&&&&&&&&&&&&&&&&    ",
"     &&&&&&&&&&&&&&&&&&&&&&     ",
"      %&&&&&&&&&&&&&&&&&&%      ",
"        =&&&&&&&&&&&&&&=        ",
"         $%&&&&&&&&&&%*         ",
"            .+@##@+.            "};
