/* XPM */
static const char * progress_4_xpm[] = {
"64 64 74 1",
" 	c None",
".	c #595959",
"+	c #5C5C5C",
"@	c #5A5A5A",
"#	c #5B5B5B",
"$	c #585858",
"%	c #575757",
"&	c #434343",
"*	c #424242",
"=	c #717171",
"-	c #727272",
";	c #737373",
">	c #565656",
",	c #545454",
"'	c #484848",
")	c #474747",
"!	c #464646",
"~	c #494949",
"{	c #454545",
"]	c #444444",
"^	c #555555",
"/	c #747474",
"(	c #707070",
"_	c #757575",
":	c #8C8C8C",
"<	c #8B8B8B",
"[	c #2D2D2D",
"}	c #333333",
"|	c #8D8D8D",
"1	c #313131",
"2	c #323232",
"3	c #8A8A8A",
"4	c #8F8F8F",
"5	c #767676",
"6	c #5D5D5D",
"7	c #303030",
"8	c #2F2F2F",
"9	c #8E8E8E",
"0	c #404040",
"a	c #909090",
"b	c #2E2E2E",
"c	c #1C1C1C",
"d	c #1B1B1B",
"e	c #1A1A1A",
"f	c #A5A5A5",
"g	c #A8A8A8",
"h	c #A6A6A6",
"i	c #A9A9A9",
"j	c #A7A7A7",
"k	c #202020",
"l	c #212121",
"m	c #1E1E1E",
"n	c #272727",
"o	c #222222",
"p	c #1D1D1D",
"q	c #1F1F1F",
"r	c #C2C2C2",
"s	c #C1C1C1",
"t	c #C0C0C0",
"u	c #050505",
"v	c #030303",
"w	c #010101",
"x	c #020202",
"y	c #040404",
"z	c #000000",
"A	c #0A0A0A",
"B	c #060606",
"C	c #080808",
"D	c #DDDDDD",
"E	c #DEDEDE",
"F	c #DBDBDB",
"G	c #DCDCDC",
"H	c #090909",
"I	c #DADADA",
"                              .++@                              ",
"                             #####$                             ",
"                            .#####@                             ",
"                            %######          &**                ",
"               =-;;;        >######,       ')!!)~               ",
"               ;;;;;;       >######>       {!!!!!)              ",
"              -;;;;;;       >######>      )!!!!!!]              ",
"              -;;;;;;-      >######^      !!!!!!!*              ",
"              /;;;;;;;      ^######>     !!!!!!!)               ",
"               -;;;;;;;     >######%    !!!!!!!!!               ",
"               -;;;;;;;(    >######     !!!!!!!{                ",
"                ;;;;;;;-    ^######    {!!!!!!!)                ",
"                _;;;;;;;;   >@#####    )!!!!!!!                 ",
"                 ;;;;;;;;   %######   )!!!!!!!{                 ",
"      :<          /;;;;;;=  %######>  !!!!!!!)          [}      ",
"    |<<<<|        -;;;;;;-  $######  ]!!!!!!)         12111     ",
"    3<<<<<34       ;;;;;;;5  #####6  ]!!!!!{!       12111178    ",
"    <<<<<<<<:9     /;;;;;;-   @#++   {!!!!!{      2211111111    ",
"    <<<<<<<<<<<     ;;;;;;            )!!!!*    8}1111111111    ",
"    <<<<<<<<<<<<|    -;;;/             {)]0    }211111111111    ",
"     <<<<<<<<<<<<:<   -=                     1111111111111}     ",
"      <<<<<<<<<<<<<a                        1111111111111[      ",
"        3<<<<<<<<<<<                        111111111127        ",
"          <<<<<<<<<<                       b1111111128          ",
"           ::<<<<<<<                        21111117[           ",
"             :<<<<<3                        2211221             ",
"               |3:9                          8778               ",
"                                                                ",
"                                                 cde    eeee    ",
"  ffggfhijfjihfhi                              kkkkkkkkkkkkkklm ",
" fhhhhhhhhhhhhhhhj                            ckkkkkkkkkkkkkkkkd",
"jhhhhhhhhhhhhhhhhh                            lkkkkkkkkkkkkkkkkl",
"fhhhhhhhhhhhhhhhhh                            kkkkkkkkkkkkkkkkkk",
"hhhhhhhhhhhhhhhhhh                            lkkkkkkkkkkkkkkkkk",
" fhhhhhhhhhhhhhhhh                            nkkkkkkkkkkkkkkko ",
"  hhhhjhhhhhhhhhj                               pmqqmmmqqmmqkm  ",
"                                                                ",
"                                                                ",
"               rst                           uvwx               ",
"             ssssst                         yzzzzwv             ",
"            ssssssss                        wzzzzzwvy           ",
"          ssssssssss                       yzzzzzzzzwyA         ",
"        ssssssssssss                        wzzzzzzzzwxu        ",
"       sssssssssssrr                        BwzzzzzzzzzwvC      ",
"     tssssssssssss     D                     yvzzzzzzzzzzzu     ",
"    rsssssssssss     DEDDF             DDD     xxzzzzzzzzzwy    ",
"   tsssssssssss     DDDDDD    DDDD    DDDDD      yxzzzzzzzzz    ",
"    sssssssss      DDDDDDDG  DDDDDD  EDDDDDD      Hywzzzzzzw    ",
"    sssssss        DDDDDDDE  DDDDDD  DDDDDDDE       Bvzzzzzy    ",
"     sssss        DDDDDDDD  DDDDDDD  DDDDDDDD         uxzwu     ",
"                  DDDDDDDG  FDDDDDD   DDDDDDDG          xu      ",
"                 DDDDDDDG   GDDDDDD   GDDDDDDDI                 ",
"                 DDDDDDD    GDDDDDD    DDDDDDDG                 ",
"                GDDDDDDG    EDDDDDD     DDDDDDDD                ",
"               GDDDDDDD     FDDDDDD     GDDDDDDD                ",
"               DDDDDDDD     DDDDDDD      DDDDDDDD               ",
"              GDDDDDDE      EDDDDDD      FDDDDDDD               ",
"              DDDDDDDG      EDDDDDD       DDDDDDDG              ",
"              DDDDDDD       GDDDDDD       FDDDDDDD              ",
"               DDDDG        GDDDDDD        DDDDDD               ",
"                GDD         EDDDDDD         DGDDI               ",
"                             DDDDDD                             ",
"                             EDDDD                              ",
"                               DG                               "};
