/* XPM */
static const char * progress_8_xpm[] = {
"64 64 76 1",
" 	c None",
".	c #C0C0C0",
"+	c #C1C1C1",
"@	c #C2C2C2",
"#	c #DDDDDD",
"$	c #DCDCDC",
"%	c #A6A6A6",
"&	c #DEDEDE",
"*	c #A5A5A5",
"=	c #A7A7A7",
"-	c #A8A8A8",
";	c #A9A9A9",
">	c #A3A3A3",
",	c #8F8F8F",
"'	c #8B8B8B",
")	c #8A8A8A",
"!	c #898989",
"~	c #DBDBDB",
"{	c #8C8C8C",
"]	c #909090",
"^	c #8E8E8E",
"/	c #8D8D8D",
"(	c #939393",
"_	c #DFDFDF",
":	c #737373",
"<	c #727272",
"[	c #747474",
"}	c #717171",
"|	c #757575",
"1	c #707070",
"2	c #777777",
"3	c #6F6F6F",
"4	c #040404",
"5	c #030303",
"6	c #010101",
"7	c #080808",
"8	c #575757",
"9	c #5C5C5C",
"0	c #5B5B5B",
"a	c #585858",
"b	c #000000",
"c	c #5A5A5A",
"d	c #070707",
"e	c #595959",
"f	c #565656",
"g	c #060606",
"h	c #020202",
"i	c #5D5D5D",
"j	c #050505",
"k	c #0A0A0A",
"l	c #242424",
"m	c #1E1E1E",
"n	c #1B1B1B",
"o	c #202020",
"p	c #222222",
"q	c #474747",
"r	c #464646",
"s	c #434343",
"t	c #454545",
"u	c #090909",
"v	c #1F1F1F",
"w	c #323232",
"x	c #333333",
"y	c #313131",
"z	c #2F2F2F",
"A	c #303030",
"B	c #0C0C0C",
"C	c #444444",
"D	c #1D1D1D",
"E	c #1C1C1C",
"F	c #424242",
"G	c #2E2E2E",
"H	c #343434",
"I	c #373737",
"J	c #484848",
"K	c #2D2D2D",
"                             .++++                              ",
"                            .+++++@                             ",
"                            .++++++                             ",
"                #$          ++++++.                             ",
"              $$####        ++++++@        %%%%%                ",
"              &#####        +++++++       *%%%%%%               ",
"              ######&       +++++++       =%%%%%*               ",
"              $######       +++++++      *%%%%%%*               ",
"              ########      .++++++      %%%%%%%*               ",
"               #######$     @+++++.     -%%%%%%%                ",
"               #######$     +++++++    *%%%%%%%=                ",
"                &#######    +++++++    *%%%%%%%                 ",
"                ########    +++++++   ;%%%%%%%=                 ",
"                 &#######   +++++++   %%%%%%%=                  ",
"       $$         ########  @+++++.  >%%%%%%%         ,')'!     ",
"     #####$       ~######&  @++++++  %%%%%%%*        !'''''{    ",
"    ~#######       $######   @++.+  ;%%%%%%%       ])'''''''    ",
"    $#########     #######          ;%%%%%%%     ,'''''''''{    ",
"    $###########    #####            %%%%%%     ^'''''''''''    ",
"     ############~   ~#$             %*%%*    ]'''''''''''')    ",
"     $#############                         )''''''''''''//     ",
"       #############                        )'''''''''''(       ",
"         $##########_                      /'''''''''{'         ",
"           #########$                      ^'''''''''           ",
"            &######&                        ''''''^'            ",
"              $####$                        ^'''{/              ",
"                $#                            ']                ",
"                                                                ",
"$#######$######$                                :<[[<}:|}<[1:2  ",
"################                               :::::::::::::::: ",
"################&                             <:::::::::::::::::",
"################&                             ::::::::::::::::::",
"################$                             :::::::::::::::::}",
"################                              :::::::::::::::::3",
" $#&$#~$$$$&$$                                 }:<<:<:::[:::::[ ",
"                                                                ",
"                                                                ",
"              45667                          890a               ",
"            45bbbb6                         cc000ca             ",
"           46bbbbb6d                        000000cef           ",
"         ghbbbbbbbbg                       i00000000ce          ",
"       j5bbbbbbbbbb5                        900000000008        ",
"     k56bbbbbbbbbbh                         c0000000000cc8      ",
"    j6bbbbbbbbbb65    lm                     ac00000000000c     ",
"   5bbbbbbbbbbb5    noooop             qqqrs   e00000000000c    ",
"   4bbbbbbbb6gj     oooooo            trrrrq    fc0000000009    ",
"   dbbbbbbb5u      vooooooo   wxyz    rrrrrqt     f000000009    ",
"   ghbbbbhj        oooooooo  AyyyyA   qrrrrrq       f0000000    ",
"    hb65jB        mooooooo  AyyyyyA   rrrrrrrC        a0000     ",
"      k          noooooooD  yyyyyyy   Crrrrrrqr        00a      ",
"                 vooooooo   yyyyyyy    rrrrrrrC                 ",
"                moooooooE   zyyyyyy    CtrrrrrrF                ",
"                voooooom    Gyyyyyw     qrrrrrrq                ",
"               moooooooE    Gwyyyyyy     qrrrrrrt               ",
"              DoooooooD     zyyyyyy      rrrrrrrrC              ",
"              pooooooo      AyyyyyyH      rrrrrrrq              ",
"              ooooooom      AyyyyyyI      JrrrrrrJ              ",
"              looooov       zyyyyyyw       qrrrrrt              ",
"               ooooom       yyyyyyy        rrrrrrC              ",
"                ovoE        zyyyyyyG        sqrqC               ",
"                            xyyyyyy                             ",
"                            yyyyyyy                             ",
"                             zyyyyA                             ",
"                              zKGy                              "};
