/* XPM */
static const char * progress_6_xpm[] = {
"64 64 75 1",
" 	c None",
".	c #898989",
"+	c #8B8B8B",
"@	c #8E8E8E",
"#	c #8C8C8C",
"$	c #8D8D8D",
"%	c #8A8A8A",
"&	c #A7A7A7",
"*	c #A6A6A6",
"=	c #717171",
"-	c #737373",
";	c #747474",
">	c #A5A5A5",
",	c #767676",
"'	c #727272",
")	c #A3A3A3",
"!	c #A4A4A4",
"~	c #A8A8A8",
"{	c #757575",
"]	c #AAAAAA",
"^	c #C2C2C2",
"/	c #C3C3C3",
"(	c #585858",
"_	c #5B5B5B",
":	c #5A5A5A",
"<	c #C0C0C0",
"[	c #C1C1C1",
"}	c #575757",
"|	c #595959",
"1	c #BFBFBF",
"2	c #515151",
"3	c #5E5E5E",
"4	c #5C5C5C",
"5	c #555555",
"6	c #434343",
"7	c #464646",
"8	c #454545",
"9	c #474747",
"0	c #444444",
"a	c #484848",
"b	c #424242",
"c	c #DDDDDD",
"d	c #DCDCDC",
"e	c #DEDEDE",
"f	c #414141",
"g	c #DFDFDF",
"h	c #2D2D2D",
"i	c #323232",
"j	c #303030",
"k	c #DBDBDB",
"l	c #313131",
"m	c #343434",
"n	c #333333",
"o	c #1E1E1E",
"p	c #2E2E2E",
"q	c #1F1F1F",
"r	c #202020",
"s	c #212121",
"t	c #1D1D1D",
"u	c #1B1B1B",
"v	c #2F2F2F",
"w	c #040404",
"x	c #030303",
"y	c #080808",
"z	c #070707",
"A	c #010101",
"B	c #000000",
"C	c #050505",
"D	c #1C1C1C",
"E	c #1A1A1A",
"F	c #020202",
"G	c #191919",
"H	c #DADADA",
"I	c #060606",
"J	c #222222",
"                              .++@                              ",
"                             +++++#                             ",
"                            $+++++%                             ",
"                            +++++++                             ",
"                &*          %++++++         =-;=                ",
"               ****>        .+++++#        ,----'               ",
"              ******&       #++++++       '-------              ",
"              *******       %++++++       '-------              ",
"              *******)      ++++++#      --------               ",
"              !*******      +++++++      -------'               ",
"               *******~     #++++++     ;-------                ",
"               ********>    $+++++#    =-------{                ",
"                >******>    @++++++    -------;                 ",
"                ]*******~   $++++++   ;--------                 ",
"     ^/          >*******   $++++++   '------'         (_:      ",
"    <[[[<         *******!  %+++++%  =-------'       }:____     ",
"   [[[[[[^[       &******>   +++++$  {------;      }|:______    ",
"   [[[[[[[[^<      *******    $#++   '-----'      (:_______|    ",
"   <[[[[[[[[[<     )******           =-----;    (:_________(    ",
"   1[[[[[[[[[[[[    &****~            ,'-;;   }:____________    ",
"    <[[[[[[[[[[[[^   &**)                    _____________}     ",
"      [[[[[[[[[[[[[                         ____________|       ",
"        [[[[[[[[[[[<                       (__________|2        ",
"          [[[[[[[[[[                       |________|}          ",
"           [[[[[[[[                         _______(            ",
"             ^[[[[[                         _____(              ",
"               ^^[                           34:5               ",
"                                                                ",
"                                                678778960a7969b ",
" cccccccdccccccc                               97777777777777776",
"cccccccccccccccce                             f97777777777777777",
"ccccccccccccccccc                             997777777777777777",
"ccccccccccccccccc                             877777777777777777",
"ccccccccccccccccc                              7777777777777777a",
"cccccccccccccccd                               b889897797977970 ",
"  dgdccdecdddcc                                                 ",
"                                                                ",
"               edec                          hij                ",
"             kdccccd                        jlllii              ",
"            cccccccc                       illllllij            ",
"          kcccccccccd                      lillllllimn          ",
"        eecccccccccc                       jllllllllllml        ",
"       dcccccccccccd                        lllllllllllln       ",
"     cccccccccccccd                     o    illllllllllljp     ",
"    cccccccccccce    ece              qrrsr   ljlllllllllllh    ",
"    dcccccccccc    eccccc            trrrrru    villlllllllj    ",
"    ccccccccce     cccccc     wxy    rrrrrrr      jlllllllll    ",
"    cccccccd      ccccccc   zABAAw   rrrrrrro      jjllllllj    ",
"     ccccc        ccccccc   CBBBBBx  DrrrrrrrE       lillll     ",
"                 cccccccd   wBBBBBF   rrrrrrrq         ivj      ",
"                dccccccc    xBBBBBx   qrrrrrrrD                 ",
"                dccccccc    FBBBBBx    qrrrrrrr                 ",
"               kccccccd     ABBBBBw    urrrrrrru                ",
"               cccccccc     FBBBBBF     qrrrrrrr                ",
"              dccccccc      FBBBBBw     Grrrrrrrq               ",
"              cccccccH      wBBBBBC      orrrrrrs               ",
"             dccccccd       FBBBBBz       rrrrrrro              ",
"             dcccccc        FBBBBBC       Drrrrrrr              ",
"             ceccccc        FBBBBBC        rrrrrq               ",
"              dcccc         FBBBBBI         oJrr                ",
"               kdc          xBBBBBw                             ",
"                            xBBBBBC                             ",
"                            FBBBBAz                             ",
"                             wFABx                              "};
