/* XPM */
static const char * progress_1_xpm[] = {
"64 64 66 1",
" 	c None",
".	c #1C1C1C",
"+	c #222222",
"@	c #202020",
"#	c #1E1E1E",
"$	c #212121",
"%	c #1F1F1F",
"&	c #313131",
"*	c #1B1B1B",
"=	c #040404",
"-	c #000000",
";	c #010101",
">	c #323232",
",	c #1A1A1A",
"'	c #050505",
")	c #2E2E2E",
"!	c #060606",
"~	c #2D2D2D",
"{	c #030303",
"]	c #020202",
"^	c #2F2F2F",
"/	c #303030",
"(	c #080808",
"_	c #474747",
":	c #434343",
"<	c #424242",
"[	c #333333",
"}	c #DCDCDC",
"|	c #DDDDDD",
"1	c #464646",
"2	c #1D1D1D",
"3	c #DADADA",
"4	c #454545",
"5	c #DEDEDE",
"6	c #252525",
"7	c #414141",
"8	c #DBDBDB",
"9	c #444444",
"0	c #555555",
"a	c #565656",
"b	c #575757",
"c	c #595959",
"d	c #5B5B5B",
"e	c #5C5C5C",
"f	c #5A5A5A",
"g	c #585858",
"h	c #737373",
"i	c #727272",
"j	c #747474",
"k	c #717171",
"l	c #8F8F8F",
"m	c #8B8B8B",
"n	c #8A8A8A",
"o	c #C1C1C1",
"p	c #C2C2C2",
"q	c #8D8D8D",
"r	c #8C8C8C",
"s	c #A7A7A7",
"t	c #A6A6A6",
"u	c #767676",
"v	c #A9A9A9",
"w	c #BFBFBF",
"x	c #A5A5A5",
"y	c #8E8E8E",
"z	c #C0C0C0",
"A	c #A8A8A8",
"                              .+@+                              ",
"                             #@@@@$                             ",
"                             @@@@@@#                            ",
"                             @@@@@@%                            ",
"                &&&&        *@@@@@@%         =-;=               ",
"               &&&&&>       ,@@@@@@#        ';---'              ",
"              >&&&&&>)      ,@@@@@@#       !;----;'             ",
"              ~&&&&&&&      ,@@@@@@%       {------]             ",
"              ^&&&&&&&>     ,@@@@@@#      ';-----]              ",
"               /&&&&&&>     ,@@@@@@#     (]------'              ",
"                &&&&&&&^    ,@@@@@@#     =;-----{               ",
"                ^&&&&&&>)   ,@@@@@@#    {;-----;'               ",
"                 >&&&&&&&   ,@@@@@@#    {------'                ",
"                 /&&&&&&&&  *@@@@@@%   {;-----](                ",
"     _:<          [&&&&&&&  *@@@@@@#   ]------=          }|     ",
"    _111_1        ^&&&&&&&^  @@@@@@2  ]------]         |||||3   ",
"   411111111       >&&&&&&&  %@@@@$   ;------=       }||||||5   ",
"   <111111111<      &&&&&&/   %$@$6   {-----{       }||||||||   ",
"   <11111111111     /&&&&&/           '----;=     }||||||||||   ",
"    1111111111111    &&&>&             =;-]!    |||||||||||||   ",
"    111111111111111    )                 '     |||||||||||||    ",
"      11111111111117                          ||||||||||||8     ",
"        111111111119                         |||||||||||8       ",
"         __111111111                         |||||||||}         ",
"           :11111114                         ||||||||           ",
"             111111                           |||||}            ",
"               994                             5|5              ",
"                                                                ",
"    0ab0ab  aba                                                 ",
" cdddddddddddddde                              |||||||||||||||  ",
"fddddddddddddddddd                            ||||||||||||||||| ",
"dddddddddddddddddd                            ||||||||||||||||||",
"eddddddddddddddddd                            5||||||||||||||||}",
"cddddddddddddddddd                            ||||||||||||||||| ",
" eddddddddddddddd                              |||||||||||||||| ",
"  gaaaa00aa0abbg                                 |8}}58|55}}5   ",
"                                                                ",
"                hh                             |5               ",
"              ihhhhj                         }|||||             ",
"            jhhhhhhh                         |||||||            ",
"          hihhhhhhhhk                       ||||||||||          ",
"         hhhhhhhhhhhh                        5||||||||||        ",
"       jhhhhhhhhhhhi                         ||||||||||||}      ",
"     ihhhhhhhhhhhhh                           |||||||||||||     ",
"    jhhhhhhhhhhhhj   lmmmn              ooop   |||||||||||||    ",
"    hhhhhhhhhhhh    mmmmmmq            oooop     }||||||||||}   ",
"    hhhhhhhhhh      mmmmmmr   sttts   ooooooo      ||||||||||   ",
"    ihhhhhhhu      rmmmmmmn  vttttts  ooooooow       |||||||}   ",
"    ihhhhhh        mmmmmmmm  stttttt  oooooooo        ||||||    ",
"      ikj         mmmmmmmm   xtttttt   oooooooo         }||     ",
"                 ymmmmmmmq   ttttttt   oooooooo                 ",
"                 mmmmmmmm    vtttttt    oooooooo                ",
"                ymmmmmmmr    ttttttt    zooooooo                ",
"                nmmmmmmm     xtttttt     oooooooo               ",
"               mmmmmmmm      stttttt      oooooooo              ",
"               mmmmmmmn      vtttttt      oooooooz              ",
"              mmmmmmmm       ttttttt       ooooooo              ",
"              rmmmmmmn       xttttts        oooooo              ",
"               nmmmmm        Attttts        zoooop              ",
"               qnmmm         Atttttt         oooz               ",
"                             xtttttt          z                 ",
"                             xtttttt                            ",
"                              xtttx                             ",
"                               Axx                              "};
