/* XPM */
static const char * progress_9_xpm[] = {
"64 64 74 1",
" 	c None",
".	c #DEDEDE",
"+	c #DDDDDD",
"@	c #DCDCDC",
"#	c #BEBEBE",
"$	c #C0C0C0",
"%	c #C1C1C1",
"&	c #C2C2C2",
"*	c #DBDBDB",
"=	c #A5A5A5",
"-	c #A6A6A6",
";	c #AAAAAA",
">	c #A8A8A8",
",	c #A7A7A7",
"'	c #A3A3A3",
")	c #A4A4A4",
"!	c #A9A9A9",
"~	c #020202",
"{	c #030303",
"]	c #040404",
"^	c #010101",
"/	c #050505",
"(	c #8A8A8A",
"_	c #8D8D8D",
":	c #8F8F8F",
"<	c #8E8E8E",
"[	c #8C8C8C",
"}	c #8B8B8B",
"|	c #000000",
"1	c #898989",
"2	c #060606",
"3	c #070707",
"4	c #1C1C1C",
"5	c #202020",
"6	c #212121",
"7	c #1D1D1D",
"8	c #727272",
"9	c #757575",
"0	c #717171",
"a	c #777777",
"b	c #737373",
"c	c #767676",
"d	c #1B1B1B",
"e	c #1E1E1E",
"f	c #747474",
"g	c #1F1F1F",
"h	c #2F2F2F",
"i	c #323232",
"j	c #575757",
"k	c #5A5A5A",
"l	c #595959",
"m	c #313131",
"n	c #303030",
"o	c #5B5B5B",
"p	c #191919",
"q	c #2D2D2D",
"r	c #454545",
"s	c #484848",
"t	c #424242",
"u	c #5D5D5D",
"v	c #565656",
"w	c #474747",
"x	c #464646",
"y	c #555555",
"z	c #585858",
"A	c #333333",
"B	c #444444",
"C	c #2E2E2E",
"D	c #343434",
"E	c #414141",
"F	c #525252",
"G	c #434343",
"H	c #5C5C5C",
"I	c #494949",
"                             .+++@                              ",
"                             ++++++                             ",
"                            @++++++                             ",
"                            .++++++         #$%%                ",
"                ++@+        +++++++        $%%%%$               ",
"               @+++++       +++++++        %%%%%%&              ",
"               ++++++       .++++++       %%%%%%%%              ",
"               +++++++      +++++++       %%%%%%%               ",
"               +++++++.     .+++++@      %%%%%%%%               ",
"               ++++++++     @++++++      %%%%%%%                ",
"                +++++++@    @++++++     &%%%%%%$                ",
"                @+++++++    @++++++    %%%%%%%&                 ",
"                 +++++++.   @++++++    %%%%%%%$                 ",
"     +@@         .+++++++*  +++++++   %%%%%%%%                  ",
"    @.++++        ++++++++  +++++++   &%%%%%%         =--=      ",
"   *+++++++*       +++++++.  @++++.  &%%%%%%%       =------     ",
"   @++++++++@@     .++++++@   +++.   &%%%%%%      ;=------->    ",
"   ++++++++++++     ++++++.          %%%%%%&     =----------    ",
"    +++++++++++++   *++++++           %%%%%    ,-----------     ",
"     +++++++++++++.  @+++@              %$   '------------)     ",
"       @+++++++++++    @                    -------------,      ",
"        *+++++++++++                       ,-----------'        ",
"          +@++++++++                       =---------!          ",
"            @++++++.                       --------=-           ",
"              @+++@                        )------!             ",
"                                            >--==               ",
"                                                                ",
"                                                                ",
" ~~{~~{~]~~^~~{//                               (__:<[_}_<}}[}  ",
"/|||||||||||||||^                              [}}}}}}}}}}}}}}} ",
"~||||||||||||||||]                            <}}}}}}}}}}}}}}}}1",
"^|||||||||||||||^{                            }}}}}}}}}}}}}}}}}}",
"^|||||||||||||||^2                            (}}}}}}}}}}}}}}}}}",
"{^||||||||||||||{                             }}}}}}}}}}}}}}}}}<",
" 3/{2]/2]/~{{{~{                               <(}}}}}}[}}[[}(} ",
"                                                                ",
"                                                                ",
"               4567                          8890               ",
"             7555555                        abbbb8c             ",
"           de5555555                        8bbbbbbb0           ",
"         de5555555554                       bbbbbbbbff          ",
"        e55555555556                        fbbbbbbbbbbb        ",
"      455555555555g5                        fbbbbbbbbbbbb8      ",
"     6555555555555d   hi               jkl   b8bbbbbbbbbb89     ",
"    e55555555555e    imiin            ooooo    fbbbbbbbbbbb0    ",
"    6555555555gp    immmmmq          ooooook    8b8bbbbbbbb8    ",
"    65555555g4     hmmmmmmn    rst   uoooooov     8fbbbbbbbf    ",
"    5555555d       immmmmmn  twxxws  kooooook       c8bbbbb8    ",
"     5555e        hmmmmmmi   rxxxxxr yoooooooz        8fbb8     ",
"      6eg         immmmmmi   xxxxxxr  looooook          08      ",
"                 mmmmmmmA    rxxxxxB   oooooool                 ",
"                hnmmmmmiC    rxxxxxr   jooooookv                ",
"                nmmmmmmD     wxxxxxr    looooool                ",
"               mmmmmmmnD     xxxxxwr    jooooookj               ",
"               immmmmmA      xxxxxxr     zooooook               ",
"              immmmmmmi      wxxxxxE     Foooooool              ",
"              Cmmmmmmm       xxxxxxG      looooook              ",
"              nmmmmmn        xxxxxxw       ooooook              ",
"               mmmmmC        wxxxxxw       zooooo               ",
"                nimq         xxxxxxx        kjkH                ",
"                             wxxxxxG                            ",
"                             wxxxxxs                            ",
"                             xxxxxrG                            ",
"                              IxxxG                             "};
