/* XPM */
static const char * progress_12_xpm[] = {
"64 64 76 1",
" 	c None",
".	c #030303",
"+	c #010101",
"@	c #050505",
"#	c #080808",
"$	c #000000",
"%	c #020202",
"&	c #DDDDDD",
"*	c #DCDCDC",
"=	c #DBDBDB",
"-	c #202020",
";	c #1F1F1F",
">	c #222222",
",	c #1D1D1D",
"'	c #060606",
")	c #232323",
"!	c #DEDEDE",
"~	c #1E1E1E",
"{	c #212121",
"]	c #040404",
"^	c #1C1C1C",
"/	c #303030",
"(	c #2F2F2F",
"_	c #323232",
":	c #313131",
"<	c #191919",
"[	c #2E2E2E",
"}	c #333333",
"|	c #2D2D2D",
"1	c #1B1B1B",
"2	c #343434",
"3	c #454545",
"4	c #474747",
"5	c #464646",
"6	c #444444",
"7	c #484848",
"8	c #434343",
"9	c #424242",
"0	c #414141",
"a	c #535353",
"b	c #5A5A5A",
"c	c #5D5D5D",
"d	c #5B5B5B",
"e	c #C2C2C2",
"f	c #C1C1C1",
"g	c #585858",
"h	c #555555",
"i	c #565656",
"j	c #575757",
"k	c #C0C0C0",
"l	c #5C5C5C",
"m	c #A5A5A5",
"n	c #A6A6A6",
"o	c #A8A8A8",
"p	c #595959",
"q	c #737373",
"r	c #727272",
"s	c #777777",
"t	c #A7A7A7",
"u	c #BEBEBE",
"v	c #747474",
"w	c #A2A2A2",
"x	c #8B8B8B",
"y	c #8A8A8A",
"z	c #8E8E8E",
"A	c #8F8F8F",
"B	c #8C8C8C",
"C	c #717171",
"D	c #767676",
"E	c #8D8D8D",
"F	c #AAAAAA",
"G	c #A9A9A9",
"H	c #707070",
"I	c #757575",
"J	c #A4A4A4",
"K	c #898989",
"                              .++.@                             ",
"                             #+$$$$%                            ",
"                             @$$$$$.                            ",
"                             %$$$$$.          &*=               ",
"                -;>,         '$$$$$%         &&&&*              ",
"               -----)        .$$$$$%        &&&&&!!             ",
"              -------,       @$$$$$.        &&&&&&*             ",
"              ,-------       '$$$$$%       *&&&&&&*             ",
"              ~{------,      ]$$$$$]      =&&&&&&&              ",
"               ~-------~     @$$$$$%      &&&&&&&*              ",
"                -------~     %$$$$$%     &&&&&&&&               ",
"                ^-------^    .$$$$$+     *&&&&&&=               ",
"                 ;------;    .$$$$$%    *&&&&&&*                ",
"                 ,-------^   %$$$$$%    &&&&&&&*                ",
"      /(_         ;-------   %$$$$$]   *&&&&&&&                 ",
"     ::::_:       <-------^  .$$$$$'   &&&&&&&        &&&&*     ",
"    /::::://(      ;------;   ]++$+    &&&&&&&      &&&&&&&&    ",
"    :::::::::/      ------{    ']]     &&&&&&     !&&&&&&&&&    ",
"    ::::::::::_/    ^----{^            *&&&&!    &&&&&&&&&&&    ",
"    [::::::::::::}   {{-{-              !&&    !!&&&&&&&&&&&    ",
"     [::::::::::::_|   1                     =&&&&&&&&&&&&&     ",
"       :::::::::::::                        *&&&&&&&&&&&&       ",
"         }/:::::::::[                       &&&&&&&&&&&!        ",
"          22::::::::}                      *&&&&&&&&&*          ",
"            (}:::::}                        !&&&&&&!            ",
"              __:::(                        *&&&&&=             ",
"                :(|                          &!*!               ",
"                                                                ",
"                                                 &&*&**!&!&&!*  ",
" 3445545455435556                               *&&&&&&&&&&&&&&&",
"75555555555555555                              &&&&&&&&&&&&&&&&&",
"455555555555555558                             &&&&&&&&&&&&&&&&&",
"555555555555555557                             &&&&&&&&&&&&&&&&&",
"555555555555555559                             !*&&&&&&&&&&&&&&*",
"85555555554555545                               !&&&&&&*&&&&&&& ",
"  58577803355553                                                ",
"                                                                ",
"               abcd                           efe               ",
"              gddddd                         ffffef             ",
"            hdddddddi                        ffffffff           ",
"          jbddddddddd                       ffffffffff          ",
"        agddddddddddb                       kfffffffffff        ",
"       gdddddddddddl                         fffffffffffff      ",
"     gbdddddddddddd                    mnno   effffffffffffk    ",
"    pdddddddddddbh   qqqrs            tnnnnn    ffffffffffffu   ",
"    gdddddddddbg    vqqqqqr           nnnnnnw     kfffffffffk   ",
"    ddddddddbb      rqqqqqq   xyxz    nnnnnnn      feffffffff   ",
"    ddddddbbh      vqqqqqqv  AxxxxB   nnnnnnno       feffffff   ",
"     ddddbg       qqqqqqqqC  yxxxxxx  mnnnnnnn         kfffk    ",
"      bgg         rqqqqqqq   xxxxxxB   nnnnnnnm          fe     ",
"                 vrqqqqqqD   xxxxxxE   FnnnnnnnG                ",
"                 qqqqqqqv    xxxxxxz    mnnnnnnn                ",
"                DqqqqqqvH    Bxxxxxz    nnnnnnnnm               ",
"                rqqqqqqI     xxxxxxx     Gnnnnnnn               ",
"               rqqqqqqq      xxxxxxz      nnnnnnnm              ",
"               qqqqqqqr      BxxxxxB      Jnnnnnnt              ",
"              rqqqqqqr       xxxxxxE       nnnnnnn              ",
"              vqqqqqqq       xxxxxxz       nnnnnnm              ",
"               CqqqqI        BxxxxxB        mnnnm               ",
"               HrqqC         Bxxxxxx          mo                ",
"                             Bxxxxxx                            ",
"                             yxxxxxE                            ",
"                             xBxxxx                             ",
"                              zyBKy                             "};
