/* XPM */
static const char * progress_3_xpm[] = {
"64 64 70 1",
" 	c None",
".	c #434343",
"+	c #454545",
"@	c #464646",
"#	c #444444",
"$	c #474747",
"%	c #5B5B5B",
"&	c #595959",
"*	c #575757",
"=	c #484848",
"-	c #2B2B2B",
";	c #323232",
">	c #2F2F2F",
",	c #313131",
"'	c #5A5A5A",
")	c #303030",
"!	c #585858",
"~	c #333333",
"{	c #565656",
"]	c #747474",
"^	c #757575",
"/	c #1F1F1F",
"(	c #212121",
"_	c #727272",
":	c #737373",
"<	c #717171",
"[	c #545454",
"}	c #202020",
"|	c #3F3F3F",
"1	c #1D1D1D",
"2	c #5D5D5D",
"3	c #1C1C1C",
"4	c #2D2D2D",
"5	c #1A1A1A",
"6	c #222222",
"7	c #1E1E1E",
"8	c #707070",
"9	c #232323",
"0	c #8B8B8B",
"a	c #8C8C8C",
"b	c #8A8A8A",
"c	c #020202",
"d	c #030303",
"e	c #040404",
"f	c #050505",
"g	c #070707",
"h	c #8E8E8E",
"i	c #888888",
"j	c #000000",
"k	c #010101",
"l	c #090909",
"m	c #898989",
"n	c #8D8D8D",
"o	c #A4A4A4",
"p	c #A6A6A6",
"q	c #A7A7A7",
"r	c #AAAAAA",
"s	c #DCDCDC",
"t	c #DDDDDD",
"u	c #DEDEDE",
"v	c #A5A5A5",
"w	c #A8A8A8",
"x	c #DBDBDB",
"y	c #A3A3A3",
"z	c #C0C0C0",
"A	c #C1C1C1",
"B	c #C2C2C2",
"C	c #DADADA",
"D	c #C3C3C3",
"E	c #BFBFBF",
"                             .++@@                              ",
"                             @@@@@#                             ",
"                            +@@@@@$                             ",
"                            @@@@@@@                             ",
"                %%&*        =@@@@@+         -;;;                ",
"               %%%%%&       $@@@@@$        >,,,,,               ",
"              &%%%%%'       $@@@@@@        ,,,,,,)              ",
"              %%%%%%%!      @@@@@@@       ;,,,,,,,              ",
"              &%%%%%%%      $@@@@@$       ,,,,,,,~              ",
"               '%%%%%%&     @@@@@@@      ~,,,,,,,               ",
"               !'%%%%%%{    $@@@@@+     ;,,,,,,)>               ",
"                '%%%%%%'    @@@@@@$     ~,,,,,,)                ",
"                {'%%%%%%*   =@@@@@+    );,,,,,,;                ",
"                 &%%%%%%%   @$@@@@$    ;,,,,,,)                 ",
"      ]^          '%%%%%%!  $@@@@@+   ;,,,,,,,          /(      ",
"    ]_::_<        !%%%%%%%[ .@@@@@+   ;,,,,,,,        /(}}/     ",
"    _:::::::       '%%%%%%'  +@@@@|  ,,,,,,,,       1}}}}}}}    ",
"    ]::::::::]     {%%%%%%2   +$#    ,,,,,,;;     3/}}}}}}}}    ",
"    ::::::::::_:    %%%%%%&          4,,,,,,    5/}}}}}}}}}6    ",
"    <:::::::::::_    %%%%'            ),,,,4   7}}}}}}}}}}}/    ",
"     ^]::::::::::_^   2&{               ,)   1}}}}}}}}}}}}(     ",
"      _:::::::::::::                        (}}}}}}}}}}}}1      ",
"        ::::::::::::                        }}}}}}}}}}}7        ",
"          ]:::::::::                       1}}}}}}}}}7          ",
"           <]::::::_                        }}}}}}}/3           ",
"             :]:::_:                        /(}}}}1             ",
"               ::]8                          9}/1               ",
"                                                                ",
"                                                                ",
" 000000aa00a0a0ba                               ccdceceefffeefg ",
"h0000000000000000i                             ejjjjjjjjjjjjjjkc",
"00000000000000000a                            lkjjjjjjjjjjjjjjjk",
"00000000000000000b                            ekjjjjjjjjjjjjjjjc",
"m0000000000000000n                            ejjjjjjjjjjjjjjjjc",
" 0000000000000000                              kkjjjjjjjjjjjjjje",
"  n0b00000b0n0ab                                ffkckccddcdcccc ",
"                                                                ",
"                                                                ",
"               opppq                                            ",
"             rppppppo                        sttus              ",
"           vvpppppppp                        ttttttt            ",
"          wpppppppppp                       ttttttttst          ",
"        vpppppppppppq                       tttttttttttx        ",
"      qppppppppppppp                    t    ttttttttttts       ",
"     vppppppppppppy   zA              ttttt  ttttttttttttts     ",
"     pppppppppppq    AAAAA           sttttts   ttttttttttttt    ",
"    ppppppppppv     BAAAAAB          ttttttt     tttttttttttt   ",
"    wppppppppw      AAAAAAB   uttt   tttttttu      stttttttts   ",
"     ppppppp       AAAAAAAB  ttttts  uttttttt       Cttttttts   ",
"      pppv         AAAAAAA   tttttts  tttttttt        sttttt    ",
"                  zAAAAAAA   ttttttt  xtttttttu         sst     ",
"                 zAAAAAAA    tttttts   tttttttt                 ",
"                 AAAAAAAz    ttttttt    tttttttt                ",
"                AAAAAAAA     tttttts    sttttttt                ",
"                AAAAAAA      ttttttt     uttttttt               ",
"               zAAAAAAA      stttttt     uttttttt               ",
"               AAAAAAA       tttttts      ttttttt               ",
"              DAAAAAAA       ttttttt       tttttt               ",
"              BAAAAAA        sttttts       uttttt               ",
"               zAAAAz        ttttttt        ttus                ",
"                BBAE         ttttttu                            ",
"                             tttttts                            ",
"                             tttttt                             ",
"                              ttttt                             "};
