/* XPM */
static const char * dossier_ouv_xpm[] = {
"64 64 472 2",
"  	c None",
". 	c #000000",
"+ 	c #2E2C00",
"@ 	c #312E00",
"# 	c #111000",
"$ 	c #777100",
"% 	c #FCF000",
"& 	c #FFFC00",
"* 	c #FFFB00",
"= 	c #D7CE00",
"- 	c #4C4700",
"; 	c #7A7100",
"> 	c #FFF300",
", 	c #FEE900",
"' 	c #FFE900",
") 	c #FFF600",
"! 	c #9F9500",
"~ 	c #F1DC00",
"{ 	c #FFE500",
"] 	c #FFEC00",
"^ 	c #887C00",
"/ 	c #030300",
"( 	c #FFE400",
"_ 	c #FFE000",
": 	c #1E1A00",
"< 	c #241F00",
"[ 	c #FFE700",
"} 	c #FFDA00",
"| 	c #FFDB00",
"1 	c #FFDC00",
"2 	c #947F00",
"3 	c #020200",
"4 	c #D1B200",
"5 	c #FFD600",
"6 	c #FFD500",
"7 	c #D4B800",
"8 	c #1E1800",
"9 	c #6D5900",
"0 	c #987C00",
"a 	c #997D00",
"b 	c #B29400",
"c 	c #FED200",
"d 	c #FFD100",
"e 	c #FFD000",
"f 	c #ECC400",
"g 	c #070500",
"h 	c #B29200",
"i 	c #FFD700",
"j 	c #FFCD00",
"k 	c #FFCC00",
"l 	c #FECB00",
"m 	c #FFCB00",
"n 	c #ECC000",
"o 	c #0B0800",
"p 	c #F0BE00",
"q 	c #FFC700",
"r 	c #FEC600",
"s 	c #FEC500",
"t 	c #FEC700",
"u 	c #FFC600",
"v 	c #ECBB00",
"w 	c #D1A100",
"x 	c #FEC000",
"y 	c #FDBE00",
"z 	c #FBBA00",
"A 	c #F9B700",
"B 	c #F8B400",
"C 	c #F8B600",
"D 	c #FAB800",
"E 	c #FCBC00",
"F 	c #FEBF00",
"G 	c #FEC100",
"H 	c #FFC100",
"I 	c #ECB600",
"J 	c #493500",
"K 	c #FFC300",
"L 	c #FBB500",
"M 	c #F6AD00",
"N 	c #F1A300",
"O 	c #EE9D00",
"P 	c #EB9900",
"Q 	c #EB9700",
"R 	c #EB9800",
"S 	c #EC9B00",
"T 	c #EFA000",
"U 	c #F5AA00",
"V 	c #FBB400",
"W 	c #FDBA00",
"X 	c #FFBC00",
"Y 	c #FFBD00",
"Z 	c #ECB200",
"` 	c #B18000",
" .	c #F9AD00",
"..	c #F1A100",
"+.	c #EA9200",
"@.	c #E38600",
"#.	c #DD7B00",
"$.	c #DB7500",
"%.	c #DA7400",
"&.	c #DA7300",
"*.	c #DA7600",
"=.	c #DC7800",
"-.	c #E18200",
";.	c #E99100",
">.	c #F3A200",
",.	c #FAB000",
"'.	c #FDB600",
").	c #FFB800",
"!.	c #FFB700",
"~.	c #ECAD00",
"{.	c #E09800",
"].	c #F09900",
"^.	c #E68800",
"/.	c #DC7600",
"(.	c #E69000",
"_.	c #F1B300",
":.	c #F6C700",
"<.	c #F7D000",
"[.	c #F7D600",
"}.	c #F7DB00",
"|.	c #F7E000",
"1.	c #F7E300",
"2.	c #F7E400",
"3.	c #F7E500",
"4.	c #F7DC00",
"5.	c #F7D700",
"6.	c #F7D200",
"7.	c #F7CD00",
"8.	c #F7C600",
"9.	c #F7C000",
"0.	c #F6B600",
"a.	c #EE9A00",
"b.	c #E07D00",
"c.	c #EA8D00",
"d.	c #F6A300",
"e.	c #FCAF00",
"f.	c #FFB200",
"g.	c #ECA800",
"h.	c #E59200",
"i.	c #E68400",
"j.	c #E58500",
"k.	c #FDBF00",
"l.	c #FFD300",
"m.	c #FFDD00",
"n.	c #FFEA00",
"o.	c #FFF000",
"p.	c #FFF500",
"q.	c #FFF800",
"r.	c #FFFD00",
"s.	c #FFFA00",
"t.	c #FFF700",
"u.	c #FFD900",
"v.	c #FFD200",
"w.	c #FFC900",
"x.	c #FFBB00",
"y.	c #E98900",
"z.	c #F19800",
"A.	c #FBA700",
"B.	c #FEAD00",
"C.	c #FFAD00",
"D.	c #ECA300",
"E.	c #DF8200",
"F.	c #E88700",
"G.	c #FECD00",
"H.	c #FFF202",
"I.	c #FFF52C",
"J.	c #FFF535",
"K.	c #FFF434",
"L.	c #FFF334",
"M.	c #FFF534",
"N.	c #FFF634",
"O.	c #FFF630",
"P.	c #FFEF00",
"Q.	c #FC9F00",
"R.	c #ED8B00",
"S.	c #F99F00",
"T.	c #FEA700",
"U.	c #FEA800",
"V.	c #FFA800",
"W.	c #EC9E00",
"X.	c #DB7900",
"Y.	c #FEAC00",
"Z.	c #FEDD00",
"`.	c #FFF213",
" +	c #FFF9A6",
".+	c #FFFEF7",
"++	c #FFFFFF",
"@+	c #FFFFFE",
"#+	c #FFFDF2",
"$+	c #FFF654",
"%+	c #E87E00",
"&+	c #F49200",
"*+	c #FA9C00",
"=+	c #FB9F00",
"-+	c #FCA000",
";+	c #FDA100",
">+	c #FDA200",
",+	c #FEA300",
"'+	c #FFA300",
")+	c #EC9A00",
"!+	c #E48900",
"~+	c #FED700",
"{+	c #FFF233",
"]+	c #FFFDE8",
"^+	c #FFFCE0",
"/+	c #FFFCDF",
"(+	c #FFFDEE",
"_+	c #FFF012",
":+	c #E37500",
"<+	c #E98100",
"[+	c #EF8B00",
"}+	c #F29000",
"|+	c #F39100",
"1+	c #F39200",
"2+	c #F59400",
"3+	c #F89900",
"4+	c #FB9E00",
"5+	c #EAA600",
"6+	c #FFEF0F",
"7+	c #FFFBD7",
"8+	c #FFFBCF",
"9+	c #FFFBD1",
"0+	c #FFF349",
"a+	c #DE6F00",
"b+	c #DF7000",
"c+	c #E27600",
"d+	c #E27500",
"e+	c #E27400",
"f+	c #E47800",
"g+	c #E77D00",
"h+	c #EC8500",
"i+	c #F28F00",
"j+	c #F79800",
"k+	c #EC9900",
"l+	c #ECC900",
"m+	c #FFF384",
"n+	c #FFF9C2",
"o+	c #FFF9C5",
"p+	c #FFF255",
"q+	c #F69F00",
"r+	c #F29B00",
"s+	c #F29F00",
"t+	c #F2A300",
"u+	c #F2A700",
"v+	c #F2AA00",
"w+	c #F2AD00",
"x+	c #F2B000",
"y+	c #F2B400",
"z+	c #F2B600",
"A+	c #F2B900",
"B+	c #F2BC00",
"C+	c #F2BE00",
"D+	c #F2C000",
"E+	c #F2C200",
"F+	c #F2C300",
"G+	c #F2C400",
"H+	c #F2B800",
"I+	c #F2B300",
"J+	c #F2AF00",
"K+	c #F2AB00",
"L+	c #F3A800",
"M+	c #EE9900",
"N+	c #E58000",
"O+	c #E37600",
"P+	c #ED8800",
"Q+	c #F69500",
"R+	c #EB9600",
"S+	c #ECD600",
"T+	c #FFF6B1",
"U+	c #FFF7B2",
"V+	c #FFF7B3",
"W+	c #FFF5A1",
"X+	c #FFE600",
"Y+	c #FFB100",
"Z+	c #FFB400",
"`+	c #FFBA00",
" @	c #FFBF00",
".@	c #FFC500",
"+@	c #FFCF00",
"@@	c #FFD400",
"#@	c #FFD800",
"$@	c #FFE300",
"%@	c #FFED00",
"&@	c #FFDE00",
"*@	c #F9AB00",
"=@	c #E67D00",
"-@	c #EC8600",
";@	c #E98F00",
">@	c #ECD708",
",@	c #FFF6AE",
"'@	c #FFF5A5",
")@	c #FFF5A6",
"!@	c #FFF394",
"~@	c #FFEB32",
"{@	c #FFE80A",
"]@	c #FFE608",
"^@	c #FFE508",
"/@	c #FFE408",
"(@	c #FFE100",
"_@	c #FEBA00",
":@	c #FFAE00",
"<@	c #E98200",
"[@	c #E28400",
"}@	c #ECD507",
"|@	c #FFF49F",
"1@	c #FFF396",
"2@	c #FFF49D",
"3@	c #FFF49E",
"4@	c #FFF189",
"5@	c #FFEB4D",
"6@	c #FFE502",
"7@	c #FEC900",
"8@	c #FDA400",
"9@	c #ECD306",
"0@	c #FFF092",
"a@	c #FFF08A",
"b@	c #FFF18C",
"c@	c #FFF089",
"d@	c #FFE414",
"e@	c #E48800",
"f@	c #ECD106",
"g@	c #FFEE85",
"h@	c #FFEE7E",
"i@	c #FFED7D",
"j@	c #FFEE80",
"k@	c #FFE209",
"l@	c #EA9F00",
"m@	c #ECCF06",
"n@	c #FFEC78",
"o@	c #FFEB72",
"p@	c #FFEB71",
"q@	c #FFE652",
"r@	c #ECBD00",
"s@	c #ECCD05",
"t@	c #FFE86C",
"u@	c #FFE866",
"v@	c #FFE86A",
"w@	c #ECCA01",
"x@	c #ECCB04",
"y@	c #FFE561",
"z@	c #FFE55C",
"A@	c #FFE55B",
"B@	c #FFE55D",
"C@	c #FFE664",
"D@	c #ECCD0E",
"E@	c #ECC904",
"F@	c #FFE356",
"G@	c #FFE352",
"H@	c #FFE351",
"I@	c #FFE251",
"J@	c #FFE355",
"K@	c #FFDF3C",
"L@	c #FFDA21",
"M@	c #FFD507",
"N@	c #ECC800",
"O@	c #ECC703",
"P@	c #FFDF4C",
"Q@	c #FFDF47",
"R@	c #FFDF49",
"S@	c #FFDF4B",
"T@	c #FFDD3F",
"U@	c #FFD927",
"V@	c #FFD510",
"W@	c #ECC600",
"X@	c #ECC403",
"Y@	c #FFDC42",
"Z@	c #FFDB3E",
"`@	c #FFDC3F",
" #	c #FFDC3D",
".#	c #FFD82C",
"+#	c #FFD516",
"@#	c #FFD104",
"##	c #ECC300",
"$#	c #ECC203",
"%#	c #FFD93A",
"&#	c #FFD937",
"*#	c #FFD936",
"=#	c #FFD938",
"-#	c #FFD72E",
";#	c #FFD41C",
">#	c #FFD00A",
",#	c #FFCE00",
"'#	c #ECC200",
")#	c #ECC002",
"!#	c #FFD531",
"~#	c #FFD52E",
"{#	c #FFD52F",
"]#	c #FFD530",
"^#	c #FFD52C",
"/#	c #FFD21F",
"(#	c #FFCF0F",
"_#	c #FFCC02",
":#	c #ECBF02",
"<#	c #FFD229",
"[#	c #FFD227",
"}#	c #FFD228",
"|#	c #FFD11F",
"1#	c #FFCE13",
"2#	c #FFCB06",
"3#	c #FFCA00",
"4#	c #ECBE00",
"5#	c #ECBC01",
"6#	c #FFCE22",
"7#	c #FFCF20",
"8#	c #FFCE20",
"9#	c #FFCF21",
"0#	c #FFCE1E",
"a#	c #FFCC14",
"b#	c #FFC90A",
"c#	c #FFC800",
"d#	c #ECBA01",
"e#	c #FFCB1B",
"f#	c #FFCB1A",
"g#	c #FFCC1B",
"h#	c #FFCA15",
"i#	c #FFC80C",
"j#	c #FFC603",
"k#	c #ECBA00",
"l#	c #ECB800",
"m#	c #FFC816",
"n#	c #FFC814",
"o#	c #FFC815",
"p#	c #FFC813",
"q#	c #FFC70C",
"r#	c #FFC405",
"s#	c #FFC511",
"t#	c #FFC510",
"u#	c #FFC40C",
"v#	c #FFC206",
"w#	c #FFC201",
"x#	c #ECB500",
"y#	c #ECB400",
"z#	c #FFC20C",
"A#	c #FFC20B",
"B#	c #FFC10A",
"C#	c #FFC106",
"D#	c #FFC002",
"E#	c #FFBF08",
"F#	c #FFBF07",
"G#	c #FFBE06",
"H#	c #FFBE03",
"I#	c #ECAF00",
"J#	c #FFBB05",
"K#	c #FFBC04",
"L#	c #FFBB02",
"M#	c #FFBB01",
"N#	c #ECAE00",
"O#	c #FFB903",
"P#	c #FFB902",
"Q#	c #FFB901",
"R#	c #FFB801",
"S#	c #ECAB00",
"T#	c #FFB601",
"U#	c #FFB701",
"V#	c #FFB600",
"W#	c #ECAA00",
"X#	c #E6A200",
"Y#	c #FFB000",
"Z#	c #B47C0D",
"`#	c #F7A81C",
" $	c #F8A81B",
".$	c #F7A81B",
"+$	c #462F00",
"@$	c #BD7F00",
"#$	c #FFAB00",
"$$	c #FFA900",
"%$	c #C68300",
"&$	c #FFA700",
"*$	c #634000",
"=$	c #DF9400",
"-$	c #130C00",
";$	c #311F00",
"                                                                                                                                ",
"                                                                                                                                ",
"                                                                                                                                ",
"                                                                                                                                ",
"                                                                                                                                ",
"                                                              . . . . . . . . . . . . . . . . . . . . . . . . . . . .           ",
"                                                            . . . + @ @ @ @ @ @ @ @ @ @ @ @ @ @ @ @ @ @ @ @ @ @ # . . .         ",
"                                                          . . $ % & & & & & & & & & & & & & & & & & & & & & & & * = - . .       ",
"                                                        . . ; > , ' ' ' ' ' ' ' ' ' ' ' ' ' ' ' ' ' ' ' ' ' ' ' ' , ) ! . .     ",
"                                                        . . ~ { { { { { { { { { { { { { { { { { { { { { { { { { { { { ] ^ . .   ",
"                                                        . / ( _ _ _ _ _ _ _ _ _ _ _ _ _ _ _ _ _ _ _ _ _ _ _ _ _ _ _ _ _ ] : .   ",
"              . . . . . . . . . . . . . . . . . . . . . . < [ } | | | | | | | | | | | | | | | | | | | | | | | | | | | } 1 2 .   ",
"          . . . . . . . . . . . . . . . . . . . . . . . 3 4 5 5 5 5 5 5 5 5 5 5 5 5 5 5 5 5 5 5 5 5 5 5 5 5 5 5 5 5 5 5 6 7 . . ",
"      . . . 8 9 0 a a a a a a a a a a a a a a a a a 0 b c d e e e e e e e e e e e e e e e e e e e e e e e e e e e e e e e f . . ",
"    . . g h i e j k k k k k k k k k k k k k k k k k j l m k k k k k k k k k k k k k k k k k k k k k k k k k k k k k k k m n . . ",
"  . . o p q r s s s s s s s s s s s s s s s s s s s s r r t u q q q q q q q q q q q q q q q q q q q q q q q q q q q q q u v . . ",
"  . . w x y z A B B B B B B B B B B B B B B B B B B C D E F G H H H H H H H H H H H H H H H H H H H H H H H H H H H H H H I . . ",
". . J K L M N O P Q R R R R R R R R R R R R R R R R S T U V W X Y Y Y Y Y Y Y Y Y Y Y Y Y Y Y Y Y Y Y Y Y Y Y Y Y Y Y Y X Z . . ",
". . `  ...+.@.#.$.%.&.&.&.&.&.&.&.&.&.&.&.&.%.%.%.*.=.-.;.>.,.'.).).).).).).).).).).).).).).).).).).).).).).).).).).).).!.~.. . ",
". . {.].^./.(._.:.<.[.}.|.1.2.3.2.2.1.|.4.5.6.7.8.9.0.a.b.c.d.e.f.f.f.f.f.f.f.f.f.f.f.f.f.f.f.f.f.f.f.f.f.f.f.f.f.f.f.f.f.g.. . ",
". . h.i.j.k.k l.m.( n.o.p.q.& r.& s.t.p.o.] [ _ u.v.w.x.f.y.z.A.B.C.C.C.C.C.C.C.C.C.C.C.C.C.C.C.C.C.C.C.C.C.C.C.C.C.C.C.C.D.. . ",
". . E.F.).G.' H.I.J.K.K.K.K.K.L.K.K.K.K.K.K.M.M.M.N.O.P.G.Q.R.S.T.U.V.V.V.V.V.V.V.V.V.V.V.V.V.V.V.V.V.V.V.V.V.V.V.V.U.V.V.W.. . ",
". . X.Y.Z.`. +.+++@+@+@+@+@+@+@+@+@+@+@+@+@+@+@+@+@+++#+$+k %+&+*+=+Q.-+-+-+-+-+-+-+-+-+-+-+-+-+-+-+-+-+-+-+-+-+;+>+,+'+,+)+. . ",
". . !+~+{+]+^+^+^+^+^+^+^+^+^+^+^+^+^+^+^+^+^+^+^+^+^+/+(+_+:+<+[+}+|+|+|+|+|+|+|+|+|+|+|+|+|+|+|+|+|+|+|+|+|+1+2+3+4+;+,+)+. . ",
". . 5+6+7+8+9+9+9+9+9+9+9+9+9+9+9+9+9+9+9+9+9+9+9+9+9+9+7+0+3+a+b+c+c+d+d+d+d+d+d+e+e+e+e+e+e+e+e+e+e+e+d+d+:+f+g+h+i+j+Q.k+. . ",
". . l+m+n+n+n+n+n+n+n+n+n+n+n+n+n+n+n+n+n+n+n+n+n+n+n+n+o+p+).V.q+r+s+t+u+v+w+x+y+z+A+B+C+D+E+F+G+D+B+H+I+J+K+L+M+N+O+P+Q+R+. . ",
". . S+T+U+V+V+V+V+V+V+V+V+V+V+V+V+V+V+V+V+V+V+V+V+V+V+V+U+W+X+H Y+Z+`+ @.@m +@@@#@1 _ $@[ n.%@P.P.n.( &@#@l.j r  @Y *@=@-@;@. . ",
". . >@,@'@'@'@'@'@'@'@'@'@'@'@'@'@'@'@'@'@'@'@'@'@'@'@'@'@)@!@~@{@]@]@]@]@^@]@^@^@^@/@^@^@/@/@/@/@/@^@/@^@]@]@( (@5 _@:@<@[@. . ",
". . }@|@1@1@1@1@1@1@1@1@1@1@1@1@1@1@1@1@1@1@1@1@1@1@1@1@1@1@1@2@3@3@3@3@3@3@3@3@3@3@3@3@3@3@3@3@3@3@3@3@3@3@3@2@4@5@6@7@8@#.. . ",
". . 9@0@a@a@a@a@a@a@a@a@a@a@a@a@a@a@a@a@a@a@a@a@a@a@a@a@a@a@a@a@a@a@a@a@a@a@a@a@a@a@a@a@a@a@a@a@a@a@a@a@a@a@a@a@a@b@c@d@r e@. . ",
". . f@g@h@h@h@h@h@h@h@h@h@h@h@h@h@h@h@h@h@h@h@h@h@h@h@h@h@h@h@h@h@h@h@h@h@h@h@h@h@h@h@h@h@h@h@h@h@h@h@h@h@h@h@h@h@h@i@j@k@l@. . ",
". . m@n@o@o@o@o@o@o@o@o@o@o@o@o@o@o@o@o@o@o@o@o@o@o@o@o@o@o@o@o@o@o@o@o@o@o@o@o@o@o@o@o@o@o@o@o@o@o@o@o@o@o@o@o@o@o@o@p@q@r@. . ",
". . s@t@u@u@u@u@u@u@u@u@u@u@u@u@u@u@u@u@u@u@u@u@u@u@u@u@u@u@u@u@u@u@u@u@u@u@u@u@u@u@u@u@u@u@u@u@u@u@u@u@u@u@u@u@u@u@u@u@v@w@. . ",
". . x@y@z@z@z@z@z@z@z@z@z@z@z@z@z@z@z@z@z@z@z@z@z@z@z@z@z@z@z@z@z@z@z@z@z@z@z@z@z@z@z@z@z@z@z@z@z@z@z@z@z@z@z@z@z@A@A@B@C@D@. . ",
". . E@F@G@G@G@G@G@G@G@G@G@G@G@G@G@G@G@G@G@G@G@G@G@G@G@G@G@G@G@G@G@G@G@G@G@G@G@G@G@G@G@G@G@G@G@G@G@G@G@G@G@H@I@G@J@I@K@L@M@N@. . ",
". . O@P@Q@Q@Q@Q@Q@Q@Q@Q@Q@Q@Q@Q@Q@Q@Q@Q@Q@Q@Q@Q@Q@Q@Q@Q@Q@Q@Q@Q@Q@Q@Q@Q@Q@Q@Q@Q@Q@Q@Q@Q@Q@Q@Q@Q@Q@Q@Q@Q@R@S@T@U@V@v.v.l.v.W@. . ",
". . X@Y@Z@Z@Z@Z@Z@Z@Z@Z@Z@Z@Z@Z@Z@Z@Z@Z@Z@Z@Z@Z@Z@Z@Z@Z@Z@Z@Z@Z@Z@Z@Z@Z@Z@Z@Z@Z@Z@Z@Z@Z@Z@Z@Z@Z@`@Y@ #.#+#@#+@e e e e e e ##. . ",
". . $#%#&#&#&#&#&#&#&#&#&#&#&#&#&#&#&#&#&#&#&#&#&#&#&#&#&#&#&#&#&#&#&#&#&#&#&#&#&#&#&#*#*#=#=#-#;#>#,#,#,#,#,#,#,#,#,#,#,#'#. . ",
". . )#!#~#~#~#~#~#~#~#~#~#~#~#~#~#~#~#~#~#~#~#~#~#~#~#~#~#~#~#~#~#~#~#~#~#~#~#~#~#{#]#^#/#(#_#k k k k k k k k k k k k k k n . . ",
". . :#<#[#[#[#[#[#[#[#[#[#[#[#[#[#[#[#[#[#[#[#[#[#[#[#[#[#[#[#[#[#[#[#[#[#[#}#}#|#1#2#w.3#3#3#3#3#3#3#3#3#3#3#3#3#3#3#3#3#4#. . ",
". . 5#6#7#7#7#7#7#7#7#7#7#7#7#7#7#7#7#7#7#7#7#7#7#7#7#7#7#7#7#7#7#8#9#9#0#a#b#q q q c#c#c#c#c#c#c#c#c#c#c#c#c#c#c#c#c#c#q v . . ",
". . d#e#f#f#f#f#f#f#f#f#f#f#f#f#f#f#f#f#f#f#f#f#f#f#f#f#f#f#e#g#e#h#i#j#.@.@u u u u u u u u u u u u u u u u u u u u u u .@k#. . ",
". . l#m#n#n#n#n#n#n#n#n#n#n#n#n#n#n#n#n#n#n#n#n#n#n#n#o#o#p#q#r#K K K K K K K K K K K K K K K K K K K K K K K K K K K K K l#. . ",
". . I s#t#t#t#t#t#t#t#t#t#t#t#t#t#t#t#t#t#t#t#t#s#t#u#v#w#H H H H H H H H H H H H H H H H H H H H H H H H H H H H H H H H x#. . ",
". . y#z#z#z#z#z#z#z#z#z#z#z#z#z#z#z#z#A#z#z#B#C#D# @ @ @ @ @ @ @ @ @ @ @ @ @ @ @ @ @ @ @ @ @ @ @ @ @ @ @ @ @ @ @ @ @ @ @ @y#. . ",
". . Z E#F#F#F#F#F#F#F#F#F#F#F#F#F#E#F#G#H#Y Y Y Y Y Y Y Y Y Y Y Y Y Y Y Y Y Y Y Y Y Y Y Y Y Y Y Y Y Y Y Y Y Y Y Y Y Y Y Y Z . . ",
". . I#J#J#J#J#J#J#J#J#J#J#J#J#K#L#M#`+`+`+`+`+`+`+`+`+`+`+`+`+`+`+`+`+`+`+`+`+`+`+`+`+`+`+`+`+`+`+`+`+`+`+`+`+`+`+`+`+`+`+I#. . ",
". . N#O#P#P#P#P#P#P#P#O#Q#R#).).).).).).).).).).).).).).).).).).).).).).).).).).).).).).).).).).).).).).).).).).).).).).).N#. . ",
". . S#T#U#U#U#U#U#!.!.V#V#V#V#V#V#V#V#V#V#V#V#V#V#V#V#V#V#V#V#V#V#V#V#V#V#V#V#V#V#V#V#V#V#V#V#V#V#V#V#V#V#V#V#V#V#V#V#V#V#S#. . ",
". . W#Z+Z+Z+Z+Z+Z+Z+Z+Z+Z+Z+Z+Z+Z+Z+Z+Z+Z+Z+Z+Z+Z+Z+Z+Z+Z+Z+Z+Z+Z+Z+Z+Z+Z+Z+Z+Z+Z+Z+Z+Z+Z+Z+Z+Z+Z+Z+Z+Z+Z+Z+Z+Z+Z+Z+Z+Z+Z+W#. . ",
". . g.f.f.f.f.f.f.f.f.f.f.f.f.f.f.f.f.f.f.f.f.f.f.f.f.f.f.f.f.f.f.f.f.f.f.f.f.f.f.f.f.f.f.f.f.f.f.f.f.f.f.f.f.f.f.f.f.f.f.g.. . ",
". . X#Y#Y#Y#Y#Y#Y#Y#Y#Y#Y#Y#Y#Y#Y#Y#Y#Y#Y#Y#Y#Y#Y#Y#Y#Y#Y#Y#Y#Y#Y#Y#Y#Y#Y#Y#Y#Y#Y#Y#Y#Y#Y#Y#Y#Y#Y#Y#Y#Y#Y#Y#Y#Y#Y#Y#Y#Y#Y#X#. . ",
". . Z#`# $ $ $ $ $ $ $ $ $ $ $ $ $ $ $ $ $ $ $ $ $ $ $ $ $ $ $ $ $ $ $ $ $ $ $ $ $ $ $ $ $ $ $ $ $ $ $ $ $ $ $ $ $ $ $ $.$Z#. . ",
". . +$V#C.C.C.C.C.C.C.C.C.C.C.C.C.C.C.C.C.C.C.C.C.C.C.C.C.C.C.C.C.C.C.C.C.C.C.C.C.C.C.C.C.C.C.C.C.C.C.C.C.C.C.C.C.C.C.C.V#+$. . ",
"  . . @$#$$$$$$$$$$$$$$$$$$$$$$$$$$$$$$$$$$$$$$$$$$$$$$$$$$$$$$$$$$$$$$$$$$$$$$$$$$$$$$$$$$$$$$$$$$$$$$$$$$$$$$$$$$$$$#$@$. .   ",
"  . . . %$C.T.&$&$&$&$&$&$&$&$&$&$&$&$&$&$&$&$&$&$&$&$&$&$&$&$&$&$&$&$&$&$&$&$&$&$&$&$&$&$&$&$&$&$&$&$&$&$&$&$&$&$T.C.%$. . .   ",
"    . . . *$=$C.C.C.C.C.C.C.C.C.C.C.C.C.C.C.C.C.C.C.C.C.C.C.C.C.C.C.C.C.C.C.C.C.C.C.C.C.C.C.C.C.C.C.C.C.C.C.C.C.C.=$*$. . .     ",
"      . . . . -$;$;$;$;$;$;$;$;$;$;$;$;$;$;$;$;$;$;$;$;$;$;$;$;$;$;$;$;$;$;$;$;$;$;$;$;$;$;$;$;$;$;$;$;$;$;$;$;$-$. . . .       ",
"          . . . . . . . . . . . . . . . . . . . . . . . . . . . . . . . . . . . . . . . . . . . . . . . . . . . . . .           ",
"                                                                                                                                ",
"                                                                                                                                ",
"                                                                                                                                ",
"                                                                                                                                ",
"                                                                                                                                "};
