/* XPM */
static const char * dossier_xpm[] = {
"64 64 372 2",
"  	c None",
". 	c #000000",
"+ 	c #2E2C00",
"@ 	c #312E00",
"# 	c #111000",
"$ 	c #787100",
"% 	c #FCF000",
"& 	c #FFFC00",
"* 	c #FFFB00",
"= 	c #D7CE00",
"- 	c #4C4700",
"; 	c #7B7100",
"> 	c #FFF300",
", 	c #FEE900",
"' 	c #FFE900",
") 	c #FFF600",
"! 	c #A09600",
"~ 	c #F2DD00",
"{ 	c #FFE500",
"] 	c #FFEC00",
"^ 	c #8D8100",
"/ 	c #030200",
"( 	c #FFE300",
"_ 	c #FFDF00",
": 	c #FFE000",
"< 	c #211D00",
"[ 	c #272100",
"} 	c #FFE600",
"| 	c #FFDA00",
"1 	c #FFDB00",
"2 	c #968200",
"3 	c #010000",
"4 	c #070500",
"5 	c #D4B300",
"6 	c #FFD600",
"7 	c #FFD500",
"8 	c #D5B800",
"9 	c #221500",
"0 	c #715600",
"a 	c #997C00",
"b 	c #A48700",
"c 	c #A38600",
"d 	c #9E8100",
"e 	c #B18300",
"f 	c #F9C000",
"g 	c #FBC800",
"h 	c #FDCD00",
"i 	c #FFD000",
"j 	c #ECC400",
"k 	c #090400",
"l 	c #B58F00",
"m 	c #FFF101",
"n 	c #FFFC54",
"o 	c #FFFD8B",
"p 	c #FFFC94",
"q 	c #FFFC95",
"r 	c #FFFC81",
"s 	c #FEF426",
"t 	c #F4C800",
"u 	c #F2B100",
"v 	c #FBC300",
"w 	c #FECA00",
"x 	c #FFCC00",
"y 	c #FFCB00",
"z 	c #ECC000",
"A 	c #0D0600",
"B 	c #EDC300",
"C 	c #FFF963",
"D 	c #FFFDF0",
"E 	c #FFFDF5",
"F 	c #FFFDEE",
"G 	c #FFFDED",
"H 	c #FFFDEF",
"I 	c #FFFEFC",
"J 	c #FFF860",
"K 	c #F3C100",
"L 	c #F6B400",
"M 	c #FDC200",
"N 	c #FFC600",
"O 	c #ECBA00",
"P 	c #CEA000",
"Q 	c #FFF97D",
"R 	c #FFFDE6",
"S 	c #FFFCDD",
"T 	c #FEFCE2",
"U 	c #FCE700",
"V 	c #F1A400",
"W 	c #FBBB00",
"X 	c #FEC100",
"Y 	c #FFC100",
"Z 	c #ECB600",
"` 	c #492F00",
" .	c #FFF736",
"..	c #FFFBDA",
"+.	c #FFFBCE",
"@.	c #FFFCD9",
"#.	c #FFEF1D",
"$.	c #EE9E00",
"%.	c #F9B300",
"&.	c #FEBB00",
"*.	c #FFBC00",
"=.	c #FFBD00",
"-.	c #ECB100",
";.	c #AE8C00",
">.	c #FFF9A2",
",.	c #FFF9BF",
"'.	c #FFF9C0",
").	c #FFFACB",
"!.	c #FFF123",
"~.	c #E99500",
"{.	c #F4A500",
"].	c #FAAF00",
"^.	c #FBB100",
"/.	c #FCB200",
"(.	c #FDB200",
"_.	c #FDB400",
":.	c #FEB500",
"<.	c #FEB600",
"[.	c #FFB700",
"}.	c #ECAC00",
"|.	c #DFC607",
"1.	c #FFF8BA",
"2.	c #FFF8B2",
"3.	c #FFF8B6",
"4.	c #FFF14B",
"5.	c #EEAE00",
"6.	c #E98B00",
"7.	c #F09800",
"8.	c #F29D00",
"9.	c #F39D00",
"0.	c #F49F00",
"a.	c #F6A200",
"b.	c #F8A700",
"c.	c #FAAC00",
"d.	c #FDAF00",
"e.	c #FEB100",
"f.	c #ECA800",
"g.	c #EBD91A",
"h.	c #FFF6AD",
"i.	c #FFF6A4",
"j.	c #FEF59D",
"k.	c #EDA900",
"l.	c #E27E00",
"m.	c #E27C00",
"n.	c #E27D00",
"o.	c #E37E00",
"p.	c #E47F00",
"q.	c #E68000",
"r.	c #EC8C00",
"s.	c #F19700",
"t.	c #F8A100",
"u.	c #FCA800",
"v.	c #ECA200",
"w.	c #ECD919",
"x.	c #FFF49F",
"y.	c #FFF498",
"z.	c #FEF38C",
"A.	c #FFEC34",
"B.	c #FFEC1E",
"C.	c #FEE71F",
"D.	c #FEE81F",
"E.	c #FDE417",
"F.	c #F9D601",
"G.	c #EFAC00",
"H.	c #E47C00",
"I.	c #ED8B00",
"J.	c #F69900",
"K.	c #EB9900",
"L.	c #ECD717",
"M.	c #FFF293",
"N.	c #FFF18C",
"O.	c #FFF18B",
"P.	c #FFF290",
"Q.	c #FFF294",
"R.	c #FFF295",
"S.	c #FFF18F",
"T.	c #FFEF63",
"U.	c #FEE20A",
"V.	c #E78900",
"W.	c #ED8700",
"X.	c #E98F00",
"Y.	c #ECD615",
"Z.	c #FFF087",
"`.	c #FFF080",
" +	c #FEF084",
".+	c #FFE81C",
"++	c #E68400",
"@+	c #E38500",
"#+	c #ECD413",
"$+	c #FFEE7A",
"%+	c #FFEE74",
"&+	c #FFED74",
"*+	c #FEED78",
"=+	c #FAD308",
"-+	c #DC7600",
";+	c #ECD211",
">+	c #FFEB6F",
",+	c #FFEB6A",
"'+	c #FFEB48",
")+	c #E09000",
"!+	c #ECD00F",
"~+	c #FFE864",
"{+	c #FFE85F",
"]+	c #FFE860",
"^+	c #E7B700",
"/+	c #ECCE0E",
"(+	c #FFE65A",
"_+	c #FFE656",
":+	c #FFE655",
"<+	c #FFE555",
"[+	c #FFE65E",
"}+	c #EBC90C",
"|+	c #ECCD0C",
"1+	c #FFE350",
"2+	c #FFE34C",
"3+	c #FFE34E",
"4+	c #FFE450",
"5+	c #FFE246",
"6+	c #FFDF2E",
"7+	c #FFDA15",
"8+	c #ECCB01",
"9+	c #ECCB0B",
"0+	c #FFE047",
"a+	c #FFE043",
"b+	c #FFE046",
"c+	c #FFE143",
"d+	c #FFDE34",
"e+	c #FFDA1C",
"f+	c #FFD607",
"g+	c #ECC900",
"h+	c #ECC909",
"i+	c #FFDE3E",
"j+	c #FFDE3A",
"k+	c #FFDD3A",
"l+	c #FFDE3C",
"m+	c #FFDE3D",
"n+	c #FFDD35",
"o+	c #FFDA22",
"p+	c #FFD60F",
"q+	c #FFD400",
"r+	c #ECC800",
"s+	c #ECC708",
"t+	c #FFDB35",
"u+	c #FFDB33",
"v+	c #FFDB34",
"w+	c #FFDB36",
"x+	c #FFD827",
"y+	c #FFD615",
"z+	c #FFD305",
"A+	c #FFD200",
"B+	c #ECC500",
"C+	c #ECC507",
"D+	c #FFD82E",
"E+	c #FFD82C",
"F+	c #FFD82D",
"G+	c #FFD727",
"H+	c #FFD519",
"I+	c #FFD20A",
"J+	c #ECC300",
"K+	c #ECC306",
"L+	c #FFD527",
"M+	c #FFD625",
"N+	c #FFD627",
"O+	c #FFD41B",
"P+	c #FFD10E",
"Q+	c #FFCF03",
"R+	c #FFCE00",
"S+	c #ECC200",
"T+	c #ECC205",
"U+	c #FFD321",
"V+	c #FFD31F",
"W+	c #FFD320",
"X+	c #FFD21C",
"Y+	c #FFD011",
"Z+	c #FFCE06",
"`+	c #FFCD00",
" @	c #ECC100",
".@	c #ECC004",
"+@	c #FFD01B",
"@@	c #FFD019",
"#@	c #FFD01A",
"$@	c #FFCF19",
"%@	c #FFCE12",
"&@	c #FFCC09",
"*@	c #FFCB01",
"=@	c #ECBF00",
"-@	c #ECBE03",
";@	c #FFCD15",
">@	c #FFCD13",
",@	c #FFCD14",
"'@	c #FFCC11",
")@	c #FFCB0A",
"!@	c #FFCA04",
"~@	c #FFC900",
"{@	c #ECBD00",
"]@	c #ECBC02",
"^@	c #FFCA10",
"/@	c #FFCB10",
"(@	c #FFCA0F",
"_@	c #FFCA0A",
":@	c #FFC805",
"<@	c #FFC700",
"[@	c #ECBB00",
"}@	c #ECBA01",
"|@	c #FFC80C",
"1@	c #FFC80B",
"2@	c #FFC80A",
"3@	c #FFC706",
"4@	c #FFC602",
"5@	c #FFC500",
"6@	c #ECB900",
"7@	c #ECB801",
"8@	c #FFC508",
"9@	c #FFC607",
"0@	c #FFC608",
"a@	c #FFC505",
"b@	c #FFC402",
"c@	c #FFC300",
"d@	c #ECB800",
"e@	c #ECB700",
"f@	c #FFC305",
"g@	c #FFC204",
"h@	c #FFC202",
"i@	c #FFC200",
"j@	c #ECB500",
"k@	c #FFC103",
"l@	c #FFC003",
"m@	c #FFC102",
"n@	c #FFC001",
"o@	c #FFC000",
"p@	c #ECB300",
"q@	c #FFBE01",
"r@	c #FFBF01",
"s@	c #FFBF00",
"t@	c #FFBE00",
"u@	c #ECAF00",
"v@	c #FFBA00",
"w@	c #ECAE00",
"x@	c #FFB800",
"y@	c #FFB900",
"z@	c #FFB600",
"A@	c #ECAA00",
"B@	c #FFB500",
"C@	c #ECA900",
"D@	c #FFB300",
"E@	c #ECA700",
"F@	c #FFB100",
"G@	c #E3A000",
"H@	c #FFAF00",
"I@	c #BA8200",
"J@	c #FFB40F",
"K@	c #FFB50F",
"L@	c #654305",
"M@	c #FDAA18",
"N@	c #F7A517",
"O@	c #F9AA00",
"P@	c #FFAB00",
"Q@	c #513500",
"R@	c #FEA800",
"S@	c #FFA800",
"T@	c #6E4800",
"U@	c #FFB000",
"V@	c #FEA500",
"W@	c #FFA600",
"X@	c #322000",
"Y@	c #CD8700",
"Z@	c #FFAC00",
"`@	c #FFAD00",
" #	c #FFAE00",
".#	c #0D0900",
"+#	c #311F00",
"@#	c #311E00",
"                                                                                                                                ",
"                                                                                                                                ",
"                                                                                                                                ",
"                                                                                                                                ",
"                                                                                                                                ",
"                                                              . . . . . . . . . . . . . . . . . . . . . . . . . . . .           ",
"                                                            . . . + @ @ @ @ @ @ @ @ @ @ @ @ @ @ @ @ @ @ @ @ @ @ # . . .         ",
"                                                          . . $ % & & & & & & & & & & & & & & & & & & & & & & & * = - . .       ",
"                                                        . . ; > , ' ' ' ' ' ' ' ' ' ' ' ' ' ' ' ' ' ' ' ' ' ' ' ' , ) ! . .     ",
"                                                        . . ~ { { { { { { { { { { { { { { { { { { { { { { { { { { { { ] ^ . .   ",
"                                                        . / ( _ : : : : : : : : : : : : : : : : : : : : : : : : : : : _ ] < .   ",
"              . . . . . . . . . . . . . . . . . . . . . . [ } | | | | | | | | | | | | | | | | | | | | | | | | | | | | | 1 2 .   ",
"        3 . . . . . . . . . . . . . . . . . . . . . . . 4 5 6 7 6 6 6 6 6 6 6 6 6 6 6 6 6 6 6 6 6 6 6 6 6 6 6 6 6 6 6 6 7 8 . . ",
"      . . . 9 0 a b c c c c c c c c c c c c c c c c d e f g h i i i i i i i i i i i i i i i i i i i i i i i i i i i i i i j . . ",
"    . . k l m n o p p p p p p p p p p p p p p p p q r s t u v w x x x x x x x x x x x x x x x x x x x x x x x x x x x x y z . . ",
"  . . A B C D E F G F F F F F F F F F F F F F F F G H I J K L M N N N N N N N N N N N N N N N N N N N N N N N N N N N N N O . . ",
"  . . P Q R S S S S S S S S S S S S S S S S S S S S S S T U V W X Y Y Y Y Y Y Y Y Y Y Y Y Y Y Y Y Y Y Y Y Y Y Y Y Y Y Y Y Z . . ",
". . `  ...+.+.+.+.+.+.+.+.+.+.+.+.+.+.+.+.+.+.+.+.+.+.+.@.#.$.%.&.*.*.*.*.*.*.*.*.*.*.*.*.*.*.*.*.*.*.*.*.*.*.*.=.=.=.=.*.-.. . ",
". . ;.>.,.'.'.'.'.'.'.'.'.'.'.'.'.'.'.'.'.'.'.'.'.'.'.'.).!.~.{.].^./././././././././././././././././././././.(._.:.<.[.[.}.. . ",
". . |.1.2.2.2.2.2.2.2.2.2.2.2.2.2.2.2.2.2.2.2.2.2.2.2.2.3.4.5.6.7.8.9.9.9.9.9.9.9.9.9.9.9.9.9.9.9.9.9.9.9.9.9.0.a.b.c.d.e.f.. . ",
". . g.h.i.i.i.i.i.i.i.i.i.i.i.i.i.i.i.i.i.i.i.i.i.i.i.i.i.j.' k.l.m.n.n.n.n.n.n.n.n.n.n.n.n.n.n.n.n.n.n.n.n.o.p.q.r.s.t.u.v.. . ",
". . w.x.y.y.y.y.y.y.y.y.y.y.y.y.y.y.y.y.y.y.y.y.y.y.y.y.y.y.z.A.B.C.D.D.D.D.D.D.D.D.D.D.D.D.D.D.D.D.D.D.D.D.D.E.F.G.H.I.J.K.. . ",
". . L.M.N.N.N.N.N.N.N.N.N.N.N.N.N.N.N.N.N.N.N.N.N.N.N.N.N.N.O.P.Q.Q.Q.Q.Q.Q.Q.Q.Q.Q.Q.Q.Q.Q.Q.Q.Q.Q.Q.Q.Q.Q.Q.R.S.T.U.V.W.X.. . ",
". . Y.Z.`.`.`.`.`.`.`.`.`.`.`.`.`.`.`.`.`.`.`.`.`.`.`.`.`.`.`.`.`.`.`.`.`.`.`.`.`.`.`.`.`.`.`.`.`.`.`.`.`.`.`.`.`.`. +.+++@+. . ",
". . #+$+%+%+%+%+%+%+%+%+%+%+%+%+%+%+%+%+%+%+%+%+%+%+%+%+%+%+%+%+%+%+%+%+%+%+%+%+%+%+%+%+%+%+%+%+%+%+%+%+%+%+%+%+%+%+&+*+=+-+. . ",
". . ;+>+,+,+,+,+,+,+,+,+,+,+,+,+,+,+,+,+,+,+,+,+,+,+,+,+,+,+,+,+,+,+,+,+,+,+,+,+,+,+,+,+,+,+,+,+,+,+,+,+,+,+,+,+,+,+,+,+'+)+. . ",
". . !+~+{+{+{+{+{+{+{+{+{+{+{+{+{+{+{+{+{+{+{+{+{+{+{+{+{+{+{+{+{+{+{+{+{+{+{+{+{+{+{+{+{+{+{+{+{+{+{+{+{+{+{+{+{+{+{+{+]+^+. . ",
". . /+(+_+_+_+_+_+_+_+_+_+_+_+_+_+_+_+_+_+_+_+_+_+_+_+_+_+_+_+_+_+_+_+_+_+_+_+_+_+_+_+_+_+_+_+_+_+_+_+_+_+_+_+_+_+:+<+_+[+}+. . ",
". . |+1+2+2+2+2+2+2+2+2+2+2+2+2+2+2+2+2+2+2+2+2+2+2+2+2+2+2+2+2+2+2+2+2+2+2+2+2+2+2+2+2+2+2+2+2+2+2+2+2+2+2+2+2+3+4+5+6+7+8+. . ",
". . 9+0+a+a+a+a+a+a+a+a+a+a+a+a+a+a+a+a+a+a+a+a+a+a+a+a+a+a+a+a+a+a+a+a+a+a+a+a+a+a+a+a+a+a+a+a+a+a+a+a+a+b+c+d+e+f+7 7 7 g+. . ",
". . h+i+j+j+j+j+j+j+j+j+j+j+j+j+j+j+j+j+j+j+j+j+j+j+j+j+j+j+j+j+j+j+j+j+j+j+j+j+j+j+j+j+j+j+j+j+k+l+m+n+o+p+q+q+q+q+q+q+q+r+. . ",
". . s+t+u+u+u+u+u+u+u+u+u+u+u+u+u+u+u+u+u+u+u+u+u+u+u+u+u+u+u+u+u+u+u+u+u+u+u+u+u+u+u+u+u+v+w+u+x+y+z+A+A+A+A+A+A+A+A+A+A+B+. . ",
". . C+D+E+E+E+E+E+E+E+E+E+E+E+E+E+E+E+E+E+E+E+E+E+E+E+E+E+E+E+E+E+E+E+E+E+E+E+E+E+E+F+D+G+H+I+i i i i i i i i i i i i i i J+. . ",
". . K+L+M+M+M+M+M+M+M+M+M+M+M+M+M+M+M+M+M+M+M+M+M+M+M+M+M+M+M+M+M+M+M+M+M+M+M+N+M+O+P+Q+R+R+R+R+R+R+R+R+R+R+R+R+R+R+R+R+R+S+. . ",
". . T+U+V+V+V+V+V+V+V+V+V+V+V+V+V+V+V+V+V+V+V+V+V+V+V+V+V+V+V+V+V+V+V+W+W+X+Y+Z+x x `+`+`+`+`+`+`+`+`+`+`+`+`+`+`+`+`+`+`+ @. . ",
". . .@+@@@@@@@@@@@@@@@@@@@@@@@@@@@@@@@@@@@@@@@@@@@@@@@@@@@@@@@#@#@$@%@&@*@y y y y y y y y y y y y y y y y y y y y y y y y =@. . ",
". . -@;@>@>@>@>@>@>@>@>@>@>@>@>@>@>@>@>@>@>@>@>@>@>@>@>@,@,@'@)@!@~@~@~@~@~@~@~@~@~@~@~@~@~@~@~@~@~@~@~@~@~@~@~@~@~@~@~@~@{@. . ",
". . ]@^@/@/@/@/@/@/@/@/@/@/@/@/@/@/@/@/@/@/@/@/@^@/@(@_@:@<@<@<@<@<@<@<@<@<@<@<@<@<@<@<@<@<@<@<@<@<@<@<@<@<@<@<@<@<@<@<@<@[@. . ",
". . }@|@|@|@|@|@|@|@|@|@|@|@|@|@|@|@|@1@1@|@|@2@3@4@5@5@5@5@5@5@5@5@5@5@5@5@5@5@5@5@5@5@5@5@5@5@5@5@5@5@5@5@5@5@5@5@5@5@5@6@. . ",
". . 7@8@9@9@9@9@9@9@9@9@9@9@9@9@9@9@0@9@a@b@c@c@c@c@c@c@c@c@c@c@c@c@c@c@c@c@c@c@c@c@c@c@c@c@c@c@c@c@c@c@c@c@c@c@c@c@c@c@c@d@. . ",
". . e@f@f@f@f@f@f@f@f@f@f@f@f@f@g@h@i@i@i@i@i@i@i@i@i@i@i@i@i@i@i@i@i@i@i@i@i@i@i@i@i@i@i@i@i@i@i@i@i@i@i@i@i@i@i@i@i@i@i@e@. . ",
". . j@k@k@k@k@k@k@k@k@k@l@m@n@o@o@o@o@o@o@o@o@o@o@o@o@o@o@o@o@o@o@o@o@o@o@o@o@o@o@o@o@o@o@o@o@o@o@o@o@o@o@o@o@o@o@o@o@o@o@j@. . ",
". . p@q@r@r@r@r@r@r@s@t@t@t@t@t@t@t@t@t@t@t@t@t@t@t@t@t@t@t@t@t@t@t@t@t@t@t@t@t@t@t@t@t@t@t@t@t@t@t@t@t@t@t@t@t@t@t@t@t@t@p@. . ",
". . -.*.*.*.*.*.*.*.*.*.*.*.*.*.*.*.*.*.*.*.*.*.*.*.*.*.*.*.*.*.*.*.*.*.*.*.*.*.*.*.*.*.*.*.*.*.*.*.*.*.*.*.*.*.*.*.*.*.*.-.. . ",
". . u@v@v@v@v@v@v@v@v@v@v@v@v@v@v@v@v@v@v@v@v@v@v@v@v@v@v@v@v@v@v@v@v@v@v@v@v@v@v@v@v@v@v@v@v@v@v@v@v@v@v@v@v@v@v@v@v@v@v@u@. . ",
". . w@x@y@y@y@y@y@y@y@y@y@y@y@y@y@y@y@y@y@y@y@y@y@y@y@y@y@y@y@y@y@y@y@y@y@y@y@y@y@y@y@y@y@y@y@y@y@y@y@y@y@y@y@y@y@y@y@y@x@w@. . ",
". . }.z@z@z@z@z@z@z@z@z@z@z@z@z@z@z@z@z@z@z@z@z@z@z@z@z@z@z@z@z@z@z@z@z@z@z@z@z@z@z@z@z@z@z@z@z@z@z@z@z@z@z@z@z@z@z@z@z@z@}.. . ",
". . A@B@B@B@B@B@B@B@B@B@B@B@B@B@B@B@B@B@B@B@B@B@B@B@B@B@B@B@B@B@B@B@B@B@B@B@B@B@B@B@B@B@B@B@B@B@B@B@B@B@B@B@B@B@B@B@B@B@B@A@. . ",
". . C@D@D@D@D@D@D@D@D@D@D@D@D@D@D@D@D@D@D@D@D@D@D@D@D@D@D@D@D@D@D@D@D@D@D@D@D@D@D@D@D@D@D@D@D@D@D@D@D@D@D@D@D@D@D@D@D@D@D@C@. . ",
". . E@F@F@F@F@F@F@F@F@F@F@F@F@F@F@F@F@F@F@F@F@F@F@F@F@F@F@F@F@F@F@F@F@F@F@F@F@F@F@F@F@F@F@F@F@F@F@F@F@F@F@F@F@F@F@F@F@F@F@E@. . ",
". . G@H@H@H@H@H@H@H@H@H@H@H@H@H@H@H@H@H@H@H@H@H@H@H@H@H@H@H@H@H@H@H@H@H@H@H@H@H@H@H@H@H@H@H@H@H@H@H@H@H@H@H@H@H@H@H@H@H@H@G@. . ",
". . I@J@K@K@K@K@K@K@K@K@K@K@K@K@K@K@K@K@K@K@K@K@K@K@K@K@K@K@K@K@K@K@K@K@K@K@K@K@K@K@K@K@K@K@K@K@K@K@K@K@K@K@K@K@K@K@K@K@J@I@. . ",
". . L@M@N@N@N@N@N@N@N@N@N@N@N@N@N@N@N@N@N@N@N@N@N@N@N@N@N@N@N@N@N@N@N@N@N@N@N@N@N@N@N@N@N@N@N@N@N@N@N@N@N@N@N@N@N@N@N@N@M@L@. . ",
"  . . O@P@P@P@P@P@P@P@P@P@P@P@P@P@P@P@P@P@P@P@P@P@P@P@P@P@P@P@P@P@P@P@P@P@P@P@P@P@P@P@P@P@P@P@P@P@P@P@P@P@P@P@P@P@P@P@P@O@. .   ",
"  . . Q@F@R@S@S@S@S@S@S@S@S@S@S@S@S@S@S@S@S@S@S@S@S@S@S@S@S@S@S@S@S@S@S@S@S@S@S@S@S@S@S@S@S@S@S@S@S@S@S@S@S@S@S@S@S@R@F@Q@. .   ",
"    . . T@U@V@W@W@W@W@W@W@W@W@W@W@W@W@W@W@W@W@W@W@W@W@W@W@W@W@W@W@W@W@W@W@W@W@W@W@W@W@W@W@W@W@W@W@W@W@W@W@W@W@W@W@V@U@T@. .     ",
"      . . X@Y@Z@`@ # # # # # # # # # # # # # # # # # # # # # # # # # # # # # # # # # # # # # # # # # # # # # #`@Z@Y@X@. .       ",
"        . . . .#+#@#+#+#+#+#+#+#+#+#+#+#+#+#+#+#+#+#+#+#+#+#+#+#+#+#+#+#+#+#+#+#+#+#+#+#+#+#+#+#+#+#+#+#+#+#@#+#.#. . .         ",
"          . . . . . . . . . . . . . . . . . . . . . . . . . . . . . . . . . . . . . . . . . . . . . . . . . . . . . .           ",
"                                                                                                                                ",
"                                                                                                                                ",
"                                                                                                                                ",
"                                                                                                                                ",
"                                                                                                                                "};
