/* XPM */
static const char * dossier_ouv_sel_xpm[] = {
"64 64 590 2",
"  	c None",
". 	c #000000",
"+ 	c #252E00",
"@ 	c #263000",
"# 	c #263100",
"$ 	c #0D1000",
"% 	c #5B7601",
"& 	c #C4FB01",
"* 	c #CEFF01",
"= 	c #CDFF01",
"- 	c #A8D701",
"; 	c #394A00",
"> 	c #577602",
", 	c #BDFE06",
"' 	c #B5F406",
") 	c #B6F406",
"! 	c #B5F306",
"~ 	c #BFFF06",
"{ 	c #739B03",
"] 	c #A2E509",
"^ 	c #A9EE0A",
"/ 	c #A9EF0A",
"( 	c #AEF60A",
"_ 	c #5B8205",
": 	c #020300",
"< 	c #9EED0E",
"[ 	c #9BE90E",
"} 	c #A4F50E",
"| 	c #121B01",
"1 	c #142002",
"2 	c #97EF13",
"3 	c #8FE312",
"4 	c #90E412",
"5 	c #53850A",
"6 	c #010200",
"7 	c #6BB711",
"8 	c #82DD15",
"9 	c #81DC15",
"0 	c #6FBD13",
"a 	c #0D1902",
"b 	c #315C0B",
"c 	c #44800F",
"d 	c #44810F",
"e 	c #519812",
"f 	c #75D819",
"g 	c #74D719",
"h 	c #6ECB18",
"i 	c #020500",
"j 	c #499615",
"k 	c #6DDD1E",
"l 	c #6AD61D",
"m 	c #68D21D",
"n 	c #67D11D",
"o 	c #61C41B",
"p 	c #030901",
"q 	c #56C220",
"r 	c #5ACC21",
"s 	c #59CB21",
"t 	c #59CA21",
"u 	c #58CA21",
"v 	c #5ACB21",
"w 	c #54BF1F",
"x 	c #40A41F",
"y 	c #4CC425",
"z 	c #49C224",
"A 	c #47BF22",
"B 	c #43BC21",
"C 	c #42BA20",
"D 	c #41BA20",
"E 	c #41B920",
"F 	c #42BB21",
"G 	c #45BE21",
"H 	c #49C123",
"I 	c #4CC424",
"J 	c #4DC525",
"K 	c #49BA23",
"L 	c #11360B",
"M 	c #41C629",
"N 	c #39B825",
"O 	c #33B122",
"P 	c #2BA91F",
"Q 	c #26A31C",
"R 	c #229F1A",
"S 	c #219E1A",
"T 	c #24A01B",
"U 	c #28A61D",
"V 	c #31B021",
"W 	c #3EBD28",
"X 	c #40BF29",
"Y 	c #40BF28",
"Z 	c #3DB426",
"` 	c #23811E",
" .	c #2CB028",
"..	c #23A522",
"+.	c #19971C",
"@.	c #118D16",
"#.	c #088412",
"$.	c #037E11",
"%.	c #027D11",
"&.	c #017D11",
"*.	c #007C11",
"=.	c #007B11",
"-.	c #007D11",
";.	c #027D10",
">.	c #037D10",
",.	c #047E11",
"'.	c #068110",
").	c #0E8A14",
"!.	c #18971B",
"~.	c #24A623",
"{.	c #2EB229",
"].	c #32B82C",
"^.	c #33BA2D",
"/.	c #33B92C",
"(.	c #30AF2A",
"_.	c #1D9A27",
":.	c #1A9E25",
"<.	c #0F8E1B",
"[.	c #067F13",
"}.	c #239615",
"|.	c #4CB717",
"1.	c #68C914",
"2.	c #7BD310",
"3.	c #86D80C",
"4.	c #92DD09",
"5.	c #9CE106",
"6.	c #A4E504",
"7.	c #A9E601",
"8.	c #ADE601",
"9.	c #AAE602",
"0.	c #A7E603",
"a.	c #A2E504",
"b.	c #9BE107",
"c.	c #93DE09",
"d.	c #8AD90C",
"e.	c #7ED40F",
"f.	c #72CF12",
"g.	c #64C916",
"h.	c #55C11B",
"i.	c #43B920",
"j.	c #23A01E",
"k.	c #0B8516",
"l.	c #13931E",
"m.	c #1EA629",
"n.	c #24B12F",
"o.	c #26B431",
"p.	c #26B430",
"q.	c #24A92D",
"r.	c #119427",
"s.	c #09891E",
"t.	c #108B1A",
"u.	c #46C025",
"v.	c #5ACD22",
"w.	c #6DD41B",
"x.	c #87DF14",
"y.	c #96E610",
"z.	c #A3EC0B",
"A.	c #B0F107",
"B.	c #B9F604",
"C.	c #C2FA02",
"D.	c #C8FD00",
"E.	c #CBFF00",
"F.	c #C9FD00",
"G.	c #C6FC00",
"H.	c #C0F903",
"I.	c #B0F307",
"J.	c #A7ED0A",
"K.	c #9AE80E",
"L.	c #8DE212",
"M.	c #7EDC16",
"N.	c #6ED41B",
"O.	c #5BCC20",
"P.	c #37BC2C",
"Q.	c #24B433",
"R.	c #0B8E21",
"S.	c #119A28",
"T.	c #17A932",
"U.	c #19AE34",
"V.	c #19AE35",
"W.	c #18A431",
"X.	c #068524",
"Y.	c #0C8B20",
"Z.	c #2FBA30",
"`.	c #6AD31C",
" +	c #B1F301",
".+	c #CAFE01",
"++	c #D5FF2B",
"@+	c #D6FF34",
"#+	c #D4FE34",
"$+	c #D3FE35",
"%+	c #D3FD35",
"&+	c #D2FD35",
"*+	c #D5FE34",
"=+	c #D7FF34",
"-+	c #D7FF2E",
";+	c #C2FB00",
">+	c #6DD319",
",+	c #06A237",
"'+	c #078E25",
")+	c #0AA032",
"!+	c #0CA638",
"~+	c #0CA838",
"{+	c #0CA839",
"]+	c #0A9E35",
"^+	c #017C22",
"/+	c #94E60E",
"(+	c #CDFE12",
"_+	c #EAFDA7",
":+	c #FCFEF7",
"<+	c #FEFFFF",
"[+	c #FEFFFE",
"}+	c #FBFEF3",
"|+	c #DCFF53",
"1+	c #6CD419",
"2+	c #008125",
"3+	c #009430",
"4+	c #009C37",
"5+	c #009E39",
"6+	c #009F39",
"7+	c #00A039",
"8+	c #00A03A",
"9+	c #00A13A",
"0+	c #00A23C",
"a+	c #00A33C",
"b+	c #009939",
"c+	c #008C2E",
"d+	c #86E013",
"e+	c #CDFB35",
"f+	c #F8FEE8",
"g+	c #F6FDE1",
"h+	c #F6FEE0",
"i+	c #F9FDEE",
"j+	c #BFFA15",
"k+	c #007A21",
"l+	c #008525",
"m+	c #008D2C",
"n+	c #00912F",
"o+	c #009230",
"p+	c #009330",
"q+	c #009532",
"r+	c #009935",
"s+	c #009D39",
"t+	c #00A03B",
"u+	c #2EAA29",
"v+	c #C4F90F",
"w+	c #F3FCD8",
"x+	c #F1FCD1",
"y+	c #F2FDD2",
"z+	c #F3FDD8",
"A+	c #D2FB4A",
"B+	c #079D33",
"C+	c #007518",
"D+	c #00761B",
"E+	c #007A1E",
"F+	c #007A1F",
"G+	c #00791F",
"H+	c #007920",
"I+	c #007A20",
"J+	c #007B21",
"K+	c #008123",
"L+	c #008828",
"M+	c #00902E",
"N+	c #009835",
"O+	c #009F3A",
"P+	c #009838",
"Q+	c #7AD10D",
"R+	c #D9F988",
"S+	c #ECFBC3",
"T+	c #ECFCC3",
"U+	c #EDFCC7",
"V+	c #D2FA59",
"W+	c #3CBE29",
"X+	c #14AC37",
"Y+	c #1DA52A",
"Z+	c #22A124",
"`+	c #2CA522",
" @	c #35A91F",
".@	c #3EAE1B",
"+@	c #47B21A",
"@@	c #4FB517",
"#@	c #57B915",
"$@	c #5FBC13",
"%@	c #66C011",
"&@	c #6CC30E",
"*@	c #73C60C",
"=@	c #79C80B",
"-@	c #7DCB0A",
";@	c #82CD08",
">@	c #86CE07",
",@	c #87CE06",
"'@	c #7ECB09",
")@	c #74C60C",
"!@	c #69C20F",
"~@	c #5FBD13",
"{@	c #55B816",
"]@	c #4BB418",
"^@	c #41AF1C",
"/@	c #2CA01E",
"(@	c #0E851D",
"_@	c #008B2A",
":@	c #009633",
"<@	c #009536",
"[@	c #9BDF05",
"}@	c #E5F9B4",
"|@	c #E6FAB5",
"1@	c #E6FAB6",
"2@	c #E0F8A6",
"3@	c #ABF001",
"4@	c #52C823",
"5@	c #2CB62E",
"6@	c #35BB2D",
"7@	c #44C128",
"8@	c #51C624",
"9@	c #5FCD1F",
"0@	c #6BD31C",
"a@	c #77D919",
"b@	c #83DE15",
"c@	c #8FE212",
"d@	c #99E70E",
"e@	c #ACF009",
"f@	c #B4F406",
"g@	c #BCF704",
"h@	c #C3FA02",
"i@	c #CAFE00",
"j@	c #ADF008",
"k@	c #9EEA0D",
"l@	c #80DC16",
"m@	c #71D61A",
"n@	c #61CF1E",
"o@	c #4FC625",
"p@	c #43C32A",
"q@	c #2DB12A",
"r@	c #048220",
"s@	c #008928",
"t@	c #008F31",
"u@	c #9FE00F",
"v@	c #E3F9B1",
"w@	c #E0F9A9",
"x@	c #E0F9AA",
"y@	c #D9F899",
"z@	c #BBF337",
"A@	c #B0F110",
"B@	c #ACF010",
"C@	c #ACEF10",
"D@	c #ABEF10",
"E@	c #AAEF10",
"F@	c #A9EF10",
"G@	c #A9EE10",
"H@	c #A9EE11",
"I@	c #A8EE11",
"J@	c #A8EE10",
"K@	c #A7EE11",
"L@	c #A7EE09",
"M@	c #9FEB04",
"N@	c #85DE11",
"O@	c #42C029",
"P@	c #22B333",
"Q@	c #058724",
"R@	c #00862B",
"S@	c #99DE10",
"T@	c #DBF7A4",
"U@	c #D8F79C",
"V@	c #D8F69C",
"W@	c #DAF7A3",
"X@	c #DBF7A3",
"Y@	c #DAF7A1",
"Z@	c #D3F68F",
"`@	c #BDF156",
" #	c #A7EE0A",
".#	c #66D11D",
"+#	c #0FA937",
"@#	c #007E24",
"##	c #94DB12",
"$#	c #D3F498",
"%#	c #D0F491",
"&#	c #D0F490",
"*#	c #D2F492",
"=#	c #D1F490",
"-#	c #A7EC1F",
";#	c #5ECD1F",
">#	c #008B2E",
",#	c #8ED913",
"'#	c #CDF28C",
")#	c #CAF286",
"!#	c #C9F285",
"~#	c #CBF288",
"{#	c #A0EA13",
"]#	c #1DA32E",
"^#	c #89D614",
"/#	c #C3F081",
"(#	c #C0F07C",
"_#	c #C1F07C",
":#	c #B3EC5E",
"<#	c #5CC318",
"[#	c #84D415",
"}#	c #BBED77",
"|#	c #B9ED71",
"1#	c #B8ED71",
"2#	c #BAED75",
"3#	c #7CD114",
"4#	c #7ED217",
"5#	c #B3EA6D",
"6#	c #B1EA68",
"7#	c #B0EA69",
"8#	c #B1EA6B",
"9#	c #B5EA71",
"0#	c #83D320",
"a#	c #79D018",
"b#	c #AAE765",
"c#	c #A8E761",
"d#	c #A7E761",
"e#	c #A8E762",
"f#	c #A9E764",
"g#	c #9DE34E",
"h#	c #8FE034",
"i#	c #81DC1B",
"j#	c #76CF14",
"k#	c #73CD19",
"l#	c #A0E45D",
"m#	c #9EE35A",
"n#	c #9EE359",
"o#	c #A0E45B",
"p#	c #A0E45C",
"q#	c #9AE251",
"r#	c #8DDF3C",
"s#	c #81DB25",
"t#	c #78D916",
"u#	c #77D915",
"v#	c #79D918",
"w#	c #72CC17",
"x#	c #6ECB1A",
"y#	c #98E155",
"z#	c #96E152",
"A#	c #95E051",
"B#	c #8CDE41",
"C#	c #7FDA2E",
"D#	c #75D71C",
"E#	c #71D716",
"F#	c #72D719",
"G#	c #73D71A",
"H#	c #6CCB19",
"I#	c #68C81B",
"J#	c #8EDD4F",
"K#	c #8DDD4C",
"L#	c #8EDD4E",
"M#	c #88DB45",
"N#	c #7DD834",
"O#	c #73D624",
"P#	c #6DD419",
"Q#	c #67C819",
"R#	c #63C61D",
"S#	c #85DA49",
"T#	c #83DA47",
"U#	c #83DA46",
"V#	c #84DA47",
"W#	c #85DA48",
"X#	c #83D945",
"Y#	c #7AD739",
"Z#	c #71D42A",
"`#	c #69D21E",
" $	c #66D11A",
".$	c #68D21C",
"+$	c #62C51C",
"@$	c #5DC31E",
"#$	c #7CD643",
"$$	c #7BD641",
"%$	c #7CD742",
"&$	c #76D53B",
"*$	c #6ED230",
"=$	c #66D023",
"-$	c #61CF1D",
";$	c #62CF1F",
">$	c #5DC31D",
",$	c #58C11F",
"'$	c #72D33E",
")$	c #72D33D",
"!$	c #71D33C",
"~$	c #71D33D",
"{$	c #72D43D",
"]$	c #73D43E",
"^$	c #70D33B",
"/$	c #6AD133",
"($	c #63CF29",
"_$	c #5DCC20",
":$	c #5CCC1E",
"<$	c #5DCD20",
"[$	c #57C01E",
"}$	c #53BE21",
"|$	c #69D03A",
"1$	c #69D039",
"2$	c #68D039",
"3$	c #68CF39",
"4$	c #65CE34",
"5$	c #5FCD2C",
"6$	c #59CB24",
"7$	c #56CA21",
"8$	c #57CA22",
"9$	c #52BE20",
"0$	c #4DBC22",
"a$	c #61CB37",
"b$	c #60CB36",
"c$	c #60CC36",
"d$	c #61CC36",
"e$	c #5FCC34",
"f$	c #5ACB2F",
"g$	c #55C928",
"h$	c #51C724",
"i$	c #51C723",
"j$	c #52C724",
"k$	c #4CBB22",
"l$	c #48B924",
"m$	c #58C834",
"n$	c #57C934",
"o$	c #57C933",
"p$	c #58C934",
"q$	c #54C830",
"r$	c #51C62B",
"s$	c #4DC627",
"t$	c #4BC524",
"u$	c #4BC525",
"v$	c #4CC525",
"w$	c #48B923",
"x$	c #42B825",
"y$	c #4FC531",
"z$	c #4FC631",
"A$	c #50C631",
"B$	c #4EC530",
"C$	c #4CC42D",
"D$	c #48C32A",
"E$	c #46C227",
"F$	c #45C227",
"G$	c #46C327",
"H$	c #42B725",
"I$	c #3DB527",
"J$	c #47C230",
"K$	c #48C230",
"L$	c #45C12E",
"M$	c #43C12C",
"N$	c #41C029",
"O$	c #40C029",
"P$	c #37B228",
"Q$	c #3FBE2F",
"R$	c #3FBF2F",
"S$	c #3EBF2E",
"T$	c #3DBE2D",
"U$	c #3BBE2B",
"V$	c #3ABD2A",
"W$	c #3ABD2B",
"X$	c #32B02A",
"Y$	c #37BB2E",
"Z$	c #37BC2E",
"`$	c #38BC2E",
" %	c #36BB2D",
".%	c #35BA2C",
"+%	c #35BB2C",
"@%	c #32B029",
"#%	c #2CAE2C",
"$%	c #31B830",
"%%	c #31B930",
"&%	c #30B92F",
"*%	c #31B92F",
"=%	c #30B92E",
"-%	c #2FB82E",
";%	c #30B82E",
">%	c #2CAE2B",
",%	c #27AC2C",
"'%	c #2AB62F",
")%	c #2AB630",
"!%	c #22A92E",
"~%	c #24B331",
"{%	c #19A230",
"]%	c #19AF35",
"^%	c #439117",
"/%	c #74CE18",
"(%	c #73CF19",
"_%	c #002C10",
":%	c #08AE3D",
"<%	c #07A63A",
"[%	c #0A7F2A",
"}%	c #0EAB38",
"|%	c #0EA938",
"1%	c #07832D",
"2%	c #08AC3C",
"3%	c #08A539",
"4%	c #08A639",
"5%	c #014017",
"6%	c #029335",
"7%	c #02AC3F",
"8%	c #000C04",
"9%	c #001F0B",
"                                                                                                                                ",
"                                                                                                                                ",
"                                                                                                                                ",
"                                                                                                                                ",
"                                                                                                                                ",
"                                                              . . . . . . . . . . . . . . . . . . . . . . . . . . . .           ",
"                                                            . . . + @ @ @ @ @ @ @ @ @ @ @ @ @ @ @ @ @ @ @ @ @ # $ . . .         ",
"                                                          . . % & * * * * * * * * * * * * * * * * * * * * * * * = - ; . .       ",
"                                                        . . > , ' ) ) ) ) ) ) ) ) ) ) ) ) ) ) ) ) ) ) ) ) ) ) ) ) ! ~ { . .     ",
"                                                        . . ] ^ / / / / / / / / / / / / / / / / / / / / / / / / / / / ( _ . .   ",
"                                                        . : < [ [ [ [ [ [ [ [ [ [ [ [ [ [ [ [ [ [ [ [ [ [ [ [ [ [ [ [ [ } | .   ",
"              . . . . . . . . . . . . . . . . . . . . . . 1 2 3 3 3 3 3 3 3 3 3 3 3 3 3 3 3 3 3 3 3 3 3 3 3 3 3 3 3 3 3 4 5 .   ",
"          . . . . . . . . . . . . . . . . . . . . . . . 6 7 8 8 8 8 8 8 8 8 8 8 8 8 8 8 8 8 8 8 8 8 8 8 8 8 8 8 8 8 8 8 9 0 . . ",
"      . . . a b c c d d d d d d d d d d d d d d d d c e f f g g g g g g g g g g g g g g g g g g g g g g g g g g g g g g g h . . ",
"    . . i j k l m m m m m m m m m m m m m m m m m m m n n n n n n n n n n n n n n n n n n n n n n n n n n n n n n n n n n o . . ",
"  . . p q r s t u u u u u u u u u u u u u u u u u u u t v v v v v v v v v v v v v v v v v v v v v v v v v v v v v v v v v w . . ",
"  . . x y z A B C D E E E E E E E E E E E E E E E D F G H I J J J J J J J J J J J J J J J J J J J J J J J J J J J J J J J K . . ",
". . L M N O P Q R R S S S S S S S S S S S S S S S R T U V N W X Y Y Y Y Y Y Y Y Y Y Y Y Y Y Y Y Y Y Y Y Y Y Y Y Y Y Y Y Y Z . . ",
". . `  ...+.@.#.$.%.&.*.*.*.*.=.*.*.*.*.*.-.%.;.>.,.'.).!.~.{.].^.^.^.^.^.^.^.^.^.^.^.^.^.^.^.^.^.^.^.^.^.^.^.^.^.^.^.^./.(.. . ",
". . _.:.<.[.}.|.1.2.3.4.5.6.7.8.9.0.a.b.c.d.e.f.g.h.i.j.k.l.m.n.o.o.o.o.o.o.o.o.o.o.o.o.o.o.o.o.o.o.o.o.o.o.o.o.o.o.o.o.p.q.. . ",
". . r.s.t.u.v.w.x.y.z.A.B.C.D.E.F.G.H.B.I.J.K.L.M.N.O.P.Q.R.S.T.U.U.V.V.V.V.V.V.V.V.V.V.V.V.V.V.V.V.V.V.V.V.V.V.V.V.V.V.U.W.. . ",
". . X.Y.Z.`. +.+++@+#+#+$+$+%+&+%+%+$+$+#+#+*+@+=+=+-+;+>+,+'+)+!+~+{+{+{+{+{+{+{+{+{+{+{+{+{+{+{+{+{+{+{+{+{+{+{+{+~+{+~+]+. . ",
". . ^+V./+(+_+:+<+[+[+[+[+[+[+[+[+[+[+[+[+[+[+[+[+[+<+}+|+1+2+3+4+5+6+6+6+6+6+6+6+6+6+6+6+6+6+6+6+6+6+6+6+6+6+7+8+9+0+a+a+b+. . ",
". . c+d+e+f+g+h+h+h+h+h+h+h+h+h+h+h+h+h+h+h+h+h+h+h+h+h+i+j+k+l+m+n+o+o+o+o+o+o+o+o+o+o+o+o+o+o+o+o+o+o+o+o+o+p+q+r+s+t+0+b+. . ",
". . u+v+w+x+y+y+y+y+y+y+y+y+y+y+y+y+y+y+y+y+y+y+y+y+y+y+z+A+B+C+D+E+E+F+F+F+F+G+G+G+H+H+H+H+H+H+H+H+H+G+G+F+I+J+K+L+M+N+O+P+. . ",
". . Q+R+S+T+T+T+T+T+T+T+T+T+T+T+T+T+T+T+T+T+T+T+T+T+T+T+U+V+W+X+Y+Z+`+ @.@+@@@#@$@%@&@*@=@-@;@>@,@'@)@!@~@{@]@^@/@(@F+_@:@<@. . ",
". . [@}@|@1@1@1@1@1@1@1@1@1@1@1@1@1@1@1@1@1@1@1@1@1@1@1@|@2@3@4@5@6@7@8@9@0@a@b@c@d@z.e@f@g@h@D.i@g@j@k@3 l@m@n@o@p@q@r@s@t@. . ",
". . u@v@w@w@w@w@w@w@w@w@w@w@w@w@w@w@w@w@w@w@w@w@w@w@w@w@w@x@y@z@A@B@C@D@D@E@E@E@F@G@G@H@I@J@J@K@K@J@H@G@F@E@E@L@M@N@O@P@Q@R@. . ",
". . S@T@U@U@U@U@U@U@U@U@U@U@U@U@U@U@U@U@U@U@U@U@U@U@U@U@U@U@V@W@T@X@X@X@X@X@X@X@X@X@X@X@X@X@X@X@X@X@X@X@X@X@X@Y@Z@`@ #.#+#@#. . ",
". . ##$#%#%#%#%#%#%#%#%#%#%#%#%#%#%#%#%#%#%#%#%#%#%#%#%#%#%#%#%#%#%#%#%#%#%#%#%#%#%#%#%#%#%#%#%#%#%#%#%#%#%#%#&#&#*#=#-#;#>#. . ",
". . ,#'#)#)#)#)#)#)#)#)#)#)#)#)#)#)#)#)#)#)#)#)#)#)#)#)#)#)#)#)#)#)#)#)#)#)#)#)#)#)#)#)#)#)#)#)#)#)#)#)#)#)#)#)#)#)#!#~#{#]#. . ",
". . ^#/#(#(#(#(#(#(#(#(#(#(#(#(#(#(#(#(#(#(#(#(#(#(#(#(#(#(#(#(#(#(#(#(#(#(#(#(#(#(#(#(#(#(#(#(#(#(#(#(#(#(#(#(#(#(#(#_#:#<#. . ",
". . [#}#|#|#|#|#|#|#|#|#|#|#|#|#|#|#|#|#|#|#|#|#|#|#|#|#|#|#|#|#|#|#|#|#|#|#|#|#|#|#|#|#|#|#|#|#|#|#|#|#|#|#|#|#|#|#|#1#2#3#. . ",
". . 4#5#6#6#6#6#6#6#6#6#6#6#6#6#6#6#6#6#6#6#6#6#6#6#6#6#6#6#6#6#6#6#6#6#6#6#6#6#6#6#6#6#6#6#6#6#6#6#6#6#6#6#6#6#6#6#7#8#9#0#. . ",
". . a#b#c#c#c#c#c#c#c#c#c#c#c#c#c#c#c#c#c#c#c#c#c#c#c#c#c#c#c#c#c#c#c#c#c#c#c#c#c#c#c#c#c#c#c#c#c#c#c#c#c#d#d#e#f#d#g#h#i#j#. . ",
". . k#l#m#m#m#m#m#m#m#m#m#m#m#m#m#m#m#m#m#m#m#m#m#m#m#m#m#m#m#m#m#m#m#m#m#m#m#m#m#m#m#m#m#m#m#m#m#m#n#n#o#p#q#r#s#t#u#v#v#w#. . ",
". . x#y#z#z#z#z#z#z#z#z#z#z#z#z#z#z#z#z#z#z#z#z#z#z#z#z#z#z#z#z#z#z#z#z#z#z#z#z#z#z#z#z#z#z#z#z#z#y#A#B#C#D#E#F#G#G#G#G#G#H#. . ",
". . I#J#K#K#K#K#K#K#K#K#K#K#K#K#K#K#K#K#K#K#K#K#K#K#K#K#K#K#K#K#K#K#K#K#K#K#K#K#K#K#K#K#K#L#L#M#N#O#1+P#N.N.N.N.N.N.N.N.N.Q#. . ",
". . R#S#T#T#T#T#T#T#T#T#T#T#T#T#T#T#T#T#T#T#T#T#T#T#T#T#T#T#T#T#T#T#T#T#T#T#T#U#U#V#W#X#Y#Z#`# $.$m m m m m m m m m m m m +$. . ",
". . @$#$$$$$$$$$$$$$$$$$$$$$$$$$$$$$$$$$$$$$$$$$$$$$$$$$$$$$$$$$$$$$$$$$$$$$%$%$&$*$=$-$-$;$;$;$;$;$;$;$;$;$;$;$;$;$;$;$;$>$. . ",
". . ,$'$)$)$)$)$)$)$)$)$)$)$)$)$)$)$)$)$)$)$)$)$)$)$)$)$)$)$)$)$!$~${$]$^$/$($_$:$_$<$_$<$<$<$<$<$<$<$<$<$<$<$<$<$<$<$<$_$[$. . ",
". . }$|$1$1$1$1$1$1$1$1$1$1$1$1$1$1$1$1$1$1$1$1$1$1$1$1$2$3$2$|$1$4$5$6$7$7$8$8$8$8$8$8$8$8$8$8$8$8$8$8$8$8$8$8$8$8$8$8$8$9$. . ",
". . 0$a$b$b$b$b$b$b$b$b$b$b$b$b$b$b$b$b$b$b$b$b$b$b$b$c$d$e$f$g$h$i$h$j$j$j$j$j$j$j$j$j$j$j$j$j$j$j$j$j$j$j$j$j$j$j$j$j$h$k$. . ",
". . l$m$n$n$n$n$n$n$n$n$n$n$n$n$n$n$n$n$n$n$o$n$p$o$q$r$s$t$u$v$v$v$v$v$v$v$v$v$v$v$v$v$v$v$v$v$v$v$v$v$v$v$v$v$v$v$v$v$v$w$. . ",
". . x$y$z$z$z$z$z$z$z$z$z$z$z$z$z$z$z$z$A$A$B$C$D$E$F$G$G$G$G$G$G$G$G$G$G$G$G$G$G$G$G$G$G$G$G$G$G$G$G$G$G$G$G$G$G$G$G$G$E$H$. . ",
". . I$J$J$J$J$J$J$J$J$J$J$J$J$J$K$K$J$L$M$N$O$O$N$N$N$N$N$N$N$N$N$N$N$N$N$N$N$N$N$N$N$N$N$N$N$N$N$N$N$N$N$N$N$N$N$N$N$N$O$I$. . ",
". . P$Q$Q$Q$Q$Q$Q$Q$Q$Q$Q$Q$R$S$T$U$V$V$V$W$W$W$W$W$W$W$W$W$W$W$W$W$W$W$W$W$W$W$W$W$W$W$W$W$W$W$W$W$W$W$W$W$W$W$W$W$W$W$V$P$. . ",
". . X$Y$Z$Z$Z$Z$Z$Z$Y$`$Y$ %.%.%+%+%+%+%+%+%+%+%+%+%+%+%+%+%+%+%+%+%+%+%+%+%+%+%+%+%+%+%+%+%+%+%+%+%+%+%+%+%+%+%+%+%+%+%.%@%. . ",
". . #%$%%%%%%%%%&%*%=%-%-%;%;%;%;%;%;%;%;%;%;%;%;%;%;%;%;%;%;%;%;%;%;%;%;%;%;%;%;%;%;%;%;%;%;%;%;%;%;%;%;%;%;%;%;%;%;%;%-%>%. . ",
". . ,%'%'%'%'%'%)%)%)%)%)%)%)%)%)%)%)%)%)%)%)%)%)%)%)%)%)%)%)%)%)%)%)%)%)%)%)%)%)%)%)%)%)%)%)%)%)%)%)%)%)%)%)%)%)%)%)%)%'%,%. . ",
". . !%~%~%~%~%~%~%~%~%~%~%~%~%~%~%~%~%~%~%~%~%~%~%~%~%~%~%~%~%~%~%~%~%~%~%~%~%~%~%~%~%~%~%~%~%~%~%~%~%~%~%~%~%~%~%~%~%~%~%!%. . ",
". . {%U.]%]%]%]%]%]%]%]%]%]%]%]%]%]%]%]%]%]%]%]%]%]%]%]%]%]%]%]%]%]%]%]%]%]%]%]%]%]%]%]%]%]%]%]%]%]%]%]%]%]%]%]%]%]%]%]%U.{%. . ",
". . ^%/%(%(%(%(%(%(%(%(%(%(%(%(%(%(%(%(%(%(%(%(%(%(%(%(%(%(%(%(%(%(%(%(%(%(%(%(%(%(%(%(%(%(%(%(%(%(%(%(%(%(%(%(%(%(%(%(%/%^%. . ",
". . _%:%<%<%<%<%<%<%<%<%<%<%<%<%<%<%<%<%<%<%<%<%<%<%<%<%<%<%<%<%<%<%<%<%<%<%<%<%<%<%<%<%<%<%<%<%<%<%<%<%<%<%<%<%<%<%<%<%:%_%. . ",
"  . . [%}%|%|%|%|%|%|%|%|%|%|%|%|%|%|%|%|%|%|%|%|%|%|%|%|%|%|%|%|%|%|%|%|%|%|%|%|%|%|%|%|%|%|%|%|%|%|%|%|%|%|%|%|%|%|%}%[%. .   ",
"  . . . 1%2%3%4%4%4%4%4%4%4%4%4%4%4%4%4%4%4%4%4%4%4%4%4%4%4%4%4%4%4%4%4%4%4%4%4%4%4%4%4%4%4%4%4%4%4%4%4%4%4%4%4%4%3%2%1%. . .   ",
"    . . . 5%6%7%7%7%7%7%7%7%7%7%7%7%7%7%7%7%7%7%7%7%7%7%7%7%7%7%7%7%7%7%7%7%7%7%7%7%7%7%7%7%7%7%7%7%7%7%7%7%7%7%7%6%5%. . .     ",
"      . . . . 8%9%9%9%9%9%9%9%9%9%9%9%9%9%9%9%9%9%9%9%9%9%9%9%9%9%9%9%9%9%9%9%9%9%9%9%9%9%9%9%9%9%9%9%9%9%9%9%9%8%. . . .       ",
"          . . . . . . . . . . . . . . . . . . . . . . . . . . . . . . . . . . . . . . . . . . . . . . . . . . . . . .           ",
"                                                                                                                                ",
"                                                                                                                                ",
"                                                                                                                                ",
"                                                                                                                                ",
"                                                                                                                                "};
