/* XPM */
static const char * animated_object_group_sel_xpm[] = {
"16 16 22 1",
" 	c None",
".	c #618035",
"+	c #466028",
"@	c #309071",
"#	c #2DB409",
"$	c #66D787",
"%	c #66D886",
"&	c #185747",
"*	c #51BE80",
"=	c #52BE80",
"-	c #52BE81",
";	c #68F855",
">	c #89FF8C",
",	c #50E530",
"'	c #51E732",
")	c #1C8102",
"!	c #85B828",
"~	c #7CA011",
"{	c #61F14C",
"]	c #62F14C",
"^	c #50E334",
"/	c #50E234",
"                ",
"    ........... ",
"    .         + ",
"    .         + ",
"    .   @@@@@ + ",
"  #     @$%$& + ",
"  ##    @*=-& + ",
"###;#>..&&&&& + ",
"#,,';).!!!+   + ",
"#));) .~##### + ",
"  ))  ++#{]]) + ",
"  )     #^/^) + ",
"    .   ))))) + ",
"    .         + ",
"    .+++++++++. ",
"                "};
