/* XPM */
static const char * animated_object_sel_xpm[] = {
"16 16 151 2",
"  	c None",
". 	c #0D2219",
"+ 	c #1C1607",
"@ 	c #091E1C",
"# 	c #234D46",
"$ 	c #27543C",
"% 	c #4A4723",
"& 	c #45200C",
"* 	c #170100",
"= 	c #1F5041",
"- 	c #317459",
"; 	c #286342",
"> 	c #21593E",
", 	c #354524",
"' 	c #1F190B",
") 	c #421409",
"! 	c #2D1006",
"~ 	c #194E3A",
"{ 	c #358964",
"] 	c #307F54",
"^ 	c #2A7954",
"/ 	c #257E68",
"( 	c #1C6953",
"_ 	c #3E3820",
": 	c #482F1C",
"< 	c #1D2A18",
"[ 	c #1D2B19",
"} 	c #3B2E1B",
"| 	c #1F1F10",
"1 	c #0E2E22",
"2 	c #164C34",
"3 	c #2B8556",
"4 	c #2D926C",
"5 	c #279272",
"6 	c #1F8C74",
"7 	c #045E54",
"8 	c #32442B",
"9 	c #46472D",
"0 	c #43482D",
"a 	c #33462C",
"b 	c #103E27",
"c 	c #1A2D17",
"d 	c #1B2C09",
"e 	c #144234",
"f 	c #27725D",
"g 	c #0C3A2C",
"h 	c #1A8466",
"i 	c #219E7A",
"j 	c #078879",
"k 	c #006A5D",
"l 	c #2D5C3C",
"m 	c #3E5D3D",
"n 	c #3A5C3C",
"o 	c #305133",
"p 	c #233917",
"q 	c #54701C",
"r 	c #243A08",
"s 	c #062321",
"t 	c #10483D",
"u 	c #267E6F",
"v 	c #0B3830",
"w 	c #04614E",
"x 	c #008D7C",
"y 	c #00765C",
"z 	c #16704A",
"A 	c #33754D",
"B 	c #255333",
"C 	c #354D1A",
"D 	c #658225",
"E 	c #333E07",
"F 	c #1F2C03",
"G 	c #072827",
"H 	c #2B9A7B",
"I 	c #0B463C",
"J 	c #136768",
"K 	c #043841",
"L 	c #003323",
"M 	c #12B876",
"N 	c #10B273",
"O 	c #134C2A",
"P 	c #4E6F25",
"Q 	c #5D7A25",
"R 	c #3A4306",
"S 	c #707906",
"T 	c #021315",
"U 	c #29A682",
"V 	c #20A084",
"W 	c #03423D",
"X 	c #084340",
"Y 	c #1C736A",
"Z 	c #053021",
"` 	c #27602D",
" .	c #68AF44",
"..	c #3D651F",
"+.	c #3F5206",
"@.	c #7D8305",
"#.	c #788204",
"$.	c #1D9678",
"%.	c #0F936D",
"&.	c #16A580",
"*.	c #167F64",
"=.	c #0B4236",
"-.	c #135249",
";.	c #508932",
">.	c #365F1D",
",.	c #629D25",
"'.	c #72AF18",
").	c #658B04",
"!.	c #6E8103",
"~.	c #167158",
"{.	c #19CB89",
"].	c #1AC58C",
"^.	c #1DBA8C",
"/.	c #1C9C7C",
"(.	c #05281D",
"_.	c #2D511B",
":.	c #76C440",
"<.	c #80C723",
"[.	c #83CC1C",
"}.	c #83CD17",
"|.	c #4B7107",
"1.	c #117C62",
"2.	c #18CD8C",
"3.	c #19C78C",
"4.	c #1DBC8C",
"5.	c #126952",
"6.	c #5A9934",
"7.	c #82D234",
"8.	c #84CD1C",
"9.	c #86D119",
"0.	c #5A8B11",
"a.	c #0F6D59",
"b.	c #18CB8B",
"c.	c #19C98C",
"d.	c #107154",
"e.	c #5A972E",
"f.	c #84D01F",
"g.	c #85D019",
"h.	c #4F7C0E",
"i.	c #0C5D4F",
"j.	c #19C58A",
"k.	c #0F7A54",
"l.	c #5A921F",
"m.	c #83CC19",
"n.	c #446B0B",
"o.	c #094F44",
"p.	c #0F6D52",
"q.	c #518114",
"r.	c #3A5B08",
"s.	c #021613",
"t.	c #112003",
"              . +               ",
"          @ # $ % & *           ",
"        = - ; > , ' ) !         ",
"    ~ { ] ^ / ( _ : < [ } |     ",
"  1 2 3 4 5 6 7 8 9 0 a b c d   ",
"  e f g h i j k l m n o p q r   ",
"  s t u v w x y z A B C D E F   ",
"  G H I J K L M N O P Q R S     ",
"  T U V W X Y Z `  ...+.@.#.    ",
"    $.%.&.*.=.-.;.>.,.'.).!.    ",
"    ~.{.].^./.(._.:.<.[.}.|.    ",
"      1.2.3.4.5.6.7.8.9.0.      ",
"        a.b.c.d.e.f.g.h.        ",
"          i.j.k.l.m.n.          ",
"            o.p.q.r.            ",
"              s.t.              "};
