/* XPM */
static const char * animation_sel_xpm[] = {
"16 16 19 1",
" 	c None",
".	c #1CB588",
"+	c #1CB488",
"@	c #1BB588",
"#	c #1CB587",
"$	c #1BB587",
"%	c #66E78A",
"&	c #50D78A",
"*	c #1BB487",
"=	c #48D289",
"-	c #89FF8C",
";	c #6CEC8A",
">	c #23BA88",
",	c #33C488",
"'	c #82FA8B",
")	c #1CB487",
"!	c #7BF58C",
"~	c #74F08B",
"{	c #3AC889",
"                ",
"     .+.@#      ",
"    #......@    ",
"  $.........+   ",
"  $..........   ",
" .....%&.....*  ",
" .....=-;>....  ",
" ......,'&....  ",
" )....,!',....  ",
" $....%~>....)  ",
"  ....{......#  ",
"  @.........@   ",
"   #.......*    ",
"     ....)$     ",
"                ",
"                "};
