/* XPM */
static char const * background_xpm[] = {
"16 16 146 2",
"  	c #B0896A",
". 	c #966F50",
"+ 	c #90694C",
"@ 	c #815A3D",
"# 	c #7E593C",
"$ 	c #AD886B",
"% 	c #936E53",
"& 	c #926D52",
"* 	c #795439",
"= 	c #7E593E",
"- 	c #643F22",
"; 	c #724D30",
"> 	c #7E573A",
", 	c #AF886B",
"' 	c #744D2E",
") 	c #B38C6D",
"! 	c #7D5637",
"~ 	c #926B4C",
"{ 	c #633C1F",
"] 	c #7A5336",
"^ 	c #765134",
"/ 	c #936E51",
"( 	c #A27D62",
"_ 	c #613C21",
": 	c #A88368",
"< 	c #906B4E",
"[ 	c #7C573A",
"} 	c #956E51",
"| 	c #6A4324",
"1 	c #5C3516",
"2 	c #AC8566",
"3 	c #7F5839",
"4 	c #7B5437",
"5 	c #653E21",
"6 	c #AE896C",
"7 	c #795437",
"8 	c #7A553A",
"9 	c #B18C71",
"0 	c #805B3E",
"a 	c #643D20",
"b 	c #5A3316",
"c 	c #AB8465",
"d 	c #835C3D",
"e 	c #987152",
"f 	c #876041",
"g 	c #B28B6E",
"h 	c #916C4F",
"i 	c #623D20",
"j 	c #7C573C",
"k 	c #AB866B",
"l 	c #906B50",
"m 	c #926D50",
"n 	c #785134",
"o 	c #9B7455",
"p 	c #734C2D",
"q 	c #90694A",
"r 	c #815A3B",
"s 	c #AE876A",
"t 	c #8B6649",
"u 	c #7D583D",
"v 	c #7B563B",
"w 	c #977257",
"x 	c #5B361B",
"y 	c #7D583B",
"z 	c #825D40",
"A 	c #825B3E",
"B 	c #936C4F",
"C 	c #633C1D",
"D 	c #623B1C",
"E 	c #8B6447",
"F 	c #9B7457",
"G 	c #967154",
"H 	c #5F3A1F",
"I 	c #603B20",
"J 	c #5D381D",
"K 	c #755033",
"L 	c #694427",
"M 	c #795235",
"N 	c #7F583B",
"O 	c #795233",
"P 	c #AD8667",
"Q 	c #AF8869",
"R 	c #7D5639",
"S 	c #A37E61",
"T 	c #785336",
"U 	c #B08B70",
"V 	c #AD886D",
"W 	c #AF8A6D",
"X 	c #AA8568",
"Y 	c #764F32",
"Z 	c #916A4D",
"` 	c #B28B6C",
" .	c #785132",
"..	c #B48D70",
"+.	c #8C674A",
"@.	c #957053",
"#.	c #765136",
"$.	c #957055",
"%.	c #5C371C",
"&.	c #946F52",
"*.	c #936C4D",
"=.	c #956E4F",
"-.	c #7E5738",
";.	c #7C5538",
">.	c #7B5639",
",.	c #663F20",
"'.	c #7C5536",
").	c #8F6849",
"!.	c #9A7354",
"~.	c #5B3619",
"{.	c #623D22",
"].	c #724D32",
"^.	c #744F32",
"/.	c #977051",
"(.	c #80593C",
"_.	c #AB8669",
":.	c #7A5538",
"<.	c #A98469",
"[.	c #946F54",
"}.	c #B28D72",
"|.	c #B59073",
"1.	c #A67F60",
"2.	c #7B5435",
"3.	c #977053",
"4.	c #B38E71",
"5.	c #916C51",
"6.	c #866146",
"7.	c #60391C",
"8.	c #613A1B",
"9.	c #946D50",
"0.	c #805B40",
"a.	c #B48D6E",
"b.	c #764F30",
"c.	c #946D4E",
"d.	c #7F5A3D",
"e.	c #654025",
"f.	c #5D381B",
"g.	c #A98265",
"h.	c #5F3A1D",
"i.	c #815C41",
"j.	c #755035",
"k.	c #785338",
"l.	c #5C371A",
"m.	c #B18A6D",
"n.	c #966F52",
"o.	c #A17C61",
"  . + @ # $ % & * = - ; > , ' ) ",
"! ~ { ] ^ / ( _ * : < [ > } | 1 ",
"2 3 4 5 6 7 8 = 9 8 [ 0 a b c d ",
"e f g ] h i j k l % [ m n g o p ",
"q r } s i t u v w x y z A B C ! ",
"! D E F [ G H I J = K L M N O P ",
"Q C R ] S T 8 U V * W X Y Z r . ",
"`  .s ..+.@.= #.$.%.&.&.> R *.*.",
"=.-.;.B >.h u J v % G T > Y ,.'.",
").!.b 4 z ~.{.j * ].^.>.g .. .. ",
"/.~ (.s _.:.<.[._ }.|.^.F + 1.2.",
"=.' ;.3.m 4.j 5.6.[.t T 7.3.2.8.",
"-.,.9.@ +.h : 0.u #.y # Y R a.2 ",
"b.c.M ] d.>.% l * e.X f.@ g.!.~ ",
"e r 7.s >.h.i.J j.k.z l.> > ).=.",
"c.O m.n.m 7 o.% & [.^ :.} Z ! D "};
