/* XPM */
static const char * billboard_sel_xpm[] = {
"16 16 12 1",
" 	c None",
".	c #428043",
"+	c #000043",
"@	c #89FF8C",
"#	c #428000",
"$	c #66C068",
"%	c #008000",
"&	c #89FF00",
"*	c #00FF8C",
"=	c #00FF00",
"-	c #008043",
";	c #000000",
"                ",
" .+@..#$%..$..  ",
".@$&$$$$$$$$*@. ",
".$&@$$$=$$*$$$. ",
"#@@$&@$$.@$$$$- ",
"$$&$@@@$@@@$*@$ ",
".$$@@$$@$@$@$$* ",
".$@$@$@@@$@$@$. ",
".$$$$$$$$$$$$$. ",
".$$$$$$$$$$$$$. ",
".;.;.;.;.;.;.;. ",
"    .     .     ",
" ... ..... ...  ",
"    .     .     ",
"    .     .     ",
"    ;     ;     "};
