/* XPM */
static const char * border_panel_sel_xpm[] = {
"16 16 2 1",
" 	c #000000",
".	c #5DB75F",
"                ",
" .............. ",
" .............. ",
" .............. ",
" .............. ",
" .............. ",
" .............. ",
" .............. ",
" .............. ",
" .............. ",
" .............. ",
" .............. ",
" .............. ",
" .............. ",
" .............. ",
"                "};
