/* XPM */
static const char * camera_sel_xpm[] = {
"16 16 102 2",
"  	c None",
". 	c #326535",
"+ 	c #336736",
"@ 	c #346936",
"# 	c #316333",
"$ 	c #1E3F1D",
"% 	c #0F1F0B",
"& 	c #0A1505",
"* 	c #091505",
"= 	c #2C5B2E",
"- 	c #162E13",
"; 	c #132E1D",
"> 	c #16453C",
", 	c #164B46",
"' 	c #164A45",
") 	c #2C592D",
"! 	c #1A3617",
"~ 	c #163B2A",
"{ 	c #164941",
"] 	c #236252",
"^ 	c #5CBD72",
"/ 	c #74E27E",
"( 	c #5CBC72",
"_ 	c #276855",
": 	c #163A2A",
"< 	c #28532A",
"[ 	c #234722",
"} 	c #193C24",
"| 	c #14453D",
"1 	c #1D5D54",
"2 	c #4AB488",
"3 	c #47AC7E",
"4 	c #3D9A74",
"5 	c #264F27",
"6 	c #234620",
"7 	c #144235",
"8 	c #185047",
"9 	c #2C877B",
"0 	c #37987C",
"a 	c #3DA27E",
"b 	c #3DA17D",
"c 	c #36957B",
"d 	c #185147",
"e 	c #244A25",
"f 	c #285025",
"g 	c #0E3A34",
"h 	c #1E655A",
"i 	c #267B70",
"j 	c #26776D",
"k 	c #288070",
"l 	c #2A8271",
"m 	c #214522",
"n 	c #2E5A2C",
"o 	c #0A342F",
"p 	c #1F685E",
"q 	c #2B796D",
"r 	c #2A766B",
"s 	c #29756A",
"t 	c #29746A",
"u 	c #1E401F",
"v 	c #346633",
"w 	c #072F2B",
"x 	c #276259",
"y 	c #31786E",
"z 	c #2F756C",
"A 	c #2F756B",
"B 	c #1C3B1D",
"C 	c #366A36",
"D 	c #0C372A",
"E 	c #1E4841",
"F 	c #397B72",
"G 	c #36776E",
"H 	c #35766C",
"I 	c #35756C",
"J 	c #163117",
"K 	c #2C582C",
"L 	c #2C6137",
"M 	c #0B2C2A",
"N 	c #28504C",
"O 	c #417C77",
"P 	c #3E7974",
"Q 	c #3E7872",
"R 	c #163116",
"S 	c #3D783E",
"T 	c #215332",
"U 	c #042221",
"V 	c #1E403E",
"W 	c #3A6364",
"X 	c #3F6C6D",
"Y 	c #418042",
"Z 	c #336E3E",
"` 	c #082F22",
" .	c #001517",
"..	c #001516",
"+.	c #112710",
"@.	c #306131",
"#.	c #498F4B",
"$.	c #52A054",
"%.	c #529F54",
"&.	c #0D210D",
"*.	c #0F230E",
"=.	c #0E220D",
"        . + @ @ @ + .           ",
"      # $ % & * & % $ #         ",
"    = - ; > , ' , > ; - =       ",
"  ) ! ~ { ] ^ / ( _ { : ! )     ",
"< [ } | 1 2 3 4 3 2 1 | } [ <   ",
"5 6 7 8 9 0 a b a c 9 d 7 6 5   ",
"e f g h i j k l k j i h g f e   ",
"m n o p q r s t s r q p o n m   ",
"u v w x y z A A A z y x w v u   ",
"B C D E F G H I H G F E D C B   ",
"J K L M N O P Q P O N M L K J   ",
"  R S T U V W X W V U T S R     ",
"    R Y Z `  ... .` Z Y R       ",
"      +.@.#.$.%.$.#.@.+.        ",
"        &.*.=.=.=.*.&.          ",
"                                "};
