/* XPM */
static const char * colour_grading_xpm[] = {
"16 16 202 2",
"  	c None",
". 	c #AFAFAF",
"+ 	c #ADADAD",
"@ 	c #9E9E9E",
"# 	c #9C9C9C",
"$ 	c #D4D4D4",
"% 	c #F2F2F4",
"& 	c #FAFAFC",
"* 	c #FFFFFF",
"= 	c #999999",
"- 	c #9B9B9B",
"; 	c #ABABAB",
"> 	c #EFEFEF",
", 	c #FDFFFF",
"' 	c #FCFEFF",
") 	c #F7FBFE",
"! 	c #F2FEFE",
"~ 	c #F2FBFA",
"{ 	c #F4F8F7",
"] 	c #929594",
"^ 	c #8D8D8D",
"/ 	c #D9D9D9",
"( 	c #F8FAF9",
"_ 	c #F5F9FA",
": 	c #F8FEFF",
"< 	c #F3FFFF",
"[ 	c #E9FFFF",
"} 	c #F0FAF9",
"| 	c #909090",
"1 	c #898989",
"2 	c #F1F1F3",
"3 	c #FCFBFF",
"4 	c #F4F5FE",
"5 	c #F9FEFF",
"6 	c #EDF5FF",
"7 	c #B3C2D6",
"8 	c #88A6B3",
"9 	c #558C8A",
"0 	c #45766F",
"a 	c #E6F6F5",
"b 	c #8E8E8E",
"c 	c #818382",
"d 	c #F9F8FD",
"e 	c #F7F3FF",
"f 	c #F9F6FF",
"g 	c #8288B8",
"h 	c #435089",
"i 	c #455F94",
"j 	c #4B799E",
"k 	c #4C98A1",
"l 	c #468B86",
"m 	c #DFF6F5",
"n 	c #88888A",
"o 	c #8C8C8C",
"p 	c #CBCBCB",
"q 	c #FCFAFA",
"r 	c #F5ECF8",
"s 	c #F8E5FF",
"t 	c #5D4A83",
"u 	c #4E4895",
"v 	c #4D56AC",
"w 	c #526EBD",
"x 	c #5589C3",
"y 	c #53A8C0",
"z 	c #58A3A7",
"A 	c #DBF3F6",
"B 	c #848386",
"C 	c #959595",
"D 	c #FFFBFD",
"E 	c #F5EBF1",
"F 	c #FBE5FF",
"G 	c #6E4281",
"H 	c #6F4199",
"I 	c #6C50B7",
"J 	c #635EC6",
"K 	c #6176D5",
"L 	c #5B8CD9",
"M 	c #5EAED9",
"N 	c #6CB4C7",
"O 	c #D6EEF6",
"P 	c #7F7F7F",
"Q 	c #828284",
"R 	c #DFDCDD",
"S 	c #FAF3F6",
"T 	c #F9E5EE",
"U 	c #AF88A7",
"V 	c #8B468D",
"W 	c #8F43A8",
"X 	c #8C53C6",
"Y 	c #8061D7",
"Z 	c #6F72E1",
"` 	c #678AE7",
" .	c #61A5E2",
"..	c #77B5D7",
"+.	c #D4E9F4",
"@.	c #7B7B7B",
"#.	c #808080",
"$.	c #F8F8F8",
"%.	c #F1E5E9",
"&.	c #DCBBC4",
"*.	c #9B607A",
"=.	c #B65D96",
"-.	c #BA58AD",
";.	c #AD52C3",
">.	c #9B5AD6",
",.	c #8468E6",
"'.	c #717DEB",
").	c #5F90DF",
"!.	c #73A6D4",
"~.	c #D2E5F3",
"{.	c #777777",
"].	c #ACACAC",
"^.	c #F7F7F7",
"/.	c #E7D9D9",
"(.	c #C2999B",
"_.	c #BD7B88",
":.	c #D5799D",
"<.	c #DA71AE",
"[.	c #D168C2",
"}.	c #B459C8",
"|.	c #985ED5",
"1.	c #7F6BDD",
"2.	c #667EDA",
"3.	c #7091CD",
"4.	c #D4DEF1",
"5.	c #747474",
"6.	c #CDCDCD",
"7.	c #ECECEC",
"8.	c #E4D8D3",
"9.	c #C59C8E",
"0.	c #DD9E96",
"a.	c #EE9FA8",
"b.	c #F294AF",
"c.	c #E881AF",
"d.	c #D872B9",
"e.	c #B95EC1",
"f.	c #995FCB",
"g.	c #7369D1",
"h.	c #6B76C0",
"i.	c #D4D7EF",
"j.	c #6F6D6B",
"k.	c #D6D6D6",
"l.	c #E0E0E0",
"m.	c #E0D4CA",
"n.	c #B69275",
"o.	c #DEA888",
"p.	c #F7B8A4",
"q.	c #FFBBB6",
"r.	c #FDA9B3",
"s.	c #F197BA",
"t.	c #D77DC0",
"u.	c #B26CC1",
"v.	c #7D61BA",
"w.	c #6E67AB",
"x.	c #D6D3E8",
"y.	c #6C6A68",
"z.	c #696768",
"A.	c #E8E6E7",
"B.	c #DAD8D9",
"C.	c #DCD1C3",
"D.	c #AC8F62",
"E.	c #CAA46C",
"F.	c #DFB487",
"G.	c #E4B897",
"H.	c #EBB9AA",
"I.	c #F4BFC1",
"J.	c #F2B8CE",
"K.	c #D3A0C5",
"L.	c #A480B1",
"M.	c #937FA8",
"N.	c #D6CFDD",
"O.	c #666666",
"P.	c #626061",
"Q.	c #E3E1E2",
"R.	c #D3D1D2",
"S.	c #D8D1C3",
"T.	c #E2CFA8",
"U.	c #E8D09D",
"V.	c #E8CFA3",
"W.	c #E6CEAB",
"X.	c #E6CEB9",
"Y.	c #E4CAC0",
"Z.	c #E8C8CA",
"`.	c #E4C5CF",
" +	c #E4C8DD",
".+	c #DEC9DC",
"++	c #D5CDD4",
"@+	c #929292",
"#+	c #5B5B5B",
"$+	c #5F605D",
"%+	c #605F58",
"&+	c #635F50",
"*+	c #66604D",
"=+	c #655E4E",
"-+	c #655D52",
";+	c #665E57",
">+	c #645B57",
",+	c #65595B",
"'+	c #675B5F",
")+	c #655B60",
"!+	c #635B60",
"~+	c #948F90",
"                      . + @ @   ",
"                # @ $ % & * * = ",
"            - ; > , ' ) ! ~ { ] ",
"          ^ / * ( _ : < [ [ } | ",
"        1 2 3 4 5 6 7 8 9 0 a b ",
"      c > d e f g h i j k l m n ",
"    o p q r s t u v w x y z A B ",
"    C D E F G H I J K L M N O P ",
"  Q R S T U V W X Y Z `  ...+.@.",
"  #.$.%.&.*.=.-.;.>.,.'.).!.~.{.",
"  ].^./.(._.:.<.[.}.|.1.2.3.4.5.",
"o 6.7.8.9.0.a.b.c.d.e.f.g.h.i.j.",
"P k.l.m.n.o.p.q.r.s.t.u.v.w.x.y.",
"z.A.B.C.D.E.F.G.H.I.J.K.L.M.N.O.",
"P.Q.R.S.T.U.V.W.X.Y.Z.`. +.+++@+",
"  #+$+%+&+*+=+-+;+>+,+'+)+!+~+  "};
