/* XPM */
static const char * control_sel_xpm[] = {
"16 16 228 2",
"  	c #88FD8C",
". 	c #87F782",
"+ 	c #87F386",
"@ 	c #86F381",
"# 	c #85FD7E",
"$ 	c #84F68B",
"% 	c #82FD81",
"& 	c #87F98C",
"* 	c #88F68A",
"= 	c #86F386",
"- 	c #87F786",
"; 	c #87FB87",
"> 	c #85F786",
", 	c #84F685",
"' 	c #85FA86",
") 	c #85FB85",
"! 	c #87F98A",
"~ 	c #001221",
"{ 	c #011422",
"] 	c #021729",
"^ 	c #001717",
"/ 	c #84F784",
"( 	c #82EF81",
"_ 	c #83EC81",
": 	c #83ED85",
"< 	c #82F084",
"[ 	c #82F385",
"} 	c #81F186",
"| 	c #84F68C",
"1 	c #84F58A",
"2 	c #82EF82",
"3 	c #89F982",
"4 	c #81FF8C",
"5 	c #011924",
"6 	c #89C20A",
"7 	c #88C50C",
"8 	c #030B21",
"9 	c #82F08A",
"0 	c #011423",
"a 	c #021427",
"b 	c #011420",
"c 	c #00161F",
"d 	c #00141F",
"e 	c #001724",
"f 	c #001223",
"g 	c #010F19",
"h 	c #7EF28C",
"i 	c #83F783",
"j 	c #80FD8A",
"k 	c #001421",
"l 	c #89C314",
"m 	c #85C514",
"n 	c #011224",
"o 	c #7DF48A",
"p 	c #001821",
"q 	c #011723",
"r 	c #011520",
"s 	c #011720",
"t 	c #00151F",
"u 	c #011324",
"v 	c #01101A",
"w 	c #7FF38C",
"x 	c #83F884",
"y 	c #87F68A",
"z 	c #02171D",
"A 	c #000B1F",
"B 	c #000E24",
"C 	c #001F18",
"D 	c #7EF583",
"E 	c #81F680",
"F 	c #83F37D",
"G 	c #82F284",
"H 	c #7FEF85",
"I 	c #83F48B",
"J 	c #83F48A",
"K 	c #89FA83",
"L 	c #84F789",
"M 	c #7DED86",
"N 	c #7EF584",
"O 	c #84F788",
"P 	c #7FEC84",
"Q 	c #89F08C",
"R 	c #81F37E",
"S 	c #82F389",
"T 	c #85F188",
"U 	c #83EE83",
"V 	c #83F082",
"W 	c #83F382",
"X 	c #81EF81",
"Y 	c #80EF81",
"Z 	c #82F482",
"` 	c #82F682",
" .	c #11575D",
"..	c #0D5C58",
"+.	c #0A6056",
"@.	c #0F5C58",
"#.	c #82F382",
"$.	c #80F182",
"%.	c #84ED86",
"&.	c #80F584",
"*.	c #82F686",
"=.	c #81F284",
"-.	c #80EF84",
";.	c #82F285",
">.	c #7FEF84",
",.	c #7FF184",
"'.	c #83FA89",
").	c #7FFD8A",
"!.	c #0B5661",
"~.	c #82F384",
"{.	c #82F783",
"].	c #0D5E58",
"^.	c #7DF686",
"/.	c #0A6454",
"(.	c #0B5960",
"_.	c #0C6059",
":.	c #105F5C",
"<.	c #07585C",
"[.	c #0C5D5E",
"}.	c #095958",
"|.	c #0E5F58",
"1.	c #80EF82",
"2.	c #88F989",
"3.	c #81FE85",
"4.	c #0F5656",
"5.	c #85F58B",
"6.	c #85E885",
"7.	c #11565D",
"8.	c #84E986",
"9.	c #0D5D59",
"0.	c #115D5E",
"a.	c #086359",
"b.	c #075B59",
"c.	c #0C5F66",
"d.	c #0C5960",
"e.	c #0E5A64",
"f.	c #0D5157",
"g.	c #83F98C",
"h.	c #84F58C",
"i.	c #86F788",
"j.	c #10595E",
"k.	c #095A59",
"l.	c #0C5E5D",
"m.	c #06605F",
"n.	c #7EF581",
"o.	c #7CF88C",
"p.	c #7FF388",
"q.	c #81F082",
"r.	c #83EB83",
"s.	c #85F180",
"t.	c #84F488",
"u.	c #7DF285",
"v.	c #82EF7E",
"w.	c #7EF888",
"x.	c #84FC86",
"y.	c #7BEF8C",
"z.	c #82F57A",
"A.	c #7FEF7B",
"B.	c #7EEE7C",
"C.	c #85EE86",
"D.	c #7EE98B",
"E.	c #86F07C",
"F.	c #7EF080",
"G.	c #81F384",
"H.	c #82F381",
"I.	c #7DF77D",
"J.	c #85F687",
"K.	c #7DFF8A",
"L.	c #87FC84",
"M.	c #11595C",
"N.	c #0F5F58",
"O.	c #085D5D",
"P.	c #0D615D",
"Q.	c #7DF988",
"R.	c #81F480",
"S.	c #85F381",
"T.	c #86F580",
"U.	c #83EF86",
"V.	c #81FB85",
"W.	c #82F488",
"X.	c #7BF588",
"Y.	c #88EA7C",
"Z.	c #85F688",
"`.	c #87F684",
" +	c #0D545A",
".+	c #7FF588",
"++	c #84F787",
"@+	c #085759",
"#+	c #85F382",
"$+	c #066058",
"%+	c #0A605F",
"&+	c #0C615A",
"*+	c #0D5C5E",
"=+	c #06615E",
"-+	c #065C59",
";+	c #0B6460",
">+	c #0C5E5C",
",+	c #89F18C",
"'+	c #85F784",
")+	c #0C545E",
"!+	c #7EF18C",
"~+	c #83F489",
"{+	c #0B5D5C",
"]+	c #83F17D",
"^+	c #086155",
"/+	c #0A5757",
"(+	c #055659",
"_+	c #0C5E5F",
":+	c #0D5A59",
"<+	c #105E5E",
"[+	c #0C5455",
"}+	c #80F386",
"|+	c #87F88C",
"1+	c #7FFD84",
"2+	c #095E62",
"3+	c #0C6156",
"4+	c #0A5B59",
"5+	c #125A60",
"6+	c #7FF186",
"7+	c #7FF28A",
"8+	c #84EF86",
"9+	c #81F181",
"0+	c #84F286",
"a+	c #7FF281",
"b+	c #7EF785",
"c+	c #86EF81",
"d+	c #87FD88",
"e+	c #85F888",
"  . + @ # $ % & * = - ; > , ' ) ",
"! ~ { ] ^ / ( _ : < [ } | 1 2 3 ",
"4 5 6 7 8 9 0 a b c d e f g h i ",
"j k l m n o p q r s t e u v w x ",
"y z A B C D E F : < G H I J 2 K ",
"L M N O P Q R S T U V W X Y Z ` ",
"y  ...+.@.#.$.%.&.*.=.-.;.>.,.'.",
").!.~.{.].^./.(._.:.<.[.}.|.1.2.",
"3.4.5.6.7.8.9.0.a.b.c.d.e.f.g.h.",
"i.j.k.l.m.n.o.p.q.*.r.s.t.u.v.w.",
"x.y.z.A.W B.C.D.E.q.F.G.H.I.J.K.",
"L.M.N.O.P.Q.R.S.T.U.V.W.>.X.Y.Z.",
"`. +.+++@+#+$+%+&+*+=+-+;+>+V ,+",
"'+)+!+~+{+]+^+/+(+_+d.:+<+[+}+|+",
"1+2+3+4+5+r.6+7+8+9+0+#.a+b+c+d+",
"e+e+e+e+e+e+e+e+e+e+e+e+e+e+e+e+"};
