/* XPM */
static const char * controls_sel_xpm[] = {
"16 16 236 2",
"  	c #88F98A",
". 	c #81F787",
"+ 	c #89F688",
"@ 	c #88F885",
"# 	c #84FC83",
"$ 	c #84FB8B",
"% 	c #7FF887",
"& 	c #86F084",
"* 	c #81F783",
"= 	c #7FFF89",
"- 	c #89F586",
"; 	c #81FB85",
"> 	c #82F585",
", 	c #87FD88",
"' 	c #87FA89",
") 	c #85FE8A",
"! 	c #84EF86",
"~ 	c #80F483",
"{ 	c #02A631",
"] 	c #01A029",
"^ 	c #85F486",
"/ 	c #87EC85",
"( 	c #83FA85",
"_ 	c #7EF884",
": 	c #7EF386",
"< 	c #83EF85",
"[ 	c #84F682",
"} 	c #86F685",
"| 	c #7DF38C",
"1 	c #81F186",
"2 	c #87F68A",
"3 	c #89F687",
"4 	c #7FF080",
"5 	c #83F680",
"6 	c #00A32A",
"7 	c #00A427",
"8 	c #7DF57E",
"9 	c #83F785",
"0 	c #7FEF8A",
"a 	c #01191D",
"b 	c #011120",
"c 	c #001224",
"d 	c #011023",
"e 	c #000E27",
"f 	c #021317",
"g 	c #82F38A",
"h 	c #88F98C",
"i 	c #84F985",
"j 	c #02A331",
"k 	c #00A42C",
"l 	c #03A42D",
"m 	c #01A22A",
"n 	c #02A727",
"o 	c #00A026",
"p 	c #7DF482",
"q 	c #001414",
"r 	c #7EF689",
"s 	c #83EC84",
"t 	c #7FEF81",
"u 	c #87F786",
"v 	c #01121D",
"w 	c #81F28B",
"x 	c #86F288",
"y 	c #85F985",
"z 	c #009D2D",
"A 	c #01A92E",
"B 	c #00A42B",
"C 	c #00A62D",
"D 	c #00A72E",
"E 	c #03A530",
"F 	c #7BF28B",
"G 	c #021522",
"H 	c #7FEB88",
"I 	c #87F289",
"J 	c #84F487",
"K 	c #82F084",
"L 	c #00111E",
"M 	c #7FF288",
"N 	c #88F88A",
"O 	c #86F486",
"P 	c #84FA85",
"Q 	c #86F580",
"R 	c #03A330",
"S 	c #81F781",
"T 	c #83ED7E",
"U 	c #88ED8C",
"V 	c #041521",
"W 	c #7FEC87",
"X 	c #7FFA86",
"Y 	c #7FF580",
"Z 	c #7FF382",
"` 	c #01151F",
" .	c #7FF286",
"..	c #88F487",
"+.	c #83F98A",
"@.	c #82EC85",
"#.	c #81F082",
"$.	c #02A130",
"%.	c #00A229",
"&.	c #80F27E",
"*.	c #82F080",
"=.	c #86EF8A",
"-.	c #011525",
";.	c #00171C",
">.	c #01111F",
",.	c #001E20",
"'.	c #011027",
").	c #00161E",
"!.	c #7FF384",
"~.	c #88F586",
"{.	c #87FC86",
"].	c #86F085",
"^.	c #7EF581",
"/.	c #80EE80",
"(.	c #81F37D",
"_.	c #7EF684",
":.	c #7FF880",
"<.	c #84EF81",
"[.	c #84ED80",
"}.	c #81F185",
"|.	c #7FF186",
"1.	c #83EF84",
"2.	c #83F081",
"3.	c #80FC84",
"4.	c #7BF681",
"5.	c #87FE87",
"6.	c #84F685",
"7.	c #7BF282",
"8.	c #81F086",
"9.	c #83F388",
"0.	c #82F283",
"a.	c #7FF082",
"b.	c #80EB88",
"c.	c #82F18B",
"d.	c #01161C",
"e.	c #001418",
"f.	c #021623",
"g.	c #020C20",
"h.	c #031424",
"i.	c #81EE8C",
"j.	c #84F788",
"k.	c #81ED81",
"l.	c #7CF887",
"m.	c #7FF185",
"n.	c #7EED84",
"o.	c #81F07E",
"p.	c #81F286",
"q.	c #7FEF8C",
"r.	c #84F488",
"s.	c #02181E",
"t.	c #7EF587",
"u.	c #81F48C",
"v.	c #81F681",
"w.	c #7DF18C",
"x.	c #01141C",
"y.	c #81F285",
"z.	c #86FA8A",
"A.	c #011D1A",
"B.	c #01121B",
"C.	c #021524",
"D.	c #01171D",
"E.	c #00101B",
"F.	c #011828",
"G.	c #7EF48A",
"H.	c #001320",
"I.	c #81F084",
"J.	c #87F188",
"K.	c #86ED7A",
"L.	c #7EF289",
"M.	c #85FA87",
"N.	c #84F786",
"O.	c #82F287",
"P.	c #011315",
"Q.	c #82F58C",
"R.	c #80EC86",
"S.	c #7CF380",
"T.	c #7EFC88",
"U.	c #00141D",
"V.	c #011C1F",
"W.	c #7EEF89",
"X.	c #7EF085",
"Y.	c #80F481",
"Z.	c #7FF483",
"`.	c #02161B",
" +	c #86FB86",
".+	c #88F387",
"++	c #87F189",
"@+	c #010A18",
"#+	c #83EE8C",
"$+	c #89F28C",
"%+	c #84EF8A",
"&+	c #7DEE87",
"*+	c #041925",
"=+	c #7DF386",
"-+	c #02121F",
";+	c #031923",
">+	c #001322",
",+	c #030A16",
"'+	c #031126",
")+	c #86F58C",
"!+	c #88F889",
"~+	c #80EE81",
"{+	c #011218",
"]+	c #82F288",
"^+	c #83EB81",
"/+	c #81EB87",
"(+	c #81F78C",
"_+	c #020A14",
":+	c #83F683",
"<+	c #82ED89",
"[+	c #80EC85",
"}+	c #7DF486",
"|+	c #7DEF7E",
"1+	c #7EF58A",
"2+	c #85F485",
"3+	c #84F887",
"4+	c #7BF682",
"5+	c #001D24",
"6+	c #001719",
"7+	c #02161F",
"8+	c #011421",
"9+	c #001820",
"0+	c #021A21",
"a+	c #7EF688",
"b+	c #83F880",
"c+	c #83EF82",
"d+	c #85EC81",
"e+	c #84F982",
"f+	c #83F684",
"g+	c #7EF282",
"h+	c #88FD8A",
"i+	c #87FC8A",
"j+	c #87FB89",
"k+	c #86FA89",
"l+	c #86F988",
"m+	c #85F888",
"  . + @ # $ % & * = - ; > % , ' ",
") ! ~ { ] ^ / ( _ : < [ } | 1 2 ",
"3 4 5 6 7 8 9 0 a b c d e f g h ",
"i j k l m n o p q r s t u v w x ",
"y z A B C D E F G H I J K L M N ",
"O P Q R C S T U V W X Y Z `  ...",
"+.@.#.$.%.&.*.=.-.;.>.,.'.).!.~.",
"{.].^./.(._.:.<.[.}.|.1.2.3.4.5.",
"6...7.8.9.0.a.b.c.d.e.f.).g.h.i.",
"j.k.l.m.n.o.p.q.r.s.t.u.v.w.x.y.",
"z. .A.B.C.D.E.F.G.H.I.J.K.L.` M.",
"N.O.P.Q.R.S.T.U.S.V.W.X.Y.Z.`. +",
".+++@+#+$+%+&+*+=+U.-+;+>+,+'+)+",
"!+~+{+]+^+/+(+_+:+ .<+[+}+|+1+2+",
"3+4+5+6+7+8+9+0+a+b+c+d+e+f+g+!+",
"h+i+j+k+l+m+m+m+m+m+m+m+m+j+j+i+"};
