/* XPM */
static const char * control_xpm[] = {
"16 16 231 2",
"  	c #FDFDFF",
". 	c #FBF7EE",
"+ 	c #FCF3F6",
"@ 	c #FAF3ED",
"# 	c #F8FDE7",
"$ 	c #F7F6FE",
"% 	c #F2FDED",
"& 	c #FBF9FF",
"* 	c #FDF6FD",
"= 	c #F9F3F5",
"- 	c #FBF7F6",
"; 	c #FCFBF7",
"> 	c #F8F7F5",
", 	c #F6F6F4",
"' 	c #F8FAF5",
") 	c #F8FBF4",
"! 	c #FBF9FC",
"~ 	c #001244",
"{ 	c #021446",
"] 	c #081752",
"^ 	c #001733",
"/ 	c #F6F7F2",
"( 	c #F3EFEC",
"_ 	c #F5ECED",
": 	c #F4EDF4",
"< 	c #F2F0F1",
"[ 	c #F3F3F3",
"} 	c #F0F1F5",
"| 	c #F6F6FF",
"1 	c #F6F5FD",
"2 	c #F3EFEE",
"3 	c #FFF9EF",
"4 	c #F1FFFF",
"5 	c #03194A",
"6 	c #FFC21C",
"7 	c #FEC520",
"8 	c #0A0B44",
"9 	c #F2F0FD",
"0 	c #041448",
"a 	c #08144E",
"b 	c #021442",
"c 	c #011641",
"d 	c #001440",
"e 	c #011749",
"f 	c #011248",
"g 	c #030F37",
"h 	c #ECF2FF",
"i 	c #F4F7F0",
"j 	c #EFFDFD",
"k 	c #001445",
"l 	c #FFC32D",
"m 	c #F8C52E",
"n 	c #031249",
"o 	c #EAF4FD",
"p 	c #001844",
"q 	c #051747",
"r 	c #031543",
"s 	c #021742",
"t 	c #001541",
"u 	c #021349",
"v 	c #041038",
"w 	c #EDF3FF",
"x 	c #F5F8F1",
"y 	c #FBF6FC",
"z 	c #08173E",
"A 	c #000B40",
"B 	c #000E49",
"C 	c #001F35",
"D 	c #ECF5F0",
"E 	c #F0F6EA",
"F 	c #F5F3E6",
"G 	c #F2F2F2",
"H 	c #EEEFF3",
"I 	c #F4F4FE",
"J 	c #F5F4FC",
"K 	c #FFFAF0",
"L 	c #F6F7FB",
"M 	c #EAEDF6",
"N 	c #ECF5F2",
"O 	c #F7F7F9",
"P 	c #EEECF1",
"Q 	c #FFF0FF",
"R 	c #F0F3E8",
"S 	c #F3F3FB",
"T 	c #F8F1F8",
"U 	c #F4EEF0",
"V 	c #F4F0EF",
"W 	c #F4F3EF",
"X 	c #F0EFED",
"Y 	c #EFEFED",
"Z 	c #F2F4EF",
"` 	c #F3F6EF",
" .	c #FBF6FD",
"..	c #2957AD",
"+.	c #225CA5",
"@.	c #1C60A1",
"#.	c #265CA4",
"$.	c #F2F3EE",
"%.	c #EFF1EE",
"&.	c #F7EDF5",
"*.	c #EFF5F1",
"=.	c #F2F6F5",
"-.	c #F0F2F1",
";.	c #EFEFF1",
">.	c #F2F2F4",
",.	c #EEEFF1",
"'.	c #EDF1F2",
").	c #F4FAFA",
"!.	c #EDFDFC",
"~.	c #1E56B5",
"{.	c #F3F3F1",
"].	c #F2F7F0",
"^.	c #225EA4",
"/.	c #EAF6F6",
"(.	c #1C649E",
"_.	c #1E59B3",
":.	c #2160A7",
"<.	c #275FAC",
"[.	c #1658AC",
"}.	c #205DB0",
"|.	c #1B59A4",
"1.	c #245FA5",
"2.	c #EFEFEF",
"3.	c #FDF9FA",
"4.	c #F1FEF4",
"5.	c #2656A2",
"6.	c #F8F5FE",
"7.	c #F8E8F3",
"8.	c #2A56AD",
"9.	c #F7E9F6",
"0.	c #235DA7",
"a.	c #2A5DB0",
"b.	c #1A63A7",
"c.	c #175BA6",
"d.	c #205FBE",
"e.	c #2059B2",
"f.	c #245ABA",
"g.	c #2251A3",
"h.	c #F5F9FF",
"i.	c #F7F5FF",
"j.	c #F9F7F8",
"k.	c #2759B0",
"l.	c #1B5AA7",
"m.	c #215EAE",
"n.	c #1560B1",
"o.	c #EBF5EC",
"p.	c #E8F8FF",
"q.	c #EEF3F9",
"r.	c #F0F0EE",
"s.	c #F4EBF0",
"t.	c #F8F1EB",
"u.	c #F6F4F9",
"v.	c #EAF2F4",
"w.	c #F2EFE8",
"x.	c #ECF8F8",
"y.	c #F7FCF6",
"z.	c #E7EFFF",
"A.	c #F2F5E0",
"B.	c #EDEFE2",
"C.	c #F4F3EE",
"D.	c #EBEEE3",
"E.	c #F8EEF6",
"F.	c #EBE9FE",
"G.	c #FAF0E4",
"H.	c #EBF0EA",
"I.	c #F1F3F2",
"J.	c #F2F3ED",
"K.	c #EAF7E6",
"L.	c #F8F6F7",
"M.	c #E9FFFC",
"N.	c #FCFCF2",
"O.	c #2A59AB",
"P.	c #265FA4",
"Q.	c #1A5DAE",
"R.	c #2361AE",
"S.	c #E9F9F8",
"T.	c #F1F4EB",
"U.	c #F8F3ED",
"V.	c #F9F5EA",
"W.	c #F4EFF5",
"X.	c #F1FBF3",
"Y.	c #F3F4F8",
"Z.	c #E7F5F8",
"`.	c #FEEAE3",
" +	c #F8F6F9",
".+	c #FBF6F2",
"++	c #2254A9",
"@+	c #EDF5F8",
"#+	c #F7F7F7",
"$+	c #1857A6",
"%+	c #F8F3EF",
"&+	c #1560A4",
"*+	c #1C60B1",
"=+	c #2161A8",
"-+	c #225CB0",
";+	c #1561AF",
">+	c #145CA6",
",+	c #1F64B2",
"'+	c #205EAB",
")+	c #FFF1FF",
"!+	c #F8F7F2",
"~+	c #2154AF",
"{+	c #EBF1FF",
"]+	c #F5F4FA",
"^+	c #1E5DAC",
"/+	c #F5F1E6",
"(+	c #1A619F",
"_+	c #1C57A3",
":+	c #1356A7",
"<+	c #215EB1",
"[+	c #2059B3",
"}+	c #225AA7",
"|+	c #275EB0",
"1+	c #20549F",
"2+	c #EFF3F6",
"3+	c #FBF8FF",
"4+	c #EDFDF2",
"5+	c #1B5EB7",
"6+	c #2061A1",
"7+	c #1D5BA6",
"8+	c #2B5AB2",
"9+	c #EEF1F6",
"0+	c #EEF2FD",
"a+	c #F6EFF6",
"b+	c #F0F1EC",
"c+	c #F7F2F6",
"d+	c #EDF2EC",
"e+	c #ECF7F3",
"f+	c #F9EFED",
"g+	c #FBFDF8",
"h+	c #F8F8F8",
"  . + @ # $ % & * = - ; > , ' ) ",
"! ~ { ] ^ / ( _ : < [ } | 1 2 3 ",
"4 5 6 7 8 9 0 a b c d e f g h i ",
"j k l m n o p q r s t e u v w x ",
"y z A B C D E F : < G H I J 2 K ",
"L M N O P Q R S T U V W X Y Z ` ",
" ...+.@.#.$.%.&.*.=.-.;.>.,.'.).",
"!.~.{.].^./.(._.:.<.[.}.|.1.2.3.",
"4.5.6.7.8.9.0.a.b.c.d.e.f.g.h.i.",
"j.k.l.m.n.o.p.q.r.=.s.t.u.v.w.x.",
"y.z.A.B.C.D.E.F.G.r.H.I.J.K.L.M.",
"N.O.P.Q.R.S.T.U.V.W.X.Y.,.Z.`. +",
".+++@+#+$+%+&+*+=+-+;+>+,+'+V )+",
"!+~+{+]+^+/+(+_+:+<+[+}+|+1+2+3+",
"4+5+6+7+8+s.9+0+a+b+c+$.d+e+f+g+",
"h+h+h+h+h+h+h+h+h+h+h+h+h+h+h+h+"};
