/* XPM */
static const char * controls_xpm[] = {
"16 16 240 2",
"  	c #FEF9FD",
". 	c #F1F7F7",
"+ 	c #FFF6F9",
"@ 	c #FDF8F4",
"# 	c #F6FCF0",
"$ 	c #F7FBFE",
"% 	c #EEF8F7",
"& 	c #F9F0F1",
"* 	c #F0F7F0",
"= 	c #EEFFFB",
"- 	c #FFF5F6",
"; 	c #F0FBF3",
"> 	c #F3F5F4",
", 	c #FCFDF8",
"' 	c #FCFAFB",
") 	c #F8FEFC",
"! 	c #F6EFF6",
"~ 	c #EFF4F0",
"{ 	c #06A660",
"] 	c #05A052",
"^ 	c #F8F4F5",
"/ 	c #FBECF3",
"( 	c #F5FAF3",
"_ 	c #EBF8F1",
": 	c #EBF3F6",
"< 	c #F5EFF3",
"[ 	c #F6F6EE",
"} 	c #FAF6F3",
"| 	c #EAF3FF",
"1 	c #F0F1F5",
"2 	c #FBF6FC",
"3 	c #FFF6F7",
"4 	c #EEF0EB",
"5 	c #F4F6EB",
"6 	c #00A355",
"7 	c #00A44E",
"8 	c #EAF5E7",
"9 	c #F5F7F4",
"0 	c #EDEFFC",
"a 	c #05193E",
"b 	c #051143",
"c 	c #01124A",
"d 	c #031047",
"e 	c #000E4E",
"f 	c #081333",
"g 	c #F3F3FD",
"h 	c #FEF9FF",
"i 	c #F7F9F4",
"j 	c #06A360",
"k 	c #00A458",
"l 	c #0CA459",
"m 	c #04A255",
"n 	c #07A74F",
"o 	c #00A04D",
"p 	c #E9F4EE",
"q 	c #00142D",
"r 	c #EBF6FA",
"s 	c #F5ECF1",
"t 	c #EDEFEC",
"u 	c #FBF7F6",
"v 	c #05123E",
"w 	c #F0F2FE",
"x 	c #F9F2F9",
"y 	c #F8F9F4",
"z 	c #009D5A",
"A 	c #04A95C",
"B 	c #00A456",
"C 	c #00A65A",
"D 	c #01A75B",
"E 	c #0BA55F",
"F 	c #E6F2FE",
"G 	c #071546",
"H 	c #EDEBF8",
"I 	c #FCF2FA",
"J 	c #F6F4F7",
"K 	c #F2F0F1",
"L 	c #00113F",
"M 	c #EDF2F8",
"N 	c #FEF8FC",
"O 	c #FAF4F6",
"P 	c #F7FAF3",
"Q 	c #F9F5EA",
"R 	c #0CA35E",
"S 	c #01A65A",
"T 	c #F1F7ED",
"U 	c #F4EDE7",
"V 	c #FEEDFF",
"W 	c #0F1545",
"X 	c #EEECF7",
"Y 	c #EEFAF6",
"Z 	c #EDF5EA",
"` 	c #EDF3EF",
" .	c #021540",
"..	c #EDF2F5",
"+.	c #FDF4F7",
"@.	c #F5F9FC",
"#.	c #F3ECF3",
"$.	c #F1F0EE",
"%.	c #06A15F",
"&.	c #00A252",
"*.	c #EFF2E7",
"=.	c #F3F0EB",
"-.	c #FAEFFD",
";.	c #04154B",
">.	c #00173B",
",.	c #031140",
"'.	c #001E42",
").	c #05104E",
"!.	c #00163F",
"~.	c #EDF3F1",
"{.	c #FEF5F6",
"].	c #FBFCF6",
"^.	c #F9F0F3",
"/.	c #EBF5ED",
"(.	c #EFEEEA",
"_.	c #F1F3E6",
":.	c #EBF6F2",
"<.	c #EDF8EA",
"[.	c #F7EFED",
"}.	c #F7EDEB",
"|.	c #F0F1F3",
"1.	c #EEF1F6",
"2.	c #F5EFF1",
"3.	c #F4F0ED",
"4.	c #EFFCF2",
"5.	c #E6F6EC",
"6.	c #FBFEF7",
"7.	c #F7F6F4",
"8.	c #E7F2EE",
"9.	c #F1F0F5",
"0.	c #F4F3F8",
"a.	c #F3F2F0",
"b.	c #EEF0EF",
"c.	c #EFEBF9",
"d.	c #F3F1FE",
"e.	c #04163C",
"f.	c #001435",
"g.	c #061647",
"h.	c #090C43",
"i.	c #0A1449",
"j.	c #F0EEFF",
"k.	c #F6F7F9",
"l.	c #F1EDEC",
"m.	c #E8F8F7",
"n.	c #EDF1F4",
"o.	c #ECEDF2",
"p.	c #F0F0E8",
"q.	c #F1F2F6",
"r.	c #EEEFFF",
"s.	c #F6F4F9",
"t.	c #09183F",
"u.	c #EBF5F7",
"v.	c #F0F4FF",
"w.	c #F0F6EC",
"x.	c #EAF1FF",
"y.	c #05143B",
"z.	c #F1F2F4",
"A.	c #F9FAFC",
"B.	c #EDF2F6",
"C.	c #021D38",
"D.	c #031239",
"E.	c #091549",
"F.	c #05173D",
"G.	c #00103A",
"H.	c #031851",
"I.	c #EBF4FD",
"J.	c #001342",
"K.	c #F0F0F2",
"L.	c #FBF1F9",
"M.	c #F9EDE1",
"N.	c #EBF2FA",
"O.	c #041541",
"P.	c #F8FAF7",
"Q.	c #F7F7F5",
"R.	c #F3F2F7",
"S.	c #041330",
"T.	c #F3F5FF",
"U.	c #EFECF5",
"V.	c #E8F3EB",
"W.	c #ECFCF9",
"X.	c #00143D",
"Y.	c #021C41",
"Z.	c #EBEFFB",
"`.	c #EBF0F3",
" +	c #EFF4ED",
".+	c #EEF4F0",
"++	c #06163A",
"@+	c #FAFBF5",
"#+	c #FEF3F7",
"$+	c #FBF1FA",
"%+	c #030A34",
"&+	c #F5EEFF",
"*+	c #FFF2FF",
"=+	c #F7EFFC",
"-+	c #EAEEF7",
";+	c #0F194C",
">+	c #E9F3F5",
",+	c #071240",
"'+	c #0B1948",
")+	c #001346",
"!+	c #0C0A31",
"~+	c #0B114D",
"{+	c #F9F5FF",
"]+	c #FEF8FA",
"^+	c #EFEEEC",
"/+	c #041235",
"(+	c #F3F2F8",
"_+	c #F5EBEC",
":+	c #F1EBF7",
"<+	c #F0F7FF",
"[+	c #070A2D",
"}+	c #F5F6F0",
"|+	c #EEF2F5",
"1+	c #F3EDFB",
"2+	c #EFECF3",
"3+	c #EAF4F6",
"4+	c #EAEFE8",
"5+	c #ECF5FC",
"6+	c #F8F4F3",
"7+	c #F6F8F7",
"8+	c #E7F6EF",
"9+	c #001D49",
"0+	c #001736",
"a+	c #091640",
"b+	c #021444",
"c+	c #001842",
"d+	c #071A45",
"e+	c #EBF6F8",
"f+	c #F4F8EA",
"g+	c #F5EFEF",
"h+	c #F8ECEC",
"i+	c #F6F9EE",
"j+	c #F4F6F1",
"k+	c #ECF2EE",
"l+	c #FDFDFD",
"m+	c #FCFCFC",
"n+	c #FBFBFB",
"o+	c #FAFAFA",
"p+	c #F9F9F9",
"q+	c #F8F8F8",
"  . + @ # $ % & * = - ; > % , ' ",
") ! ~ { ] ^ / ( _ : < [ } | 1 2 ",
"3 4 5 6 7 8 9 0 a b c d e f g h ",
"i j k l m n o p q r s t u v w x ",
"y z A B C D E F G H I J K L M N ",
"O P Q R S T U V W X Y Z `  ...+.",
"@.#.$.%.&.*.=.-.;.>.,.'.).!.~.{.",
"].^./.(._.:.<.[.}.|.1.2.3.4.5.6.",
"7.+.8.9.0.a.b.c.d.e.f.g.!.h.i.j.",
"k.l.m.n.o.p.q.r.s.t.u.v.w.x.y.z.",
"A.B.C.D.E.F.G.H.I.J.K.L.M.N.O.P.",
"Q.R.S.T.U.V.W.X.V.Y.Z.`. +.+++@+",
"#+$+%+&+*+=+-+;+>+X.,+'+)+!+~+{+",
"]+^+/+(+_+:+<+[+}+|+1+2+3+4+5+6+",
"7+8+9+0+a+b+c+d+e+f+g+h+i+j+k+]+",
"l+m+n+o+p+q+q+q+q+q+q+q+q+n+n+m+"};
