/* XPM */
static const char * directional_sel_xpm[] = {
"16 16 82 1",
" 	c None",
".	c #83BE08",
"+	c #83BD07",
"@	c #82BC07",
"#	c #81BB07",
"$	c #84D32E",
"%	c #81BA07",
"&	c #80B907",
"*	c #82BD07",
"=	c #82BB07",
"-	c #86E64E",
";	c #85DC3E",
">	c #85E147",
",	c #7FB707",
"'	c #7EB607",
")	c #7EB507",
"!	c #86E750",
"~	c #85DC3F",
"{	c #84D736",
"]	c #85D838",
"^	c #86DD40",
"/	c #84DD42",
"(	c #7DB307",
"_	c #83D12E",
":	c #86E044",
"<	c #84D534",
"[	c #84D431",
"}	c #84D330",
"|	c #84D32F",
"1	c #86DE40",
"2	c #81CC2B",
"3	c #7BB006",
"4	c #7AAF06",
"5	c #84D22D",
"6	c #84D12A",
"7	c #84D732",
"8	c #83D93B",
"9	c #79AE06",
"0	c #82CE2D",
"a	c #86E54B",
"b	c #84D634",
"c	c #84D22C",
"d	c #84D027",
"e	c #84D52E",
"f	c #84DD3E",
"g	c #7EC727",
"h	c #78AB06",
"i	c #7CB206",
"j	c #82D335",
"k	c #85D939",
"l	c #84D12C",
"m	c #84D129",
"n	c #84D128",
"o	c #86DD3A",
"p	c #7DC627",
"q	c #7AB006",
"r	c #7FCB2C",
"s	c #86E349",
"t	c #85D936",
"u	c #84D32C",
"v	c #84D229",
"w	c #85DB36",
"x	c #7FCD30",
"y	c #78B00D",
"z	c #75A706",
"A	c #7AAE06",
"B	c #79AD06",
"C	c #7AB612",
"D	c #80D134",
"E	c #84DE3F",
"F	c #86DF40",
"G	c #7FCF32",
"H	c #77AF0D",
"I	c #74A506",
"J	c #77AA06",
"K	c #78B211",
"L	c #75A806",
"M	c #7DC628",
"N	c #74A606",
"O	c #74A406",
"P	c #75A606",
"Q	c #73A305",
"                ",
"                ",
"     . +@ #     ",
"   . +@$#%&     ",
"   *@=--;>,')   ",
"    %!~{]^/(    ",
"  %&_:<[}|1234  ",
"   ,-][|56789   ",
" ')0ab$c6defgh  ",
"   ijklmdnop    ",
"   qrstuvwxyz   ",
"  A BCDEFGH II  ",
"    J KLMNIO    ",
"      P I  Q    ",
"                ",
"                "};
