/* XPM */
static const char * directional_xpm[] = {
"16 16 86 1",
" 	c None",
".	c #F5BE18",
"+	c #F4BD17",
"@	c #F3BC17",
"#	c #F1BB17",
"$	c #F7D35C",
"%	c #F0BA17",
"&	c #EFB917",
"*	c #F3BD17",
"=	c #F2BC17",
"-	c #F2BB17",
";	c #FAE694",
">	c #F8DC77",
",	c #F8E187",
"'	c #EDB716",
")	c #ECB616",
"!	c #EBB516",
"~	c #FAE796",
"{	c #F8DC79",
"]	c #F7D76A",
"^	c #F8D86C",
"/	c #F9DD7A",
"(	c #F6DD7E",
"_	c #E9B316",
":	c #F4D15B",
"<	c #F9E082",
"[	c #F7D565",
"}	c #F7D461",
"|	c #F7D35E",
"1	c #F7D35D",
"2	c #F9DE7A",
"3	c #F0CC56",
"4	c #E6B015",
"5	c #E5AF15",
"6	c #F7D460",
"7	c #F6D259",
"8	c #F6D155",
"9	c #F7D762",
"0	c #F4D972",
"a	c #E3AE14",
"b	c #F2CE5A",
"c	c #FAE58E",
"d	c #F7D666",
"e	c #F6D258",
"f	c #F6D154",
"g	c #F6D04F",
"h	c #F7D55B",
"i	c #F6DD78",
"j	c #EBC74F",
"k	c #E0AB14",
"l	c #E8B215",
"m	c #F3D368",
"n	c #F8D96E",
"o	c #F6D158",
"p	c #F6D153",
"q	c #F6D150",
"r	c #F9DD70",
"s	c #EAC64F",
"t	c #E5B015",
"u	c #EECB57",
"v	c #F9E38B",
"w	c #F8D96A",
"x	c #F7D357",
"y	c #F7D252",
"z	c #F8DB6A",
"A	c #EDCD5F",
"B	c #E0B022",
"C	c #DCA713",
"D	c #E4AE15",
"E	c #E2AD14",
"F	c #E5B62A",
"G	c #EFD166",
"H	c #F7DE79",
"I	c #F9DF7A",
"J	c #EECF63",
"K	c #DFAF22",
"L	c #DAA513",
"M	c #D9A513",
"N	c #DFAA14",
"O	c #E1B228",
"P	c #DCA813",
"Q	c #E9C651",
"R	c #DAA613",
"S	c #D9A413",
"T	c #DBA613",
"U	c #D7A312",
"                ",
"                ",
"     . +@ #     ",
"   . +@$#%&     ",
"   *=-;;>,')!   ",
"    %~{]^/(_    ",
"  %&:<[}|12345  ",
"   ';^617890a   ",
" )!bcd$efghijk  ",
"   lmnopgqrs    ",
"   tuvwxyzABC   ",
"  D EFGHIJK LM  ",
"    N OPQRLS    ",
"      T M  U    ",
"                ",
"                "};
