/* XPM */
static const char * fichier_xpm[] = {
"64 64 668 2",
"  	c None",
". 	c #8F0000",
"+ 	c #8A0000",
"@ 	c #E64A25",
"# 	c #E95320",
"$ 	c #EA4F1F",
"% 	c #8B0000",
"& 	c #AE2222",
"* 	c #FE7575",
"= 	c #D14444",
"- 	c #870000",
"; 	c #890000",
"> 	c #E54F26",
", 	c #E64D25",
"' 	c #F79E0B",
") 	c #FFC100",
"! 	c #F37811",
"~ 	c #ED4E1B",
"{ 	c #940000",
"] 	c #8D0000",
"^ 	c #D64F4F",
"/ 	c #FF7D7D",
"( 	c #FE7373",
"_ 	c #FF7171",
": 	c #F46565",
"< 	c #9A1111",
"[ 	c #810000",
"} 	c #E54A28",
"| 	c #EB671D",
"1 	c #FDC501",
"2 	c #FFC300",
"3 	c #FEBB00",
"4 	c #FFB900",
"5 	c #FB9A05",
"6 	c #F05514",
"7 	c #F35412",
"8 	c #A21515",
"9 	c #F77878",
"0 	c #FF7C7C",
"a 	c #FF7676",
"b 	c #FF7474",
"c 	c #FF7070",
"d 	c #FE6A6A",
"e 	c #FF6E6E",
"f 	c #C43636",
"g 	c #7E0000",
"h 	c #E44829",
"i 	c #F49A11",
"j 	c #FFD700",
"k 	c #FEC700",
"l 	c #FFBB00",
"m 	c #FFB500",
"n 	c #FFAF00",
"o 	c #FEAA00",
"p 	c #F76E0B",
"q 	c #F5510E",
"r 	c #8E0000",
"s 	c #C84343",
"t 	c #FF8B8B",
"u 	c #FE7E7E",
"v 	c #FF7A7A",
"w 	c #FF7777",
"x 	c #FF6F6F",
"y 	c #FF6C6C",
"z 	c #FF6868",
"A 	c #FF6969",
"B 	c #ED5959",
"C 	c #8D0B0B",
"D 	c #7B0000",
"E 	c #E34B2B",
"F 	c #E85C23",
"G 	c #FCCD04",
"H 	c #FFD900",
"I 	c #FFCF00",
"J 	c #FFC800",
"K 	c #FFC200",
"L 	c #FFBC00",
"M 	c #FEA800",
"N 	c #FFAB00",
"O 	c #FC8E03",
"P 	c #F85608",
"Q 	c #FB5805",
"R 	c #930000",
"S 	c #9A0B0B",
"T 	c #ED7676",
"U 	c #FF8A8A",
"V 	c #FF8282",
"W 	c #FF7E7E",
"X 	c #FF7B7B",
"Y 	c #FF7878",
"Z 	c #FF7373",
"` 	c #FF6D6D",
" .	c #FF6565",
"..	c #FE6565",
"+.	c #FF6B6B",
"@.	c #B62E2E",
"#.	c #750000",
"$.	c #E3462B",
"%.	c #EF8E17",
"&.	c #FFEA00",
"*.	c #FEDC00",
"=.	c #FFD500",
"-.	c #FFB600",
";.	c #FFA800",
">.	c #FFA600",
",.	c #FFA700",
"'.	c #FEA500",
").	c #FC6A02",
"!.	c #FD5600",
"~.	c #BB3838",
"{.	c #FF9393",
"].	c #FE8989",
"^.	c #FF8686",
"/.	c #FF6666",
"(.	c #E35353",
"_.	c #7F0707",
":.	c #E24C2C",
"<.	c #E45128",
"[.	c #F9CC09",
"}.	c #FFEF00",
"|.	c #FEE200",
"1.	c #FFDC00",
"2.	c #FFD000",
"3.	c #FFC900",
"4.	c #FFB000",
"5.	c #FFA900",
"6.	c #FEA600",
"7.	c #FE8900",
"8.	c #FA5200",
"9.	c #F65200",
"0.	c #960000",
"a.	c #940303",
"b.	c #E16E6E",
"c.	c #FF9999",
"d.	c #FE8D8D",
"e.	c #FF7F7F",
"f.	c #FE6666",
"g.	c #FE6969",
"h.	c #A72626",
"i.	c #6C0000",
"j.	c #E2432E",
"k.	c #EB7D1E",
"l.	c #FEF800",
"m.	c #FEF000",
"n.	c #FFE900",
"o.	c #FFE200",
"p.	c #FFDD00",
"q.	c #FFD600",
"r.	c #FEA200",
"s.	c #F65C00",
"t.	c #F14800",
"u.	c #910000",
"v.	c #AE2626",
"w.	c #FB9999",
"x.	c #FF9797",
"y.	c #FF9191",
"z.	c #FF8D8D",
"A.	c #FF8787",
"B.	c #FF7575",
"C.	c #FF6A6A",
"D.	c #DA4C4C",
"E.	c #730303",
"F.	c #E2492D",
"G.	c #F4BE0F",
"H.	c #FFFF00",
"I.	c #FEF500",
"J.	c #FFF000",
"K.	c #FFE300",
"L.	c #FFC400",
"M.	c #FFBD00",
"N.	c #FFAC00",
"O.	c #F77B00",
"P.	c #EC4200",
"Q.	c #900000",
"R.	c #C93030",
"S.	c #FFACAC",
"T.	c #FE9797",
"U.	c #FF9696",
"V.	c #FF8E8E",
"W.	c #FF8383",
"X.	c #FF8080",
"Y.	c #F24C4C",
"Z.	c #6E0000",
"`.	c #E24A2D",
" +	c #FDE702",
".+	c #FFFD00",
"++	c #FFF600",
"@+	c #FFE400",
"#+	c #FFD100",
"$+	c #FFCA00",
"%+	c #FFB100",
"&+	c #FFAA00",
"*+	c #F76F00",
"=+	c #E53B00",
"-+	c #E10000",
";+	c #FF2929",
">+	c #FF9A9A",
",+	c #FF9292",
"'+	c #FF8F8F",
")+	c #FF8484",
"!+	c #FF7979",
"~+	c #E12929",
"{+	c #CF0000",
"]+	c #710000",
"^+	c #E55129",
"/+	c #FFA500",
"(+	c #FFF100",
"_+	c #FFDE00",
":+	c #FFB800",
"<+	c #FF9E00",
"[+	c #FF6F00",
"}+	c #F76000",
"|+	c #E23700",
"1+	c #FF0000",
"2+	c #FF0303",
"3+	c #F85A5A",
"4+	c #D20A0A",
"5+	c #CE0000",
"6+	c #D20000",
"7+	c #6F0000",
"8+	c #E65126",
"9+	c #FFA400",
"0+	c #FFF300",
"a+	c #FFD800",
"b+	c #FFC500",
"c+	c #FFBE00",
"d+	c #FF8900",
"e+	c #FF6900",
"f+	c #FF6D00",
"g+	c #DF3300",
"h+	c #860000",
"i+	c #E00000",
"j+	c #FF3535",
"k+	c #FF8888",
"l+	c #FF7272",
"m+	c #E83737",
"n+	c #CC0000",
"o+	c #720000",
"p+	c #ED5023",
"q+	c #FFA200",
"r+	c #FFD200",
"s+	c #FFCB00",
"t+	c #FFA300",
"u+	c #FF7400",
"v+	c #FF6B00",
"w+	c #FF6C00",
"x+	c #F65F00",
"y+	c #DC3100",
"z+	c #840000",
"A+	c #DF0000",
"B+	c #FF0808",
"C+	c #FF6767",
"D+	c #FC6262",
"E+	c #D71414",
"F+	c #CD0000",
"G+	c #D90000",
"H+	c #2B5919",
"I+	c #008B25",
"J+	c #008B21",
"K+	c #906720",
"L+	c #FFB400",
"M+	c #FFDF00",
"N+	c #FFB200",
"O+	c #FF9200",
"P+	c #FF6A00",
"Q+	c #F55E00",
"R+	c #D92C00",
"S+	c #820000",
"T+	c #FF3D3D",
"U+	c #EE4646",
"V+	c #D50000",
"W+	c #B51505",
"X+	c #128525",
"Y+	c #018C25",
"Z+	c #5CCB3F",
"`+	c #3AB031",
" @	c #00801B",
".@	c #418B14",
"+@	c #F5A600",
"@@	c #FFCC00",
"#@	c #FFC600",
"$@	c #FFBF00",
"%@	c #FF7C00",
"&@	c #F55D00",
"*@	c #D62900",
"=@	c #800000",
"-@	c #FF0E0E",
";@	c #FE6E6E",
">@	c #FE6D6D",
",@	c #DD2020",
"'@	c #DB0000",
")@	c #6C4714",
"!@	c #009328",
"~@	c #20A130",
"{@	c #82E950",
"]@	c #7DE34A",
"^@	c #7BE045",
"/@	c #5FC938",
"(@	c #088419",
"_@	c #037B14",
":@	c #AF9A05",
"<@	c #FFD300",
"[@	c #F45C00",
"}@	c #D32600",
"|@	c #7F0000",
"1@	c #DE0000",
"2@	c #FF4343",
"3@	c #FF8181",
"4@	c #F45959",
"5@	c #D00505",
"6@	c #C60802",
"7@	c #257A24",
"8@	c #008E26",
"9@	c #54CB46",
"0@	c #92F65A",
"a@	c #83E950",
"b@	c #77DD44",
"c@	c #71D73E",
"d@	c #6FD439",
"e@	c #289A1E",
"f@	c #006F0E",
"g@	c #568509",
"h@	c #FBA800",
"i@	c #FEA700",
"j@	c #FF8800",
"k@	c #FF6800",
"l@	c #F35C00",
"m@	c #CF2200",
"n@	c #7D0000",
"o@	c #FF1414",
"p@	c #FE6F6F",
"q@	c #E43434",
"r@	c #DA0000",
"s@	c #893410",
"t@	c #00942B",
"u@	c #149B30",
"v@	c #8AF25E",
"w@	c #93F85E",
"x@	c #8AF057",
"y@	c #84EA51",
"z@	c #7EE44B",
"A@	c #6AD037",
"B@	c #6BCF35",
"C@	c #4FB82A",
"D@	c #03730A",
"E@	c #0C7007",
"F@	c #C29A00",
"G@	c #FF7200",
"H@	c #F35B00",
"I@	c #CD1F00",
"J@	c #7A0000",
"K@	c #DD0000",
"L@	c #F10000",
"M@	c #CB0000",
"N@	c #D20200",
"O@	c #3E6B21",
"P@	c #009227",
"Q@	c #4DC051",
"R@	c #A8FF77",
"S@	c #96FD64",
"T@	c #91F75E",
"U@	c #78DE45",
"V@	c #6BD138",
"W@	c #65CB32",
"X@	c #66CC33",
"Y@	c #68CE33",
"Z@	c #218A12",
"`@	c #006200",
" #	c #688100",
".#	c #FF7D00",
"+#	c #F25A00",
"@#	c #CA1A00",
"##	c #790000",
"$#	c #D70000",
"%#	c #A3220A",
"&#	c #07912C",
"*#	c #09952E",
"=#	c #8FE783",
"-#	c #B0FF8A",
";#	c #9FFF74",
">#	c #97FD64",
",#	c #8BF158",
"'#	c #85EB52",
")#	c #72D83F",
"!#	c #6BD135",
"~#	c #47AE24",
"{#	c #006202",
"]#	c #176704",
"^#	c #D49C00",
"/#	c #FF8000",
"(#	c #F15900",
"_#	c #C71700",
":#	c #770000",
"<#	c #5A571C",
"[#	c #009728",
"}#	c #40B258",
"|#	c #C0FEAE",
"1#	c #B3FE99",
"2#	c #AAFF88",
"3#	c #A0FF75",
"4#	c #97FD65",
"5#	c #7FE54C",
"6#	c #6CD239",
"7#	c #65CB33",
"8#	c #67CD33",
"9#	c #197A10",
"0#	c #005508",
"a#	c #7B8006",
"b#	c #FEA900",
"c#	c #FE6C00",
"d#	c #F15A00",
"e#	c #C31300",
"f#	c #7C0000",
"g#	c #C10000",
"h#	c #FE0000",
"i#	c #BA0F05",
"j#	c #17892C",
"k#	c #009429",
"l#	c #8BD999",
"m#	c #D0FFC6",
"n#	c #BBFEAC",
"o#	c #B3FF9B",
"p#	c #A1FF76",
"q#	c #98FE65",
"r#	c #92F85F",
"s#	c #79DF46",
"t#	c #6CD235",
"u#	c #3FA124",
"v#	c #00520D",
"w#	c #23600E",
"x#	c #F0A601",
"y#	c #FE8000",
"z#	c #FE6F00",
"A#	c #D83300",
"B#	c #C51700",
"C#	c #9B0000",
"D#	c #FA0000",
"E#	c #1F832A",
"F#	c #1EA240",
"G#	c #CCFACF",
"H#	c #CEFFCD",
"I#	c #C5FFBF",
"J#	c #BCFFAD",
"K#	c #ABFF89",
"L#	c #A1FF77",
"M#	c #98FE66",
"N#	c #8CF259",
"O#	c #73D940",
"P#	c #61C732",
"Q#	c #005614",
"R#	c #707A0B",
"S#	c #FF8200",
"T#	c #F45F00",
"U#	c #CB1D00",
"V#	c #C51800",
"W#	c #FD0000",
"X#	c #1D8128",
"Y#	c #32AE2B",
"Z#	c #8DDF6C",
"`#	c #D1FFD3",
" $	c #C6FEC0",
".$	c #BDFFAE",
"+$	c #B4FF9C",
"@$	c #ABFF8A",
"#$	c #A2FF78",
"$$	c #86EC53",
"%$	c #6DD33A",
"&$	c #69CE33",
"*$	c #53C233",
"=$	c #059F34",
"-$	c #005E1A",
";$	c #6A770D",
">$	c #FF7100",
",$	c #E34300",
"'$	c #C61700",
")$	c #700000",
"!$	c #A10000",
"~$	c #1C7E26",
"{$	c #32AD2D",
"]$	c #65CB30",
"^$	c #6BCE3B",
"/$	c #B8F6AC",
"($	c #C1FFB4",
"_$	c #B4FF9D",
":$	c #ABFF8B",
"<$	c #A2FF79",
"[$	c #99FE67",
"}$	c #93F960",
"|$	c #80E64D",
"1$	c #7AE047",
"2$	c #6CCE33",
"3$	c #2FB033",
"4$	c #009533",
"5$	c #009E35",
"6$	c #005B1C",
"7$	c #6A750E",
"8$	c #FF8300",
"9$	c #FF6E00",
"0$	c #FA6700",
"a$	c #D12700",
"b$	c #C81900",
"c$	c #1C7D23",
"d$	c #32AC2C",
"e$	c #67CC33",
"f$	c #60C82A",
"g$	c #8FE36E",
"h$	c #BAFFA5",
"i$	c #ABFE8B",
"j$	c #A3FF7A",
"k$	c #99FE68",
"l$	c #8DF35A",
"m$	c #74DA41",
"n$	c #67CD34",
"o$	c #68CD33",
"p$	c #5DC733",
"q$	c #0D9E33",
"r$	c #009733",
"s$	c #009933",
"t$	c #009E34",
"u$	c #00591E",
"v$	c #6A7310",
"w$	c #EA4E00",
"x$	c #C91C00",
"y$	c #6B0000",
"z$	c #AA0000",
"A$	c #1C7A21",
"B$	c #32AB2B",
"C$	c #63CA2F",
"D$	c #6ED13E",
"E$	c #A6F986",
"F$	c #A5FF7D",
"G$	c #9AFE69",
"H$	c #87ED54",
"I$	c #6ED43B",
"J$	c #3DB733",
"K$	c #009633",
"L$	c #009833",
"M$	c #005720",
"N$	c #6A7211",
"O$	c #FD6D00",
"P$	c #D93300",
"Q$	c #6D0000",
"R$	c #780000",
"S$	c #E70000",
"T$	c #1C781E",
"U$	c #32A92A",
"V$	c #62C92E",
"W$	c #89E85C",
"X$	c #9EFF6D",
"Y$	c #93FA60",
"Z$	c #81E74E",
"`$	c #68CE34",
" %	c #18A333",
".%	c #005522",
"+%	c #6A7113",
"@%	c #FF7000",
"#%	c #CE2100",
"$%	c #CC1F00",
"%%	c #650000",
"&%	c #B20000",
"*%	c #1C761C",
"=%	c #32A828",
"-%	c #63C930",
";%	c #6FD53C",
">%	c #8FF55C",
",%	c #7BE148",
"'%	c #73D73B",
")%	c #4CC034",
"!%	c #019833",
"~%	c #005324",
"{%	c #6A7014",
"]%	c #E13F00",
"^%	c #CC1D00",
"/%	c #640000",
"(%	c #EC0000",
"_%	c #187319",
":%	c #32A727",
"<%	c #64CA31",
"[%	c #7ADE43",
"}%	c #28AD35",
"|%	c #009532",
"1%	c #009F34",
"2%	c #005126",
"3%	c #625515",
"4%	c #FA7600",
"5%	c #D42800",
"6%	c #660000",
"7%	c #0F7016",
"8%	c #32A525",
"9%	c #83E94F",
"0%	c #69D745",
"a%	c #089C33",
"b%	c #009832",
"c%	c #005028",
"d%	c #583416",
"e%	c #D62100",
"f%	c #32A424",
"g%	c #60C933",
"h%	c #009331",
"i%	c #009F33",
"j%	c #004C29",
"k%	c #007A13",
"l%	c #32A323",
"m%	c #5EC733",
"n%	c #004A2B",
"o%	c #007811",
"p%	c #32A221",
"q%	c #00492D",
"r%	c #00760E",
"s%	c #2D9C1D",
"t%	c #009D32",
"u%	c #003F2F",
"v%	c #006E07",
"w%	c #269016",
"x%	c #6ACF35",
"y%	c #009D33",
"z%	c #008531",
"A%	c #00372E",
"B%	c #006D03",
"C%	c #066E04",
"D%	c #54BA29",
"E%	c #69CF35",
"F%	c #009E33",
"G%	c #00612E",
"H%	c #00312E",
"I%	c #006100",
"J%	c #2E9119",
"K%	c #009B33",
"L%	c #008F31",
"M%	c #00412C",
"N%	c #00342E",
"O%	c #005E05",
"P%	c #0B680C",
"Q%	c #5BC02E",
"R%	c #69CF33",
"S%	c #00702E",
"T%	c #00342B",
"U%	c #00540B",
"V%	c #379622",
"W%	c #6CD334",
"X%	c #009A33",
"Y%	c #009732",
"Z%	c #004D2B",
"`%	c #004F10",
" &	c #12661A",
".&	c #60C631",
"+&	c #67CE33",
"@&	c #007E2F",
"#&	c #003929",
"$&	c #00392C",
"%&	c #005116",
"&&	c #004818",
"*&	c #3F9B29",
"=&	c #6CD434",
"-&	c #5DC732",
";&	c #009632",
">&	c #009C33",
",&	c #005B2B",
"'&	c #003528",
")&	c #00401C",
"!&	c #196524",
"~&	c #5EC932",
"{&	c #008730",
"]&	c #004027",
"^&	c #003A29",
"/&	c #004321",
"(&	c #004025",
"_&	c #003B27",
"                                                                                                                                ",
"                                                                                                                                ",
"                                                                                                                                ",
"                                                                                                                                ",
"                                                                                                                                ",
"                                                                                                                                ",
"                                                                                                                                ",
"                                                                                                                                ",
"                                                                                                                                ",
"                                                                                                                                ",
"                                . . +                                                     @ # $                                 ",
"                              % & * = - ;                                             > , ' ) ! ~                               ",
"                          { ] ^ / ( _ : < [                                         } | 1 2 3 4 5 6 7                           ",
"                        . 8 9 0 a b c d e f g                                     h i j k ) l m n o p q                         ",
"                      r s t u v w b x y z A B C D                             E F G H I J K L m n M N O P Q                     ",
"                  R S T U V W X Y Z x ` z  ...+.@.#.                        $.%.&.*.=.I J 2 L -.n ;.>.,.'.).!.                  ",
"                r ~.{.].^.V W 0 Y Z c y z  ./...A (._.#.                :.<.[.}.|.1.=.2.3.K L -.4.5.>.,.6.N 7.8.9.              ",
"            0.a.b.c.d.U ^.V e.0 w b _ y z /./././.f.g.h.i.            j.k.l.m.n.o.p.q.2.3.2 L -.4.5.>.,.,.>.;.r.s.t.            ",
"          u.v.w.x.y.z.t A.V e.X w B._ y A  ././././...C.D.E.        F.G.H.I.J.n.K.p.q.2.3.L.M.-.4.5.>.,.,.,.,.6.N.O.P.          ",
"        Q.R.S.T.U.y.V.t ^.W.X.X Y b c ` A  ./././././...+.Y.Z.    `. +H..+++J.&.@+p.q.#+$+L.M.-.%+&+>.,.,.,.,.,.>.N *+=+        ",
"        ; -+;+>+U.,+'+U ^.)+e.0 !+b c e A  ././././...C.~+{+]+    ^+/+2.H.++(+&.@+_+j #+$+L.M.:+%+&+>.,.,.,.>.;.<+[+}+|+        ",
"        - -+1+2+e c.V.U A.W.e./ !+b _ ` A /././. .z 3+4+5+6+7+    8+&+9+%+(+0+&.@+_+a+#+$+b+c+:+%+&+>.,.,.>.&+d+e+f+}+g+        ",
"        h+i+1+1+1+j+{.t k+W.e./ Y B.l+` A /./...y m+n+{+5+6+o+    p+&+>.,.q+r+}.@+_+j r+s+b+c+:+%+N >.>.;.t+u+v+f+w+x+y+        ",
"        z+A+1+1+1+1+B+l+z.W.X.0 Y a l+` C./.C+D+E+F+{+{+5+G+H+I+J+K+N 6.,.,.9+L+K.M+a+r+s+b+c+:+N+N >.&+O+P+f+w+f+w+Q+R+        ",
"        S+A+1+1+1+1+1+1+T+t X.0 !+B._ e d y U+5+5+5+5+V+W+X+Y+Z+`+ @.@+@,.,.>.>./+@@1.r+s+#@$@4 N+N.,.%@P+f+f+f+f+w+&@*@        ",
"        =@A+1+1+1+1+1+1+1+-@l+X.!+B._ ;@>@,@n+{+{+5+'@)@!@~@{@]@^@/@(@_@:@5.6.,.,.9+L+<@@@#@$@4 m <+w+w+w+f+f+f+f+w+[@}@        ",
"        |@1@1+1+1+1+1+1+1+1+1+2@3@b w 4@5@5+5+5+6+6@7@8@9@0@a@]@b@c@d@e@f@g@h@i@,.>.>.,.2 J $@M.j@k@f+f+f+f+f+f+f+w+l@m@        ",
"        n@1@1+1+1+1+1+1+1+1+1+1+o@p@q@n+{+{+5+r@s@t@u@v@w@x@y@z@b@c@A@B@C@D@E@F@5.6.,.,./+N+-.G@v+f+f+f+f+f+f+f+f+w+H@I@        ",
"        J@K@1+1+1+1+1+1+1+1+1+1+1+L@M@{+{+{+N@O@P@Q@R@S@T@x@y@z@U@c@V@W@X@Y@Z@`@ #5.6.,.>.5..#w+w+f+f+f+f+f+f+f+f+w++#@#        ",
"        ##K@1+1+1+1+1+1+1+1+1+1+1+L@n+5+$#%#&#*#=#-#;#>#T@,#'#z@U@)#V@X@X@W@!#~#{#]#^#5.>.5./#w+f+f+f+f+f+f+f+f+f+w+(#_#        ",
"        :#K@1+1+1+1+1+1+1+1+1+1+1+L@M@G+<#[#}#|#1#2#3#4#T@,#y@5#U@)#6#X@X@X@7#8#W@9#0#a#N b#/#w+f+f+f+f+f+f+f+f+f+c#d#e#        ",
"        f#g#1+h#1+1+1+1+1+1+1+1+1+L@i#j#k#l#m#n#o#2#p#q#r#,#'#5#s#)#6#X@X@X@X@X@W@t#u#v#w#x#y#w+f+f+f+f+f+f+f+f+c#z#A#B#        ",
"          J@C#D#1+1+1+1+1+1+1+1+1+h#E#F#G#H#I#J#o#K#L#M#T@N#'#5#s#O#6#X@X@X@X@X@X@W@8#P#Q#R#S#w+f+f+f+f+f+f+w+[+T#U#V#          ",
"            n@##V+1+h#1+1+1+1+1+1+W#X#Y#Z#`# $.$+$@$#$M#r#N#$$5#s#O#%$X@X@X@X@X@7#&$*$=$-$;$S#w+f+f+f+f+f+c#>$,$'$              ",
"                )$!$W#h#1+1+1+1+1+W#~${$]$^$/$($_$:$<$[$}$N#$$|$1$O#%$X@X@X@X@7#2$3$4$5$6$7$8$w+f+f+f+w+9$0$a$b$                ",
"                  #.:#1@1+h#1+1+1+W#c$d$e$X@f$g$h$i$j$k$}$l$$$|$1$m$%$n$X@7#o$p$q$r$s$t$u$v$8$w+f+f+c#>$w$x$                    ",
"                      y$z$1+h#1+1+W#A$B$e$X@X@C$D$E$F$G$}$l$H$|$1$m$I$n$7#2$J$K$s$L$s$t$M$N$8$w+f+f+O$P$x$                      ",
"                        Q$R$S$1+1+W#T$U$e$X@X@W@X@V$W$X$Y$l$H$Z$1$m$I$`$W@ %K$s$s$s$s$t$.%+%8$c#@%d##%$%                        ",
"                            %%&%1+W#*%=%e$X@X@X@X@X@-%;%}$>%H$Z$,%m$'%)%!%L$L$s$s$s$s$t$~%{%8$[+]%^%                            ",
"                              /%J@(%_%:%e$X@X@X@X@X@W@W@<%|$x@Z$,%[%}%|%s$s$s$s$s$s$s$1%2%3%4%5%#%                              ",
"                                  6%7%8%e$X@X@X@X@X@X@X@X@<%I$9%0%a%b%s$s$s$s$s$s$s$s$1%c%d%e%                                  ",
"                                      f%e$X@X@X@X@X@X@X@X@W@W@g%h%s$L$s$s$s$s$s$s$s$s$i%j%                                      ",
"                                    k%l%e$X@X@X@X@X@X@X@X@X@7#m%K$s$s$s$s$s$s$s$s$s$s$i%n%                                      ",
"                                    o%p%e$X@X@X@X@X@X@X@X@X@7#m%K$s$s$s$s$s$s$s$s$s$s$i%q%                                      ",
"                                    r%s%!#W@X@X@X@X@X@X@X@X@7#m%K$s$s$s$s$s$s$s$s$s$s$t%u%                                      ",
"                                      v%w%x%X@X@X@X@X@X@X@X@7#m%K$s$s$s$s$s$s$s$L$y%z%A%                                        ",
"                                        B%C%D%E%W@X@X@X@X@X@7#m%K$s$s$s$s$s$s$b%F%G%H%                                          ",
"                                            I%J%!#W@X@X@X@X@7#m%K$s$s$s$s$L$K%L%M%N%                                            ",
"                                              O%P%Q%R%W@X@X@7#m%K$s$s$s$b%i%S%T%                                                ",
"                                                  U%V%W%W@X@7#m%K$s$L$X%Y%Z%T%                                                  ",
"                                                    `% &.&+&7#m%K$b%F%@&#&$&                                                    ",
"                                                      %&&&*&=&-&;&>&,&'&                                                        ",
"                                                          )&!&~&{&]&^&                                                          ",
"                                                            /&(&_&                                                              ",
"                                                                                                                                ",
"                                                                                                                                ",
"                                                                                                                                ",
"                                                                                                                                ",
"                                                                                                                                ",
"                                                                                                                                ",
"                                                                                                                                ",
"                                                                                                                                ",
"                                                                                                                                ",
"                                                                                                                                "};
