/* XPM */
static const char * frame_variable_buffer_xpm[] = {
"16 16 3 1",
" 	c None",
".	c #F6F6F6",
"+	c #424242",
"                ",
" .............. ",
" .+++++.++++++. ",
" .+++++.++++++. ",
" .............. ",
"   .+++++.++++. ",
"   .+++++.++++. ",
"   ............ ",
"   .+++++++.    ",
"   .+++++++.    ",
" ...........    ",
" .+++++++.      ",
" .+++++++.      ",
" .........      ",
"                ",
"                "};
