/* XPM */
static const char * material_sel_xpm[] = {
"16 16 85 1",
" 	c None",
".	c #E49FA4",
"+	c #E68386",
"@	c #D27A80",
"#	c #E0ADAD",
"$	c #F45952",
"%	c #D30E0E",
"&	c #CE757B",
"*	c #E5746E",
"=	c #F2C2C0",
"-	c #F48A7F",
";	c #D20403",
">	c #D21818",
",	c #B3B5BA",
"'	c #ADAEB3",
")	c #A6A8AE",
"!	c #A4A5A9",
"~	c #94979B",
"{	c #818287",
"]	c #E73332",
"^	c #E74A47",
"/	c #E14842",
"(	c #C61918",
"_	c #6D6C6C",
":	c #636364",
"<	c #595A5E",
"[	c #515252",
"}	c #424442",
"|	c #1E1E1E",
"1	c #E16165",
"2	c #C10403",
"3	c #C00D0C",
"4	c #B26368",
"5	c #8D8F94",
"6	c #86878A",
"7	c #7E8084",
"8	c #797A7E",
"9	c #6B6D72",
"0	c #8A8C90",
"a	c #913A6F",
"b	c #6E2175",
"c	c #732175",
"d	c #B2C0DD",
"e	c #9AB1EC",
"f	c #5974EB",
"g	c #342AD6",
"h	c #7976CD",
"i	c #7A98DB",
"j	c #B8D8FC",
"k	c #83B1F6",
"l	c #291ED5",
"m	c #B2B4B9",
"n	c #9FA0A3",
"o	c #7E8085",
"p	c #424EDA",
"q	c #5668E6",
"r	c #392CC2",
"s	c #7671DB",
"t	c #2A1CC1",
"u	c #3124BF",
"v	c #7771B7",
"w	c #88898D",
"x	c #3B7E94",
"y	c #3D6A80",
"z	c #266A61",
"A	c #A6E5AC",
"B	c #97E8A4",
"C	c #61C066",
"D	c #0BA80C",
"E	c #68B56F",
"F	c #70D572",
"G	c #B0E0BB",
"H	c #71CA76",
"I	c #02A502",
"J	c #15A216",
"K	c #2FB233",
"L	c #40BB43",
"M	c #3AB93D",
"N	c #029502",
"O	c #0B960C",
"P	c #69A66F",
"Q	c #7B7C80",
"R	c #6ABD70",
"S	c #66A86B",
"T	c #6CA972",
" .+@            ",
"#.$%&           ",
"*=-;>  ,'')!~{~ ",
"]^/;(  _::<[}|[ ",
"1;234  ~56{7890 ",
" abc            ",
"defgh           ",
"ijklg  m''!n~o~ ",
"pfqlr  _::<[}|[ ",
"sltuv  ~5w{o890 ",
" xyz            ",
"ABCDE           ",
"FGHIJ  ,''!n~{~ ",
"KLMIJ  _::<[}|[ ",
"CINOP  ~506{Q95 ",
" RST            "};
