/* XPM */
static const char * node_sel_xpm[] = {
"16 16 4 1",
" 	c #000000",
".	c #3B743B",
"+	c #7CE87C",
"@	c #1A391A",
"    .++++++.    ",
"   @++++++++@   ",
"    .+.++.+.    ",
" @   @ ++ @   @ ",
".+.    ++    .+.",
"+++@   ++   @+++",
"++.    ++    .++",
"++++++++++++++++",
"++++++++++++++++",
"++.    ++    .++",
"+++@   ++   @+++",
".+.    ++    .+.",
" @   @ ++ @   @ ",
"    .+.++.+.    ",
"   @++++++++@   ",
"    .++++++.    "};
