/* XPM */
static const char * particle_xpm[] = {
"16 16 5 1",
" 	c None",
".	c #FF0000",
"+	c #000000",
"@	c #7CACEA",
"#	c #556CD4",
"                ",
"  .+   .   ..   ",
" .  .  +  +  .  ",
" .   . . .   +  ",
"  +   . .   .   ",
"   .  +++  .    ",
"    .+@@#+.     ",
" .+. +@##+ .+.  ",
"    .+###+.     ",
"   .  +++  .    ",
"  .   . .   +   ",
" +   . . .   .  ",
" .  +  +  .  .  ",
"  ..   .   .+   ",
"                ",
"                "};
