/* XPM */
static const char * pass_sel_xpm[] = {
"16 16 109 2",
"  	c None",
". 	c #2D7B5B",
"+ 	c #2B775C",
"@ 	c #216D5A",
"# 	c #1A665A",
"$ 	c #1A645A",
"% 	c #1F6B5A",
"& 	c #27745A",
"* 	c #2B795C",
"= 	c #75DE79",
"- 	c #82F385",
"; 	c #82F487",
"> 	c #7FF288",
", 	c #7EF288",
"' 	c #7EF287",
") 	c #7CEE84",
"! 	c #23705B",
"~ 	c #81F285",
"{ 	c #2A7E25",
"] 	c #3B9C36",
"^ 	c #348A4B",
"/ 	c #2B7757",
"( 	c #27755D",
"_ 	c #1B665A",
": 	c #1C665A",
"< 	c #3B9836",
"[ 	c #52CA4B",
"} 	c #53CD4C",
"| 	c #54D14D",
"1 	c #2F815A",
"2 	c #81F487",
"3 	c #3E9F3A",
"4 	c #55D44E",
"5 	c #55D34E",
"6 	c #247359",
"7 	c #686E3D",
"8 	c #78884C",
"9 	c #788C4F",
"0 	c #627B43",
"a 	c #7DF187",
"b 	c #216D5C",
"c 	c #7FF287",
"d 	c #248B21",
"e 	c #2F9848",
"f 	c #2C7D58",
"g 	c #227158",
"h 	c #216E5D",
"i 	c #1F6659",
"j 	c #21695A",
"k 	c #21695B",
"l 	c #26705B",
"m 	c #529762",
"n 	c #799051",
"o 	c #7CEF87",
"p 	c #7EF187",
"q 	c #249023",
"r 	c #2C7F58",
"s 	c #2A755C",
"t 	c #7BEF86",
"u 	c #216D5B",
"v 	c #1A6459",
"w 	c #7EF087",
"x 	c #1A6C19",
"y 	c #216F56",
"z 	c #2D8150",
"A 	c #42A665",
"B 	c #43A865",
"C 	c #33804C",
"D 	c #276E5A",
"E 	c #726631",
"F 	c #7BED86",
"G 	c #7EF086",
"H 	c #73E88A",
"I 	c #42A462",
"J 	c #5BDC84",
"K 	c #5DDE86",
"L 	c #5EE189",
"M 	c #5FE38A",
"N 	c #46AB66",
"O 	c #276F5A",
"P 	c #766832",
"Q 	c #7AED86",
"R 	c #226D5A",
"S 	c #7DEC82",
"T 	c #81F287",
"U 	c #226E5D",
"V 	c #5FE58B",
"W 	c #5FE48A",
"X 	c #266D59",
"Y 	c #5F5B2C",
"Z 	c #7AEC86",
"` 	c #1F6B5B",
" .	c #28745B",
"..	c #26725C",
"+.	c #2A7F59",
"@.	c #3AAA79",
"#.	c #3AA778",
"$.	c #2A7D58",
"%.	c #26745E",
"&.	c #7AEC87",
"*.	c #2B825C",
"=.	c #3CAD7D",
"-.	c #26755E",
";.	c #7DEE84",
">.	c #23705C",
",.	c #1F6244",
"'.	c #73E88B",
").	c #81F388",
"!.	c #80F388",
". + @ # # $ $ $ % &             ",
"* = - ; ; > , ' ) !             ",
"@ ~ { ] ] ] ^ / ( _ # $ $ $ % & ",
": ; < [ } | 1 = - ; ; > , ' ) ! ",
": 2 3 4 5 5 6 ~ 7 8 8 8 9 0 a b ",
": c d e f g # h i j k l m n o b ",
"# p q r = - ; ; > , ' ) s n t u ",
"v w x y ~ z A A A B C a D E F u ",
"v G H h ; I J K L M N o O P Q u ",
"R S T U 2 N V W W W N t X Y Z ` ",
" ...u : c +.@.@.#.#.$.F %.H &.` ",
"      # p *.=.=.=.=.*.Q -.> ;.>.",
"      v w ,.*.*.*.*.,.Z ` ` !  .",
"      v G H '.'.'.'.H &.`       ",
"      R S T ).!.c c > ;.>.      ",
"       ...u ` ` ` ` ` !  .      "};
