/* XPM */
static const char * point_sel_xpm[] = {
"16 16 80 1",
" 	c None",
".	c #7AAC13",
"+	c #82CC23",
"@	c #87DE2C",
"#	c #87DC27",
"$	c #81C91B",
"%	c #79A80D",
"&	c #7BAD13",
"*	c #88DC31",
"=	c #88DE36",
"-	c #87DA32",
";	c #86D029",
">	c #85C720",
",	c #86CD20",
"'	c #7BA80D",
")	c #87CF26",
"!	c #87DA34",
"~	c #88E53D",
"{	c #88DE38",
"]	c #87D02A",
"^	c #85C31F",
"/	c #85BF1B",
"(	c #86C51B",
"_	c #7B9D09",
":	c #86C320",
"<	c #87D12D",
"[	c #88DA35",
"}	c #87D530",
"|	c #86C824",
"1	c #85BB19",
"2	c #84B817",
"3	c #85B817",
"4	c #7B9C09",
"5	c #7D9E0A",
"6	c #84B416",
"7	c #86BF1F",
"8	c #86C523",
"9	c #86C120",
"0	c #85B718",
"a	c #84B113",
"b	c #84B013",
"c	c #7B9506",
"d	c #84A80E",
"e	c #84AA10",
"f	c #84AC11",
"g	c #84A90F",
"h	c #788C03",
"i	c #84A009",
"j	c #84A30C",
"k	c #84AA11",
"l	c #84A20B",
"m	c #788B03",
"n	c #7D8F04",
"o	c #839906",
"p	c #84A610",
"q	c #86B51C",
"r	c #86B41B",
"s	c #84A40F",
"t	c #7D8E04",
"u	c #819204",
"v	c #85AB14",
"w	c #87C327",
"x	c #87C226",
"y	c #85A913",
"z	c #819104",
"A	c #6A8A18",
"B	c #73A328",
"C	c #75BC3A",
"D	c #75BB39",
"E	c #73A127",
"F	c #6B8A19",
"G	c #5EB360",
"H	c #74DA76",
"I	c #5DB05E",
"J	c #70D272",
"K	c #5DB15F",
"L	c #6AC76C",
"M	c #6CCC6E",
"N	c #61B762",
"O	c #64BE66",
"                ",
"     .+@#$%     ",
"    &*=-;>,'    ",
"    )!~{]^/(    ",
"   _:<[}|1234   ",
"   567890abb5   ",
"   cdeffgdddc   ",
"   hiijkkliim   ",
"    nopqrsot    ",
"     uvwxyz     ",
"     ABCDEF     ",
"     GHHHHG     ",
"     IJJJJI     ",
"     KLMMLK     ",
"      NOON      ",
"                "};
