/* XPM */
static const char * render_window_sel_xpm[] = {
"16 16 19 1",
" 	c None",
".	c #1A3F23",
"+	c #4C9B5A",
"@	c #6ED376",
"#	c #72D979",
"$	c #71D979",
"%	c #72D97A",
"&	c #71DA7A",
"*	c #71D97A",
"=	c #78E27D",
"-	c #77E27E",
";	c #77E27D",
">	c #78E27E",
",	c #7DEC82",
"'	c #7EEC82",
")	c #7DEB83",
"!	c #83F587",
"~	c #83F586",
"{	c #67C56C",
"       .        ",
"       .        ",
"............... ",
".+++++++++++++. ",
" .           .  ",
" .@@@@@@@@@@@.  ",
" .@@@@@@@@@@@.  ",
" .##$$%$&#*%#.  ",
" .=-;>>>-->->.  ",
" .,,,',,','').  ",
" .!!!!~!!!!~!.  ",
".+++++++++++++. ",
"............... ",
"    {.{.{.{     ",
"   {.{ . {.{    ",
"   .{  .  {.    "};
