/* XPM */
static const char * render_window_xpm[] = {
"16 16 22 1",
" 	c None",
".	c #393F48",
"+	c #939BA8",
"@	c #CFD3DA",
"#	c #CFD3D9",
"$	c #D6D9DF",
"%	c #D5D9DF",
"&	c #D6D9E0",
"*	c #D5DAE0",
"=	c #D5D9E0",
"-	c #E0E2E6",
";	c #DFE2E7",
">	c #DFE2E6",
",	c #E0E2E7",
"'	c #EAECEF",
")	c #EBECEF",
"!	c #EAEBF0",
"~	c #F4F5F7",
"{	c #F5F5F7",
"]	c #F4F5F6",
"^	c #F5F5F6",
"/	c #C3C5C8",
"       .        ",
"       .        ",
"............... ",
".+++++++++++++. ",
" .           .  ",
" .@@@@@@@@@@@.  ",
" .#@@@@@@@@@@.  ",
" .$$%%&%*$=&$.  ",
" .-;>,,,;;,;,.  ",
" .''')'')'))!.  ",
" .~~~{]~{~~^~.  ",
".+++++++++++++. ",
"............... ",
"    /./././     ",
"   /./ . /./    ",
"   ./  .  /.    "};
