/* XPM */
static const char * scene_sel_xpm[] = {
"16 16 56 1",
" 	c None",
".	c #CCCCCC",
"+	c #6F6F6E",
"@	c #5C5E60",
"#	c #C2C2C3",
"$	c #DBDBDB",
"%	c #838484",
"&	c #4D4D4F",
"*	c #2D2C30",
"=	c #E1E1E1",
"-	c #979796",
";	c #3D3D3F",
">	c #B5B5B6",
",	c #A2A2A2",
"'	c #2E2E30",
")	c #AEADAE",
"!	c #3467B6",
"~	c #3B6BB7",
"{	c #3F72B8",
"]	c #4976AD",
"^	c #3971C3",
"/	c #74AFFF",
"(	c #7BB5FD",
"_	c #82BBFF",
":	c #85BBF9",
"<	c #8ABEFA",
"[	c #8DC5FF",
"}	c #93C9FC",
"|	c #99CFFF",
"1	c #9FD5FF",
"2	c #6498C8",
"3	c #7EB5F8",
"4	c #8FC5FB",
"5	c #74B7FB",
"6	c #58ADFE",
"7	c #56ABFE",
"8	c #4B8BCC",
"9	c #4274B3",
"0	c #7ABAFB",
"a	c #4FA4FA",
"b	c #4CA1FA",
"c	c #5195D8",
"d	c #5FB2FE",
"e	c #3D6DA9",
"f	c #4A9FFD",
"g	c #6BBFFE",
"h	c #5BA0DC",
"i	c #345883",
"j	c #418EE3",
"k	c #4894E4",
"l	c #4E9AE6",
"m	c #56A2EC",
"n	c #62AEF2",
"o	c #6CB7F2",
"p	c #7BC7FD",
"q	c #5E9FD5",
"          .+@#  ",
"       $%&*.@#  ",
"    =-;;.&&>    ",
"  ,&'.@;,       ",
" ++-;-          ",
" ++*,'#'*>''>'> ",
" ''.*,'*)''#')' ",
" '!!!~!~~~{{{]' ",
" '^/((_:<[}|12' ",
" '{(33:<4}5678' ",
" '9_:<440aba6c' ",
" '][<[5bba76dc' ",
" 'eafffa76ddgh' ",
" 'ijklmmmnoopq' ",
" '''''''''''''' ",
"                "};
