/* XPM */
static const char * skeleton_sel_xpm[] = {
"16 16 224 2",
"  	c #83F483",
". 	c #89FF89",
"+ 	c #89FF8A",
"@ 	c #87FF8A",
"# 	c #85FC89",
"$ 	c #08200B",
"% 	c #010E03",
"& 	c #09240E",
"* 	c #071F0B",
"= 	c #051A08",
"- 	c #061A08",
"; 	c #0A220C",
"> 	c #81F282",
", 	c #88FF8A",
"' 	c #89FE89",
") 	c #87FB87",
"! 	c #83F583",
"~ 	c #82F484",
"{ 	c #83FA86",
"] 	c #071C09",
"^ 	c #0A230D",
"/ 	c #71DD78",
"( 	c #6ED875",
"_ 	c #6DD674",
": 	c #6FDA76",
"< 	c #71DB77",
"[ 	c #071D09",
"} 	c #041406",
"| 	c #87FB88",
"1 	c #87FC87",
"2 	c #7DE97E",
"3 	c #85FA88",
"4 	c #0C240E",
"5 	c #6ED574",
"6 	c #6DD473",
"7 	c #78E880",
"8 	c #6CD374",
"9 	c #6FD977",
"0 	c #74E27A",
"a 	c #6DD372",
"b 	c #73DD77",
"c 	c #75E079",
"d 	c #071806",
"e 	c #85FA87",
"f 	c #83F685",
"g 	c #88FF8C",
"h 	c #051606",
"i 	c #71D976",
"j 	c #79E87E",
"k 	c #72DB79",
"l 	c #70DA78",
"m 	c #70DB78",
"n 	c #73E07B",
"o 	c #73DC79",
"p 	c #70D976",
"q 	c #7EEF83",
"r 	c #071A08",
"s 	c #7FF082",
"t 	c #84F787",
"u 	c #77E37D",
"v 	c #06190A",
"w 	c #020B04",
"x 	c #09200F",
"y 	c #6CD073",
"z 	c #051809",
"A 	c #0E2813",
"B 	c #041306",
"C 	c #6FD273",
"D 	c #051305",
"E 	c #89FF8C",
"F 	c #88FD8A",
"G 	c #83F586",
"H 	c #81F084",
"I 	c #091C0B",
"J 	c #70D375",
"K 	c #75DF7B",
"L 	c #0A1F0F",
"M 	c #74DC7A",
"N 	c #75DF7C",
"O 	c #79E580",
"P 	c #132E17",
"Q 	c #78E27D",
"R 	c #7CE980",
"S 	c #0A1C0B",
"T 	c #85F888",
"U 	c #84F686",
"V 	c #89FE8C",
"W 	c #081A0A",
"X 	c #78DF7C",
"Y 	c #72D577",
"Z 	c #73D779",
"` 	c #07160B",
" .	c #6CCD72",
"..	c #79E17E",
"+.	c #70D174",
"@.	c #6BC96E",
"#.	c #112813",
"$.	c #83F385",
"%.	c #84F486",
"&.	c #88FB8A",
"*.	c #081608",
"=.	c #09190B",
"-.	c #0A190C",
";.	c #77DC7D",
">.	c #72D578",
",.	c #73D478",
"'.	c #79E07E",
").	c #73D578",
"!.	c #071408",
"~.	c #0E220F",
"{.	c #040E05",
"].	c #7BE47D",
"^.	c #89FA8B",
"/.	c #081508",
"(.	c #79DD7C",
"_.	c #0F2010",
":.	c #0C1C0E",
"<.	c #030904",
"[.	c #040904",
"}.	c #0C1B0D",
"|.	c #0A170B",
"1.	c #0B1A0C",
"2.	c #73D375",
"3.	c #0B190B",
"4.	c #89FD8B",
"5.	c #7EE981",
"6.	c #0D210F",
"7.	c #6BC76E",
"8.	c #051007",
"9.	c #89FD8C",
"0.	c #88FC8C",
"a.	c #040D05",
"b.	c #77DD7A",
"c.	c #7EF181",
"d.	c #82F986",
"e.	c #87FF8C",
"f.	c #030F04",
"g.	c #79E67E",
"h.	c #0B1F0E",
"i.	c #020A04",
"j.	c #030C04",
"k.	c #071709",
"l.	c #091F0D",
"m.	c #75DF7A",
"n.	c #051506",
"o.	c #77E57A",
"p.	c #86FF89",
"q.	c #80FF86",
"r.	c #7DF982",
"s.	c #83FF8A",
"t.	c #84FF8A",
"u.	c #031906",
"v.	c #70DD78",
"w.	c #041908",
"x.	c #85FF8C",
"y.	c #86FF8C",
"z.	c #7EF686",
"A.	c #051D0A",
"B.	c #74E67B",
"C.	c #051F08",
"D.	c #7EFC84",
"E.	c #83FF89",
"F.	c #7AF580",
"G.	c #79FD82",
"H.	c #7FFF89",
"I.	c #7DFF86",
"J.	c #083010",
"K.	c #13441B",
"L.	c #021B06",
"M.	c #6FE679",
"N.	c #011605",
"O.	c #032109",
"P.	c #6BDE75",
"Q.	c #032308",
"R.	c #13431B",
"S.	c #07310F",
"T.	c #71F07A",
"U.	c #76FF83",
"V.	c #75FF82",
"W.	c #032D0A",
"X.	c #0F481A",
"Y.	c #11491B",
"Z.	c #012407",
"`.	c #001804",
" +	c #6FEE7C",
".+	c #6CEA7A",
"++	c #6FEE7B",
"@+	c #001101",
"#+	c #002105",
"$+	c #0D4518",
"%+	c #05360F",
"&+	c #04340D",
"*+	c #7BFF89",
"=+	c #75FF85",
"-+	c #0D531C",
";+	c #074414",
">+	c #063F13",
",+	c #0A4618",
"'+	c #04370F",
")+	c #03310D",
"!+	c #001802",
"~+	c #001B03",
"{+	c #022C0B",
"]+	c #033610",
"^+	c #084215",
"/+	c #03380F",
"(+	c #0F521C",
"_+	c #02360C",
":+	c #6DFE7D",
"<+	c #084E18",
"[+	c #003007",
"}+	c #0C521B",
"|+	c #084B17",
"1+	c #043B10",
"2+	c #084717",
"3+	c #064015",
"4+	c #084417",
"5+	c #094618",
"6+	c #03350F",
"7+	c #033D10",
"8+	c #084817",
"9+	c #033F10",
"0+	c #084D17",
"a+	c #054814",
"  . + @ # $ % & * = - ; > , ' ) ",
". ! ~ { ] ^ / ( _ : < [ } , | 1 ",
"2 , 3 4 5 6 7 8 9 0 a b c d e , ",
", f g h i j k l m n o p q r s > ",
"t g g } u v w x y z A B C D E F ",
"G E H I J K L M N O P Q R S T U ",
"V V V W X Y Z Z `  ...+.@.#.$.V ",
"%.&.V *.=.-.;.>.,.'.).!.~.{.V V ",
"V ].^./.(._.:.<.[.}.|.1.2.3.&.4.",
"T E E 5.6.7.8.9.9.0.a.b.~.U E > ",
"@ c.d.e.f.g.h.i.j.k.l.m.n.@ o.p.",
"q.r.s.t.u.v.w.x.y.z.A.B.C.D.E.F.",
"G.H.I.J.K.L.M.L.N.O.P.Q.R.S.H.T.",
"U.V.W.X.Y.Z.`. +.+++@+#+$+%+&+*+",
"=+-+;+>+,+'+)+!+~+{+]+^+/+(+_+:+",
"<+[+}+|+1+2+3+4+5+6+2+7+8+9+0+a+"};
