/* XPM */
static const char * spot_sel_xpm[] = {
"16 16 122 2",
"  	c None",
". 	c #1C3E1D",
"+ 	c #143018",
"@ 	c #14341B",
"# 	c #1D4122",
"$ 	c #306434",
"% 	c #163317",
"& 	c #15341A",
"* 	c #3F570B",
"= 	c #626F08",
"- 	c #343D04",
"; 	c #071304",
"> 	c #2C5D31",
", 	c #122B12",
"' 	c #182E0B",
") 	c #779419",
"! 	c #738813",
"~ 	c #819713",
"{ 	c #6F800E",
"] 	c #050E02",
"^ 	c #2F5F32",
"/ 	c #224719",
"( 	c #0F250F",
"_ 	c #27400B",
": 	c #84C21D",
"< 	c #75A31E",
"[ 	c #799A18",
"} 	c #7E9313",
"| 	c #5C6C0B",
"1 	c #06160B",
"2 	c #285329",
"3 	c #2A5627",
"4 	c #163113",
"5 	c #0D240F",
"6 	c #1B350D",
"7 	c #89EA30",
"8 	c #87D62A",
"9 	c #7EB823",
"0 	c #799B18",
"a 	c #7F9813",
"b 	c #0F1502",
"c 	c #1E4424",
"d 	c #2A562B",
"e 	c #0F250D",
"f 	c #030C03",
"g 	c #081808",
"h 	c #83F452",
"i 	c #89FB47",
"j 	c #88DE2E",
"k 	c #7AB023",
"l 	c #788C14",
"m 	c #394504",
"n 	c #0D2915",
"o 	c #1A391B",
"p 	c #0D220D",
"q 	c #020902",
"r 	c #040F04",
"s 	c #102712",
"t 	c #4A8F3F",
"u 	c #89FF62",
"v 	c #89F740",
"w 	c #87CA1F",
"x 	c #7B9D1D",
"y 	c #516209",
"z 	c #091D11",
"A 	c #0C210D",
"B 	c #020802",
"C 	c #000100",
"D 	c #132C13",
"E 	c #142F14",
"F 	c #0A1C09",
"G 	c #051205",
"H 	c #77E05D",
"I 	c #89FC4D",
"J 	c #89D51C",
"K 	c #82A218",
"L 	c #5E7C0E",
"M 	c #17391F",
"N 	c #0C200C",
"O 	c #091B09",
"P 	c #0A1C0A",
"Q 	c #000000",
"R 	c #010201",
"S 	c #163214",
"T 	c #142D13",
"U 	c #061506",
"V 	c #559C2E",
"W 	c #86DE19",
"X 	c #83A910",
"Y 	c #548313",
"Z 	c #244D29",
"` 	c #122B13",
" .	c #0E240F",
"..	c #010401",
"+.	c #2C5A2E",
"@.	c #4B914D",
"#.	c #030B03",
"$.	c #21441F",
"%.	c #173518",
"&.	c #0C2312",
"*.	c #06170C",
"=.	c #0D2715",
"-.	c #1A3D1F",
";.	c #214622",
">.	c #112911",
",.	c #051105",
"'.	c #275229",
").	c #438345",
"!.	c #163315",
"~.	c #244A1F",
"{.	c #295323",
"].	c #316230",
"^.	c #0D230E",
"/.	c #061406",
"(.	c #193719",
"_.	c #2A5628",
":.	c #3C7536",
"<.	c #2B582C",
"[.	c #275128",
"}.	c #275028",
"|.	c #2D5B2E",
"1.	c #2D5C2E",
"              . + @ # $         ",
"            % & * = - ; >       ",
"            , ' ) ! ~ { ] ^     ",
"          / ( _ : < [ } | 1 2   ",
"        3 4 5 6 7 8 9 0 a b c   ",
"      d % e f g h i j k l m n   ",
"    o p p q r s t u v w x y z   ",
"    A B C D E F G H I J K L M   ",
"    N O P Q R S T U V W X Y Z   ",
"    `  ...+.@.#.$.%.&.*.=.-.    ",
"    ;.>.,.'.).Q !.e ~.{.].      ",
"      ^.>./.R (._.:.            ",
"          <.[.                  ",
"          }.|.                  ",
"      }.}.}.[.1.<.              ",
"      Q Q Q Q R B               "};
