/* XPM */
static const char * ssao_config_xpm[] = {
"16 16 47 1",
" 	c #4D4D4D",
".	c #676767",
"+	c #ECECEC",
"@	c #BEBEBE",
"#	c #B3B3B3",
"$	c #A1A1A1",
"%	c #999999",
"&	c #8D8D8D",
"*	c #7C7C7C",
"=	c #6C6C6C",
"-	c #575757",
";	c #878787",
">	c #FFFFFF",
",	c #9F9F9F",
"'	c #A6A6A6",
")	c #C4C4C4",
"!	c #D6D6D6",
"~	c #D4D4D4",
"{	c #F7F7F7",
"]	c #787878",
"^	c #B5B5B5",
"/	c #969696",
"(	c #F6F6F6",
"_	c #9C9C9C",
":	c #E9E9E9",
"<	c #808080",
"[	c #A9A9A9",
"}	c #DDDDDD",
"|	c #B1B1B1",
"1	c #CACACA",
"2	c #898989",
"3	c #B8B8B8",
"4	c #BABABA",
"5	c #ACACAC",
"6	c #C0C0C0",
"7	c #919191",
"8	c #C8C8C8",
"9	c #AEAEAE",
"0	c #E1E1E1",
"a	c #E4E4E4",
"b	c #BCBCBC",
"c	c #C2C2C2",
"d	c #DBDBDB",
"e	c #FCFCFC",
"f	c #E2E2E2",
"g	c #D8D8D8",
"h	c #A4A4A4",
"                ",
"                ",
"   .+@#$%&*=-   ",
"   ;>,$'@@)!~   ",
"   &{      ]^   ",
"   /(      ]^   ",
"   _:      <#   ",
"   [}      ;|   ",
"   |1      2|   ",
"   34      25   ",
"   6|      7$   ",
"   89      %,   ",
"   0a5bc8d~ef   ",
"   cg@#|h,%_'   ",
"                ",
"                "};
