/* XPM */
static const char * stop_xpm[] = {
"32 32 615 2",
"  	c None",
". 	c #AEAEB1",
"+ 	c #AFAFB3",
"@ 	c #AAAAAF",
"# 	c #A8A8AF",
"$ 	c #A5A5AC",
"% 	c #A1A2A8",
"& 	c #9E9EA3",
"* 	c #AFAFB1",
"= 	c #C4C4C8",
"- 	c #DCD8E4",
"; 	c #C2C3C6",
"> 	c #B9CEB2",
", 	c #B7D4AA",
"' 	c #B8D9A9",
") 	c #B5D5A7",
"! 	c #B3CCAA",
"~ 	c #ACB8AD",
"{ 	c #B2ADBD",
"] 	c #B3B1BD",
"^ 	c #97979D",
"/ 	c #D7D7DA",
"( 	c #D7D5DC",
"_ 	c #BCDAAE",
": 	c #96E171",
"< 	c #9AFF69",
"[ 	c #9EFF6D",
"} 	c #99FF67",
"| 	c #98FF66",
"1 	c #96FF68",
"2 	c #96FF6A",
"3 	c #8AEC62",
"4 	c #9FD68C",
"5 	c #A6B2A8",
"6 	c #ADAAB9",
"7 	c #98989E",
"8 	c #BFBFC1",
"9 	c #EDEAF2",
"0 	c #BDD6B1",
"a 	c #94F066",
"b 	c #9BFF6A",
"c 	c #97FE64",
"d 	c #97FF66",
"e 	c #94FD64",
"f 	c #8DF961",
"g 	c #88F75F",
"h 	c #83F45D",
"i 	c #7FF15B",
"j 	c #7AEF59",
"k 	c #76ED56",
"l 	c #7EF35F",
"m 	c #89CE79",
"n 	c #A4A8AB",
"o 	c #A4A4AD",
"p 	c #D4D4D4",
"q 	c #E9E8EB",
"r 	c #9BD97C",
"s 	c #9DFF6B",
"t 	c #97FE65",
"u 	c #95FD64",
"v 	c #85F55E",
"w 	c #80F25B",
"x 	c #79EF59",
"y 	c #74EC57",
"z 	c #70EA55",
"A 	c #6CE853",
"B 	c #68E652",
"C 	c #66E451",
"D 	c #62E24E",
"E 	c #6AE057",
"F 	c #9EB3A0",
"G 	c #A5A3B1",
"H 	c #CDCDCE",
"I 	c #96E370",
"J 	c #98FF65",
"K 	c #8FFA62",
"L 	c #87F65F",
"M 	c #7FF25B",
"N 	c #78EE58",
"O 	c #71EA56",
"P 	c #6BE752",
"Q 	c #66E450",
"R 	c #61E24E",
"S 	c #5DDF4D",
"T 	c #59DD4B",
"U 	c #57DC4A",
"V 	c #54DB49",
"W 	c #53DA49",
"X 	c #57DF4C",
"Y 	c #91B292",
"Z 	c #A4A2AF",
"` 	c #B5B5B6",
" .	c #EAE8EE",
"..	c #98E073",
"+.	c #97FF65",
"@.	c #94FD65",
"#.	c #8BF861",
"$.	c #82F35D",
"%.	c #7BEE59",
"&.	c #72EA55",
"*.	c #6AE652",
"=.	c #63E24F",
"-.	c #52DA48",
";.	c #4DD746",
">.	c #4AD544",
",.	c #47D444",
"'.	c #45D243",
").	c #44D142",
"!.	c #43D143",
"~.	c #47D745",
"{.	c #93A997",
"].	c #A1A1AB",
"^.	c #E8E7ED",
"/.	c #A6D78E",
"(.	c #98FE66",
"_.	c #93FC63",
":.	c #83F35B",
"<.	c #79EC56",
"[.	c #70E752",
"}.	c #67E24E",
"|.	c #5FDD4A",
"1.	c #57D947",
"2.	c #4FD544",
"3.	c #49D241",
"4.	c #42CE3E",
"5.	c #3ECC3C",
"6.	c #39C93A",
"7.	c #37C738",
"8.	c #36C436",
"9.	c #39C539",
"0.	c #3AC839",
"a.	c #3FC73E",
"b.	c #9D9EA7",
"c.	c #C1C1C4",
"d.	c #BEC9BC",
"e.	c #9AFF67",
"f.	c #92FC63",
"g.	c #8FEF6D",
"h.	c #D8EFD0",
"i.	c #D2EACC",
"j.	c #CFE9CA",
"k.	c #CDE6C9",
"l.	c #CAE4C7",
"m.	c #C7E3C5",
"n.	c #C5E1C3",
"o.	c #C2DFC2",
"p.	c #BFDEC1",
"q.	c #BFDCBF",
"r.	c #BDDABD",
"s.	c #BCD9BC",
"t.	c #BDD8BD",
"u.	c #68BD67",
"v.	c #30B62D",
"w.	c #33BD2F",
"x.	c #33BE2F",
"y.	c #33BE30",
"z.	c #5DB45C",
"A.	c #A7A4B3",
"B.	c #E0DEE7",
"C.	c #9ADF77",
"D.	c #93FC64",
"E.	c #86F55E",
"F.	c #B1E8A0",
"G.	c #E5E5E5",
"H.	c #E2E2E2",
"I.	c #DFDFDF",
"J.	c #DCDCDC",
"K.	c #D8D9D8",
"L.	c #D5D5D5",
"M.	c #D1D1D1",
"N.	c #CECECE",
"O.	c #CBCBCB",
"P.	c #C8C8C8",
"Q.	c #C4C4C4",
"R.	c #C1C1C1",
"S.	c #BDBDBD",
"T.	c #A7BDA6",
"U.	c #209B1A",
"V.	c #2BB326",
"W.	c #2CB426",
"X.	c #2CB527",
"Y.	c #29BA25",
"Z.	c #929F99",
"`.	c #94949B",
" +	c #B4B4B7",
".+	c #BAC0BC",
"++	c #9AFF65",
"@+	c #89F75F",
"#+	c #7CEF59",
"$+	c #A7E19A",
"%+	c #DBDADB",
"&+	c #D8D8D8",
"*+	c #C7C7C7",
"=+	c #BEBEBE",
"-+	c #BABABA",
";+	c #B7B7B7",
">+	c #B3B3B3",
",+	c #A0B49F",
"'+	c #188D12",
")+	c #25AA1D",
"!+	c #25AB1E",
"~+	c #26AC1E",
"{+	c #27AD1F",
"]+	c #57A854",
"^+	c #ADACB8",
"/+	c #C0C0C5",
"(+	c #A9D495",
"_+	c #8BF860",
":+	c #A1DC96",
"<+	c #CFCFD0",
"[+	c #CDCDCD",
"}+	c #CACACA",
"|+	c #C0C0C0",
"1+	c #B9B9B9",
"2+	c #B6B6B6",
"3+	c #B2B2B3",
"4+	c #B0B0B0",
"5+	c #ACADAD",
"6+	c #ACACAB",
"7+	c #9EB29D",
"8+	c #128509",
"9+	c #1FA115",
"0+	c #1FA215",
"a+	c #1FA316",
"b+	c #21A417",
"c+	c #20A617",
"d+	c #A49DAF",
"e+	c #87878A",
"f+	c #D3D0DB",
"g+	c #95E06F",
"h+	c #75EC57",
"i+	c #68E552",
"j+	c #9AD892",
"k+	c #C3C3C3",
"l+	c #BFBFBF",
"m+	c #BCBCBC",
"n+	c #B5B5B5",
"o+	c #B8B8B8",
"p+	c #BCBDBC",
"q+	c #C1C2C1",
"r+	c #C4C5C4",
"s+	c #C7C7C6",
"t+	c #B6C5B4",
"u+	c #3A9631",
"v+	c #31A426",
"w+	c #1F9C14",
"x+	c #1A9B0F",
"y+	c #1B9C0F",
"z+	c #169F0C",
"A+	c #869E8A",
"B+	c #939399",
"C+	c #C3BDCD",
"D+	c #92F261",
"E+	c #87F55E",
"F+	c #7AEE59",
"G+	c #6CE753",
"H+	c #5FDF4E",
"I+	c #94D38E",
"J+	c #BAB9BA",
"K+	c #BDBEBE",
"L+	c #C1C1C0",
"M+	c #C4C4C3",
"N+	c #CACAC8",
"O+	c #CDCDCB",
"P+	c #CFD0CD",
"Q+	c #BBCAB9",
"R+	c #45983C",
"S+	c #4DAD43",
"T+	c #4FAE45",
"U+	c #52AF48",
"V+	c #50AF47",
"W+	c #299F1D",
"X+	c #669B65",
"Y+	c #9D9DA4",
"Z+	c #A7A7AA",
"`+	c #B5B3BD",
" @	c #95FF61",
".@	c #8DF861",
"+@	c #71EA55",
"@@	c #64E24F",
"#@	c #57DA49",
"$@	c #8DCF8B",
"%@	c #AFAEAF",
"&@	c #C7C7C5",
"*@	c #CACBC8",
"=@	c #CFD1CE",
"-@	c #D2D4D0",
";@	c #D5D6D3",
">@	c #D7DAD5",
",@	c #BFCEBD",
"'@	c #43963A",
")@	c #4DA942",
"!@	c #4EAB43",
"~@	c #50AB45",
"{@	c #51AC46",
"]@	c #54AE49",
"^@	c #73A471",
"/@	c #AAAAB3",
"(@	c #AAAAAE",
"_@	c #ADAFB3",
":@	c #93FF60",
"<@	c #5CDF4C",
"[@	c #4DD646",
"}@	c #89CD89",
"|@	c #BCBBBB",
"1@	c #C4C5C3",
"2@	c #C7C8C6",
"3@	c #CACBC9",
"4@	c #CDCECB",
"5@	c #D0D1CE",
"6@	c #D3D4D0",
"7@	c #D5D7D3",
"8@	c #D8DAD6",
"9@	c #DBDCD8",
"0@	c #DDDFDA",
"a@	c #E0E2DC",
"b@	c #C4D2C1",
"c@	c #46973C",
"d@	c #4FAA44",
"e@	c #52AC47",
"f@	c #53AC48",
"g@	c #54AC49",
"h@	c #6CA168",
"i@	c #B2B1BA",
"j@	c #A5A5A9",
"k@	c #ACABB4",
"l@	c #8BFD5B",
"m@	c #62E14F",
"n@	c #53DA48",
"o@	c #60D85D",
"p@	c #9ED59E",
"q@	c #C5C6C4",
"r@	c #D0D1CD",
"s@	c #D8D9D5",
"t@	c #DEDFDA",
"u@	c #E0E2DD",
"v@	c #E3E5DF",
"w@	c #E4E7E1",
"x@	c #E7E8E3",
"y@	c #C7D5C4",
"z@	c #48983F",
"A@	c #51AB46",
"B@	c #52AB47",
"C@	c #54AD49",
"D@	c #55AD4A",
"E@	c #57AD4C",
"F@	c #70A16D",
"G@	c #B3B2BA",
"H@	c #B0AABB",
"I@	c #82F258",
"J@	c #6AE752",
"K@	c #5DDF4C",
"L@	c #6EDE69",
"M@	c #65D765",
"N@	c #9FD59F",
"O@	c #CECFCC",
"P@	c #D8DAD5",
"Q@	c #DBDDD8",
"R@	c #DEE0DA",
"S@	c #E0E3DD",
"T@	c #E5E7E1",
"U@	c #E7E9E3",
"V@	c #E9EBE6",
"W@	c #EBECE8",
"X@	c #ECEEEA",
"Y@	c #CAD8C8",
"Z@	c #4B9A41",
"`@	c #57AD4B",
" #	c #56AF4D",
".#	c #58AF4E",
"+#	c #7AA17A",
"@#	c #ACACB2",
"##	c #BAB5C6",
"$#	c #7CDB5D",
"%#	c #73EC56",
"&#	c #68E353",
"*#	c #77E26E",
"=#	c #6CDC6A",
"-#	c #64D564",
";#	c #A1D69F",
">#	c #D7D9D4",
",#	c #DEE0DB",
"'#	c #E1E3DD",
")#	c #E3E6DF",
"!#	c #E5E8E1",
"~#	c #E7E9E4",
"{#	c #EDEEEA",
"]#	c #EEF0EC",
"^#	c #F0F1EE",
"/#	c #F2F3F1",
"(#	c #CDDBCB",
"_#	c #4D9B44",
":#	c #56AD4B",
"<#	c #56AF4C",
"[#	c #57AF4D",
"}#	c #59AF4F",
"|#	c #59B24F",
"1#	c #8DA390",
"2#	c #A2A2A6",
"3#	c #B1B0B9",
"4#	c #88C878",
"5#	c #71E957",
"6#	c #80E772",
"7#	c #74E06D",
"8#	c #69DA69",
"9#	c #64D263",
"0#	c #A2D6A1",
"a#	c #E5E8E2",
"b#	c #EBEDE8",
"c#	c #EDEEEB",
"d#	c #EFF0ED",
"e#	c #F0F2EF",
"f#	c #F4F5F3",
"g#	c #F6F7F5",
"h#	c #F8F8F6",
"i#	c #D0DECE",
"j#	c #509C47",
"k#	c #57AE4D",
"l#	c #5AB050",
"m#	c #5BB051",
"n#	c #59B24E",
"o#	c #ABAAB3",
"p#	c #909093",
"q#	c #9F9FA5",
"r#	c #94A996",
"s#	c #88F173",
"t#	c #7EE571",
"u#	c #73DF6D",
"v#	c #68D869",
"w#	c #63D062",
"x#	c #A3D7A1",
"y#	c #EAEDE8",
"z#	c #EDEFEB",
"A#	c #EFF1ED",
"B#	c #F1F2EE",
"C#	c #F3F4F0",
"D#	c #F8F9F7",
"E#	c #F9FAF9",
"F#	c #FBFCFB",
"G#	c #FDFDFD",
"H#	c #D3E0D1",
"I#	c #529E49",
"J#	c #5AAF50",
"K#	c #5BB151",
"L#	c #5CB052",
"M#	c #5EB154",
"N#	c #67A560",
"O#	c #CECCD6",
"P#	c #ABA6B8",
"Q#	c #83D774",
"R#	c #7CE371",
"S#	c #71DD6D",
"T#	c #68D769",
"U#	c #64CE62",
"V#	c #A5D7A3",
"W#	c #F1F2EF",
"X#	c #F4F6F3",
"Y#	c #F6F6F5",
"Z#	c #F8F9F8",
"`#	c #FAFAF8",
" $	c #FBFCFA",
".$	c #FEFEFE",
"+$	c #FFFFFF",
"@$	c #549F4C",
"#$	c #5DB153",
"$$	c #5FB255",
"%$	c #5FB455",
"&$	c #95AB97",
"*$	c #B7B7BB",
"=$	c #A4A4AB",
"-$	c #94AF96",
";$	c #7CE672",
">$	c #70DC6F",
",$	c #69D668",
"'$	c #65CE63",
")$	c #A7D8A5",
"!$	c #F3F3F1",
"~$	c #F8F8F7",
"{$	c #FAFAF9",
"]$	c #FEFEFD",
"^$	c #FEFFFE",
"/$	c #D6E2D4",
"($	c #56A14E",
"_$	c #60B256",
":$	c #61B357",
"<$	c #64AA5C",
"[$	c #CFCCD7",
"}$	c #7D7D7E",
"|$	c #AAA7B6",
"1$	c #7ECA7A",
"2$	c #70DC70",
"3$	c #6AD569",
"4$	c #65CD63",
"5$	c #64BD60",
"6$	c #8EBE8B",
"7$	c #8CB788",
"8$	c #8BB587",
"9$	c #8AB386",
"0$	c #8AB286",
"a$	c #8BB387",
"b$	c #8CB387",
"c$	c #8DB488",
"d$	c #8EB489",
"e$	c #8EB68A",
"f$	c #8FB58A",
"g$	c #90B68C",
"h$	c #92B78E",
"i$	c #6DA466",
"j$	c #5FAB55",
"k$	c #62B358",
"l$	c #61B656",
"m$	c #AAB4AD",
"n$	c #C0C0C4",
"o$	c #A1A1A7",
"p$	c #A1A0AB",
"q$	c #6ED56D",
"r$	c #6BD46B",
"s$	c #67CE65",
"t$	c #63C55F",
"u$	c #5DBA58",
"v$	c #59B352",
"w$	c #57AE4F",
"x$	c #55A94B",
"y$	c #54A74A",
"z$	c #55A84B",
"A$	c #57A94C",
"B$	c #58A94E",
"C$	c #59AA4F",
"D$	c #5AAB50",
"E$	c #5BAB52",
"F$	c #5DAC53",
"G$	c #5EAC54",
"H$	c #60AF57",
"I$	c #62B258",
"J$	c #64B45A",
"K$	c #64B65A",
"L$	c #89AC87",
"M$	c #E6E5EB",
"N$	c #A6A7AF",
"O$	c #A0A5A8",
"P$	c #69D268",
"Q$	c #68CD66",
"R$	c #64C661",
"S$	c #61C05B",
"T$	c #5DBB56",
"U$	c #5BB552",
"V$	c #58B04E",
"W$	c #63B459",
"X$	c #65B65B",
"Y$	c #7FAC7B",
"Z$	c #EBE9EF",
"`$	c #858586",
" %	c #A3A8AA",
".%	c #69C566",
"+%	c #67C863",
"@%	c #63C15D",
"#%	c #60BC59",
"$%	c #5DB654",
"%%	c #5BB250",
"&%	c #59B04F",
"*%	c #64B55A",
"=%	c #66B55C",
"-%	c #64B759",
";%	c #8BAF89",
">%	c #F1EFF4",
",%	c #9D9D9E",
"'%	c #A9A9B0",
")%	c #A6A5AF",
"!%	c #80B57F",
"~%	c #62C55B",
"{%	c #62BD5B",
"]%	c #60B857",
"^%	c #5DB353",
"/%	c #5BB052",
"(%	c #65B55B",
"_%	c #66B65C",
":%	c #63AF5A",
"<%	c #B5C3B7",
"[%	c #F9F7FB",
"}%	c #8C8C8C",
"|%	c #949497",
"1%	c #B4B2BE",
"2%	c #A5AEAB",
"3%	c #7DB37A",
"4%	c #5CB853",
"5%	c #5EB655",
"6%	c #62B657",
"7%	c #66AD5E",
"8%	c #A4BEA4",
"9%	c #DDDBE2",
"0%	c #DBDBDD",
"a%	c #5A5A5A",
"b%	c #9A9A9F",
"c%	c #BDBBC6",
"d%	c #B0AEB8",
"e%	c #A3B6A6",
"f%	c #93B791",
"g%	c #83B37D",
"h%	c #7DB377",
"i%	c #7FB379",
"j%	c #8FB88B",
"k%	c #A5BFA4",
"l%	c #BDC5C0",
"m%	c #DFDBE5",
"n%	c #D5D5D8",
"o%	c #8C8C8E",
"p%	c #89898C",
"q%	c #9D9DA2",
"r%	c #B3B2B9",
"s%	c #C7C6CE",
"t%	c #D0CED7",
"u%	c #D2D0D9",
"v%	c #CBCAD1",
"w%	c #9D9DA0",
"x%	c #717171",
"                        . + @ # $ % &                           ",
"                  * = - ; > , ' ) ! ~ { ] ^                     ",
"                / ( _ : < [ < } | 1 2 3 4 5 6 7                 ",
"            8 9 0 a b c | d e f g h i j k l m n o               ",
"          p q r s t t t u f v w x y z A B C D E F G             ",
"        H q I J | | t K L M N O P Q R S T U V W X Y Z           ",
"      `  ...+.| | @.#.$.%.&.*.=.S U -.;.>.,.'.).!.~.{.].        ",
"      ^./.| (.(._.:.<.[.}.|.1.2.3.4.5.6.7.8.9.0.0.0.a.b.^       ",
"    c.d.e.| | f.g.h.i.j.k.l.m.n.o.p.q.r.s.t.u.v.w.x.y.z.A.      ",
"    B.C.t | D.E.F.G.H.I.J.K.L.M.N.O.P.Q.R.S.T.U.V.W.X.Y.Z.`.    ",
"   +.+++| u @+#+$+%+&+L.M.N.O.*+Q.R.=+-+;+>+,+'+)+!+~+{+]+^+    ",
"  /+(+J t _+i O :+<+[+}+*+Q.|+S.1+2+3+4+5+6+7+8+9+0+a+b+c+d+e+  ",
"  f+g+| K $.h+i+j+Q.k+l+m+1+2+>+n+o+p+q+r+s+t+u+v+w+x+y+z+A+B+  ",
"  C+D+@.E+F+G+H+I+J+o+n+>+m+m+K+L+M+s+N+O+P+Q+R+S+T+U+V+W+X+Y+  ",
"Z+`+ @.@i +@@@#@$@%@>+m+=+L+M+&@*@O+=@-@;@>@,@'@)@!@~@{@]@^@/@  ",
"(@_@:@v N *.<@[@}@|@L+1@2@3@4@5@6@7@8@9@0@a@b@c@d@~@e@f@g@h@i@  ",
"j@k@l@M z m@n@o@p@q@3@O+r@6@7@s@9@t@u@v@w@x@y@z@A@B@C@D@E@F@G@  ",
"  H@I@x J@K@L@M@N@O@6@7@P@Q@R@S@v@T@U@V@W@X@Y@Z@g@D@`@ #.#+#@#  ",
"  ##$#%#&#*#=#-#;#>#Q@,#'#)#!#~#V@W@{#]#^#/#(#_#:#<#[#}#|#1#2#  ",
"  3#4#5#6#7#8#9#0#u@)#a#~#V@b#c#d#e#/#f#g#h#i#j#k#}#l#m#n#o#p#  ",
"  q#r#s#t#u#v#w#x#x@V@y#z#A#B#C#f#g#D#E#F#G#H#I#J#K#L#M#N#O#    ",
"    P#Q#R#S#T#U#V#X@]#W#/#X#Y#Z#`# $G#.$.$+$H#@$L##$$$%$&$*$    ",
"    =$-$;$>$,$'$)$!$f#g#~${$F#]$.$^$+$.$+$.$/$($$$_$:$<$[$}$    ",
"      |$1$2$3$4$5$6$7$8$9$0$a$b$c$d$e$f$g$h$i$j$:$k$l$m$n$      ",
"      o$p$q$r$s$t$u$v$w$x$y$z$A$B$C$D$E$F$G$H$I$J$K$L$M$        ",
"        N$O$P$Q$R$S$T$U$V$k#}#l#m##$M#$$:$k$W$J$X$Y$Z$`$        ",
"          /@ %.%+%@%#%$%%%&%m#L#M#$$_$k$W$*%=%-%;%>%,%          ",
"            '%)%!%~%{%]%^%/%#$$$_$k$W$J$(%_%:%<%[%}%            ",
"              |%1%2%3%4%5%$$_$:$W$J$*%6%7%8%9%0%a%              ",
"                  b%c%d%e%f%g%h%i%j%k%l%m%n%o%                  ",
"                      p%q%r%s%t%u%v%*$w%x%                      ",
"                                                                "};
