/* XPM */
static const char * styles_sel_xpm[] = {
"16 16 228 2",
"  	c #2C4A26",
". 	c #1E5621",
"+ 	c #2D4C29",
"@ 	c #22522B",
"# 	c #2B4824",
"$ 	c #224820",
"% 	c #2A4F2D",
"& 	c #274928",
"* 	c #284A23",
"= 	c #1D4C2A",
"- 	c #2D5024",
"; 	c #2B4B27",
"> 	c #244321",
", 	c #28512A",
"' 	c #264927",
") 	c #2A4C23",
"! 	c #244B24",
"~ 	c #89FC86",
"{ 	c #89FE89",
"] 	c #89F58C",
"^ 	c #81FF8B",
"/ 	c #87FF89",
"( 	c #89FC8A",
"_ 	c #89FC8C",
": 	c #84FF8C",
"< 	c #88FA87",
"[ 	c #88FE8C",
"} 	c #88FF85",
"| 	c #84F98C",
"1 	c #89FA8C",
"2 	c #214C20",
"3 	c #28441F",
"4 	c #87FF85",
"5 	c #046510",
"6 	c #015707",
"7 	c #89F986",
"8 	c #244B20",
"9 	c #1E5520",
"0 	c #1E4E2B",
"a 	c #224926",
"b 	c #25501D",
"c 	c #245727",
"d 	c #264922",
"e 	c #204D23",
"f 	c #254C24",
"g 	c #85FF87",
"h 	c #274E23",
"i 	c #2A4A2C",
"j 	c #84FF8A",
"k 	c #015912",
"l 	c #015816",
"m 	c #83FD8C",
"n 	c #22521F",
"o 	c #015824",
"p 	c #00CB81",
"q 	c #02CA8C",
"r 	c #03C18C",
"s 	c #03BF88",
"t 	c #01C88A",
"u 	c #02C689",
"v 	c #284B2D",
"w 	c #87FA89",
"x 	c #235124",
"y 	c #235425",
"z 	c #89FB8C",
"A 	c #86FE8C",
"B 	c #85FF8B",
"C 	c #89F98C",
"D 	c #264A23",
"E 	c #008524",
"F 	c #035D17",
"G 	c #01A128",
"H 	c #01A12C",
"I 	c #03CC83",
"J 	c #02BE8B",
"K 	c #01CB88",
"L 	c #234F26",
"M 	c #89FD8C",
"N 	c #274824",
"O 	c #255225",
"P 	c #89FE8A",
"Q 	c #008226",
"R 	c #028528",
"S 	c #87FC89",
"T 	c #1C5A28",
"U 	c #025915",
"V 	c #00A328",
"W 	c #005C1B",
"X 	c #015F0C",
"Y 	c #03C589",
"Z 	c #00C484",
"` 	c #01C58A",
" .	c #284A2C",
"..	c #89FA89",
"+.	c #1B5620",
"@.	c #294A2A",
"#.	c #85FF89",
"$.	c #02821E",
"%.	c #018421",
"&.	c #274920",
"*.	c #01A329",
"=.	c #015D12",
"-.	c #015C11",
";.	c #025C0F",
">.	c #006018",
",.	c #02A42E",
"'.	c #01C38A",
").	c #2A4827",
"!.	c #86FF8C",
"~.	c #244B29",
"{.	c #254F25",
"].	c #84FF89",
"^.	c #88FC8A",
"/.	c #89FD8B",
"(.	c #254F24",
"_.	c #019F2E",
":.	c #00A92D",
"<.	c #006013",
"[.	c #02570D",
"}.	c #005417",
"|.	c #05C98A",
"1.	c #03C688",
"2.	c #2A4C25",
"3.	c #85FD88",
"4.	c #29482A",
"5.	c #275027",
"6.	c #89F97F",
"7.	c #01561C",
"8.	c #005F14",
"9.	c #87FD84",
"0.	c #02801B",
"a.	c #015A14",
"b.	c #00A82E",
"c.	c #00A229",
"d.	c #03A527",
"e.	c #00AA28",
"f.	c #00A62D",
"g.	c #224D24",
"h.	c #22512F",
"i.	c #02601D",
"j.	c #025318",
"k.	c #88FE86",
"l.	c #274F28",
"m.	c #015417",
"n.	c #005B11",
"o.	c #039F2A",
"p.	c #00A22D",
"q.	c #015810",
"r.	c #006218",
"s.	c #02C38C",
"t.	c #244D25",
"u.	c #1D541F",
"v.	c #264625",
"w.	c #82FF8C",
"x.	c #83FE8A",
"y.	c #83FF8C",
"z.	c #88FF8C",
"A.	c #234620",
"B.	c #015E15",
"C.	c #006014",
"D.	c #005A19",
"E.	c #035F10",
"F.	c #006012",
"G.	c #035C13",
"H.	c #01C880",
"I.	c #27452A",
"J.	c #85FF8C",
"K.	c #225025",
"L.	c #2D4924",
"M.	c #89FD85",
"N.	c #00C588",
"O.	c #04C683",
"P.	c #88FE8B",
"Q.	c #244D23",
"R.	c #02560E",
"S.	c #006311",
"T.	c #037D21",
"U.	c #008422",
"V.	c #018727",
"W.	c #035211",
"X.	c #02C18C",
"Y.	c #2A4B25",
"Z.	c #88FC83",
"`.	c #2A4B29",
" +	c #82FF88",
".+	c #07BD8C",
"++	c #03C38C",
"@+	c #87FF8C",
"#+	c #25491F",
"$+	c #037F29",
"%+	c #006313",
"&+	c #008A23",
"*+	c #008527",
"=+	c #00841B",
"-+	c #02BF8A",
";+	c #02CB88",
">+	c #28472C",
",+	c #265225",
"'+	c #235020",
")+	c #87FA8C",
"!+	c #87FC85",
"~+	c #89FF88",
"{+	c #87F88C",
"]+	c #265527",
"^+	c #235323",
"/+	c #1E5026",
"(+	c #234921",
"_+	c #23542A",
":+	c #265220",
"<+	c #2B4821",
"[+	c #214C21",
"}+	c #215021",
"|+	c #89FE88",
"1+	c #27442C",
"2+	c #234A29",
"3+	c #89FE86",
"4+	c #85FF88",
"5+	c #89FF89",
"6+	c #88FF89",
"7+	c #81FF8C",
"8+	c #89F68C",
"9+	c #89FF8A",
"0+	c #89F78C",
"a+	c #85FA87",
"b+	c #89FF80",
"c+	c #81FE8C",
"d+	c #23502B",
"e+	c #254D26",
"  . + @ # $ % & * = - ; > , ' ) ",
"! ~ { ] ^ / ( _ : < _ [ } | 1 2 ",
"3 4 5 6 7 8 9 0 a b c d e f g h ",
"i j k l m n o p q r s t u v w x ",
"y z A B C D E F G H I J K L M N ",
"O P Q R S T U V W X Y Z `  ...+.",
"@.#.$.%.z &.*.=.-.;.>.,.'.).!.~.",
"{.].^./.z (._.:.<.[.}.|.1.2.3.4.",
"5.6.7.8.9.& 0.a.b.c.d.e.f.g.1 h ",
"h.g i.j.k.l.m.n.o.p.q.r.s.t.^.u.",
"v.w.x.y.z.A.B.C.D.E.F.G.H.I.J.K.",
"L.M.N.O.P.Q.R.S.T.U.V.W.X.Y.Z.`.",
"t. +.+++@+#+$+%+&+*+=+-+;+>+/ ,+",
"'+)+!+~+{+]+^+/+(+_+:+<+[+}+|+1+",
"2+3+4+5+6+7+8+[ 9+0+a+J.@+b+c+d+",
"e+e+e+e+e+e+e+e+e+e+e+e+e+e+e+e+"};
