/* XPM */
static const char * styles_xpm[] = {
"16 16 232 2",
"  	c #594A4D",
". 	c #415645",
"+ 	c #5B4C53",
"@ 	c #475256",
"# 	c #584849",
"$ 	c #474843",
"% 	c #554F59",
"& 	c #504950",
"* 	c #524A48",
"= 	c #3F4C54",
"- 	c #5B504A",
"; 	c #574B4F",
"> 	c #4C4344",
", 	c #535154",
"' 	c #4E494F",
") 	c #554C47",
"! 	c #4C4B49",
"~ 	c #FFFCF6",
"{ 	c #FFFEFB",
"] 	c #FFF5FF",
"^ 	c #F1FFFE",
"/ 	c #FCFFFA",
"( 	c #FFFCFD",
"_ 	c #FFFCFF",
": 	c #F7FFFF",
"< 	c #FEFAF7",
"[ 	c #FDFEFF",
"} 	c #FEFFF4",
"| 	c #F6F9FF",
"1 	c #FFFAFF",
"2 	c #464C42",
"3 	c #524441",
"4 	c #FCFFF4",
"5 	c #0F6526",
"6 	c #025716",
"7 	c #FFF9F6",
"8 	c #4B4B43",
"9 	c #405542",
"0 	c #414E56",
"a 	c #48494D",
"b 	c #4D503D",
"c 	c #4C574F",
"d 	c #4E4946",
"e 	c #444D48",
"f 	c #4D4C4A",
"g 	c #F8FFF7",
"h 	c #514E47",
"i 	c #554A58",
"j 	c #F7FFFD",
"k 	c #03592A",
"l 	c #035831",
"m 	c #F5FDFF",
"n 	c #475241",
"o 	c #045849",
"p 	c #00CBEC",
"q 	c #08CAFF",
"r 	c #0AC1FF",
"s 	c #0CBFF9",
"t 	c #03C8FC",
"u 	c #08C6FA",
"v 	c #534B5A",
"w 	c #FCFAFB",
"x 	c #4A5149",
"y 	c #4A544B",
"z 	c #FFFBFF",
"A 	c #FAFEFF",
"B 	c #F8FFFE",
"C 	c #FFF9FF",
"D 	c #4E4A47",
"E 	c #018549",
"F 	c #0A5D33",
"G 	c #02A151",
"H 	c #03A157",
"I 	c #0CCCF0",
"J 	c #06BEFE",
"K 	c #02CBF9",
"L 	c #494F4D",
"M 	c #FFFDFF",
"N 	c #514849",
"O 	c #4D524C",
"P 	c #FFFEFC",
"Q 	c #00824D",
"R 	c #068550",
"S 	c #FCFCFA",
"T 	c #3C5A50",
"U 	c #06592F",
"V 	c #00A351",
"W 	c #005C3A",
"X 	c #035F20",
"Y 	c #0DC5FB",
"Z 	c #01C4F2",
"` 	c #02C5FD",
" .	c #524A57",
"..	c #FFFAFB",
"+.	c #3B5643",
"@.	c #544A55",
"#.	c #F8FFFA",
"$.	c #09823F",
"%.	c #038444",
"&.	c #504943",
"*.	c #02A353",
"=.	c #035D2A",
"-.	c #055C29",
";.	c #075C25",
">.	c #006034",
",.	c #08A45B",
"'.	c #05C3FD",
").	c #55484F",
"!.	c #F9FFFF",
"~.	c #4C4B53",
"{.	c #4D4F4C",
"].	c #F7FFFB",
"^.	c #FEFCFD",
"/.	c #FFFDFE",
"(.	c #4D4F4A",
"_.	c #049F5B",
":.	c #00A95A",
"<.	c #00602B",
"[.	c #075722",
"}.	c #005433",
"|.	c #11C9FD",
"1.	c #0CC6F9",
"2.	c #564C4B",
"3.	c #F8FDF9",
"4.	c #544854",
"5.	c #51504E",
"6.	c #FFF9E9",
"7.	c #02563C",
"8.	c #005F2D",
"9.	c #FBFDF2",
"0.	c #504951",
"a.	c #088039",
"b.	c #045A2D",
"c.	c #00A85C",
"d.	c #01A252",
"e.	c #0BA54F",
"f.	c #00AA51",
"g.	c #01A659",
"h.	c #484D49",
"i.	c #47515D",
"j.	c #06603D",
"k.	c #085335",
"l.	c #FEFEF6",
"m.	c #514F50",
"n.	c #035433",
"o.	c #015B28",
"p.	c #0B9F55",
"q.	c #00A259",
"r.	c #025827",
"s.	c #006234",
"t.	c #09C3FF",
"u.	c #4B4D4C",
"v.	c #3F5441",
"w.	c #4F464B",
"x.	c #F3FFFF",
"y.	c #F5FEFD",
"z.	c #F5FFFF",
"A.	c #FEFFFF",
"B.	c #4A4643",
"C.	c #025E2F",
"D.	c #00602E",
"E.	c #005A36",
"F.	c #0A5F26",
"G.	c #00602A",
"H.	c #0A5C2B",
"I.	c #02C8EB",
"J.	c #504555",
"K.	c #F8FFFF",
"L.	c #47504B",
"M.	c #5B4949",
"N.	c #FFFDF3",
"O.	c #00C5F9",
"P.	c #0FC6F0",
"Q.	c #FEFEFE",
"R.	c #4B4D48",
"S.	c #065623",
"T.	c #006329",
"U.	c #0C7D45",
"V.	c #008446",
"W.	c #03874E",
"X.	c #0B5228",
"Y.	c #09C1FF",
"Z.	c #554B4C",
"`.	c #FEFCF0",
" +	c #554B53",
".+	c #F3FFF8",
"++	c #16BDFF",
"@+	c #0BC3FF",
"#+	c #FBFFFF",
"$+	c #4D4940",
"%+	c #0B7F52",
"&+	c #00632B",
"*+	c #008A48",
"=+	c #00854E",
"-+	c #008439",
";+	c #07BFFD",
">+	c #06CBF8",
",+	c #524758",
"'+	c #FBFFFA",
")+	c #4F524B",
"!+	c #4A5042",
"~+	c #FCFAFF",
"{+	c #FBFCF4",
"]+	c #FFFFF8",
"^+	c #FBF8FF",
"/+	c #4E554E",
"(+	c #495348",
"_+	c #41504D",
":+	c #4A4945",
"<+	c #4A5455",
"[+	c #4E5243",
"}+	c #574845",
"|+	c #454C45",
"1+	c #465045",
"2+	c #FFFEF9",
"3+	c #504458",
"4+	c #4A4A52",
"5+	c #FFFEF6",
"6+	c #F8FFF8",
"7+	c #FFFFFA",
"8+	c #FEFFFA",
"9+	c #F1FFFF",
"0+	c #FFF6FF",
"a+	c #FEFEFF",
"b+	c #FFFFFD",
"c+	c #FFF7FF",
"d+	c #F8FAF7",
"e+	c #FCFFFF",
"f+	c #FFFFEA",
"g+	c #F0FEFF",
"h+	c #495056",
"i+	c #4D4D4D",
"  . + @ # $ % & * = - ; > , ' ) ",
"! ~ { ] ^ / ( _ : < _ [ } | 1 2 ",
"3 4 5 6 7 8 9 0 a b c d e f g h ",
"i j k l m n o p q r s t u v w x ",
"y z A B C D E F G H I J K L M N ",
"O P Q R S T U V W X Y Z `  ...+.",
"@.#.$.%.z &.*.=.-.;.>.,.'.).!.~.",
"{.].^./.z (._.:.<.[.}.|.1.2.3.4.",
"5.6.7.8.9.0.a.b.c.d.e.f.g.h.1 h ",
"i.g j.k.l.m.n.o.p.q.r.s.t.u.^.v.",
"w.x.y.z.A.B.C.D.E.F.G.H.I.J.K.L.",
"M.N.O.P.Q.R.S.T.U.V.W.X.Y.Z.`. +",
"u..+++@+#+$+%+&+*+=+-+;+>+,+'+)+",
"!+~+{+]+^+/+(+_+:+<+[+}+|+1+2+3+",
"4+5+6+7+8+9+0+a+b+c+d+K.e+f+g+h+",
"i+i+i+i+i+i+i+i+i+i+i+i+i+i+i+i+"};
