/* XPM */
static const char * texture_sel_xpm[] = {
"16 16 192 2",
"  	c #245A2C",
". 	c #2E6A2E",
"+ 	c #306D30",
"@ 	c #306D31",
"# 	c #316D31",
"$ 	c #2F6A30",
"% 	c #245424",
"& 	c #87FC89",
"* 	c #87FE8A",
"= 	c #85FC87",
"- 	c #85FC88",
"; 	c #86FC87",
"> 	c #7FF781",
", 	c #7FF682",
"' 	c #7EF482",
") 	c #7EF480",
"! 	c #86F954",
"~ 	c #7FB438",
"{ 	c #887132",
"] 	c #7DE743",
"^ 	c #83F44A",
"/ 	c #6DCD29",
"( 	c #56C281",
"_ 	c #47AD78",
": 	c #4FBA80",
"< 	c #42A778",
"[ 	c #43AB7B",
"} 	c #3CA076",
"| 	c #71EA76",
"1 	c #326E31",
"2 	c #7DEA49",
"3 	c #76DD3B",
"4 	c #81652B",
"5 	c #779F2B",
"6 	c #7CE83C",
"7 	c #66C122",
"8 	c #56BB65",
"9 	c #43A471",
"0 	c #4AB079",
"a 	c #3E9E71",
"b 	c #3EA274",
"c 	c #399870",
"d 	c #71EB75",
"e 	c #326E32",
"f 	c #86F955",
"g 	c #7DE946",
"h 	c #86D345",
"i 	c #815A29",
"j 	c #84F247",
"k 	c #73DA31",
"l 	c #6BD551",
"m 	c #51B77A",
"n 	c #59C781",
"o 	c #4DB37A",
"p 	c #4FB87D",
"q 	c #48AE79",
"r 	c #72EC75",
"s 	c #7DEA4C",
"t 	c #76DD3E",
"u 	c #7DE944",
"v 	c #796B27",
"w 	c #7F9D32",
"x 	c #73D730",
"y 	c #6BCB2E",
"z 	c #4FB073",
"A 	c #53BA7B",
"B 	c #4AAC74",
"C 	c #4BB077",
"D 	c #45A773",
"E 	c #73ED74",
"F 	c #86F959",
"G 	c #7DE949",
"H 	c #86F851",
"I 	c #7ED33E",
"J 	c #896B34",
"K 	c #7DDC3E",
"L 	c #76DF3A",
"M 	c #5FC568",
"N 	c #62D184",
"O 	c #59C17D",
"P 	c #5CC780",
"Q 	c #54BD7C",
"R 	c #326F32",
"S 	c #81F155",
"T 	c #77DD44",
"U 	c #7EEA49",
"V 	c #76DE3D",
"W 	c #7F9134",
"X 	c #797E2A",
"Y 	c #76DC35",
"Z 	c #61BF3E",
"` 	c #5EC87D",
" .	c #55BA76",
"..	c #57BC79",
"+.	c #53B776",
"@.	c #326F33",
"#.	c #86FA5E",
"$.	c #7EEB4E",
"%.	c #86F956",
"&.	c #82ED4F",
"*.	c #7E5F2D",
"=.	c #7BD947",
"-.	c #6FD22E",
";.	c #6BDB78",
">.	c #6DD45C",
",.	c #71DA50",
"'.	c #6DD13E",
").	c #75EF73",
"!.	c #336F33",
"~.	c #7FEB58",
"{.	c #77DF4A",
"].	c #7EEB50",
"^.	c #61CF3B",
"/.	c #50CA3C",
"(.	c #5D832B",
"_.	c #737831",
":.	c #60C328",
"<.	c #6DD54C",
"[.	c #69C628",
"}.	c #76D042",
"|.	c #759933",
"1.	c #75E46D",
"2.	c #316E31",
"3.	c #86FC88",
"4.	c #87FB65",
"5.	c #77E754",
"6.	c #63E14E",
"7.	c #4FC93E",
"8.	c #59DA48",
"9.	c #4FC63D",
"0.	c #827C3A",
"a.	c #5BAE37",
"b.	c #76E144",
"c.	c #78A72C",
"d.	c #7B8C2B",
"e.	c #649F31",
"f.	c #75E971",
"g.	c #85FB87",
"h.	c #68DE52",
"i.	c #4CC33C",
"j.	c #53CF43",
"k.	c #4AC139",
"l.	c #52CE42",
"m.	c #48BF39",
"n.	c #63A43A",
"o.	c #745823",
"p.	c #6F7C25",
"q.	c #608D28",
"r.	c #52BE3C",
"s.	c #4AC33C",
"t.	c #74EF75",
"u.	c #5CDB50",
"v.	c #50C942",
"w.	c #59D84C",
"x.	c #4FC840",
"y.	c #59D649",
"z.	c #5AA230",
"A.	c #73882A",
"B.	c #785D23",
"C.	c #6BA83F",
"D.	c #54D047",
"E.	c #50CA43",
"F.	c #74EE74",
"G.	c #80F882",
"H.	c #63DB58",
"I.	c #57CA4A",
"J.	c #5DD551",
"K.	c #54C946",
"L.	c #66AD3C",
"M.	c #69872B",
"N.	c #60C245",
"O.	c #5CAC3E",
"P.	c #7E7036",
"Q.	c #55C544",
"R.	c #57D04A",
"S.	c #54CA46",
"T.	c #73E972",
"U.	c #346F33",
"V.	c #306A30",
"W.	c #7EF580",
"X.	c #73ED73",
"Y.	c #73EE73",
"Z.	c #73EE74",
"`.	c #74EF74",
" +	c #7EE273",
".+	c #72E570",
"++	c #74ED74",
"@+	c #75EF75",
"#+	c #316C31",
"$+	c #245425",
"%+	c #347033",
"&+	c #265525",
"  . + + + + + + + + @ # # # $ % ",
". & * = = = - ; - - > > , ' ) $ ",
"+ = ! ~ { ] ^ / ( _ : < [ } | 1 ",
"+ = 2 3 4 5 6 7 8 9 0 a b c d e ",
"+ = f g h i j k l m n o p q r e ",
"+ - s t u v w x y z A B C D E e ",
"+ - F G H I J K L M N O P Q E R ",
"@ - S T U V W X Y Z `  ...+.E @.",
"# - #.$.%.U &.*.=.-.;.>.,.'.).!.",
"# - ~.{.].^./.(._.:.<.[.}.|.1.!.",
"2.3.4.5.6.7.8.9.0.a.b.c.d.e.f.!.",
"2.g.h.i.j.k.l.m.n.o.p.q.r.s.t.!.",
"1 > u.v.w.x.y.z.A.B.C.v.D.E.F.!.",
"e G.H.I.J.K.L.M.N.O.P.Q.R.S.T.U.",
"V.W.X.Y.Y.Z.F.F.`.`. +.+++@+++#+",
"$+V.R @.!.!.!.!.!.!.!.U.U.%+#+&+"};
