/* XPM */
static const char * tone_mapping_sel_xpm[] = {
"16 16 71 1",
" 	c #5FB561",
".	c #2B572C",
"+	c #264E27",
"@	c #234924",
"#	c #204421",
"$	c #2A562B",
"%	c #61B762",
"&	c #356A36",
"*	c #214622",
"=	c #244C25",
"-	c #4D944E",
";	c #89FF8C",
">	c #346735",
",	c #519B52",
"'	c #366B37",
")	c #214521",
"!	c #2C5A2D",
"~	c #2B582C",
"{	c #2F5F30",
"]	c #4E9650",
"^	c #4D954F",
"/	c #264F27",
"(	c #285329",
"_	c #5FB461",
":	c #78E17A",
"<	c #78E07A",
"[	c #5CAF5E",
"}	c #285229",
"|	c #5EB260",
"1	c #5DB15F",
"2	c #386E39",
"3	c #7AE57D",
"4	c #2C592D",
"5	c #7BE77E",
"6	c #224823",
"7	c #7BE67D",
"8	c #376D38",
"9	c #3C763D",
"0	c #356936",
"a	c #7AE47C",
"b	c #224723",
"c	c #3C753D",
"d	c #478A49",
"e	c #5AAB5C",
"f	c #59A95A",
"g	c #4B904C",
"h	c #6ECF70",
"i	c #244B25",
"j	c #76DE79",
"k	c #5AAC5C",
"l	c #234A24",
"m	c #71D473",
"n	c #64BD66",
"o	c #254D26",
"p	c #275028",
"q	c #66C068",
"r	c #70D372",
"s	c #4C924D",
"t	c #386F39",
"u	c #39703A",
"v	c #72D674",
"w	c #316332",
"x	c #84F787",
"y	c #85F888",
"z	c #29542A",
"A	c #306131",
"B	c #326433",
"C	c #336534",
"D	c #346835",
"E	c #60B662",
"F	c #2A552A",
" .+++++++++@##$%",
"$##########+&&*$",
"=##########-;;>#",
"+##########,;;'#",
"+#####)!~*#{]^/@",
"+####(_:<[}####/",
"+###*|;;;;1)###+",
")234+5;;;;36{78)",
"#9;0=3;;;;ab2;c#",
")';d6e;;;;f*g;8#",
"*>;hi*|jjk*lm;'#",
"#2;;no*)#*pq;;'#",
"#';;;rstu-v;;;'#",
"#w;;;;;xy;;;;;w#",
"z#ABwCD88>BwBA#$",
"EF############.%"};
