/* XPM */
static const char * viewport_sel_xpm[] = {
"16 16 28 1",
" 	c #3A7741",
".	c #1A3F23",
"+	c #83F587",
"@	c #6DD276",
"#	c #6FD578",
"$	c #218467",
"%	c #036160",
"&	c #71D879",
"*	c #7EF589",
"=	c #73DB7A",
"-	c #55CF7C",
";	c #75DE7C",
">	c #56D17D",
",	c #77E27D",
"'	c #58D27D",
")	c #79E57F",
"!	c #5AD47E",
"~	c #7BE881",
"{	c #5CD67E",
"]	c #7DEB82",
"^	c #5ED77F",
"/	c #7FEE84",
"(	c #60D980",
"_	c #81F185",
":	c #268C6C",
"<	c #83F586",
"[	c #84F888",
"}	c #3B7842",
" .............. ",
".++++++++++++++.",
".@@@@@@@@@@@@@@.",
".##$%%%%%%%%$##.",
".&&%********%&&.",
".==%--------%==.",
".;;%>>>>>>>>%;;.",
".,,%''''''''%,,.",
".))%!!!!!!!!%)).",
".~~%{{{{{{{{%~~.",
".]]%^^^^^^^^%]].",
".//%((((((((%//.",
".__:%%%%%%%%:__.",
".<<<<<<<<<<<<<<.",
".[[[[[[[[[[[[[[.",
"}..............}"};
