/* XPM */
static const char * animation_sel_xpm[] = {
"14 14 19 1",
" 	c None",
".	c #3CB5F8",
"+	c #3CB4F8",
"@	c #3BB5F8",
"#	c #3CB5F7",
"$	c #3BB5F7",
"%	c #C0E7FD",
"&	c #99D7FC",
"*	c #3BB4F7",
"=	c #8CD2FB",
"-	c #FFFFFF",
";	c #CCECFD",
">	c #4ABAF9",
",	c #65C4F9",
"'	c #F3FAFE",
")	c #3CB4F7",
"!	c #E6F5FF",
"~	c #D9F0FE",
"{	c #72C8FA",
"    .+.@#     ",
"   #......@   ",
" $.........+  ",
" $..........  ",
".....%&.....* ",
".....=-;>.... ",
"......,'&.... ",
")....,!',.... ",
"$....%~>....) ",
" ....{......# ",
" @.........@  ",
"  #.......*   ",
"    ....)$    ",
"              "};
