/* XPM */
static const char * animated_object_group_xpm[] = {
"16 16 23 1",
" 	c None",
".	c #B88068",
"+	c #886050",
"@	c #6090D0",
"#	c #5CB41B",
"$	c #C0D7F7",
"%	c #C0D8F6",
"&	c #355787",
"*	c #9CBEEB",
"=	c #9DBEEB",
"-	c #9DBEEC",
";	c #C5F89F",
">	c #FFFFFF",
",	c #99E55F",
"'	c #9BE762",
")	c #3C8109",
"!	c #F8B850",
"~	c #E8A028",
"{	c #B8F190",
"]	c #B9F190",
"^	c #B9F18F",
"/	c #9AE366",
"(	c #9AE266",
"                ",
"    ........... ",
"    .         + ",
"    .         + ",
"    .   @@@@@ + ",
"  #     @$%$& + ",
"  ##    @*=-& + ",
"###;#>..&&&&& + ",
"#,,';).!!!+   + ",
"#));) .~##### + ",
"  ))  ++#{]^) + ",
"  )     #/(/) + ",
"    .   ))))) + ",
"    .         + ",
"    .+++++++++. ",
"                "};
