/* XPM */
static const char * dossier_sel_xpm[] = {
"64 64 429 2",
"  	c None",
". 	c #000000",
"+ 	c #252E00",
"@ 	c #263000",
"# 	c #263100",
"$ 	c #0D1000",
"% 	c #5C7701",
"& 	c #C4FB01",
"* 	c #CEFF01",
"= 	c #CDFF01",
"- 	c #A8D701",
"; 	c #394A00",
"> 	c #577602",
", 	c #BDFE06",
"' 	c #B6F406",
") 	c #B5F306",
"! 	c #BFFF06",
"~ 	c #749D03",
"{ 	c #A3E709",
"] 	c #A8EE0A",
"^ 	c #A9EF0A",
"/ 	c #A8EF0A",
"( 	c #AEF50A",
"_ 	c #5F8605",
": 	c #010300",
"< 	c #9EED0E",
"[ 	c #9BE90E",
"} 	c #9CE90E",
"| 	c #A4F50E",
"1 	c #141E02",
"2 	c #162202",
"3 	c #96EF13",
"4 	c #8EE312",
"5 	c #8FE312",
"6 	c #8FE411",
"7 	c #54860A",
"8 	c #010000",
"9 	c #030600",
"0 	c #6CB812",
"a 	c #81DC16",
"b 	c #81DC15",
"c 	c #6FBE12",
"d 	c #0A1604",
"e 	c #3A5906",
"f 	c #588201",
"g 	c #618C00",
"h 	c #618B00",
"i 	c #618D00",
"j 	c #5C8603",
"k 	c #50870E",
"l 	c #70C516",
"m 	c #73CF18",
"n 	c #74D518",
"o 	c #74D71A",
"p 	c #74D719",
"q 	c #6DCB18",
"r 	c #000401",
"s 	c #609407",
"t 	c #C1FC04",
"u 	c #E0FF54",
"v 	c #EBFF8B",
"w 	c #EDFF94",
"x 	c #EDFF95",
"y 	c #E9FF81",
"z 	c #D1FE25",
"A 	c #8ED007",
"B 	c #5EB518",
"C 	c #65C81B",
"D 	c #66CF1D",
"E 	c #67D11D",
"F 	c #66D11D",
"G 	c #61C41B",
"H 	c #000602",
"I 	c #88CC02",
"J 	c #E0FF62",
"K 	c #FAFEF0",
"L 	c #FCFFF5",
"M 	c #FAFFEE",
"N 	c #FAFFED",
"O 	c #FAFFEF",
"P 	c #FDFFFC",
"Q 	c #DEFF60",
"R 	c #80C80B",
"S 	c #55B91D",
"T 	c #59C720",
"U 	c #5ACB22",
"V 	c #59CB22",
"W 	c #54BF20",
"X 	c #65A605",
"Y 	c #E3FF7F",
"Z 	c #F8FEE7",
"` 	c #F6FDDD",
" .	c #F6FDDC",
"..	c #F7FDE2",
"+.	c #B6F202",
"@.	c #43A71E",
"#.	c #4CBF23",
"$.	c #4DC525",
"%.	c #4CC525",
"&.	c #48B923",
"*.	c #133008",
"=.	c #CBFF39",
"-.	c #F4FDDB",
";.	c #F2FDCF",
">.	c #F4FDDA",
",.	c #C3F91D",
"'.	c #3CA01E",
").	c #3EB625",
"!.	c #40BD28",
"~.	c #3FBF29",
"{.	c #40BF29",
"].	c #40BF28",
"^.	c #3FBF28",
"/.	c #3CB426",
"(.	c #579201",
"_.	c #E7FDA4",
":.	c #ECFCC1",
"<.	c #ECFCC2",
"[.	c #EFFCCC",
"}.	c #C5FA24",
"|.	c #34961D",
"1.	c #31A726",
"2.	c #31B12A",
"3.	c #32B42B",
"4.	c #32B52B",
"5.	c #32B62C",
"6.	c #32B72C",
"7.	c #32B82D",
"8.	c #33B92D",
"9.	c #32B92D",
"0.	c #2FAE2A",
"a.	c #8CCD0F",
"b.	c #E9FBBC",
"c.	c #E7FBB4",
"d.	c #E8FBB8",
"e.	c #CBF850",
"f.	c #60B311",
"g.	c #1E8C21",
"h.	c #239926",
"i.	c #249D27",
"j.	c #249E28",
"k.	c #249F28",
"l.	c #24A029",
"m.	c #24A42A",
"n.	c #24A82C",
"o.	c #25AE2E",
"p.	c #25B030",
"q.	c #25B231",
"r.	c #23A92E",
"s.	c #A5E120",
"t.	c #E3F9B0",
"u.	c #E1F9A8",
"v.	c #E1F9A7",
"w.	c #DEF8A1",
"x.	c #AFF306",
"y.	c #58AE12",
"z.	c #197F1C",
"A.	c #127D1E",
"B.	c #137D1E",
"C.	c #137D1F",
"D.	c #127E1F",
"E.	c #127F20",
"F.	c #0D7F23",
"G.	c #148C26",
"H.	c #17972A",
"I.	c #17A22F",
"J.	c #18A933",
"K.	c #17A232",
"L.	c #A5E11F",
"M.	c #DDF8A4",
"N.	c #DBF89C",
"O.	c #D7F791",
"P.	c #BCF439",
"Q.	c #B6F524",
"R.	c #B1F025",
"S.	c #ACEE1D",
"T.	c #94DF0D",
"U.	c #56B10F",
"V.	c #087C22",
"W.	c #0A8B29",
"X.	c #0B9931",
"Y.	c #0A9933",
"Z.	c #A0DF1E",
"`.	c #D7F698",
" +	c #D5F690",
".+	c #D7F695",
"++	c #D8F699",
"@+	c #D8F698",
"#+	c #D8F69A",
"$+	c #D6F694",
"%+	c #C9F56A",
"&+	c #A4EB14",
"*+	c #1C8A1D",
"=+	c #00852C",
"-+	c #008F32",
";+	c #9BDE1E",
">+	c #D0F48D",
",+	c #CEF487",
"'+	c #CEF486",
")+	c #CFF38B",
"!+	c #ADF025",
"~+	c #128420",
"{+	c #00852D",
"]+	c #97DC1E",
"^+	c #CAF282",
"/+	c #C8F27C",
"(+	c #C7F27C",
"_+	c #C8F280",
":+	c #89DB17",
"<+	c #007528",
"[+	c #92D91E",
"}+	c #C2F078",
"|+	c #C0F073",
"1+	c #BAF152",
"2+	c #28921B",
"3+	c #8DD81D",
"4+	c #BBED6F",
"5+	c #B9EE6B",
"6+	c #B9EE6A",
"7+	c #B9ED6B",
"8+	c #60BD16",
"9+	c #88D51D",
"0+	c #B3EB66",
"a+	c #B1EB62",
"b+	c #B2EB63",
"c+	c #B5EB6A",
"d+	c #7ED01D",
"e+	c #83D31D",
"f+	c #ACE85F",
"g+	c #ABE85B",
"h+	c #ABE85D",
"i+	c #ACE85E",
"j+	c #A7E755",
"k+	c #9CE43F",
"l+	c #8EE126",
"m+	c #7ED213",
"n+	c #7ED11D",
"o+	c #A4E657",
"p+	c #A3E654",
"q+	c #A2E654",
"r+	c #A2E653",
"s+	c #A4E656",
"t+	c #9BE346",
"u+	c #8FE12F",
"v+	c #84DE1B",
"w+	c #7FDD12",
"x+	c #80DD14",
"y+	c #80DD16",
"z+	c #79D014",
"A+	c #7AD01D",
"B+	c #9CE350",
"C+	c #9AE34D",
"D+	c #9BE34E",
"E+	c #9CE34F",
"F+	c #98E248",
"G+	c #8EDF36",
"H+	c #84DD24",
"I+	c #7CDB16",
"J+	c #7ADB14",
"K+	c #7CDB17",
"L+	c #75CE16",
"M+	c #75CD1E",
"N+	c #94E149",
"O+	c #93E147",
"P+	c #93E047",
"Q+	c #94E147",
"R+	c #8DDF3C",
"S+	c #83DC2B",
"T+	c #7AD91C",
"U+	c #76D915",
"V+	c #77D917",
"W+	c #78D919",
"X+	c #77D918",
"Y+	c #70CC17",
"Z+	c #70CB1E",
"`+	c #8DDD43",
" @	c #8CDE41",
".@	c #8CDD41",
"+@	c #8CDE42",
"@@	c #8CDE43",
"#@	c #89DD3D",
"$@	c #81DA30",
"%@	c #78D822",
"&@	c #72D718",
"*@	c #71D618",
"=@	c #72D61A",
"-@	c #73D71A",
";@	c #6CCA19",
">@	c #6BC91E",
",@	c #85DA3F",
"'@	c #83DA3D",
")@	c #85DB3F",
"!@	c #83DB3C",
"~@	c #7ED934",
"{@	c #76D728",
"]@	c #6FD51D",
"^@	c #6DD419",
"/@	c #6DD41A",
"(@	c #6ED51B",
"_@	c #6ED41B",
":@	c #68C819",
"<@	c #66C71F",
"[@	c #7DD73A",
"}@	c #7DD839",
"|@	c #7DD738",
"1@	c #7AD735",
"2@	c #74D52C",
"3@	c #6DD422",
"4@	c #69D21C",
"5@	c #68D21B",
"6@	c #6AD21C",
"7@	c #6AD21D",
"8@	c #64C61B",
"9@	c #61C420",
"0@	c #75D536",
"a@	c #75D535",
"b@	c #74D535",
"c@	c #74D534",
"d@	c #70D42E",
"e@	c #6BD226",
"f@	c #65D11F",
"g@	c #63D01D",
"h@	c #64D01D",
"i@	c #65D01E",
"j@	c #64D01E",
"k@	c #5FC31C",
"l@	c #5CC320",
"m@	c #6DD232",
"n@	c #6DD231",
"o@	c #6BD12F",
"p@	c #67D029",
"q@	c #62CF23",
"r@	c #5FCE1F",
"s@	c #5FCE1E",
"t@	c #5FCE20",
"u@	c #5AC21D",
"v@	c #57C021",
"w@	c #66CF30",
"x@	c #65CF2F",
"y@	c #66CF2F",
"z@	c #65CF2E",
"A@	c #63CE2B",
"B@	c #5FCD26",
"C@	c #5BCC21",
"D@	c #5ACC20",
"E@	c #56C01F",
"F@	c #53BE21",
"G@	c #5FCC2C",
"H@	c #5FCD2C",
"I@	c #5DCC2B",
"J@	c #5BCB28",
"K@	c #57CA24",
"L@	c #56CA21",
"M@	c #56CA22",
"N@	c #57CA22",
"O@	c #51BE20",
"P@	c #4DBD23",
"Q@	c #58CA2B",
"R@	c #57CA2B",
"S@	c #56C929",
"T@	c #53C826",
"U@	c #52C823",
"V@	c #51C823",
"W@	c #52C824",
"X@	c #51C824",
"Y@	c #4DBC21",
"Z@	c #4ABA24",
"`@	c #51C62A",
" #	c #51C629",
".#	c #51C729",
"+#	c #50C628",
"@#	c #4FC627",
"##	c #4DC526",
"$#	c #4DC625",
"%#	c #49BA23",
"&#	c #44B824",
"*#	c #4BC42A",
"=#	c #4BC429",
"-#	c #4AC428",
";#	c #49C427",
">#	c #49C327",
",#	c #48C426",
"'#	c #49C426",
")#	c #48C326",
"!#	c #40B626",
"~#	c #44C129",
"{#	c #44C12A",
"]#	c #44C128",
"^#	c #43C128",
"/#	c #40B625",
"(#	c #3BB427",
"_#	c #3FBF2A",
":#	c #37B228",
"<#	c #3ABD2B",
"[#	c #32B029",
"}#	c #36BB2C",
"|#	c #2DAE2B",
"1#	c #30B92D",
"2#	c #30B92E",
"3#	c #29AC2C",
"4#	c #2CB62F",
"5#	c #25AB2D",
"6#	c #28B530",
"7#	c #20A82F",
"8#	c #22B232",
"9#	c #1BA12E",
"0#	c #1EB033",
"a#	c #1EB133",
"b#	c #118127",
"c#	c #10A636",
"d#	c #11A636",
"e#	c #134812",
"f#	c #51C525",
"g#	c #4EC024",
"h#	c #0BA639",
"i#	c #0BA739",
"j#	c #0BA839",
"k#	c #043411",
"l#	c #0BB13C",
"m#	c #024819",
"n#	c #07AF3E",
"o#	c #07A53A",
"p#	c #07A63A",
"q#	c #00200B",
"r#	c #018731",
"s#	c #01AB3E",
"t#	c #01AC3F",
"u#	c #000903",
"v#	c #001F0B",
"                                                                                                                                ",
"                                                                                                                                ",
"                                                                                                                                ",
"                                                                                                                                ",
"                                                                                                                                ",
"                                                              . . . . . . . . . . . . . . . . . . . . . . . . . . . .           ",
"                                                            . . . + @ @ @ @ @ @ @ @ @ @ @ @ @ @ @ @ @ @ @ @ @ # $ . . .         ",
"                                                          . . % & * = = = = = = = = = = = = = = = = = = = = = * = - ; . .       ",
"                                                        . . > , ' ' ' ' ' ' ' ' ' ' ' ' ' ' ' ' ' ' ' ' ' ' ' ' ' ) ! ~ . .     ",
"                                                        . . { ] ^ ^ ^ ^ ^ ^ ^ ^ ^ ^ ^ ^ ^ ^ ^ ^ ^ ^ ^ ^ ^ ^ ^ ^ ^ ^ / ( _ . .   ",
"                                                        . : < [ } } } } } } } } } } } } } } } } } } } } } } } } } } } [ | 1 .   ",
"              . . . . . . . . . . . . . . . . . . . . . . 2 3 4 5 5 5 5 5 5 5 5 5 5 5 5 5 5 5 5 5 5 5 5 5 5 5 5 5 5 5 5 6 7 .   ",
"        8 . . . . . . . . . . . . . . . . . . . . . . . 9 0 a a a a a a a a a a a a a a a a a a a a a a a a a a a a a a b c . . ",
"      . . . d e f g h h h h h h h h h h h h h h h i j k l m n o o o o o o o o o o o o o o o o o o o o o o o o o o o o o p q . . ",
"    . . r s t u v w w w w w w w w w w w w w w w w x y z A B C D E E E E E E E E E E E E E E E E E E E E E E E E E E E E F G . . ",
"  . . H I J K L M N M M M M M M M M M M M M M M M N O P Q R S T U U U U U U U U U U U U U U U U U U U U U U U U U U U U V W . . ",
"  . . X Y Z ` ` ` ` ` ` ` ` ` ` ` ` ` ` ` ` ` ` ` ` `  ...+.@.#.$.$.$.$.$.$.$.$.$.$.$.$.$.$.$.$.$.$.$.$.$.$.$.$.$.$.$.$.%.&.. . ",
". . *.=.-.;.;.;.;.;.;.;.;.;.;.;.;.;.;.;.;.;.;.;.;.;.;.;.>.,.'.).!.~.{.{.{.{.{.{.{.{.{.{.{.{.{.{.{.{.{.{.{.{.{.{.].].].].^./.. . ",
". . (._.:.<.<.<.<.<.<.<.<.<.<.<.<.<.<.<.<.<.<.<.<.<.<.<.[.}.|.1.2.3.3.3.3.3.3.3.3.3.3.3.3.3.3.3.3.3.3.3.3.3.3.4.5.6.7.8.9.0.. . ",
". . a.b.c.c.c.c.c.c.c.c.c.c.c.c.c.c.c.c.c.c.c.c.c.c.c.c.d.e.f.g.h.i.j.j.j.j.j.j.j.j.j.j.j.j.j.j.j.j.j.j.j.j.k.l.m.n.o.p.q.r.. . ",
". . s.t.u.u.u.u.u.u.u.u.u.u.u.u.u.u.u.u.u.u.u.u.u.u.u.u.v.w.x.y.z.A.A.B.B.B.B.B.B.B.B.B.B.B.B.B.B.B.B.B.B.C.D.E.F.G.H.I.J.K.. . ",
". . L.M.N.N.N.N.N.N.N.N.N.N.N.N.N.N.N.N.N.N.N.N.N.N.N.N.N.N.O.P.Q.R.R.R.R.R.R.R.R.R.R.R.R.R.R.R.R.R.R.R.R.R.R.S.T.U.V.W.X.Y.. . ",
". . Z.`. + + + + + + + + + + + + + + + + + + + + + + + + + + +.+++@+@+@+@+@+@+@+@+@+@+@+@+@+@+@+@+@+@+@+@+@+@+#+$+%+&+*+=+-+. . ",
". . ;+>+,+,+,+,+,+,+,+,+,+,+,+,+,+,+,+,+,+,+,+,+,+,+,+,+,+,+,+,+,+,+,+,+,+,+,+,+,+,+,+,+,+,+,+,+,+,+,+,+,+,+,+,+'+'+)+!+~+{+. . ",
". . ]+^+/+/+/+/+/+/+/+/+/+/+/+/+/+/+/+/+/+/+/+/+/+/+/+/+/+/+/+/+/+/+/+/+/+/+/+/+/+/+/+/+/+/+/+/+/+/+/+/+/+/+/+/+/+/+(+_+:+<+. . ",
". . [+}+|+|+|+|+|+|+|+|+|+|+|+|+|+|+|+|+|+|+|+|+|+|+|+|+|+|+|+|+|+|+|+|+|+|+|+|+|+|+|+|+|+|+|+|+|+|+|+|+|+|+|+|+|+|+|+|+1+2+. . ",
". . 3+4+5+5+5+5+5+5+5+5+5+5+5+5+5+5+5+5+5+5+5+5+5+5+5+5+5+5+5+5+5+5+5+5+5+5+5+5+5+5+5+5+5+5+5+5+5+5+5+5+5+5+5+5+5+5+5+6+7+8+. . ",
". . 9+0+a+a+a+a+a+a+a+a+a+a+a+a+a+a+a+a+a+a+a+a+a+a+a+a+a+a+a+a+a+a+a+a+a+a+a+a+a+a+a+a+a+a+a+a+a+a+a+a+a+a+a+a+a+a+a+b+c+d+. . ",
". . e+f+g+g+g+g+g+g+g+g+g+g+g+g+g+g+g+g+g+g+g+g+g+g+g+g+g+g+g+g+g+g+g+g+g+g+g+g+g+g+g+g+g+g+g+g+g+g+g+g+g+g+g+g+h+i+j+k+l+m+. . ",
". . n+o+p+p+p+p+p+p+p+p+p+p+p+p+p+p+p+p+p+p+p+p+p+p+p+p+p+p+p+p+p+p+p+p+p+p+p+p+p+p+p+p+p+p+p+p+p+p+q+r+p+s+q+t+u+v+w+x+y+z+. . ",
". . A+B+C+C+C+C+C+C+C+C+C+C+C+C+C+C+C+C+C+C+C+C+C+C+C+C+C+C+C+C+C+C+C+C+C+C+C+C+C+C+C+C+C+C+C+C+C+D+E+F+G+H+I+J+K+K+K+K+K+L+. . ",
". . M+N+O+O+O+O+O+O+O+O+O+O+O+O+O+O+O+O+O+O+O+O+O+O+O+O+O+O+O+O+O+O+O+O+O+O+O+O+O+O+O+O+P+Q+N+P+R+S+T+U+V+W+W+W+W+W+W+W+X+Y+. . ",
". . Z+`+ @ @ @ @ @ @ @ @ @ @ @ @ @ @ @ @ @ @ @ @ @ @ @ @ @ @ @ @ @ @ @ @ @ @ @ @ @.@+@@@#@$@%@&@*@=@-@=@=@=@=@=@=@=@=@=@=@;@. . ",
". . >@,@'@'@'@'@'@'@'@'@'@'@'@'@'@'@'@'@'@'@'@'@'@'@'@'@'@'@'@'@'@'@'@'@'@'@'@)@!@~@{@]@^@/@(@_@(@(@(@(@(@(@(@(@(@(@(@(@_@:@. . ",
". . <@[@}@}@}@}@}@}@}@}@}@}@}@}@}@}@}@}@}@}@}@}@}@}@}@}@}@}@}@}@}@|@|@}@}@1@2@3@4@5@6@7@6@7@7@7@7@7@7@7@7@7@7@7@7@7@7@7@4@8@. . ",
". . 9@0@a@a@a@a@a@a@a@a@a@a@a@a@a@a@a@a@a@a@a@a@a@a@a@a@a@b@c@b@0@c@d@e@f@g@h@i@i@i@i@i@i@i@i@i@i@i@i@i@i@i@i@i@i@i@i@i@j@k@. . ",
". . l@m@n@n@n@n@n@n@n@n@n@n@n@n@n@n@n@n@n@n@n@n@n@n@n@n@m@n@o@p@q@r@s@r@t@r@t@t@t@t@t@t@t@t@t@t@t@t@t@t@t@t@t@t@t@t@t@t@r@u@. . ",
". . v@w@x@x@x@x@x@x@x@x@x@x@x@x@x@x@x@x@x@x@x@x@y@y@z@A@B@C@D@C@C@C@C@C@C@C@C@C@C@C@C@C@C@C@C@C@C@C@C@C@C@C@C@C@C@C@C@C@C@E@. . ",
". . F@G@H@H@H@H@H@H@H@H@H@H@H@H@H@H@H@H@G@H@G@I@J@K@L@M@N@N@N@N@N@N@N@N@N@N@N@N@N@N@N@N@N@N@N@N@N@N@N@N@N@N@N@N@N@N@N@N@M@O@. . ",
". . P@Q@R@R@R@R@R@R@R@R@R@R@R@R@R@R@Q@R@S@T@U@V@V@W@X@X@X@X@X@X@X@X@X@X@X@X@X@X@X@X@X@X@X@X@X@X@X@X@X@X@X@X@X@X@X@X@X@X@V@Y@. . ",
". . Z@`@ # # # # # # # # # #`@.#+#@###%.$#$#$#$#$#$#$#$#$#$#$#$#$#$#$#$#$#$#$#$#$#$#$#$#$#$#$#$#$#$#$#$#$#$#$#$#$#$#$#$#$.%#. . ",
". . &#*#*#*#*#*#*#*#=#*#=#-#;#>#,#'#;#;#;#;#;#;#;#;#;#;#;#;#;#;#;#;#;#;#;#;#;#;#;#;#;#;#;#;#;#;#;#;#;#;#;#;#;#;#;#;#;#;#)#&#. . ",
". . !#~#{#{#{#{#{#~#~#]#^#^#^#^#^#^#^#^#^#^#^#^#^#^#^#^#^#^#^#^#^#^#^#^#^#^#^#^#^#^#^#^#^#^#^#^#^#^#^#^#^#^#^#^#^#^#^#^#^#/#. . ",
". . (#~.~.~.~.~.~.~.~._#_#_#_#_#_#_#_#_#_#_#_#_#_#_#_#_#_#_#_#_#_#_#_#_#_#_#_#_#_#_#_#_#_#_#_#_#_#_#_#_#_#_#_#_#_#_#_#_#~.(#. . ",
". . :#<#<#<#<#<#<#<#<#<#<#<#<#<#<#<#<#<#<#<#<#<#<#<#<#<#<#<#<#<#<#<#<#<#<#<#<#<#<#<#<#<#<#<#<#<#<#<#<#<#<#<#<#<#<#<#<#<#<#:#. . ",
". . [#}#}#}#}#}#}#}#}#}#}#}#}#}#}#}#}#}#}#}#}#}#}#}#}#}#}#}#}#}#}#}#}#}#}#}#}#}#}#}#}#}#}#}#}#}#}#}#}#}#}#}#}#}#}#}#}#}#}#[#. . ",
". . |#1#2#2#2#2#2#2#2#2#2#2#2#2#2#2#2#2#2#2#2#2#2#2#2#2#2#2#2#2#2#2#2#2#2#2#2#2#2#2#2#2#2#2#2#2#2#2#2#2#2#2#2#2#2#2#2#2#1#|#. . ",
". . 3#4#4#4#4#4#4#4#4#4#4#4#4#4#4#4#4#4#4#4#4#4#4#4#4#4#4#4#4#4#4#4#4#4#4#4#4#4#4#4#4#4#4#4#4#4#4#4#4#4#4#4#4#4#4#4#4#4#4#3#. . ",
". . 5#6#6#6#6#6#6#6#6#6#6#6#6#6#6#6#6#6#6#6#6#6#6#6#6#6#6#6#6#6#6#6#6#6#6#6#6#6#6#6#6#6#6#6#6#6#6#6#6#6#6#6#6#6#6#6#6#6#6#5#. . ",
". . 7#8#8#8#8#8#8#8#8#8#8#8#8#8#8#8#8#8#8#8#8#8#8#8#8#8#8#8#8#8#8#8#8#8#8#8#8#8#8#8#8#8#8#8#8#8#8#8#8#8#8#8#8#8#8#8#8#8#8#7#. . ",
". . 9#0#a#a#a#a#a#a#a#a#a#a#a#a#a#a#a#a#a#a#a#a#a#a#a#a#a#a#a#a#a#a#a#a#a#a#a#a#a#a#a#a#a#a#a#a#a#a#a#a#a#a#a#a#a#a#a#a#0#9#. . ",
". . b#c#d#d#d#d#d#d#d#d#d#d#d#d#d#d#d#d#d#d#d#d#d#d#d#d#d#d#d#d#d#d#d#d#d#d#d#d#d#d#d#d#d#d#d#d#d#d#d#d#d#d#d#d#d#d#d#d#c#b#. . ",
". . e#f#g#g#g#g#g#g#g#g#g#g#g#g#g#g#g#g#g#g#g#g#g#g#g#g#g#g#g#g#g#g#g#g#g#g#g#g#g#g#g#g#g#g#g#g#g#g#g#g#g#g#g#g#g#g#g#g#f#e#. . ",
"  . . h#i#j#j#j#j#j#j#j#j#j#j#j#j#j#j#j#j#j#j#j#j#j#j#j#j#j#j#j#j#j#j#j#j#j#j#j#j#j#j#j#j#j#j#j#j#j#j#j#j#j#j#j#j#j#j#i#h#. .   ",
"  . . k#l#j#j#j#j#j#j#j#j#j#j#j#j#j#j#j#j#j#j#j#j#j#j#j#j#j#j#j#j#j#j#j#j#j#j#j#j#j#j#j#j#j#j#j#j#j#j#j#j#j#j#j#j#j#j#l#k#. .   ",
"    . . m#n#o#p#p#p#p#p#p#p#p#p#p#p#p#p#p#p#p#p#p#p#p#p#p#p#p#p#p#p#p#p#p#p#p#p#p#p#p#p#p#p#p#p#p#p#p#p#p#p#p#p#p#o#n#m#. .     ",
"      . . q#r#s#t#t#t#t#t#t#t#t#t#t#t#t#t#t#t#t#t#t#t#t#t#t#t#t#t#t#t#t#t#t#t#t#t#t#t#t#t#t#t#t#t#t#t#t#t#t#t#t#s#r#q#. .       ",
"        . . . u#v#v#v#v#v#v#v#v#v#v#v#v#v#v#v#v#v#v#v#v#v#v#v#v#v#v#v#v#v#v#v#v#v#v#v#v#v#v#v#v#v#v#v#v#v#v#v#v#u#. . .         ",
"          . . . . . . . . . . . . . . . . . . . . . . . . . . . . . . . . . . . . . . . . . . . . . . . . . . . . . .           ",
"                                                                                                                                ",
"                                                                                                                                ",
"                                                                                                                                ",
"                                                                                                                                ",
"                                                                                                                                "};
