/* XPM */
static const char * geocache_xpm[] = {
"64 64 200 2",
"  	c None",
". 	c #5B5B5B",
"+ 	c #656565",
"@ 	c #7C7C7C",
"# 	c #7D7D7D",
"$ 	c #7B7B7B",
"% 	c #7A7A7A",
"& 	c #797979",
"* 	c #6B6B6B",
"= 	c #5C5C5C",
"- 	c #8B8B8B",
"; 	c #A1A1A1",
"> 	c #B8B8B8",
", 	c #BDBDBD",
"' 	c #B9B9B9",
") 	c #B6B6B6",
"! 	c #B2B2B2",
"~ 	c #B0B0B0",
"{ 	c #ADADAD",
"] 	c #ABABAB",
"^ 	c #A7A7A7",
"/ 	c #A6A6A6",
"( 	c #A3A3A3",
"_ 	c #A0A0A0",
": 	c #9F9F9F",
"< 	c #929292",
"[ 	c #838383",
"} 	c #606060",
"| 	c #8A8A8A",
"1 	c #B7B7B7",
"2 	c #C7C7C7",
"3 	c #C0C0C0",
"4 	c #BEBEBE",
"5 	c #BBBBBB",
"6 	c #B4B4B4",
"7 	c #B1B1B1",
"8 	c #AFAFAF",
"9 	c #ACACAC",
"0 	c #AAAAAA",
"a 	c #A5A5A5",
"b 	c #A2A2A2",
"c 	c #9D9D9D",
"d 	c #9C9C9C",
"e 	c #9E9E9E",
"f 	c #828282",
"g 	c #646464",
"h 	c #949494",
"i 	c #CBCBCB",
"j 	c #C5C5C5",
"k 	c #C3C3C3",
"l 	c #989898",
"m 	c #626262",
"n 	c #C8C8C8",
"o 	c #6E6E6E",
"p 	c #CDCDCD",
"q 	c #C4C4C4",
"r 	c #999999",
"s 	c #BCBCBC",
"t 	c #D1D1D1",
"u 	c #ECECEC",
"v 	c #D0D0D0",
"w 	c #9B9B9B",
"x 	c #E8E8E8",
"y 	c #6C6C6C",
"z 	c #8E8E8E",
"A 	c #E9E9E9",
"B 	c #FFFFFF",
"C 	c #EFEFEF",
"D 	c #E0E0E0",
"E 	c #D3D3D3",
"F 	c #A9A9A9",
"G 	c #A4A4A4",
"H 	c #AEAEAE",
"I 	c #C6C6C6",
"J 	c #D8D8D8",
"K 	c #F2F2F2",
"L 	c #D6D6D6",
"M 	c #6D6D6D",
"N 	c #FCFCFC",
"O 	c #FBFBFB",
"P 	c #FDFDFD",
"Q 	c #FAFAFA",
"R 	c #DFDFDF",
"S 	c #F8F8F8",
"T 	c #F7F7F7",
"U 	c #F9F9F9",
"V 	c #CECECE",
"W 	c #979797",
"X 	c #F5F5F5",
"Y 	c #F6F6F6",
"Z 	c #F3F3F3",
"` 	c #F4F4F4",
" .	c #5E5E5E",
"..	c #4C4C4C",
"+.	c #F0F0F0",
"@.	c #313131",
"#.	c #585858",
"$.	c #3F3F3F",
"%.	c #F1F1F1",
"&.	c #EEEEEE",
"*.	c #636363",
"=.	c #595959",
"-.	c #565656",
";.	c #3E3E3E",
">.	c #C1C1C1",
",.	c #959595",
"'.	c #494949",
").	c #EBEBEB",
"!.	c #EAEAEA",
"~.	c #747474",
"{.	c #333333",
"].	c #434343",
"^.	c #4A4A4A",
"/.	c #E6E6E6",
"(.	c #353535",
"_.	c #5D5D5D",
":.	c #DDDDDD",
"<.	c #545454",
"[.	c #E7E7E7",
"}.	c #E5E5E5",
"|.	c #4B4B4B",
"1.	c #575757",
"2.	c #5A5A5A",
"3.	c #515151",
"4.	c #E3E3E3",
"5.	c #3C3C3C",
"6.	c #D7D7D7",
"7.	c #DBDBDB",
"8.	c #444444",
"9.	c #E1E1E1",
"0.	c #E4E4E4",
"a.	c #D9D9D9",
"b.	c #8C8C8C",
"c.	c #DEDEDE",
"d.	c #464646",
"e.	c #CACACA",
"f.	c #D4D4D4",
"g.	c #707070",
"h.	c #454545",
"i.	c #7E7E7E",
"j.	c #D2D2D2",
"k.	c #383838",
"l.	c #474747",
"m.	c #555555",
"n.	c #BABABA",
"o.	c #CCCCCC",
"p.	c #C9C9C9",
"q.	c #4D4D4D",
"r.	c #393939",
"s.	c #717171",
"t.	c #3D3D3D",
"u.	c #4E4E4E",
"v.	c #D5D5D5",
"w.	c #686868",
"x.	c #848484",
"y.	c #A8A8A8",
"z.	c #BFBFBF",
"A.	c #6F6F6F",
"B.	c #CFCFCF",
"C.	c #323232",
"D.	c #B3B3B3",
"E.	c #5F5F5F",
"F.	c #808080",
"G.	c #8F8F8F",
"H.	c #616161",
"I.	c #3A3A3A",
"J.	c #666666",
"K.	c #4F4F4F",
"L.	c #787878",
"M.	c #777777",
"N.	c #696969",
"O.	c #6A6A6A",
"P.	c #505050",
"Q.	c #525252",
"R.	c #757575",
"S.	c #727272",
"T.	c #737373",
"U.	c #676767",
"V.	c #969696",
"W.	c #B5B5B5",
"X.	c #363636",
"Y.	c #767676",
"Z.	c #898989",
"`.	c #818181",
" +	c #9A9A9A",
".+	c #C2C2C2",
"++	c #888888",
"@+	c #939393",
"#+	c #919191",
"$+	c #373737",
"%+	c #909090",
"&+	c #878787",
"*+	c #E2E2E2",
"=+	c #DADADA",
"-+	c #858585",
";+	c #DCDCDC",
">+	c #535353",
",+	c #8D8D8D",
"'+	c #3B3B3B",
")+	c #EDEDED",
"                                                                                                                                ",
"                                                                                                                                ",
"                                                                                                                                ",
"                                                                                                                                ",
"                                                                                  . + @   # # @ $ % & $ @ * =                   ",
"                                                                              - ; > , ' ) ! ~ { ] ^ / ( ; _ : < [ & }           ",
"                                                                        | 1 2 3 4 5 > ) 6 7 8 9 0 / a b _ c c c d e e f g       ",
"                                                                      h i j k 3 4 5 > ) 6 7 8 9 0 / a b _ c c c c c c c l m     ",
"                                                                      8 n j k 3 4 5 > ) 6 7 8 9 0 / a b _ c c c c c c c : o     ",
"                                                                      ~ p q k 3 4 5 > ) 6 7 8 9 0 / a b _ c c c c c c r s o     ",
"                                                                      | t u v , s 5 > ) 6 7 8 9 0 / a b _ c c w r d 4 x s y     ",
"                                                                      z w ] A B C D E 2 5 > F ^ G ; G F H 1 I J K B L _ : M     ",
"                                                                      z c c 8 N O P B B B B B B B B B B B B Q R 4 w d c : M     ",
"                                                                      z c c ~ O S T T S U N p V V V j 4 ~ : W w c c c c : M     ",
"                                                                      z c c ~ S X Y Y X X U ( c c c c c c c c c c c c c : M     ",
"                                                                      z c c ~ Y Z Z Z ` ` S ( c c c c c c c c c c c c c : M     ",
"                                                                      z c c 8 X K K K K K Y ( c c c c c c c c c c c c c : M     ",
"                                         ...                          z c c 8 Z +.+.+.+.+.` ( c c c c c c c c c c c c c : M     ",
"                                      @.8 #.$.                        z c c 8 %.&.&.&.&.&.K ( c c c c c c c c c c c c c : M     ",
"                                      *.> =.-.                        z c c H &.u u u u u +.( c c c c c c c c c c c c c : M     ",
"                                    ;.>.,.. . '.                      z c c H &.).).).).!.&.( c c c c c c c c c c c c c : M     ",
"                                    m Y ~.. . . {.                    z c c { ).A A A A A ).( c c c c c c c c c c c c c : M     ",
"                                  ].0 +.. . . . ^.                    z c c { A /././././.A ( c c c c c c c c c c c c c : M     ",
"                                (._.x :.<.. . . = ;.                  z c c 9 [.}.}.}.}.}.x b c c c c c c c c c c c c c : M     ",
"                                |.c D , 1.. . . 2.3.                  z c c 9 }.4.4.4.4.4./.b c c c c c c c c c c c c c : M     ",
"                              5.#.6.7.G 2.. . . . = 8.                z c c 9 4.9.9.D 9.9.0.b c c c c c c c c c c c c c : M     ",
"                              <.z a.a.b.. . . . . 2.#.                z c c ] D c.c.c.c.c.9.b c c c c c c c c c c c c c : M     ",
"                            d.-.e.f.J g.. . . . . . . h.              z c c ] R :.:.:.:.:.D ; c c c c c c c c c c c c c : M     ",
"                            =.i.j.v L _.. . . . . . . = k.            z c c 0 :.7.7.7.7.7.c.; c c c c c c c c c c c c c : M     ",
"                          l.m.n.i o.p.<.. . . . . . . 2.q.            z c c 0 7.a.J J J a.7.; c c c c c c c c c c c c c : M     ",
"                        r._.s.o.2 n ~ 1.. . . . . . . . _.t.          z c c F a.6.6.6.6.L a.; c c c c c c c c c c c c c : M     ",
"                        u.1.^ k q k l 2.. . . . . . . . 2.1.          z c c F 6.v.v.v.v.v.J ; c c c c c c c c c c c c c : M     ",
"                      $._.w.j 3 3 3 x.. . . . . . . . . . . '.        z c c y.v.E E E E E L _ d d d d d d d d d c c c c : M     ",
"                      1.=.l s s s z.A.. . . . . . . . . . . .         z c c y.E t t t t t f.b : : : : : : : e e c c d d : M     ",
"                    ^.. _.s > > > , = . . . . . . . . . . . 2.'.      z c d y.v B.B.B.t t E a b b b b b b ; ; _ _ _ : e _ M     ",
"                  C. .2.z 6 6 D.D.7 -.. . . . . . . 2.2.. . .  .5.    z c e y.v V B.v B.B.t ^ a a a a a a G G G ( ( ; ; b M     ",
"                  ..2.2.~ ~ ~ ~ 7 e =  .E.E.E. .E. ._.= . 2.2.2.3.    z : _ ] B.B.V V B.v t 0 y.y.y.y.y.y.^ ^ / a a G G G M     ",
"                t.E.2.F.{ { { H H G.H.m *.*.*.m H.H.H.E. . .= .  .I.  G.b ( { V p V B.B.v t 9 0 ] ] ] ] ] 0 0 F F y.^ / / M     ",
"                <.2.2.^ 0 0 ] ] { f J.J.J.J.J.J.J.+ *.*.m } E. .= K.  < G / 8 V p V V V V t 8 { { { { { { 9 { 9 9 ] 0 F y.M     ",
"              ].} _.L.y.y.y.F 0 9 M.N.O.* O.* N.N.N.w.J.+ g *.H.E.P.K.,.^ y.7 V p p V B.B.v ! ~ ~ ~ ~ ~ ~ 8 ~ H H H { 9 0 y     ",
"              E. ._.c G / ^ ^ y.9 o o M M o M M o M * O.N.w.J.g *.3.m.,.F ] D.p p V V B.V t 6 ! D.D.D.D.D.! ! 7 7 ~ ~ H { y     ",
"            Q.H.H.R.( ( G G a ^ / M s.S.T.T.T.S.s.g.A.o M * N.U.J.<.<.V.{ H W.p p V B.B.B.t 1 W.) ) ) ) ) W.W.W.D.D.! 7 8 y     ",
"          X.U.m m h _ ; b ( a a d T.R.Y.Y.Y.R.Y.R.~.T.S.g.o M * N.-.m.V.8 ~ 1 V V V B.B.v t n.> ' ' ' ' > > 1 1 1 ) W.6 7 y     ",
"          <.*.+ s.: : _ ; b ( G < L.& & % % % & & L.M.R.~.S.g.o M =.1.l ! D.' p p V V B.v t , 5 s s s s 5 5 5 n.' > > ) D.y     ",
"        5.* + U.b.w c e : _ _ b Z.`.`.f [ [ [ f `.% M.M.Y.R.~.S.A.= #.l 6 W.5 V V V B.B.v t z., 4 z.z.4 4 4 , s s 5 n.' W.*     ",
"        m g w.o r r G { 6 n.3 I 1 7 ! ! D.D.D.! ! ! ~ F ; W b.f ~.= 2.r 1 > , V V B.v v v j.>.>.>.>.>.>.3 >.3 3 z.4 , s 1 *     ",
"      ..O.+ S.l ! ' ' ' n.5 s 4 y.y.F F 0 F 0 F y.y./ / a ( ; ; b F.N. +' n.z.V V v v t t j.q q q q q q k q .+.+>.>.z.z.n.*     ",
"      w.T.++G.] 9 H 8 ~ ! D.6 W.: ; b ( ( G ( ( b ; _ : c w  +l W @ M w 5 , >.B.B.v t j.j.f.2 I 2 2 2 2 I I j j q k .+>.4 y     ",
"    K.@ i.`.< ; ( G / y.0 ] { 0  +d d e e e e c d d  +r W ,.@+#+G.Y.w.w 4 z.k v v t j.j.E f.p.p.p.e.e.e.p.p.p.2 I I j q >.M     ",
"  $+L.g.~.M.h W l w c : ; G a : ,.W W l r  +r l W V.,.< #+z b.Z.++A.g d 3 >.j v t j.j.j.E L p V V V V p i i i e.e.p.2 I j A.    ",
"  -.o N.M % - z %+@+,.l  +c : W #+@+h ,.V.V.V.,.h < #+z b.| &+x.f O.H.e .+k 2 j.6.7.R *+}./.9.9.D 9.9.9.9.c.=+6.j.o.e.p.n A.    ",
"  -.~.* o -+Z.b.z < h W  +d e V.h V.l l  + +r l W V.h < G.b.Z.&+x.y m _ j i v.c.c.c.R D 9.*+:.:.:.:.:.:.:.:.;+7.7.7.L B.i s.    ",
"    U.$ T.% f Z.z %+@+V.r d e ,.l  +w c c e c d w r W ,.< G.b.Z.&+o *.( B.v j.a.=+7.7.:.c.c.=+=+7.7.7.7.7.=+a.a.J 6.L v.v.s.    ",
"      2.i.f @ @ f Z.%+,.l w e l w c : _ b b ; _ : c w l ,.< z - Z.g.*./ i o.B.v.L 6.a.=+7.7.J J a.a.a.a.a.J 6.6.v.f.E j.f.~.    ",
"          >+M z %+b.Z.,+@+l w w e _ b G a / a G b _ c w l h G.,+#+F.T.c j p B.f.v.6.J =+7.;+=+=+=+=+7.=+=+=+a.J 6.v.f.E 6.g.    ",
"              {.  J.$ G.; F y.y.y.y.0 a / / a 9 9 { 8 7 D.H d b.Y.  '+g.F k p L 6.a.=+7.;+:.;+:.:.:.c.:.:.;+7.=+a.a.=+;+,.      ",
"                        ^.m.g.Z.  Z.l b a y.F G ,.: l `.g m.              ++G V L J =+;+c.c.c.c.R R R D 9.*+}.A )+f.{ [         ",
"                                                                              .   r ~ .+V 0./.[.x A A 9.6.i 5 7 <               ",
"                                                                                          x.&+- ,+z G.                          ",
"                                                                                                                                ",
"                                                                                                                                ",
"                                                                                                                                ",
"                                                                                                                                ",
"                                                                                                                                "};
