/* XPM */
static const char * geometry_sel_xpm[] = {
"16 16 2 1",
" 	c None",
".	c #000000",
"       ..       ",
"       ..       ",
"      . ..      ",
"     .  . .     ",
"    .   .  .    ",
"   .        .   ",
"  .      .   .  ",
" .       .    . ",
" ....    .  ... ",
"  .   ...... .  ",
"   .     . ..   ",
"    .    . .    ",
"     .   ..     ",
"      . ..      ",
"        .       ",
"       ..       "};
