/* XPM */
static const char * light_xpm[] = {
"16 16 84 1",
" 	c None",
".	c #E4AC2B",
"+	c #F2CC48",
"@	c #FCDE57",
"#	c #FBDC4F",
"$	c #F1C939",
"%	c #E3A821",
"&	c #E7AD2B",
"*	c #FDDC60",
"=	c #FDDE69",
"-	c #FCDA63",
";	c #FAD052",
">	c #F8C743",
",	c #FACD42",
"'	c #E6A821",
")	c #FCCF4D",
"!	c #FCDA65",
"~	c #FEE576",
"{	c #FDDE6C",
"]	c #FBD055",
"^	c #F8C340",
"/	c #F8BF3A",
"(	c #FAC53A",
"_	c #E69D1B",
":	c #F9C343",
"<	c #FBD159",
"[	c #FDDA67",
"}	c #FCD55F",
"|	c #FAC84A",
"1	c #F8BB37",
"2	c #F7B833",
"3	c #F8B833",
"4	c #E69C1A",
"5	c #EA9E1C",
"6	c #F7B431",
"7	c #F9BF40",
"8	c #FAC548",
"9	c #F9C143",
"0	c #F8B735",
"a	c #F7B12C",
"b	c #F7B02B",
"c	c #E69515",
"d	c #F6A823",
"e	c #F6AA26",
"f	c #F6AC29",
"g	c #F6AC28",
"h	c #F6A925",
"i	c #E69514",
"j	c #E18C0D",
"k	c #F6A01B",
"l	c #F6A31F",
"m	c #F7AA29",
"n	c #F7AA28",
"o	c #F6A21E",
"p	c #E08B0C",
"q	c #E98F0E",
"r	c #F59915",
"s	c #F7A626",
"t	c #F9B53B",
"u	c #F9B43A",
"v	c #F7A424",
"w	c #F59914",
"x	c #E98E0E",
"y	c #F0920F",
"z	c #F8AB2E",
"A	c #FCC34E",
"B	c #FBC24D",
"C	c #F8A92C",
"D	c #F1910E",
"E	c #C88A35",
"F	c #D8A350",
"G	c #DCBC70",
"H	c #DBBB6F",
"I	c #D8A14E",
"J	c #CA8A36",
"K	c #B3B3B3",
"L	c #DADADA",
"M	c #B0B0B0",
"N	c #D2D2D2",
"O	c #B1B1B1",
"P	c #C7C7C7",
"Q	c #CCCCCC",
"R	c #B7B7B7",
"S	c #BEBEBE",
"                ",
"     .+@#$%     ",
"    &*=-;>,'    ",
"    )!~{]^/(    ",
"   _:<[}|1234   ",
"   567890abb5   ",
"   cdefghdddi   ",
"   jkklmnokkp   ",
"    qrstuvwx    ",
"     yzABCD     ",
"     EFGHIJ     ",
"     KLLLLK     ",
"     MNNNNM     ",
"     OPQQPO     ",
"      RSSR      ",
"                "};
