/* XPM */
static const char * pass_sel_xpm[] = {
"16 16 113 2",
"  	c None",
". 	c #5B7BAA",
"+ 	c #5877AB",
"@ 	c #466DA8",
"# 	c #3A66A8",
"$ 	c #3A64A8",
"% 	c #436BA8",
"& 	c #5174A8",
"* 	c #5879AB",
"= 	c #DCDEDE",
"- 	c #F2F3F3",
"; 	c #F3F4F7",
"> 	c #F2F4F7",
", 	c #EDF2F8",
"' 	c #EBF2F8",
") 	c #EBF2F7",
"! 	c #E8EEF1",
"~ 	c #4A70AA",
"{ 	c #F1F2F3",
"] 	c #557E4B",
"^ 	c #749C69",
"/ 	c #688A8E",
"( 	c #5877A3",
"_ 	c #5075AD",
": 	c #3B66A8",
"< 	c #3C66A8",
"[ 	c #74986A",
"} 	c #9DCA8E",
"| 	c #9ECD90",
"1 	c #A0D192",
"2 	c #5E81A9",
"3 	c #F1F4F7",
"4 	c #7A9F70",
"5 	c #A2D494",
"6 	c #A3D394",
"7 	c #4B73A7",
"8 	c #C46E75",
"9 	c #E08890",
"0 	c #E08C95",
"a 	c #B97B80",
"b 	c #EAF1F7",
"c 	c #456DAB",
"d 	c #EDF2F7",
"e 	c #4B8B45",
"f 	c #5F9888",
"g 	c #597DA4",
"h 	c #4871A4",
"i 	c #456EAD",
"j 	c #4366A7",
"k 	c #4669A9",
"l 	c #4669AA",
"m 	c #4E70AA",
"n 	c #9D97B7",
"o 	c #E29098",
"p 	c #E8EFF7",
"q 	c #ECF1F7",
"r 	c #4C9047",
"s 	c #597FA4",
"t 	c #5575AC",
"u 	c #E7EFF6",
"v 	c #456DAA",
"w 	c #3964A6",
"x 	c #ECF0F7",
"y 	c #3A6C36",
"z 	c #466FA2",
"A 	c #5C8196",
"B 	c #80A6BB",
"C 	c #83A8BC",
"D 	c #65808F",
"E 	c #506EA8",
"F 	c #D66661",
"G 	c #E6EDF6",
"H 	c #3A64A6",
"I 	c #ECF0F6",
"J 	c #D7E8FD",
"K 	c #81A4B6",
"L 	c #ADDCF2",
"M 	c #B0DEF5",
"N 	c #B2E1FA",
"O 	c #B4E3FC",
"P 	c #88ABBE",
"Q 	c #506FA9",
"R 	c #DE6862",
"S 	c #E5EDF6",
"T 	c #486DA8",
"U 	c #EAECEE",
"V 	c #F0F2F7",
"W 	c #476EAD",
"X 	c #B5E5FE",
"Y 	c #B5E4FD",
"Z 	c #4E6DA6",
"` 	c #B55B58",
" .	c #E5ECF6",
"..	c #436BAA",
"+.	c #5374AA",
"@.	c #4F72AB",
"#.	c #567FA6",
"$.	c #73AADE",
"%.	c #72A7DC",
"&.	c #557DA4",
"*.	c #4E74AF",
"=.	c #E5ECF7",
"-.	c #5882AC",
";.	c #75ADE5",
">.	c #4F75AF",
",.	c #EEF2F8",
"'.	c #EAEEF1",
").	c #4A70AB",
"!.	c #426281",
"~.	c #D7E8FE",
"{.	c #F0F3F8",
"].	c #EFF3F8",
"^.	c #EEF2F7",
". + @ # # $ $ $ % &             ",
"* = - ; > , ' ) ! ~             ",
"@ { ] ^ ^ ^ / ( _ : # $ $ $ % & ",
"< ; [ } | 1 2 = - ; > , ' ) ! ~ ",
"< 3 4 5 6 6 7 { 8 9 9 9 0 a b c ",
"< d e f g h # i j k l m n o p c ",
"# q r s = - ; > , ' ) ! t o u v ",
"w x y z { A B B B C D b E F G v ",
"H I J i ; K L M N O P p Q R S v ",
"T U V W 3 P X Y Y Y P u Z `  ...",
"+.@.v < d #.$.$.%.%.&.G *.J =...",
"      # q -.;.;.;.;.-.S >.,.'.).",
"      w x !.-.-.-.-.!. .....~ +.",
"      H I J ~.~.~.~.J =...      ",
"      T U V {.].^.^.,.'.).      ",
"      +.@.v ..........~ +.      "};
