/* XPM */
static const char * record_xpm[] = {
"32 32 510 2",
"  	c None",
". 	c #D56056",
"+ 	c #DA584C",
"@ 	c #D65244",
"# 	c #D34F41",
"$ 	c #D14F42",
"% 	c #D35245",
"& 	c #D7584D",
"* 	c #DA6159",
"= 	c #DF6256",
"- 	c #DE4E3E",
"; 	c #D4412F",
"> 	c #D34431",
", 	c #D24434",
"' 	c #D04435",
") 	c #CF4437",
"! 	c #CE4538",
"~ 	c #CD4539",
"{ 	c #CB4337",
"] 	c #CF4B41",
"^ 	c #DE645C",
"/ 	c #BD4F48",
"( 	c #D05649",
"_ 	c #E15141",
": 	c #D5422F",
"< 	c #D34432",
"[ 	c #D14435",
"} 	c #D04336",
"| 	c #CE4337",
"1 	c #CC4438",
"2 	c #CB4439",
"3 	c #CA453A",
"4 	c #C9463C",
"5 	c #C9463D",
"6 	c #C8473E",
"7 	c #C7453D",
"8 	c #CF524B",
"9 	c #D05953",
"0 	c #97453D",
"a 	c #E65E51",
"b 	c #D64431",
"c 	c #D44432",
"d 	c #CE4336",
"e 	c #CC4337",
"f 	c #CA4539",
"g 	c #C9443A",
"h 	c #C6443C",
"i 	c #C6443D",
"j 	c #C6463F",
"k 	c #C54640",
"l 	c #C54741",
"m 	c #C54842",
"n 	c #C54943",
"o 	c #C44944",
"p 	c #CF5B56",
"q 	c #CD5D59",
"r 	c #E15748",
"s 	c #D4412E",
"t 	c #D34534",
"u 	c #CE4437",
"v 	c #CA4338",
"w 	c #C8443A",
"x 	c #C6433C",
"y 	c #C4443D",
"z 	c #C4453F",
"A 	c #C24540",
"B 	c #C24641",
"C 	c #C14642",
"D 	c #C04643",
"E 	c #C04844",
"F 	c #C04946",
"G 	c #C14A47",
"H 	c #BF4945",
"I 	c #C85552",
"J 	c #C85957",
"K 	c #E35C4F",
"L 	c #D64534",
"M 	c #D24635",
"N 	c #D04536",
"O 	c #CD4437",
"P 	c #CB4438",
"Q 	c #C94539",
"R 	c #C5443D",
"S 	c #C3443E",
"T 	c #C1453F",
"U 	c #C04441",
"V 	c #BF4542",
"W 	c #BE4643",
"X 	c #BD4744",
"Y 	c #BD4645",
"Z 	c #BD4847",
"` 	c #BD4A49",
" .	c #BE4A4A",
"..	c #BE4C4B",
"+.	c #C85A59",
"@.	c #B74847",
"#.	c #E2655A",
"$.	c #D44230",
"%.	c #D34736",
"&.	c #CF4537",
"*.	c #CA443A",
"=.	c #C7453B",
"-.	c #C5443C",
";.	c #C3453E",
">.	c #C1433F",
",.	c #BF4440",
"'.	c #BD4442",
").	c #BC4543",
"!.	c #BB4544",
"~.	c #BA4545",
"{.	c #BA4646",
"].	c #BA4848",
"^.	c #BB4848",
"/.	c #BC4A4A",
"(.	c #BB4B4B",
"_.	c #BC4D4D",
":.	c #BD4D4D",
"<.	c #BA4B4B",
"[.	c #CF6565",
"}.	c #BF5950",
"|.	c #D74837",
"1.	c #D34737",
"2.	c #D04738",
"3.	c #CC4539",
"4.	c #CA463B",
"5.	c #C7443C",
"6.	c #C4443E",
"7.	c #C2453F",
"8.	c #C04440",
"9.	c #BD4441",
"0.	c #BC4442",
"a.	c #BA4444",
"b.	c #B94545",
"c.	c #BC4848",
"d.	c #BD4949",
"e.	c #BE4B4B",
"f.	c #BF4C4C",
"g.	c #C04E4E",
"h.	c #C14F4F",
"i.	c #C15151",
"j.	c #C15252",
"k.	c #C05252",
"l.	c #C35B5B",
"m.	c #D35648",
"n.	c #D34838",
"o.	c #D04739",
"p.	c #CD463B",
"q.	c #CA463C",
"r.	c #C4463F",
"s.	c #BF4541",
"t.	c #BD4542",
"u.	c #BE4949",
"v.	c #C04C4C",
"w.	c #C24D4D",
"x.	c #C34F4F",
"y.	c #C35050",
"z.	c #C55151",
"A.	c #C55252",
"B.	c #C55353",
"C.	c #C65454",
"D.	c #C55656",
"E.	c #CD5F5F",
"F.	c #94443C",
"G.	c #DD5445",
"H.	c #D1483A",
"I.	c #CD483B",
"J.	c #CB473D",
"K.	c #C7463E",
"L.	c #C24541",
"M.	c #BA4544",
"N.	c #B94646",
"O.	c #BC4747",
"P.	c #BF4A4A",
"Q.	c #C04B4B",
"R.	c #C34D4D",
"S.	c #C44F4F",
"T.	c #C65151",
"U.	c #C85353",
"V.	c #C85555",
"W.	c #C95555",
"X.	c #C95656",
"Y.	c #C95858",
"Z.	c #C95959",
"`.	c #CB5E5E",
" +	c #C15353",
".+	c #CF6259",
"++	c #D34839",
"@+	c #CF4A3D",
"#+	c #CB483E",
"$+	c #C8483E",
"%+	c #C24742",
"&+	c #BF4744",
"*+	c #BC4644",
"=+	c #BB4747",
"-+	c #BD4848",
";+	c #C14B4B",
">+	c #C64F4F",
",+	c #C75151",
"'+	c #C74F4F",
")+	c #C74B4B",
"!+	c #C74747",
"~+	c #C94949",
"{+	c #CB4F4F",
"]+	c #CD5757",
"^+	c #CE5C5C",
"/+	c #CD5C5C",
"(+	c #CE5D5D",
"_+	c #CC5D5D",
":+	c #DB6D6D",
"<+	c #E5665B",
"[+	c #CF493B",
"}+	c #CD493E",
"|+	c #C9493F",
"1+	c #C64841",
"2+	c #C34843",
"3+	c #C04744",
"4+	c #BB4949",
"5+	c #BF4E4E",
"6+	c #BD4141",
"7+	c #BA3131",
"8+	c #B82323",
"9+	c #B71616",
"0+	c #B50B0B",
"a+	c #B50707",
"b+	c #B60606",
"c+	c #B80606",
"d+	c #B90707",
"e+	c #BA0606",
"f+	c #BB0909",
"g+	c #BC0F0F",
"h+	c #C01D1D",
"i+	c #C42D2D",
"j+	c #C84040",
"k+	c #CD5656",
"l+	c #D87272",
"m+	c #DE5D51",
"n+	c #CE4B3F",
"o+	c #CB4A40",
"p+	c #C74A43",
"q+	c #C14845",
"r+	c #BD4946",
"s+	c #BA4748",
"t+	c #B83A3A",
"u+	c #AE1111",
"v+	c #AE0808",
"w+	c #B10808",
"x+	c #B40808",
"y+	c #B70909",
"z+	c #B90B0B",
"A+	c #BC0B0B",
"B+	c #BE0C0C",
"C+	c #BF0D0D",
"D+	c #C10E0E",
"E+	c #BE0D0D",
"F+	c #BC0D0D",
"G+	c #C01E1E",
"H+	c #C04949",
"I+	c #D75549",
"J+	c #CD4C41",
"K+	c #C94C43",
"L+	c #C64B45",
"M+	c #C34B46",
"N+	c #BF4A48",
"O+	c #BB4948",
"P+	c #B43636",
"Q+	c #AA1010",
"R+	c #A70000",
"S+	c #AD0606",
"T+	c #B40909",
"U+	c #B80B0B",
"V+	c #BB0B0B",
"W+	c #C10D0D",
"X+	c #C30E0E",
"Y+	c #C50F0F",
"Z+	c #C60F0F",
"`+	c #C61010",
" @	c #C71010",
".@	c #C40F0F",
"+@	c #BD0808",
"@@	c #BF3636",
"#@	c #D45549",
"$@	c #CB4D43",
"%@	c #C84C46",
"&@	c #C44C47",
"*@	c #C14C49",
"=@	c #BB4645",
"-@	c #A61212",
";@	c #A40303",
">@	c #A80303",
",@	c #B50909",
"'@	c #BC0C0C",
")@	c #C00E0E",
"!@	c #C81010",
"~@	c #CA1414",
"{@	c #CB1616",
"]@	c #CC1818",
"^@	c #CD1919",
"/@	c #CC1717",
"(@	c #C91111",
"_@	c #C20A0A",
":@	c #C03838",
"<@	c #D5584E",
"[@	c #C94E45",
"}@	c #C64E48",
"|@	c #C34D4A",
"1@	c #B93A38",
"2@	c #A00001",
"3@	c #A10101",
"4@	c #A80404",
"5@	c #AC0505",
"6@	c #B00808",
"7@	c #BD0C0C",
"8@	c #CC1919",
"9@	c #CE1E1E",
"0@	c #D02121",
"a@	c #D12323",
"b@	c #D02222",
"c@	c #CF1E1E",
"d@	c #CD1B1B",
"e@	c #C70D0D",
"f@	c #C33939",
"g@	c #DC645C",
"h@	c #C84E48",
"i@	c #C7534E",
"j@	c #B42825",
"k@	c #A30200",
"l@	c #A00101",
"m@	c #A50303",
"n@	c #AA0505",
"o@	c #AF0707",
"p@	c #B80A0A",
"q@	c #C81111",
"r@	c #CF1D1D",
"s@	c #D32929",
"t@	c #D52C2C",
"u@	c #D62F2F",
"v@	c #D63030",
"w@	c #D62E2E",
"x@	c #D62D2D",
"y@	c #D42A2A",
"z@	c #D22525",
"A@	c #D02020",
"B@	c #C03F3F",
"C@	c #DE6C65",
"D@	c #C8514B",
"E@	c #B62621",
"F@	c #A50000",
"G@	c #A10200",
"H@	c #A20202",
"I@	c #A70404",
"J@	c #AC0606",
"K@	c #B60A0A",
"L@	c #CF1F1F",
"M@	c #D32828",
"N@	c #D83333",
"O@	c #DA3737",
"P@	c #DC3A3A",
"Q@	c #DB3838",
"R@	c #D93434",
"S@	c #D72F2F",
"T@	c #D93131",
"U@	c #BF5F5B",
"V@	c #BC2C25",
"W@	c #AA0400",
"X@	c #A40301",
"Y@	c #A90505",
"Z@	c #C20E0E",
"`@	c #CB1717",
" #	c #D01F1F",
".#	c #D73030",
"+#	c #DD3E3E",
"@#	c #DF4242",
"##	c #E14545",
"$#	c #E14646",
"%#	c #DF4343",
"&#	c #DE3F3F",
"*#	c #DB3939",
"=#	c #E34747",
"-#	c #5D1714",
";#	c #BE1B15",
">#	c #A90600",
",#	c #A20300",
"'#	c #A60404",
")#	c #AB0505",
"!#	c #C00D0D",
"~#	c #C91313",
"{#	c #CE1D1D",
"]#	c #D32727",
"^#	c #DE4040",
"/#	c #E14747",
"(#	c #E44C4C",
"_#	c #E55050",
":#	c #E65151",
"<#	c #E44E4E",
"[#	c #E24848",
"}#	c #DF3D3D",
"|#	c #C54646",
"1#	c #B1211D",
"2#	c #A70500",
"3#	c #A10100",
"4#	c #B30808",
"5#	c #D12222",
"6#	c #DA3636",
"7#	c #E24949",
"8#	c #E65050",
"9#	c #E85757",
"0#	c #EB5B5B",
"a#	c #EB5D5D",
"b#	c #EA5C5C",
"c#	c #EA5858",
"d#	c #E65252",
"e#	c #E34A4A",
"f#	c #E54E4E",
"g#	c #942E2C",
"h#	c #A70605",
"i#	c #A10201",
"j#	c #A30202",
"k#	c #AE0707",
"l#	c #B30909",
"m#	c #BF0C0C",
"n#	c #C40E0E",
"o#	c #C91212",
"p#	c #D22626",
"q#	c #D83232",
"r#	c #DC3D3D",
"s#	c #E24646",
"t#	c #ED6060",
"u#	c #F06666",
"v#	c #F16868",
"w#	c #F06767",
"x#	c #EE6363",
"y#	c #EA5B5B",
"z#	c #D45555",
"A#	c #BD3433",
"B#	c #A20303",
"C#	c #A40202",
"D#	c #BA0B0B",
"E#	c #BF0E0E",
"F#	c #CA1313",
"G#	c #D42929",
"H#	c #DA3535",
"I#	c #E34B4B",
"J#	c #E85555",
"K#	c #F06969",
"L#	c #F47171",
"M#	c #F67474",
"N#	c #F57272",
"O#	c #F26A6A",
"P#	c #ED6161",
"Q#	c #ED6464",
"R#	c #B12423",
"S#	c #B50A0A",
"T#	c #C51010",
"U#	c #CA1515",
"V#	c #D52B2B",
"W#	c #E95959",
"X#	c #EF6565",
"Y#	c #F37070",
"Z#	c #F87979",
"`#	c #FB7F7F",
" $	c #F97C7C",
".$	c #F46F6F",
"+$	c #B31D1D",
"@$	c #CF2020",
"#$	c #D52D2D",
"$$	c #DA3838",
"%$	c #E54F4F",
"&$	c #EA5A5A",
"*$	c #FA7C7C",
"=$	c #FE8585",
"-$	c #FB8080",
";$	c #F57676",
">$	c #B25656",
",$	c #B42626",
"'$	c #B40B0B",
")$	c #DE4242",
"!$	c #E44D4D",
"~$	c #E95858",
"{$	c #F26E6E",
"]$	c #F77777",
"^$	c #FB7C7C",
"/$	c #F67B7B",
"($	c #A55454",
"_$	c #B33434",
":$	c #C31D1D",
"<$	c #B80909",
"[$	c #E85454",
"}$	c #EC5E5E",
"|$	c #EC7474",
"1$	c #6B2020",
"2$	c #AB2A2A",
"3$	c #C12020",
"4$	c #CD1515",
"5$	c #CE1919",
"6$	c #D22222",
"7$	c #D72D2D",
"8$	c #DC3939",
"9$	c #E34646",
"0$	c #ED5656",
"a$	c #E95D5D",
"b$	c #D55D5D",
"c$	c #A75050",
"d$	c #5B1111",
"e$	c #A42D2D",
"f$	c #C23737",
"g$	c #CA3D3D",
"h$	c #CD4343",
"i$	c #CC4848",
"j$	c #BA4747",
"k$	c #833030",
"                                                                ",
"                        . + @ # $ % & *                         ",
"                    = - ; > , ' ) ! ~ { ] ^ /                   ",
"                ( _ : < [ } | 1 2 3 4 5 6 7 8 9                 ",
"            0 a b c , ' d e f g h i j k l m n o p q             ",
"            r s t ' u 1 v w x y z A B C D E F G H I J           ",
"          K L M N O P Q x R S T U V W X Y Z Z `  ...+.@.        ",
"        #.$.%.&.~ *.=.-.;.>.,.'.).!.~.{.].^./.(._.:.<.[.        ",
"      }.|.1.2.3.4.5.6.7.8.9.0.a.b.{.c.d.e.f.g.h.h.i.j.k.l.      ",
"      m.n.o.p.q.7 r.A s.t.a.b.{.c.u.v.w.x.y.z.A.B.C.D.D.E.      ",
"    F.G.H.I.J.K.r.L.V ).M.N.O.P.Q.R.S.T.U.V.W.W.X.Y.Z.Z.`. +    ",
"    .+++@+#+$+l %+&+*+N.=+-+;+w.>+,+'+)+!+~+{+]+^+^+/+(+_+:+    ",
"    <+[+}+|+1+2+3+Y N.4+5+6+7+8+9+0+a+b+c+d+e+f+g+h+i+j+k+l+    ",
"    m+n+o+p+o q+r+s+_.t+u+v+w+x+y+z+A+B+C+D+D+D+D+D+C+E+F+G+H+  ",
"    I+J+K+L+M+N+O+P+Q+R+S+w+T+U+V+E+W+X+Y+Z+`+ @ @`+Y+.@D++@@@  ",
"    #@$@%@&@*@=@-@;@>@S+w+,@z+'@)@X+Z+!@~@{@]@^@]@/@~@(@ @_@:@  ",
"    <@[@}@|@1@2@3@4@5@6@T+z+7@)@.@!@~@8@9@0@a@a@a@b@c@d@{@e@f@  ",
"    g@h@i@j@k@l@m@n@o@x+p@'@)@.@q@/@r@a@s@t@u@v@w@x@y@z@A@^@B@  ",
"    C@D@E@F@G@H@I@J@w+K@V+C+.@!@]@L@M@x@N@O@P@P@P@Q@R@S@M@T@    ",
"    U@V@W@X@l@m@Y@o@T+z+E+Z@ @`@ #M@.#O@+#@###$#$#%#&#*#v@=#    ",
"    -#;#>#,#3@'#)#6@,@'@!#Y+~#{#]#u@Q@^#/#(#_#:#:#<#[#@#}#|#    ",
"      1#2#3#H@4@S+4#p@7@Z@ @/@5#x@6#^#7#8#9#0#a#b#c#d#e#f#      ",
"      g#h#i#j#Y@k#l#U+m#n#o#d@p#q#r#s#_#c#t#u#v#w#x#y#:#z#      ",
"        A#B#C#n@o@T+D#E#Y+F#L@G#H#^#I#J#t#K#L#M#N#O#P#Q#        ",
"          R#;@n@o@S#D#)@T#U#A@V#O@%#f#W#X#Y#Z#`# $N#.$          ",
"            +$n@o@S#D#)@T#{@@$#$$$%#%$&$X#L#*$=$-$;$>$          ",
"              ,$'$x+D#)@T#~@A@V#O@)$!$~$x#{$]$^$/$($            ",
"                _$:$<$E#.@F#9@y@R@&#e#[$}$w#.$|$                ",
"                  1$2$3$ #4$5$6$7$8$9$0$a$b$c$                  ",
"                        d$e$f$g$h$i$j$k$                        ",
"                                                                ",
"                                                                "};
