/* XPM */
static const char * render_target_sel_xpm[] = {
"16 16 10 1",
" 	c #008000",
".	c #C0C0C0",
"+	c #CCCC00",
"@	c #FFFFFF",
"#	c #FFFF66",
"$	c #FFFF33",
"%	c #00FF00",
"&	c #00FFFF",
"*	c #ECE9D8",
"=	c #040404",
"****************",
"*==============*",
"*=@@=.&.&.&.&.=*",
"*=@@=&.&.&.&.&=*",
"*===&.======&.=*",
"*=.&.=####==.&=*",
"*=&.======+=&.=*",
"*=.&=$$$$=+=.&=*",
"*=&.=$$$$=+=&.=*",
"*=.&=$$$$==&.&=*",
"*=&=======%=&.=*",
"*==% % %%= %=&=*",
"*=%%=% =%%= %==*",
"*==============*",
"****************",
"****************"};
