/* XPM */
static const char * scene_sel_xpm[] = {
"16 16 59 1",
" 	c #FFFFFF",
".	c #2E2E30",
"+	c #FBFBFB",
"@	c #F7F7F7",
"#	c #4FA4FA",
"$	c #EEEEEE",
"%	c #A2A2A2",
"&	c #2D2C30",
"*	c #CCCCCC",
"=	c #DBDBDB",
"-	c #85BBF9",
";	c #8ABEFA",
">	c #8FC5FB",
",	c #7ABAFB",
"'	c #4CA1FA",
")	c #82BBFF",
"!	c #58ADFE",
"~	c #E1E1E1",
"{	c #5195D8",
"]	c #4976AD",
"^	c #8DC5FF",
"/	c #99CFFF",
"(	c #9FD5FF",
"_	c #6498C8",
":	c #3F72B8",
"<	c #7BB5FD",
"[	c #7EB5F8",
"}	c #74B7FB",
"|	c #93C9FC",
"1	c #56ABFE",
"2	c #4B8BCC",
"3	c #4274B3",
"4	c #4E9AE6",
"5	c #5FB2FE",
"6	c #6BBFFE",
"7	c #5BA0DC",
"8	c #345883",
"9	c #418EE3",
"0	c #4894E4",
"a	c #56A2EC",
"b	c #62AEF2",
"c	c #6CB7F2",
"d	c #7BC7FD",
"e	c #5E9FD5",
"f	c #3D6DA9",
"g	c #4A9FFD",
"h	c #B5B5B6",
"i	c #4D4D4F",
"j	c #5C5E60",
"k	c #3D3D3F",
"l	c #6F6F6E",
"m	c #979796",
"n	c #838484",
"o	c #C2C2C3",
"p	c #3467B6",
"q	c #3B6BB7",
"r	c #3971C3",
"s	c #74AFFF",
"t	c #AEADAE",
"         +*ljo+ ",
"       =ni&*jo@ ",
"    ~mkk*iih@   ",
" $%i.*jk%+      ",
"*llmkm$   +++@@ ",
"~ll&%.o.&h..h.h$",
"@..*&%.&t..o.t.$",
" .pppqpqqq:::]. ",
" .rs<<)-;^|/(_. ",
" .:<[[-;>|}!12. ",
" .3)-;>>,#'#!{. ",
" .]^;^}''#1!5{. ",
" .f#ggg#1!5567.+",
" .8904aaabccde.+",
" ..............$",
"      @@$$$~~=~ "};
