/* XPM */
static const char * spot_sel_xpm[] = {
"16 16 124 2",
"  	c None",
". 	c #3D3E3E",
"+ 	c #2E3034",
"@ 	c #2F343A",
"# 	c #3E4146",
"$ 	c #616465",
"% 	c #333333",
"& 	c #313438",
"* 	c #7C571E",
"= 	c #BA6F19",
"- 	c #673D0E",
"; 	c #16130F",
"> 	c #5A5D61",
", 	c #2B2B2A",
"' 	c #362E1E",
") 	c #DF9436",
"! 	c #D8882C",
"~ 	c #F0972B",
"{ 	c #D18023",
"] 	c #130E08",
"^ 	c #5E5F62",
"/ 	c #474736",
"( 	c #252525",
"_ 	c #50401E",
": 	c #F7C23E",
"< 	c #DCA33F",
"[ 	c #E39A35",
"} 	c #EC932C",
"| 	c #AF6C1D",
"1 	c #15161D",
"2 	c #525353",
"3 	c #55564F",
"4 	c #33312B",
"5 	c #232425",
"6 	c #3B3522",
"7 	c #FFEA5F",
"8 	c #FBD655",
"9 	c #EBB847",
"0 	c #E29B35",
"a 	c #EE982B",
"b 	c #251507",
"c 	c #414449",
"d 	c #565656",
"e 	c #333332",
"f 	c #262521",
"g 	c #0B0C0C",
"h 	c #181818",
"i 	c #F4F49B",
"j 	c #FFFB87",
"k 	c #FEDE5C",
"l 	c #E4B048",
"m 	c #E08C2E",
"n 	c #714510",
"o 	c #232930",
"p 	c #393939",
"q 	c #222222",
"r 	c #090909",
"s 	c #0F0F0E",
"t 	c #27272A",
"u 	c #8F8F79",
"v 	c #FFFFB6",
"w 	c #FFF77A",
"x 	c #FCCA40",
"y 	c #E69D3E",
"z 	c #9B621B",
"A 	c #1B1D29",
"B 	c #212121",
"C 	c #080808",
"D 	c #010101",
"E 	c #2C2C2B",
"F 	c #2F2F2D",
"G 	c #1C1C1A",
"H 	c #121211",
"I 	c #DFE0AD",
"J 	c #FFFC92",
"K 	c #FFD53C",
"L 	c #F3A235",
"M 	c #B27C23",
"N 	c #343940",
"O 	c #202020",
"P 	c #1B1B1B",
"Q 	c #1C1C1C",
"R 	c #000000",
"S 	c #020202",
"T 	c #32322E",
"U 	c #2E2D2C",
"V 	c #151514",
"W 	c #A39C5B",
"X 	c #FADE37",
"Y 	c #F5A927",
"Z 	c #A0832C",
"` 	c #4B4D52",
" .	c #2B2B2B",
"..	c #242424",
"+.	c #040404",
"@.	c #595A5B",
"#.	c #909192",
"$.	c #0B0B0B",
"%.	c #454441",
"&.	c #343534",
"*.	c #21232A",
"=.	c #151720",
"-.	c #232730",
";.	c #3A3D40",
">.	c #464646",
",.	c #292929",
"'.	c #111111",
").	c #515253",
"!.	c #838384",
"~.	c #33332F",
"{.	c #252521",
"].	c #4B4A41",
"^.	c #545348",
"/.	c #62625E",
"(.	c #232323",
"_.	c #141414",
":.	c #373736",
"<.	c #565650",
"[.	c #767569",
"}.	c #585858",
"|.	c #515151",
"1.	c #505050",
"2.	c #5B5B5B",
"3.	c #5C5C5C",
"              . + @ # $         ",
"            % & * = - ; >       ",
"            , ' ) ! ~ { ] ^     ",
"          / ( _ : < [ } | 1 2   ",
"        3 4 5 6 7 8 9 0 a b c   ",
"      d e f g h i j k l m n o   ",
"    p q q r s t u v w x y z A   ",
"    B C D E F G H I J K L M N   ",
"    O P Q R S T U V W X Y Z `   ",
"     ...+.@.#.$.%.&.*.=.-.;.    ",
"    >.,.'.).!.R ~.{.].^./.      ",
"      (.,._.S :.<.[.            ",
"          }.|.                  ",
"          1.2.                  ",
"      1.1.1.|.3.}.              ",
"      R R R R S C               "};
