/* XPM */
static const char * text_xpm[] = {
"16 16 12 1",
" 	c None",
".	c #FFFFFF",
"+	c #8B9FBA",
"@	c #C9D2DF",
"#	c #6982A6",
"$	c #355787",
"%	c #2F4D78",
"&	c #294368",
"*	c #9FAEC3",
"=	c #3B5B89",
"-	c #CFD4DC",
";	c #345685",
".           .   ",
".+..........@#  ",
".$$$$$$$$$$$$$% ",
".$&  @$$$   *$  ",
" $   .$$$    =  ",
"     .$$$       ",
"     .$$$       ",
"     .$$$       ",
"     .$$$       ",
"     .$$$       ",
"     .$$$       ",
"     .$$$       ",
"     .$$$       ",
"   ...$$$-      ",
"    $$$$$$;     ",
"                "};
