/* XPM */
static const char * expand_all_xpm[] = {
"16 16 4 1",
" 	c None",
".	c #C7C7C7",
"+	c #313135",
"@	c #7AFF8D",
"                ",
"                ",
"      .......   ",
"            .   ",
"    ....... .   ",
"          . .   ",
"  ....... . .   ",
"  .+++++. . .   ",
"  .++@++. . .   ",
"  .+@@@+. .     ",
"  .++@++. .     ",
"  .+++++.       ",
"  .......       ",
"                ",
"                ",
"                "};
