/* XPM */ 
static char * icon6_xpm[] = {
"32 32 5 1",
" 	c None",
"!	c black",
"#	c #FFFF99",
"$	c #FFCCFF",
"%	c #99CCFF",
"            !                   ",
"           !#!                  ",
"          !###!                 ",
"         !#####!                ",
"        !#######!               ",
"       !#######!      !         ",
"      !#######!      !$!        ",
"     !#######!      !$$$!       ",
"    !#######!      !$$$$$!      ",
"   !#######!      !$$$$$!       ",
"  !#######!      !$$$$$!        ",
" !#######!!!!!!!!$$$$$!         ",
"!#######! !      !$$$!          ",
" !#####!  !       !$!           ",
"  !###!   !        !            ",
"   !#!    !            !        ",
"    !     !           !%!       ",
"          !          !%%%!      ",
"          !         !%%%%%!     ",
"          !        !%%%%%%%!    ",
"          !       !%%%%%%%!     ",
"          !      !%%%%%%%!      ",
"          !!!!!!!%%%%%%%!       ",
"               !%%%%%%%!        ",
"              !%%%%%%%!         ",
"               !%%%%%!          ",
"                !%%%!           ",
"                 !%!            ",
"                  !             ",
"                                ",
"                                ",
"                                "};