/* XPM */
static const char * ignored_xpm[] = {
"20 20 2 1",
" 	c None",
".	c #808080",
"       ......       ",
"     ..........     ",
"   ..............   ",
"  ................  ",
"  ................  ",
" .................. ",
" .................. ",
"....................",
"..                ..",
"..                ..",
"..                ..",
"...              ...",
"....................",
" .................. ",
" .................. ",
"  ................  ",
"  ................  ",
"   ..............   ",
"     ..........     ",
"       ......       "};
