/* XPM */
static const char * negligible_xpm[] = {
"20 20 68 1",
" 	c None",
".	c #1A8D27",
"+	c #0B8C1E",
"@	c #218E2B",
"#	c #178D25",
"$	c #008B19",
"%	c #1E8D29",
"&	c #018B1A",
"*	c #258E2E",
"=	c #028B1A",
"-	c #2F9238",
";	c #108C21",
">	c #208E2B",
",	c #ABC7AE",
"'	c #FBFCFA",
")	c #EBF0EB",
"!	c #48964E",
"~	c #ADC7B1",
"{	c #FEFFFF",
"]	c #FFFFFF",
"^	c #FFFFFD",
"/	c #A1C19F",
"(	c #268F30",
"_	c #A7C5A6",
":	c #C2D5C3",
"<	c #60A061",
"[	c #ADC9B3",
"}	c #FEFEFE",
"|	c #F1F5EF",
"1	c #48974D",
"2	c #0F8C20",
"3	c #84B081",
"4	c #EFF4EE",
"5	c #5EA062",
"6	c #AFCAB1",
"7	c #FFFFFE",
"8	c #EFF4ED",
"9	c #5F9F63",
"0	c #258E2F",
"a	c #7DAE7C",
"b	c #FEFFFE",
"c	c #EEF5EF",
"d	c #64A267",
"e	c #AFCBB3",
"f	c #5EA063",
"g	c #B3CDB5",
"h	c #EFF5F0",
"i	c #63A066",
"j	c #B0CDB4",
"k	c #FDFFFE",
"l	c #EEF4ED",
"m	c #61A065",
"n	c #B1CBB1",
"o	c #FDFFFF",
"p	c #F6F8F6",
"q	c #F0F5EE",
"r	c #5E9F63",
"s	c #B0CAB1",
"t	c #EEF4EE",
"u	c #5D9F60",
"v	c #B1C9B1",
"w	c #ECF3ED",
"x	c #ADC7AC",
"y	c #FCFDFC",
"z	c #E9F0E7",
"A	c #5C9E61",
"B	c #339038",
"C	c #178C24",
"       .+@@+.       ",
"     #$$$$$$$$#     ",
"   %&$$$$$$$$$$&%   ",
"  *$$$$$$$$$$$$$$*  ",
"  =$$$$$$$$$$$$-;=  ",
" >$$$$$$$$$$$$,')!> ",
" $$$$$$$$$$$$~{]^/$ ",
"($$_:<$$$$$$[}]]|1$(",
"2$3^]45$$$$6]]789$$2",
"0$ab]]cd$$e{]74f$$$0",
"0$$gb]]hijk]]lm$$$$0",
"2$$$no]]p}]7qr$$$$$2",
"($$$$sk]]]7tu$$$$$$(",
" $$$$$v}]7wm$$$$$$$ ",
" >$$$$$xyzA$$$$$$$> ",
"  =$$$$$BC$$$$$$$=  ",
"  *$$$$$$$$$$$$$$*  ",
"   %&$$$$$$$$$$&%   ",
"     #$$$$$$$$#     ",
"       .+@@+.       "};
