/* XPM */
static const char * outofdate_xpm[] = {
"20 20 2 1",
" 	c None",
".	c #FFA200",
"                    ",
"                    ",
"                    ",
"                    ",
"                    ",
"                    ",
"                    ",
"                    ",
"                    ",
"            .....   ",
"           .......  ",
"          ......... ",
"         ...... ....",
"         ...... ....",
"         ...... ....",
"         ....   ....",
"         ...........",
"          ......... ",
"           .......  ",
"            .....   "};
