/* XPM */
static const char * outofdate_xpm[] = {
"20 20 15 1",
" 	c None",
".	c #005DFF",
"+	c #005CFF",
"@	c #9176DC",
"#	c #9878D8",
"$	c #8770D7",
"%	c #005AF9",
"&	c #055DFF",
"*	c #8071E5",
"=	c #EE9A6B",
"-	c #FFA200",
";	c #E9965E",
">	c #FFA300",
",	c #8671DC",
"'	c #E4935D",
"      ......        ",
"    ..........      ",
"   ............     ",
"  ..............    ",
" .......  .......   ",
" .......  .......   ",
"........  ........  ",
"........  ........  ",
".....     ........  ",
".....     ..+@##$%  ",
"..........&*=----;  ",
"..........*>------- ",
" ........+=---  ----",
" ........@----  ----",
"  .......#----  ----",
"   ......#----  ----",
"    .....,----------",
"      ....'---  --- ",
"           -------- ",
"            -----   "};
