/* XPM */
static const char * progress_7_xpm[] = {
"64 64 77 1",
" 	c None",
".	c #A6A6A6",
"+	c #A5A5A5",
"@	c #A7A7A7",
"#	c #A4A4A4",
"$	c #C0C0C0",
"%	c #C1C1C1",
"&	c #C2C2C2",
"*	c #8B8B8B",
"=	c #8C8C8C",
"-	c #A8A8A8",
";	c #8D8D8D",
">	c #8E8E8E",
",	c #A9A9A9",
"'	c #909090",
")	c #DCDCDC",
"!	c #DDDDDD",
"~	c #8A8A8A",
"{	c #767676",
"]	c #727272",
"^	c #717171",
"/	c #737373",
"(	c #747474",
"_	c #6E6E6E",
":	c #919191",
"<	c #757575",
"[	c #DEDEDE",
"}	c #DBDBDB",
"|	c #575757",
"1	c #595959",
"2	c #565656",
"3	c #555555",
"4	c #5B5B5B",
"5	c #5A5A5A",
"6	c #5C5C5C",
"7	c #5E5E5E",
"8	c #535353",
"9	c #545454",
"0	c #484848",
"a	c #454545",
"b	c #474747",
"c	c #464646",
"d	c #444444",
"e	c #DADADA",
"f	c #414141",
"g	c #040404",
"h	c #2E2E2E",
"i	c #424242",
"j	c #4A4A4A",
"k	c #070707",
"l	c #010101",
"m	c #000000",
"n	c #323232",
"o	c #313131",
"p	c #060606",
"q	c #2F2F2F",
"r	c #434343",
"s	c #020202",
"t	c #242424",
"u	c #202020",
"v	c #1D1D1D",
"w	c #303030",
"x	c #1F1F1F",
"y	c #3C3C3C",
"z	c #2D2D2D",
"A	c #494949",
"B	c #030303",
"C	c #1A1A1A",
"D	c #080808",
"E	c #1E1E1E",
"F	c #333333",
"G	c #050505",
"H	c #1B1B1B",
"I	c #0D0D0D",
"J	c #2C2C2C",
"K	c #212121",
"L	c #232323",
"                              .+@                               ",
"                             .....                              ",
"                            @.....#                             ",
"                 $          @.....+                             ",
"               %%%&         ......@         ****=               ",
"              %%%%%%        @......        ******               ",
"              %%%%%%        @.....#       *******=              ",
"              %%%%%%%       ......+       ********              ",
"              %%%%%%%%      ......-      ;*******               ",
"              %%%%%%%&      .......      *******;               ",
"               %%%%%%%%     ......#     =******=                ",
"                %%%%%%%     .......    >*******=                ",
"                %%%%%%%%    ......,    =******=                 ",
"                 %%%%%%%%   .......   >*******'                 ",
"     ))!         %%%%%%%%   ......+   ******~*         {]]^     ",
"    !!!!!!        %%%%%%%$  ......@  ;******=        ]]///(_    ",
"   )!!!!!!!        %%%%%%%  @.....@  ~******;      (]//////]    ",
"   !!!!!!!!!)      %%%%%%$   +...@   =******      (////////]    ",
"   !!!!!!!!!!!!     &%%%%            >~*****    ^///////////    ",
"    )!!!!!!!!!!!!   &%%%&             ~***:   /(////////////    ",
"     !!!!!!!!!!!!!                           ////////////]<     ",
"      )[!!!!!!!!!!!                         ////////////^       ",
"        !!!!!!!!!!!                        ///////////<         ",
"          !!!!!!!!!!                       ]/////////           ",
"            }!!!!!)                         //////]]            ",
"             )!!!!}                         {///]^              ",
"               [}                             /<                ",
"                                                                ",
"   !))[[!}[!)}!                                 |1||22323222||  ",
" [)!!!!!!!!!!!!![                              4444544444444444 ",
" )!!!!!!!!!!!!!!!)                            444444444444444441",
"!!!!!!!!!!!!!!!!!!                            444444444444444446",
"}!!!!!!!!!!!!!!!!!                            644444444444444446",
" !!!!!!!!!!!!!!!!!                            444444444444444461",
"  !!!!!!!!!!!!!!!                              744444444444445| ",
"                                                 2      89 9    ",
"                                                                ",
"              !!!                             0ab               ",
"            )!!!!!                           cccccb             ",
"           )!!!!!!!                         acccccc0d           ",
"         )!!!!!!!!!                         cccccccccd          ",
"       e[!!!!!!!!![                         dcccccccccbb        ",
"     }!!!!!!!!!!!)                          fccccccccccccb      ",
"    [!!!!!!!!!!!)     g                 h    icacccccccccadj    ",
"   !!!!!!!!!!!![    klmlg             nnoon    dcccccccccccc    ",
"   !!!!!!!!!!)     plmmmlg           qooooon     0ccccccccccr   ",
"   !!!!!!!!)}      gmmmmms   tuuuv   woooooo      acbcccccccd   ",
"   !!!!!!!!       slmmmmml   xuuuux  ooooooon       accccccby   ",
"   }!!!!!         lmmmmmms  vuuuuuu  wnooooonz        bbccbA    ",
"     !)          Bmmmmmms   vuuuuuuC  ooooooon          dcj     ",
"                DsmmmmmlB   xuuuuuu   wwoooooon                 ",
"                gmmmmmmB    Euuuuuu    oooooooF                 ",
"               GlmmmmmlB    EuuuuuuH    Fooooooo                ",
"               smmmmmlg     vuuuuuuH    wooooooo                ",
"              pmmmmmmsI     vuuuuuu      ooooooow               ",
"              Bmmmmmlp      vuuuuuu      hoooooon               ",
"             smmmmmmg       vuuuuuuC      FooooooJ              ",
"             GlmmmmmD       vuuuuuuC      qooooooo              ",
"              plmmlk        vuuuuuuH       Fooooq               ",
"               Blmg         EuuuuuuC        qooJ                ",
"                            xuuuuuu                             ",
"                            uuuuuuK                             ",
"                             LuuuuE                             ",
"                              xuuH                              "};
