/* XPM */
static const char * progress_10_xpm[] = {
"64 64 78 1",
" 	c None",
".	c #DBDBDB",
"+	c #DDDDDD",
"@	c #DCDCDC",
"#	c #DEDEDE",
"$	c #040404",
"%	c #020202",
"&	c #050505",
"*	c #010101",
"=	c #000000",
"-	c #030303",
";	c #060606",
">	c #C0C0C0",
",	c #C1C1C1",
"'	c #090909",
")	c #080808",
"!	c #C2C2C2",
"~	c #0D0D0D",
"{	c #222222",
"]	c #202020",
"^	c #1D1D1D",
"/	c #1C1C1C",
"(	c #1E1E1E",
"_	c #A7A7A7",
":	c #A5A5A5",
"<	c #A6A6A6",
"[	c #1F1F1F",
"}	c #242424",
"|	c #212121",
"1	c #A8A8A8",
"2	c #A4A4A4",
"3	c #191919",
"4	c #1B1B1B",
"5	c #1A1A1A",
"6	c #303030",
"7	c #313131",
"8	c #2E2E2E",
"9	c #8F8F8F",
"0	c #8B8B8B",
"a	c #8A8A8A",
"b	c #8C8C8C",
"c	c #323232",
"d	c #333333",
"e	c #292929",
"f	c #8D8D8D",
"g	c #8E8E8E",
"h	c #2D2D2D",
"i	c #909090",
"j	c #343434",
"k	c #727272",
"l	c #737373",
"m	c #2F2F2F",
"n	c #414141",
"o	c #444444",
"p	c #464646",
"q	c #767676",
"r	c #434343",
"s	c #474747",
"t	c #454545",
"u	c #484848",
"v	c #5C5C5C",
"w	c #5B5B5B",
"x	c #5A5A5A",
"y	c #2C2C2C",
"z	c #5D5D5D",
"A	c #757575",
"B	c #747474",
"C	c #575757",
"D	c #545454",
"E	c #595959",
"F	c #717171",
"G	c #585858",
"H	c #565656",
"I	c #535353",
"J	c #494949",
"K	c #6F6F6F",
"L	c #3D3D3D",
"M	c #424242",
"                               .+                               ",
"                              +++@#                             ",
"                             +++++@                             ",
"               .++++         +++++++         ++@                ",
"               +++++#        ++++++@        @++++               ",
"              +++++++.       ++++++@       #+++++@              ",
"              .++++++@       +++++++      @+++++++              ",
"               +++++++.      ++++++#      +++++++#              ",
"               +++++++#      +++++++     ++++++++               ",
"                @++++++@     #+++++@     ++++++++               ",
"                ++++++++     ++++++@    +++++++@                ",
"                 @++++++@    +++++++    +++++++                 ",
"                 .+++++++@   ++++++.   .++++++@                 ",
"      $%          ++++++++   ++++++.  @+++++++                  ",
"     &*=-;         ++++++++  +++++++  ++++++++        >,,,,     ",
"    -*===*%;       #+++++++  ++++++  ++++++++        ,,,,,,,    ",
"    *======*-'      @++++++  +++++#  .++++++#      ,,,,,,,,,    ",
"    =========%-      @++++    +++@    ++++++     ,>,,,,,,,,,>   ",
"    $*=========*%     +++             .@+++     ,,,,,,,,,,,,    ",
"     ;===========$;                     +     >,,,,,,,,,,,,     ",
"      )$*=========*;                        !!,,,,,,,,,,,       ",
"        &%*========*                        ,,,,,,,,,,!>        ",
"         ~&*========-                       ,,,,,,,,,,          ",
"           --*=====*                        ,,,,,,,,,           ",
"             -%===*$                        ,>,,,,,             ",
"               %*%&                           >,>               ",
"                                                                ",
"                                                                ",
"  {]^/^^(^^^^^//                               _:<<<_<<<<<<<__  ",
" {]]]]]]]]]]]]]][}                            :<<<<<<<<<<<<<<<< ",
"[]]]]]]]]]]]]]]]]]                            <<<<<<<<<<<<<<<<<:",
"]]]]]]]]]]]]]]]]]]                            <<<<<<<<<<<<<<<<<:",
"|]]]]]]]]]]]]]]]]|                            _<<<<<<<<<<<<<<<<_",
"(]]]]]]]]]]]]]]]]/                            _:<<<<<<<<<<<<<<: ",
" [|]]]]]]]]]]]][]                               _:<1:2<1:2<_:2  ",
"    3454  44  3                                                 ",
"                                                                ",
"               6768                          90ab               ",
"             c7c77cd                        0a00009             ",
"           e77777777                        0000000fg           ",
"          6c777777778                       000000000b          ",
"        h67777777777                        00000000000b        ",
"      6c77777777777c                        i00000000000a0      ",
"     j777777777777c                     kl   000000000000ba     ",
"    m7777777777cd    nopo             qllll    b000000000000    ",
"    7777777777dh    rsppps            llllll     00000000000    ",
"    77777777dd      tpppppu   vwxw   klllllll     gf00000000    ",
"    y7777777       oppppppt  zwwwww  AllllllB       bb000000    ",
"     c777m         spppppps  wwwwwwC  kllllllk        f0000b    ",
"      7h          uppppppp  DwwwwwwE  Flllllll          0f      ",
"                 opppppppu   wwwwwwG   kllllllA                 ",
"                 ppppppps    wwwwwwG   klllllllk                ",
"                tpppppppt    wwwwwwH    llllllll                ",
"                pppppppo     wwwwwwC     lllllllk               ",
"               spppppps      wwwwwwC     Allllllk               ",
"               sppppppu      wwwwwwG      lllllllq              ",
"              oppppppp      IwwwwwwC      Fllllllk              ",
"              pppppppp      DwwwwwwC       FlllllF              ",
"              usppppo        wwwwwwC       qlllll               ",
"               Jsspsu       DwwwwwwC        llkFK               ",
"                LtM          wwwwwwC                            ",
"                             wwwwwwG                            ",
"                             Cwwwwx                             ",
"                              Ezww                              "};
