/* XPM */
static const char * progress_5_xpm[] = {
"64 64 77 1",
" 	c None",
".	c #737373",
"+	c #727272",
"@	c #717171",
"#	c #707070",
"$	c #757575",
"%	c #767676",
"&	c #8C8C8C",
"*	c #8A8A8A",
"=	c #8B8B8B",
"-	c #5A5A5A",
";	c #5D5D5D",
">	c #5B5B5B",
",	c #888888",
"'	c #8E8E8E",
")	c #565656",
"!	c #5C5C5C",
"~	c #575757",
"{	c #909090",
"]	c #585858",
"^	c #595959",
"/	c #8F8F8F",
"(	c #8D8D8D",
"_	c #747474",
":	c #3F3F3F",
"<	c #484848",
"[	c #474747",
"}	c #454545",
"|	c #444444",
"1	c #A5A5A5",
"2	c #A6A6A6",
"3	c #555555",
"4	c #464646",
"5	c #919191",
"6	c #424242",
"7	c #A7A7A7",
"8	c #434343",
"9	c #5E5E5E",
"0	c #A8A8A8",
"a	c #A9A9A9",
"b	c #A3A3A3",
"c	c #2F2F2F",
"d	c #323232",
"e	c #353535",
"f	c #333333",
"g	c #2E2E2E",
"h	c #C2C2C2",
"i	c #C1C1C1",
"j	c #C0C0C0",
"k	c #313131",
"l	c #303030",
"m	c #2D2D2D",
"n	c #1E1E1E",
"o	c #202020",
"p	c #DDDDDD",
"q	c #DEDEDE",
"r	c #1C1C1C",
"s	c #DCDCDC",
"t	c #1F1F1F",
"u	c #DBDBDB",
"v	c #242424",
"w	c #DADADA",
"x	c #1D1D1D",
"y	c #1B1B1B",
"z	c #060606",
"A	c #040404",
"B	c #050505",
"C	c #212121",
"D	c #090909",
"E	c #010101",
"F	c #000000",
"G	c #020202",
"H	c #030303",
"I	c #262626",
"J	c #0C0C0C",
"K	c #080808",
"L	c #070707",
"                              .+@#                              ",
"                             .....$                             ",
"                            %......                             ",
"                            +......                             ",
"               &*===        @......         -;>>                ",
"              ,====='       +......        ->>>>>               ",
"              &=====&       @......       )>>>>>!~              ",
"              *======{      @......       ->>>>>>>              ",
"              =======*      .......      ]->>>>>>!              ",
"               =======&     @......      >>>>>>>^               ",
"               ========     @......     ]>>>>>>>                ",
"                *=======    @.....+    )->>>>>>~                ",
"                /=======&   +......    ^>>>>>>>                 ",
"                 =======(   _.....+   ~->>>>>>)                 ",
"                 (=======&  ......+   ->>>>>>-        :<[}|     ",
"     1221         '======&  ......_  ]>>>>>>>3       444444|    ",
"    2222222        =======5  .....@  >>>>>>>^      6<444444[    ",
"    122222227      /=======   +.+_   !>>>>>>     6}[44444444    ",
"    2222222222      &=====           ]>>>>>~    }[4444444444    ",
"    122222222221    =*==*'            ^>>>-   8<444444444446    ",
"    12222222222222    ((                9   |[[4444444444[}     ",
"     17222222222221                         4444444444444       ",
"       1222222222221                        <444444444}         ",
"         02222222222                        [444444}<           ",
"          1122222222                        [44444}|            ",
"            a2222221                         }44||              ",
"              b22227                                            ",
"                7a                                              ",
"                                                  c  d eff g    ",
" hijhiiiijiiiiii                               klkkkdkkkkkdkkkl ",
"iiiiiiiiiiiiiiiii                             ckkkkkkkkkkkkkkkkg",
"iiiiiiiiiiiiiiiij                             kkkkkkkkkkkkkkkkkl",
"iiiiiiiiiiiiiiiii                             fkkkkkkkkkkkkkkkkm",
"iiiiiiiiiiiiiiiii                             dkkkkkkkkkkkkkkkkc",
"iiiiiiiiiiiiiiiih                              lkkkkkdkkkkkkkkl ",
" jjiiiihiiiiiihh                                lkccmmgkggdgff  ",
"                                                                ",
"                                             noo                ",
"              pqpp                          ooooon              ",
"             pppppp                        oooooooor            ",
"           pppppppps                       nooooooootr          ",
"         usppppppppp                       voooooooooon         ",
"        pppppppppppw                        oooooooooooox       ",
"      ppppppppppppp   qp                    ytoooooooooootn     ",
"    ppppppppppppsp   pppqs             zAB    noooooooooooCx    ",
"    ppppppppppps    pppppp           DEEFFG     nooooooooooo    ",
"   ppppppppppq     uppppppp          GFFFFFH     ytooooooooo    ",
"   ppppppppqp      ppppppps   pqs    EFFFFFE       xoooooooC    ",
"    spppppp       pppppppp  pppppp   HFFFFFFA        nooooo     ",
"    pppsp         ppppppps  pppppp   AFFFFFFFB         ooI      ",
"                 sppppppp   ppppppp   HFFFFFFB                  ",
"                 pppppppp   pppppps   AEFFFFFED                 ",
"                qppppppp    ppppppq    AFFFFFFH                 ",
"               sppppppp     pppppps     GFFFFFFz                ",
"               ppppppps     pppppps     zFFFFFFGJ               ",
"              pppppppp      spppppp      GFFFFFFB               ",
"              sppppppp      pppppps      BEFFFFFH               ",
"               pppppp       ppppppu       AFFFFFED              ",
"               ppppp        sppppps       KEFFFFF               ",
"                ups         pppppps        zFFFGG               ",
"                            ppppppq         AALz                ",
"                            ppppppq                             ",
"                            pppppps                             ",
"                            sppppp                              "};
