/* XPM */
static const char * progress_2_xpm[] = {
"64 64 71 1",
" 	c None",
".	c #2E2E2E",
"+	c #313131",
"@	c #2F2F2F",
"#	c #333333",
"$	c #444444",
"%	c #474747",
"&	c #464646",
"*	c #454545",
"=	c #414141",
"-	c #2D2D2D",
";	c #1C1C1C",
">	c #202020",
",	c #212121",
"'	c #323232",
")	c #1E1E1E",
"!	c #252525",
"~	c #1D1D1D",
"{	c #484848",
"]	c #404040",
"^	c #1B1B1B",
"/	c #1F1F1F",
"(	c #424242",
"_	c #434343",
":	c #595959",
"<	c #5A5A5A",
"[	c #5C5C5C",
"}	c #303030",
"|	c #090909",
"1	c #5B5B5B",
"2	c #050505",
"3	c #030303",
"4	c #010101",
"5	c #000000",
"6	c #585858",
"7	c #020202",
"8	c #565656",
"9	c #060606",
"0	c #040404",
"a	c #555555",
"b	c #232323",
"c	c #575757",
"d	c #070707",
"e	c #747474",
"f	c #737373",
"g	c #727272",
"h	c #DEDEDE",
"i	c #DBDBDB",
"j	c #DDDDDD",
"k	c #DCDCDC",
"l	c #707070",
"m	c #717171",
"n	c #757575",
"o	c #909090",
"p	c #8C8C8C",
"q	c #8B8B8B",
"r	c #8F8F8F",
"s	c #8D8D8D",
"t	c #8A8A8A",
"u	c #A5A5A5",
"v	c #A6A6A6",
"w	c #AAAAAA",
"x	c #A8A8A8",
"y	c #C1C1C1",
"z	c #C2C2C2",
"A	c #8E8E8E",
"B	c #A4A4A4",
"C	c #898989",
"D	c #A3A3A3",
"E	c #A7A7A7",
"F	c #C0C0C0",
"                              .+.@                              ",
"                             @++++@                             ",
"                             +++++++                            ",
"                             ++++++#                            ",
"               $%&*=        -++++++@        ;>,,                ",
"              $&&&&&$        ++++++'       )>>>>>               ",
"              *&&&&&%       '++++++.       >>>>>>!              ",
"              %&&&&&&%      '++++++@      ~>>>>>>>              ",
"              {&&&&&&&       ++++++'      >>>>>>>>              ",
"              ]&&&&&&&*      ++++++@     )>>>>>>>               ",
"               *&&&&&&&     +++++++-    ^>>>>>>>)               ",
"                {&&&&&&{     '+++++@    />>>>>>>                ",
"                (&&&&&&*_    ++++++@   ;>>>>>>>)                ",
"                 &&&&&&&*    ++++++@   >>>>>>>/                 ",
"      :<[        _&&&&&&&$   ++++++}  ~>>>>>>>^          |      ",
"     <111:        *&&&&&&%   @++++++  >>>>>>>)         23453    ",
"    11111116       %&&&&&&   +++++}  )>>>>>>>        27555572   ",
"    1111111118     _%&&&&&    @'#+   />>>>>>~      9055555559   ",
"    [111111111<a    %&&&&$           b,>>>>/     324555555559   ",
"    <11111111111:   $&{%%             )>>>/~    0555555555550   ",
"     :111111111111c                    ,~!    34555555555542    ",
"      8<<1111111111<                         7555555555540d     ",
"        c11111111111                        2555555555572       ",
"          6<11111111[                       05555555579         ",
"           a:<111111                        945555540           ",
"             c<1111:                         4555532            ",
"               61[[                          97400              ",
"                                                                ",
"                                                                ",
" efffffffffffgfeg                                 hijjkkkkkkhhk ",
"lfffffffffffffffff                              jjjjjjjjjjjjjjjj",
"mffffffffffffffffg                             kjjjjjjjjjjjjjjjj",
"gfffffffffffffffff                             hjjjjjjjjjjjjjjjj",
"fffffffffffffffffm                             hjjjjjjjjjjjjjjjj",
" ffffffffffffffff                               hjjjjjjjjjjjjjjj",
"  nmgggmfmgggefn                                jjjjjjjkjjjjjjjj",
"                                                                ",
"                op                           kjk                ",
"              ppqqqr                        kjjjjk              ",
"            psqqqqqq                        jjjjjjjk            ",
"           qqqqqqqqq                       jjjjjjjjjh           ",
"         qqqqqqqqqqqp                      hjjjjjjjjjjj         ",
"       rqqqqqqqqqqqt                        jjjjjjjjjjjjj       ",
"     sqqqqqqqqqqqqqt                         jjjjjjjjjjjjj      ",
"    pqqqqqqqqqqqqr    uvvuv             kji   ijjjjjjjjjjjj     ",
"    qqqqqqqqqqqs     uvvvvv            jjjjj    jjjjjjjjjjjk    ",
"    qqqqqqqqqqp     vvvvvvvw          jjjjjjj     kjjjjjjjjj    ",
"    tqqqqqqts       vvvvvvvx  yyyyz   jjjjjjk       jjjjjjji    ",
"    Aqqqqqq        Bvvvvvvv  yyyyyyz  hjjjjjjk       kjjjjj     ",
"     Cqtpo         vvvvvvvD  yyyyyyz  hjjjjjjj         jk       ",
"                  Evvvvvvv   yyyyyyy   jjjjjjjh                 ",
"                 vvvvvvvvx   yyyyyyy    jjjjjjjk                ",
"                 vvvvvvvu    yyyyyyy    jjjjjjjj                ",
"                Evvvvvvvu    yyyyyyy     jjjjjjjk               ",
"                vvvvvvvx     Fyyyyyy     kjjjjjjj               ",
"               uvvvvvvv      yyyyyyy      kjjjjjjj              ",
"               uvvvvvvu      yyyyyyy       jjjjjjj              ",
"               vvvvvvE       yyyyyyy       jjjjjjj              ",
"               uvvvvvu       yyyyyyy        jjjjjj              ",
"                vuvuv        yyyyyyy        jjjjkj              ",
"                             yyyyyyy          jj                ",
"                             yyyyyyF                            ",
"                             zyyyyyF                            ",
"                              yyyyy                             "};
