/* XPM */
static const char * progress_11_xpm[] = {
"64 64 79 1",
" 	c None",
".	c #DDDDDD",
"+	c #DCDCDC",
"@	c #060606",
"#	c #080808",
"$	c #040404",
"%	c #030303",
"&	c #DEDEDE",
"*	c #020202",
"=	c #010101",
"-	c #000000",
";	c #DBDBDB",
">	c #090909",
",	c #0D0D0D",
"'	c #070707",
")	c #050505",
"!	c #DFDFDF",
"~	c #252525",
"{	c #1F1F1F",
"]	c #232323",
"^	c #1E1E1E",
"/	c #202020",
"(	c #1A1A1A",
"_	c #1D1D1D",
":	c #1C1C1C",
"<	c #1B1B1B",
"[	c #222222",
"}	c #212121",
"|	c #303030",
"1	c #333333",
"2	c #323232",
"3	c #2F2F2F",
"4	c #2D2D2D",
"5	c #313131",
"6	c #C2C2C2",
"7	c #C1C1C1",
"8	c #C0C0C0",
"9	c #2E2E2E",
"0	c #343434",
"a	c #2C2C2C",
"b	c #353535",
"c	c #A8A8A8",
"d	c #A7A7A7",
"e	c #A6A6A6",
"f	c #A5A5A5",
"g	c #A4A4A4",
"h	c #444444",
"i	c #454545",
"j	c #474747",
"k	c #464646",
"l	c #484848",
"m	c #5F5F5F",
"n	c #8F8F8F",
"o	c #8E8E8E",
"p	c #434343",
"q	c #5B5B5B",
"r	c #5C5C5C",
"s	c #5A5A5A",
"t	c #8D8D8D",
"u	c #8B8B8B",
"v	c #575757",
"w	c #565656",
"x	c #424242",
"y	c #5E5E5E",
"z	c #747474",
"A	c #737373",
"B	c #727272",
"C	c #585858",
"D	c #717171",
"E	c #8C8C8C",
"F	c #555555",
"G	c #767676",
"H	c #8A8A8A",
"I	c #595959",
"J	c #757575",
"K	c #929292",
"L	c #888888",
"M	c #777777",
"N	c #6F6F6F",
"                              .....+                            ",
"                             +......                            ",
"                             .......                            ",
"                @#$%         &......                            ",
"               %*=--@        +......         ++;                ",
"               -----=>       .......        .....               ",
"              >*-----%       ;......       ......               ",
"               %-----=@      +......      ........              ",
"               $------$      ......+      ........              ",
"               ,*-----='     +......     +.......               ",
"                )------*     +......     .......+               ",
"                 %------$    !......    ........                ",
"                 >=-----=$   +.....&   +.......                 ",
"                  @------%   +......   &.......                 ",
"      ~{]^        )-------)   ......  +.......         .+.&     ",
"     /////^        %------$   .....+  +.......       .+....+    ",
"    ////////^       =-----=    +&.   +.......      ..........   ",
"    {/////////(     %-----=          .......;     &.........;   ",
"    ///////////_     *--=='           ......    +...........    ",
"    :////////////^    %@@             ;&...   .+............    ",
"     _/////////////(                    .!   .............      ",
"       ^///////////{                        ;...........        ",
"         ^//////////~                       .........++         ",
"          <^////////_                       +........           ",
"            _{//////                         ......             ",
"              ^///{[                          ..&+              ",
"                }}                                              ",
"                                                                ",
"  |1|2||3|45|12|                                667777787777788 ",
" |55555555255555|                              67777777777777777",
"955555555555555551                             77777777777777777",
"455555555555555550                             77777777777777777",
"955555555555555555                             87777777777777777",
"155555555555555553                             87777777777777777",
" 5555252|2225555|                               787777887776877 ",
"    a 2b1 2                                                     ",
"                                              cc                ",
"                                            deeefg              ",
"              hijki                         feeeeefc            ",
"            iikjkkkj                        eeeeeeedef          ",
"           lkkkkkkkj                        eeeeeeeeeec         ",
"         ijkkkkkkkkk                        feeeeeeeeeeef       ",
"       lkkkkkkkkkkkk                         eeeeeeeeeeeede     ",
"     hkkkkkkkkkkkjjh   m                no    deeeeeeeeeeedd    ",
"    pkkkkkkkkkkklk   qrqqs            tuuuu     eeeeeeeeeeee    ",
"    jkkkkkkkkkjk    vqqqqqw           uuuuuu      deeeeeeeef    ",
"    jkkkkkkkkxk     sqqqqqy   zzAB   tuuuuuuo      cfeeeeeee    ",
"    jkkkkkkjp      Cqqqqqqq  DAAAAA  nuuuuuuE        ceeeeee    ",
"    hjkkkjh       FqqqqqqqC  AAAAAAA  uuuuuuuo         ffeg     ",
"     iijkh        qqqqqqqs   AAAAAAB  tuuuuuuEn                 ",
"                 FqqqqqqsC   BAAAAAA   tuuuuuuu                 ",
"                 qqqqqqqs    AAAAAAG   Huuuuuuut                ",
"                wqqqqqqsF    AAAAAAA    uuuuuuuu                ",
"                qqqqqqqI     AAAAAAD     uuuuuuuH               ",
"               Cqqqqqqq      AAAAAAJ     EuuuuuuuE              ",
"              qqqqqqqsw      AAAAAAJ      Huuuuuuu              ",
"              sqqqqqqs       AAAAAAD      Kuuuuuuu              ",
"              vrqqqqqv       AAAAAAB       tuuuuuu              ",
"               rqqqqs        AAAAAAJ       EuuuuuL              ",
"                qqqs         AAAAAAD        HuuuE               ",
"                             AAAAAAA                            ",
"                             AAAAAAM                            ",
"                             AAAAAA                             ",
"                              NBAA                              "};
