/* XPM */
static const char * running_xpm[] = {
"20 20 70 1",
" 	c None",
".	c #8A8A8A",
"+	c #B1B1B1",
"@	c #A2A2A2",
"#	c #DBDBDB",
"$	c #F2F2F2",
"%	c #969696",
"&	c #DADADA",
"*	c #C4C4C4",
"=	c #B9B9B9",
"-	c #B5B5B5",
";	c #E4E4E4",
">	c #FFFFFF",
",	c #D8D8D8",
"'	c #979797",
")	c #F9F9F9",
"!	c #C1C1C1",
"~	c #8C8C8C",
"{	c #9B9B9B",
"]	c #A6A6A6",
"^	c #FEFEFE",
"/	c #999999",
"(	c #D5D5D5",
"_	c #EEEEEE",
":	c #DDDDDD",
"<	c #C9C9C9",
"[	c #DEDEDE",
"}	c #8E8E8E",
"|	c #A8A8A8",
"1	c #BFBFBF",
"2	c #FCFCFC",
"3	c #F8F8F8",
"4	c #CFCFCF",
"5	c #A9A9A9",
"6	c #A0A0A0",
"7	c #E0E0E0",
"8	c #E2E2E2",
"9	c #8B8B8B",
"0	c #AAAAAA",
"a	c #9F9F9F",
"b	c #D0D0D0",
"c	c #FDFDFD",
"d	c #9E9E9E",
"e	c #9D9D9D",
"f	c #FBFBFB",
"g	c #CBCBCB",
"h	c #ECECEC",
"i	c #EDEDED",
"j	c #929292",
"k	c #909090",
"l	c #AEAEAE",
"m	c #A4A4A4",
"n	c #A5A5A5",
"o	c #959595",
"p	c #D9D9D9",
"q	c #CECECE",
"r	c #D2D2D2",
"s	c #949494",
"t	c #F5F5F5",
"u	c #D1D1D1",
"v	c #D4D4D4",
"w	c #9C9C9C",
"x	c #919191",
"y	c #C2C2C2",
"z	c #C3C3C3",
"A	c #BDBDBD",
"B	c #AFAFAF",
"C	c #989898",
"D	c #B3B3B3",
"E	c #B2B2B2",
"       ......       ",
"     ....+@....     ",
"   ..#$%.&*..=-..   ",
"  ...;>,.&*.')!...  ",
"  ~{.]^^/+@.(_~...  ",
" .(>:{<[}...-].|;=. ",
" .12>3}.......4^$5. ",
"...6789.......<<}...",
".~50a...............",
".b>>cd........ef>>g.",
".-hi;j........k(&&l.",
"....mn........0n....",
"..op^f9.......3^p%..",
" .q>crs@....+@=t>u. ",
" .6vn~i^e**w>txkyw. ",
"  ...z>tk^^9i>b...  ",
"  ...7>A.>>.B>i...  ",
"   ..CD..22..E@..   ",
"     ....ll....     ",
"       ......       "};
