/* XPM */
static char * unacceptable_xpm[] = {
"20 20 89 1",
" 	c None",
".	c #FF1A1A",
"+	c #FF0B0B",
"@	c #FF2121",
"#	c #FF1717",
"$	c #FF0000",
"%	c #FF1E1E",
"&	c #FF0101",
"*	c #FF2525",
"=	c #FF0202",
"-	c #FE6B6B",
";	c #FDD5D2",
">	c #FEBCB9",
",	c #FF1E1C",
"'	c #FF2D2B",
")	c #FDC0BD",
"!	c #FCD4D0",
"~	c #FF6562",
"{	c #FF2020",
"]	c #FED9D8",
"^	c #FFFEFE",
"/	c #FFFFFE",
"(	c #FCD7D3",
"_	c #FF2223",
":	c #FF3230",
"<	c #FDDBD4",
"[	c #FEFFFD",
"}	c #FFFFFF",
"|	c #FDD5D0",
"1	c #FEC7C6",
"2	c #FDFFFF",
"3	c #FEFFFF",
"4	c #FCD4D3",
"5	c #FF2423",
"6	c #FF2F2D",
"7	c #FDDBD5",
"8	c #FEC3BD",
"9	c #FF2626",
"0	c #FF3131",
"a	c #FCDBDC",
"b	c #FCD6D3",
"c	c #FDDAD3",
"d	c #FFFEFD",
"e	c #FCD6D1",
"f	c #FE302E",
"g	c #FF0F0F",
"h	c #FF3132",
"i	c #FCD8D7",
"j	c #FEFEFE",
"k	c #FCD6D2",
"l	c #FF2827",
"m	c #FDDCDB",
"n	c #FFFFFD",
"o	c #FDD5D1",
"p	c #FF2424",
"q	c #FF312F",
"r	c #FEDCDA",
"s	c #FCD8D4",
"t	c #FF2A29",
"u	c #FF322F",
"v	c #FEDDD9",
"w	c #FCD8D6",
"x	c #FF2A28",
"y	c #FF3736",
"z	c #FDDDDA",
"A	c #FDD3D1",
"B	c #FBDAD9",
"C	c #FDD7D2",
"D	c #FF2926",
"E	c #FECAC8",
"F	c #FDD1CD",
"G	c #FF1D1C",
"H	c #FE2D2C",
"I	c #F9DAD3",
"J	c #FEFFFE",
"K	c #FCC3BD",
"L	c #FED8D7",
"M	c #FE1F1E",
"N	c #FF302E",
"O	c #FAD8D4",
"P	c #FCD5D4",
"Q	c #FF6768",
"R	c #FCD4D2",
"S	c #FDBCB9",
"T	c #FF211F",
"U	c #FF2B2C",
"V	c #FDBEBA",
"W	c #FCD2CC",
"X	c #FF6461",
"       .+@@+.       ",
"     #$$$$$$$$#     ",
"   %&$$$$$$$$$$&%   ",
"  *$$$$$$$$$$$$$$*  ",
"  =$-;>,$$$$')!~$=  ",
" {$$]^/(_$$:<[}|$${ ",
" $$$12}34567/}[8$$$ ",
"9$$$0a3}3bc[}def$$$9",
"g$$$$hi2}}}}jkl$$$$g",
"*$$$$$0m}}}nop$$$$$*",
"*$$$$$qr}}}nst$$$$$*",
"g$$$$uv[}}}}^wx$$$$g",
"9$$$yz/3^AB}}}CD$$$9",
" $$$E^}[FGHIJ}/K$$$ ",
" {$$L//!M$$NO3}P$${ ",
"  =$QRST$$$$UVWX$=  ",
"  *$$$$$$$$$$$$$$*  ",
"   %&$$$$$$$$$$&%   ",
"     #$$$$$$$$#     ",
"       .+@@+.       "};
