/* XPM */
static char const * bone_xpm[] = {
"16 16 228 2",
"  	c #F5F4F0",
". 	c #FFFFFB",
"+ 	c #FFFFFD",
"@ 	c #FCFFFD",
"# 	c #F8FCFB",
"$ 	c #1A201E",
"% 	c #050E0D",
"& 	c #1B2423",
"* 	c #161F1E",
"= 	c #111A19",
"- 	c #141A18",
"; 	c #1C2220",
"> 	c #F0F2EF",
", 	c #FEFFFD",
"' 	c #FFFEFA",
") 	c #FCFBF7",
"! 	c #F4F5F0",
"~ 	c #F2F4F1",
"{ 	c #F5FAF6",
"] 	c #161C1A",
"^ 	c #1D2321",
"/ 	c #D4DDDC",
"( 	c #CFD8D7",
"_ 	c #CDD6D5",
": 	c #D1DAD9",
"< 	c #D5DBDB",
"[ 	c #171D1B",
"} 	c #101413",
"| 	c #FBFBF9",
"1 	c #FBFCF7",
"2 	c #E9E9E7",
"3 	c #F8FAF9",
"4 	c #202423",
"5 	c #CFD5D5",
"6 	c #CED4D4",
"7 	c #E0E8EA",
"8 	c #CBD3D5",
"9 	c #D1D9DB",
"0 	c #D9E2E1",
"a 	c #CDD3D3",
"b 	c #D7DDDB",
"c 	c #DCE0DF",
"d 	c #161815",
"e 	c #F8FAF7",
"f 	c #F4F6F3",
"g 	c #FEFFFF",
"h 	c #121615",
"i 	c #D5D9DA",
"j 	c #E2E8E8",
"k 	c #D6DBDE",
"l 	c #D2DADC",
"m 	c #D3DBDD",
"n 	c #D8E0E2",
"o 	c #D7DCDF",
"p 	c #D3D9D9",
"q 	c #EBEFF0",
"r 	c #161A19",
"s 	c #EEF0EF",
"t 	c #F7F7F7",
"u 	c #101415",
"v 	c #DFE3E6",
"w 	c #14191C",
"x 	c #060B0F",
"y 	c #1B2024",
"z 	c #CBD0D4",
"A 	c #13181B",
"B 	c #24282B",
"C 	c #0F1314",
"D 	c #D1D2D4",
"E 	c #111312",
"F 	c #FFFFFF",
"G 	c #FDFDFD",
"H 	c #F5F5F5",
"I 	c #F0F0F2",
"J 	c #1B1C1E",
"K 	c #D2D3D7",
"L 	c #DBDFE2",
"M 	c #1C1F24",
"N 	c #D9DCE1",
"O 	c #DCDFE4",
"P 	c #E2E5EA",
"Q 	c #2D2E33",
"R 	c #E1E2E6",
"S 	c #E8E9EB",
"T 	c #1C1C1E",
"U 	c #F8F8F8",
"V 	c #F6F6F6",
"W 	c #FFFEFF",
"X 	c #1A1A1C",
"Y 	c #E0DFE4",
"Z 	c #D6D5DB",
"` 	c #D8D7DF",
" .	c #D7D7DF",
"..	c #16161E",
"+.	c #CCCDD2",
"@.	c #E2E1E7",
"#.	c #D2D1D6",
"$.	c #C9C9CB",
"%.	c #2A282B",
"&.	c #F5F3F4",
"*.	c #F6F4F5",
"=.	c #FDFBFC",
"-.	c #181619",
";.	c #1B191E",
">.	c #1C1920",
",.	c #DFDCE5",
"'.	c #D6D5DD",
").	c #D7D4DD",
"!.	c #E3E0E7",
"~.	c #D8D5DC",
"{.	c #161419",
"].	c #242225",
"^.	c #100E11",
"/.	c #E6E4E5",
"(.	c #FFFAFE",
"_.	c #1A1519",
":.	c #E2DDE3",
"<.	c #252026",
"[.	c #211C23",
"}.	c #0C0910",
"|.	c #0E0910",
"1.	c #201B22",
"2.	c #1C171E",
"3.	c #1F1A20",
"4.	c #D8D3D7",
"5.	c #1E191D",
"6.	c #FFFDFE",
"7.	c #EBE9EC",
"8.	c #232124",
"9.	c #C9C7CC",
"0.	c #131017",
"a.	c #FFFDFF",
"b.	c #FEFCFF",
"c.	c #0F0D12",
"d.	c #DFDDE0",
"e.	c #FBFFFD",
"f.	c #EBF1ED",
"g.	c #F3F9F5",
"h.	c #FCFFFF",
"i.	c #0B0F10",
"j.	c #E2E6E7",
"k.	c #1E1F23",
"l.	c #090A0E",
"m.	c #0B0C10",
"n.	c #16171B",
"o.	c #1B1F22",
"p.	c #DBDFE0",
"q.	c #111514",
"r.	c #DFE5E1",
"s.	c #F9FFFB",
"t.	c #EFFFF5",
"u.	c #E9F9EF",
"v.	c #F5FFFD",
"w.	c #F6FFFC",
"x.	c #0D1915",
"y.	c #D3DDDC",
"z.	c #0F1918",
"A.	c #F8FFFF",
"B.	c #F9FFFF",
"C.	c #ECF6F5",
"D.	c #131D1C",
"E.	c #DAE6E2",
"F.	c #121F18",
"G.	c #ECFCF2",
"H.	c #F5FFFB",
"I.	c #E4F5EB",
"J.	c #E2FDEE",
"K.	c #EEFFFA",
"L.	c #E9FFF6",
"M.	c #193026",
"N.	c #2D443A",
"O.	c #061B14",
"P.	c #D1E6DF",
"Q.	c #031612",
"R.	c #0C211A",
"S.	c #C9DED7",
"T.	c #0C2319",
"U.	c #2C4339",
"V.	c #173124",
"W.	c #EEFFFB",
"X.	c #D4F0E1",
"Y.	c #DDFFF0",
"Z.	c #DBFFEE",
"`.	c #0B2D1C",
" +	c #264838",
".+	c #29493A",
"++	c #042417",
"@+	c #00180E",
"#+	c #D0EEE4",
"$+	c #CCEAE0",
"%+	c #D0EEE2",
"&+	c #001104",
"*+	c #012112",
"=+	c #234535",
"-+	c #113624",
";+	c #0F3422",
">+	c #E7FFFA",
",+	c #DBFFF3",
"'+	c #23533B",
")+	c #17442D",
"!+	c #143F2B",
"~+	c #1D4634",
"{+	c #0E3725",
"]+	c #0B3122",
"^+	c #001809",
"/+	c #001B0C",
"(+	c #062C1D",
"_+	c #0D3626",
":+	c #194230",
"<+	c #0D3824",
"[+	c #25523B",
"}+	c #09361F",
"|+	c #CEFEE6",
"1+	c #194E34",
"2+	c #003016",
"3+	c #205239",
"4+	c #194B32",
"5+	c #0E3B27",
"6+	c #1A4733",
"7+	c #15402F",
"8+	c #194433",
"9+	c #1B4635",
"0+	c #0A3524",
"a+	c #0D3D27",
"b+	c #184832",
"c+	c #0D3F26",
"d+	c #184D33",
"e+	c #13482E",
"  . + @ # $ % & * = - ; > , ' ) ",
". ! ~ { ] ^ / ( _ : < [ } , | 1 ",
"2 , 3 4 5 6 7 8 9 0 a b c d e , ",
", f g h i j k l m n o p q r s > ",
"t g g u v w x y z A B C D E F G ",
"H F I J K L M N O P Q R S T U V ",
"W W W X Y Z `  ...+.@.#.$.%.&.W ",
"*.=.W -.;.>.,.'.).!.~.{.].^.W W ",
"W /.(._.:.<.[.}.|.1.2.3.4.5.=.6.",
"U F F 7.8.9.0.a.a.b.c.d.].V F > ",
"e.f.g.h.i.j.k.l.m.n.o.p.q.e.r.s.",
"t.u.v.w.x.y.z.A.B.C.D.E.F.G.H.I.",
"J.K.L.M.N.O.P.O.Q.R.S.T.U.V.W.X.",
"Y.Z.`. +.+++@+#+$+%+&+*+=+-+;+>+",
",+'+)+!+~+{+]+^+/+(+_+:+<+[+}+|+",
"1+2+3+4+5+6+7+8+9+0+6+a+b+c+d+e+"};
