/* XPM */
static const char * overlay_xpm[] = {
"16 16 56 1",
" 	c None",
".	c #B6B6B6",
"+	c #5F5F5F",
"@	c #646464",
"#	c #656565",
"$	c #636363",
"%	c #3F3F3F",
"&	c #979797",
"*	c #B9B9B9",
"=	c #C1C1C1",
"-	c #C2C2C2",
";	c #BEBEBE",
">	c #7A7A7A",
",	c #F9F9F9",
"'	c #F4F4F4",
")	c #929292",
"!	c #C5C5C5",
"~	c #C7C7C7",
"{	c #C4C4C4",
"]	c #7C7C7C",
"^	c #717171",
"/	c #616161",
"(	c #3A3A3A",
"_	c #545454",
":	c #565656",
"<	c #575757",
"[	c #585858",
"}	c #7D7D7D",
"|	c #949494",
"1	c #FFFFFF",
"2	c #B2B2B2",
"3	c #848484",
"4	c #8C8C8C",
"5	c #A0A0A0",
"6	c #808080",
"7	c #FAFAFA",
"8	c #9D9D9D",
"9	c #737373",
"0	c #9E9E9E",
"a	c #888888",
"b	c #9C9C9C",
"c	c #D6D6D6",
"d	c #DBDBDB",
"e	c #D8D8D8",
"f	c #8B8B8B",
"g	c #FBFBFB",
"h	c #5C5C5C",
"i	c #5E5E5E",
"j	c #6B6B6B",
"k	c #272727",
"l	c #606060",
"m	c #FEFEFE",
"n	c #FCFCFC",
"o	c #F1F1F1",
"p	c #414141",
"q	c #7F7F7F",
"     .+@######$%",
"     &*=------;>",
",,,,')*=--!~~~{]",
"^@$$/(_:<[&!~~{}",
"|111123445<-~~{}",
"6,11789>>4<-~~{}",
"6,11789>>4<-~~{}",
"6,11789>>4<-~~{}",
"6,11789>>4<-~~{}",
"6,11789>>4<-~~{}",
"6,11789>>4<-~~{}",
"6,11706aab+cddef",
"6,11g{hiijki//li",
"6,11m11111#n    ",
"]o,,,,,,,1@,    ",
"p]q666666|^,    "};
