/* XPM */
static char const * post_effect_sel_xpm[] = {
"16 16 81 1",
" 	c None",
".	c #124E3B",
"+	c #0B6B3B",
"@	c #037838",
"#	c #036337",
"$	c #095939",
"%	c #0F4138",
"&	c #005F36",
"*	c #00FF36",
"=	c #00FE36",
"-	c #00CF36",
";	c #00D236",
">	c #00D736",
",	c #005436",
"'	c #00F836",
")	c #00D036",
"!	c #00D136",
"~	c #00C736",
"{	c #010404",
"]	c #115A3D",
"^	c #00D336",
"/	c #001A1A",
"(	c #09693A",
"_	c #004B36",
":	c #037337",
"<	c #006436",
"[	c #027437",
"}	c #00C336",
"|	c #009436",
"1	c #009336",
"2	c #009736",
"3	c #00D636",
"4	c #006736",
"5	c #076C39",
"6	c #00F736",
"7	c #000707",
"8	c #000000",
"9	c #005636",
"0	c #002C2C",
"a	c #002020",
"b	c #004C36",
"c	c #000808",
"d	c #009E36",
"e	c #005336",
"f	c #0F5E3C",
"g	c #004936",
"h	c #001E1E",
"i	c #002222",
"j	c #008D36",
"k	c #003D36",
"l	c #001212",
"m	c #003434",
"n	c #000909",
"o	c #00A636",
"p	c #002727",
"q	c #124038",
"r	c #00D436",
"s	c #000303",
"t	c #00C636",
"u	c #006836",
"v	c #00C136",
"w	c #007A36",
"x	c #002525",
"y	c #047638",
"z	c #00D536",
"A	c #00BB36",
"B	c #042D2D",
"C	c #00F236",
"D	c #009D36",
"E	c #007B36",
"F	c #00AB36",
"G	c #00D836",
"H	c #063836",
"I	c #095339",
"J	c #00E936",
"K	c #00DC36",
"L	c #00BE36",
"M	c #063E36",
"N	c #064737",
"O	c #06953A",
"P	c #057B38",
"     .+@#$%     ",
"   &***=-;>;,   ",
"  '****=)!!!!~{ ",
" ]*****=)!!!!^/ ",
" (*****=)!!!!;_ ",
" :*****=)!!!!;< ",
" [*****=)}|1234 ",
" 56789==)0abcde ",
" f*ghij*)klmnop ",
" q*****=)r))!-s ",
"  *****tu!!!!v  ",
"  &****wx!!!ry  ",
"   *****>z!!A8  ",
"   B**CDEF;GH   ",
"    IJ**K>LM    ",
"      NOPM      "};
