/* XPM */
static const char * print_screen_xpm[] = {
"64 64 209 2",
"  	c None",
". 	c #959595",
"+ 	c #8A8A8A",
"@ 	c #898989",
"# 	c #8D8D8D",
"$ 	c #888888",
"% 	c #878787",
"& 	c #E5E5E5",
"* 	c #DCDCDC",
"= 	c #DDDDDD",
"- 	c #E7E7E7",
"; 	c #E8E8E8",
"> 	c #E4E4E4",
", 	c #E9E9E9",
"' 	c #E6E6E6",
") 	c #E3E3E3",
"! 	c #E2E2E2",
"~ 	c #D5D5D5",
"{ 	c #ECECEC",
"] 	c #F0F0F0",
"^ 	c #F3F3F3",
"/ 	c #F2F2F2",
"( 	c #EBEBEB",
"_ 	c #DFDFDF",
": 	c #A2A2A2",
"< 	c #EFEFEF",
"[ 	c #E1E1E1",
"} 	c #B9B9B9",
"| 	c #EEEEEE",
"1 	c #A7A7A7",
"2 	c #CFCFCF",
"3 	c #BDBDBD",
"4 	c #B8B8B8",
"5 	c #BFBFBF",
"6 	c #D1D1D1",
"7 	c #F1F1F1",
"8 	c #E0E0E0",
"9 	c #7A7A7A",
"0 	c #4A4A4A",
"a 	c #4B4B4B",
"b 	c #4C4C4C",
"c 	c #4D4D4D",
"d 	c #4E4E4E",
"e 	c #838383",
"f 	c #C1C1C1",
"g 	c #DEDEDE",
"h 	c #A3A3A3",
"i 	c #B6B6B6",
"j 	c #595959",
"k 	c #505050",
"l 	c #525252",
"m 	c #535353",
"n 	c #545454",
"o 	c #515151",
"p 	c #4F4F4F",
"q 	c #656565",
"r 	c #D6D6D6",
"s 	c #7C7C7C",
"t 	c #555555",
"u 	c #565656",
"v 	c #575757",
"w 	c #D9D9D9",
"x 	c #606060",
"y 	c #717171",
"z 	c #5E5E5E",
"A 	c #575758",
"B 	c #5A6474",
"C 	c #5D7393",
"D 	c #5D718E",
"E 	c #595F69",
"F 	c #707070",
"G 	c #D4D4D4",
"H 	c #727272",
"I 	c #56657C",
"J 	c #6490C9",
"K 	c #6DA9F1",
"L 	c #70B1FF",
"M 	c #70B1FE",
"N 	c #6BA4EA",
"O 	c #5D85BA",
"P 	c #555C68",
"Q 	c #D8D8D8",
"R 	c #575859",
"S 	c #527FBE",
"T 	c #6BACFC",
"U 	c #61A3F4",
"V 	c #4F6FA1",
"W 	c #BBBBBB",
"X 	c #C8C8C8",
"Y 	c #57585B",
"Z 	c #4885D6",
"` 	c #6AADFF",
" .	c #5BA4FE",
"..	c #4C76B5",
"+.	c #616161",
"@.	c #D0D0D0",
"#.	c #CECECE",
"$.	c #487EC8",
"%.	c #5BA5FF",
"&.	c #6FB1FF",
"*.	c #479AFE",
"=.	c #C9C9C9",
"-.	c #D3D3D3",
";.	c #EDEDED",
">.	c #585858",
",.	c #516891",
"'.	c #3D95FE",
").	c #6DAFFF",
"!.	c #5DA6FF",
"~.	c #3E91F5",
"{.	c #777777",
"].	c #C4C4C4",
"^.	c #4386DD",
"/.	c #4A9CFF",
"(.	c #69ADFF",
"_.	c #3B95FF",
":.	c #4B78BB",
"<.	c #C7C7C7",
"[.	c #D7D7D7",
"}.	c #B4B4B4",
"|.	c #555E6E",
"1.	c #3B94FD",
"2.	c #519FFF",
"3.	c #6FB0FF",
"4.	c #408CEA",
"5.	c #C5C5C5",
"6.	c #CCCCCC",
"7.	c #9B9B9B",
"8.	c #4F6FA2",
"9.	c #4F9EFF",
"0.	c #3B95FE",
"a.	c #555D69",
"b.	c #B3B3B3",
"c.	c #CACACA",
"d.	c #919191",
"e.	c #4298FF",
"f.	c #64AAFF",
"g.	c #52688E",
"h.	c #A5A5A5",
"i.	c #909090",
"j.	c #4B79BE",
"k.	c #66ABFF",
"l.	c #54A0FF",
"m.	c #516993",
"n.	c #DADADA",
"o.	c #969696",
"p.	c #4E72A9",
"q.	c #4C9DFF",
"r.	c #3D96FF",
"s.	c #546074",
"t.	c #ADADAD",
"u.	c #DBDBDB",
"v.	c #AAAAAA",
"w.	c #53627E",
"x.	c #59A4FF",
"y.	c #489AFF",
"z.	c #3E8FF2",
"A.	c #BEBEBE",
"B.	c #408CE9",
"C.	c #56A2FF",
"D.	c #6EB0FF",
"E.	c #479AFF",
"F.	c #487EC9",
"G.	c #C6C5C5",
"H.	c #4E71A9",
"I.	c #59A3FF",
"J.	c #6CAFFF",
"K.	c #62A9FF",
"L.	c #529FFF",
"M.	c #3C96FF",
"N.	c #3C94FC",
"O.	c #53627C",
"P.	c #626262",
"Q.	c #CDCDCD",
"R.	c #D9DADA",
"S.	c #4388DF",
"T.	c #4A7ABE",
"U.	c #555E6F",
"V.	c #408DEC",
"W.	c #4584D6",
"X.	c #4387DF",
"Y.	c #BCBCBC",
"Z.	c #516890",
"`.	c #686868",
" +	c #C0C0C0",
".+	c #53627D",
"++	c #4E72AA",
"@+	c #C9C8C8",
"#+	c #D5D6D6",
"$+	c #E0E0DF",
"%+	c #B2B2B2",
"&+	c #CBCBCB",
"*+	c #DCDCDD",
"=+	c #DCDDDD",
"-+	c #7E7E7E",
";+	c #8B8B8B",
">+	c #D2D2D2",
",+	c #9E9E9E",
"'+	c #858585",
")+	c #757575",
"!+	c #767676",
"~+	c #A1A1A1",
"{+	c #BABABA",
"]+	c #C6C6C6",
"^+	c #BBBBBC",
"/+	c #E0E0E1",
"(+	c #C3C3C3",
"_+	c #E1E0E0",
":+	c #E1E1E0",
"                                                                                                                                ",
"                                                                                                                                ",
"                                                                                                                                ",
"                                                                                                                                ",
"                                                                                                                                ",
"                                                                                                                                ",
"                . . . . . . .                                                                                                   ",
"              + @ @ @ @ @ @ @ @ #                                                                                               ",
"            $ @ @ @ @ @ @ @ @ @ @                                                                                               ",
"            % @ @ @ @ @ @ @ @ @ @                                                                                               ",
"          & * = = = = = = = = = = * & - - - - - - - - - - - - - - - - - - - - - - - - - - - - - - - - - - - - - - - ;           ",
"        & > > > > > > > > > > > > > > > > > > > > > > > > > > > > > > > > > > > > > > > > > > > > > > > > > > > > > > &         ",
"      > > > > > > > > > > > > > > > > > > > > > > > > > > > > > > > > > > > > > > > > > > > > > > > > > > > > > > > > > >       ",
"      > > > > > > > > > > > > > > > > > > > > > > > > > > - ; , , ; ' ) ! ) > > > > > > > > > > > > > > > > ~ ~ > > > > >       ",
"      > > > > > > > > > > > > > > > > > > > > > > ' { ] ^ / / / / / / ^ ] ( > ! ) > > > > > > > > > > > _ : @ @ : _ > > >       ",
"      > > > > > > > > > > > > > > > > > > > > ; < / / / / / / / / / / / / / / < & [ ) > > > > > > > > > } @ @ @ @ } > > >       ",
"      > > > > > > > > > > > > > > > > > > ' < / / / / / / / / / / / / / / / / / / | [ [ ) > > > > > > > 1 @ @ @ @ 1 > > >       ",
"      > > > > > > > > > > > > > > > > > , / / / / / / / & 2 3 4 } 5 6 ; / / / / / / 7 & 8 ) > > > > > > } @ @ @ @ } > > >       ",
"      > > > > > > > > > > > > > > > > ( / / / / / , } 9 0 a b c c c b d e f { / / / / / - g ) > > > > > _ h @ @ h _ > > >       ",
"      > > > > > > > > > > > > > > > ( / / / / < i j a d k l m m n n m l o p q f 7 / / / / ' g ) > > > > > > r r > > > > >       ",
"      > > > > > > > > > > > > > > , / / / / [ s a d l n t u v v v v v u u n m k # - / / / / ! g ) > > > > > > > > > > > >       ",
"      > > > > > > > > > > > > > & / / / / w x b o n u v v v v v v v v v v v u t l y ! / / / 7 w 8 ) > > > > > > > > > > >       ",
"      > > > > > > > > > > > > ) < / / / g z c l t v v v v A B C D E v v v v v v u m F ' / / / , G [ > > > > > > > > > > >       ",
"      > > > > > > > > > > > > ; / / / { H c l t v v v I J K L L L M N O P v v v v u n @ ] / / / ~ Q ) > > > > > > > > > >       ",
"      > > > > > > > > > > > ) ] / / / 1 b l t v v R S T L L L L L L L L U V v v v v u m W / / / ( X * > > > > > > > > > >       ",
"      > > > > > > > > > > > ' / / / _ c k t v v Y Z ` L L L L L L L L L L  ...v v v v u +., / / / @.#._ > > > > > > > > >       ",
"      > > > > > > > > > > ) ( / / / h c m u v v $.%.L L L L L L L L L L L &.*.V v v v v t 4 / / / 8 =.-.8 > > > > > > > >       ",
"      > > > > > > > > > > ! ] / / ;.>.k t v v ,.'.).L L L L L L L L L L L L !.~.P v v v u {./ / / ;.].@.r [ > > > > > > >       ",
"      > > > > > > > > > > > / / / @.b m u v v ^./.L L L L L L L L L L L L L (._.:.v v v v n 8 / / / <.#.~ [.[ > > > > > >       ",
"      > > > > > > > > > > ' / / / }.d n v v |.1.2.L L L L L L L L L L L L L 3._.4.v v v v u 5./ / / 2 6.G r [.[ > > > > >       ",
"      > > > > > > > > > > ; / / / 7.k t v v 8._.9.L L L L L L L L L L L L L )._.0.a.v v v u b./ / / ~ c.G [.[.Q [ > > > >       ",
"      > > > > > > > > > ) ; / / / d.o u v v :._.e.L L L L L L L L L L L L L f._._.g.v v v v h./ / / Q X G [.[.[.w ! > > >       ",
"      > > > > > > > > > ) ; / / / i.l u v v j._._.k.L L L L L L L L L L L L l._._.m.v v v v h / / / Q <.G [.[.Q Q n.! > >       ",
"      > > > > > > > > > ) - / / / o.l u v v p._._.q.L L L L L L L L L L L ` r._._.s.v v v v t./ / / ~ <.-.[.Q Q w w u.! >       ",
"      > > > > > > > > > ) & / / / v.o u v v w._._._.x.L L L L L L L L L ).y._._.z.A v v v v A./ / / 2 X G Q Q w w n.u.= )       ",
"      > > > > > > > > > ) ! / / / 5.o u v v v B._._._.C.D.L L L L L L (.E._._._.F.v v v v v r / / / G.c.~ Q w w n.u.* * g       ",
"      > > > > > > > > > > _ 7 / / & o t v v v H._._._._.e.I.k.D.J.K.L.M._._._.N.O.v v v v P.| / / < 3 Q.r w R.n.u.* * = g       ",
"      > > > > > > > > > > 8 ( / / / @ n v v v A S._._._._._._._._._._._._._._.T.v v v v v h / / / ! 5 2 Q w n.u.* * = g g       ",
"      > > > > > > > > > > ! ) / / / 6.l u v v v U.V._._._._._._._._._._._._.W.R v v v v v u./ / / 2 ].-.w n.u.* * = g g _       ",
"      > > > > > > > > > > ) = ] / / 7 e n v v v v U.X._._._._._._._._._.0.$.Y v v v v v 7./ / / | Y.c.r n.u.* * = g g _ 8       ",
"      > > > > > > > > > > > _ & / / / * >.u v v v v A H.B._._._._._.1.^.Z.v v v v v v `.' / / / ~  +@.w u.* * = g g _ 8 8       ",
"      > > > > > > > > > > > ! u.< / / /  +n u v v v v v v .+++j.:.8.|.v v v v v v v j 2 / / / { Y.@+#+u.* * = g g _ $+8 8       ",
"      > > > > > > > > > > > > _ _ / / / / %+n v v v v v v v v v v v v v v v v v v >.]./ / / / &+f 6 w * *+= g g _ 8 8 8 [       ",
"      > > > > > > > > > > > > ! u.& / / / / A.>.u v v v v v v v v v v v v v v v +.6./ / / / n.Y.&+[.u.=+= g g _ 8 8 8 [ [       ",
"      > > > > > > > > > > > > > [ Q , / / / / w -+u v v v v v v v v v v v v v ;+[ / / / / ! W <.G u.* = g g _ 8 8 8 [ [ [       ",
"      > > > > > > > > > > > > > ) _ r ; / / / / ] 5.-+u v v v v v v v v v @ Q./ / / / / ) W ].>+n.* = g g _ 8 8 8 [ [ [ [       ",
"      > > > > > > > > > > > > > > ) g G ! / / / / / / = Y.,+'+)+!+@ ~+ +! / / / / / / * {+].6 w * = g g _ 8 8 8 [ [ [ [ [       ",
"      > > > > > > > > > > > > > > > ) g G ~ | / / / / / / / / ^ ^ / / / / / / / / | 6.{+]+6 w * = g g _ 8 8 8 [ [ [ [ [ [       ",
"      > > > > > > > > > > > > > > > > ) _ [.<.n.] / / / / / / / / / / / / / / < Q Y.A.=.-.w * = g g _ 8 8 8 [ [ [ [ [ [ [       ",
"      > > > > > > > > > > > > > > > > > ) [ u.=. +-.' 7 / / / / / / / / 7 ' >+W Y.5.#.r n.* = g g _ 8 8 8 [ [ [ [ [ [ [ [       ",
"      > > > > > > > > > > > > > > > > > > > ! _ 6 ].A.A.c.-.w * * w -.X ^+} 5 5.Q.-.Q u.= = g g _ 8 8 /+[ [ [ [ [ [ [ [ [       ",
"      > > > > > > > > > > > > > > > > > > > > > ! [.Q.=.]+(+ +5 A.5  +(+]+c.2 G Q n.* = = g g _ 8 8 8 [ [ [ [ [ [ [ [ [ [       ",
"      [.> > > > > > > > > > > > > > > > > > > > > > u.-.>+6 2 2 2 2 @.>+G r Q n.u.* = = g g _ 8 8 _+[ [ [ [ [ [ [ [ [ [ [.      ",
"        >+) > > > > > > > > > > > > > > > > > > > > > * r r r r r [.[.Q w n.n.u.* = = g g _ 8 8 :+[ [ [ [ [ [ [ [ [ [ >+        ",
"                                                                                                                                ",
"                                                                                                                                ",
"                                                                                                                                ",
"                                                                                                                                ",
"                                                                                                                                ",
"                                                                                                                                ",
"                                                                                                                                ",
"                                                                                                                                ",
"                                                                                                                                ",
"                                                                                                                                "};
